<?xml version="1.0" encoding="utf-8"?>
<!-- Generator: Adobe Illustrator 18.1.0, SVG Export Plug-In . SVG Version: 6.00 Build 0)  -->
<svg version="1.1" id="main" xmlns="http://www.w3.org/2000/svg" xmlns:xlink="http://www.w3.org/1999/xlink" x="0px" y="0px"
	 width="787.5px" height="307.25px" viewBox="0 0 787.5 307.25" style="enable-background:new 0 0 787.5 307.25;"
	 xml:space="preserve">
<style type="text/css">
	.st0{fill:#404040;}
	.st1{fill:none;stroke:#000000;stroke-width:2;stroke-miterlimit:10;}
	.st2{opacity:0.6;fill:none;stroke:#000000;stroke-width:4;stroke-linecap:round;stroke-miterlimit:10;}
	.st3{fill:none;stroke:#54B734;stroke-width:4;stroke-linecap:round;stroke-miterlimit:10;}
	.st4{fill:none;stroke:#BF42F4;stroke-width:4;stroke-linecap:round;stroke-miterlimit:10;}
	.st5{fill:none;stroke:#64D0FF;stroke-width:4;stroke-linecap:round;stroke-miterlimit:10;}
	.st6{opacity:0.4;fill:none;stroke:#000000;stroke-width:1.7;stroke-linecap:round;stroke-miterlimit:10;}
	.st7{fill:none;stroke:#000000;stroke-width:2;stroke-linecap:round;stroke-miterlimit:10;}
	.st8{fill:#1C426B;}
	.st9{fill:#E07B58;}
	.st10{fill:none;stroke:#E07B58;stroke-width:4;stroke-linejoin:round;stroke-miterlimit:10;}
	.st11{opacity:0.6;fill:none;stroke:#000000;stroke-width:3;stroke-linecap:round;stroke-miterlimit:10;}
	.st12{fill:none;stroke:#54B734;stroke-width:3;stroke-linecap:round;stroke-miterlimit:10;}
	.st13{fill:none;stroke:#64D0FF;stroke-width:3;stroke-linecap:round;stroke-miterlimit:10;}
	.st14{fill:none;stroke:#BF42F4;stroke-width:3;stroke-linecap:round;stroke-miterlimit:10;}
	.st15{opacity:0.4;fill:none;stroke:#000000;stroke-linecap:round;stroke-miterlimit:10;}
	.st16{fill:none;stroke:#DDDDDD;stroke-width:6;stroke-linecap:round;stroke-miterlimit:10;}
	.st17{fill:none;stroke:#E07B58;stroke-width:6;stroke-linecap:round;stroke-miterlimit:10;}
	.st18{fill:none;stroke:#6341B7;stroke-width:6;stroke-linecap:round;stroke-miterlimit:10;}
	.st19{fill:none;stroke:#6341B7;stroke-width:6;stroke-linecap:round;stroke-miterlimit:10;stroke-dasharray:10.6923,10.6923;}
	.st20{fill:#6341B7;}
	.st21{fill:none;stroke:#6341B7;stroke-width:4;stroke-linejoin:round;stroke-miterlimit:10;}
</style>
<g>
	<polyline class="st0" points="664.87,140.84 664.87,160.84 764.87,160.84 764.87,140.84 664.87,140.84 684.94,112.17 
		744.79,112.17 764.87,140.84 	"/>
	<g>
		<line class="st1" x1="664.87" y1="140.84" x2="764.87" y2="140.84"/>
		<line class="st1" x1="764.87" y1="140.84" x2="764.87" y2="160.84"/>
		<line class="st1" x1="664.87" y1="140.84" x2="664.87" y2="160.84"/>
		<line class="st1" x1="664.87" y1="160.84" x2="764.87" y2="160.84"/>
		<line class="st1" x1="664.87" y1="140.84" x2="684.94" y2="112.17"/>
		<line class="st1" x1="764.87" y1="140.84" x2="744.79" y2="112.17"/>
		<line class="st1" x1="684.94" y1="112.17" x2="744.79" y2="112.17"/>
	</g>
	<line class="st2" x1="679.09" y1="150.79" x2="709.25" y2="150.79"/>
	<line class="st3" x1="671.5" y1="150.79" x2="671.5" y2="150.79"/>
	<line class="st4" x1="755.37" y1="150.79" x2="757.26" y2="150.79"/>
	<line class="st5" x1="746.37" y1="150.79" x2="748.26" y2="150.79"/>
	<line class="st6" x1="731.83" y1="124.45" x2="749.4" y2="124.45"/>
	<line class="st6" x1="730.76" y1="121.45" x2="747.4" y2="121.45"/>
	<line class="st6" x1="729.69" y1="118.45" x2="745.4" y2="118.45"/>
	<line class="st6" x1="728.62" y1="115.45" x2="743.4" y2="115.45"/>
	<path class="st7" d="M729.43,111.01"/>
	<path class="st7" d="M731.83,124.45"/>
</g>
<g>
	<polyline class="st0" points="664.87,113.84 664.87,133.84 764.87,133.84 764.87,113.84 664.87,113.84 684.94,85.17 744.79,85.17 
		764.87,113.84 	"/>
	<g>
		<line class="st1" x1="664.87" y1="113.84" x2="764.87" y2="113.84"/>
		<line class="st1" x1="764.87" y1="113.84" x2="764.87" y2="133.84"/>
		<line class="st1" x1="664.87" y1="113.84" x2="664.87" y2="133.84"/>
		<line class="st1" x1="664.87" y1="133.84" x2="764.87" y2="133.84"/>
		<line class="st1" x1="664.87" y1="113.84" x2="684.94" y2="85.17"/>
		<line class="st1" x1="764.87" y1="113.84" x2="744.79" y2="85.17"/>
		<line class="st1" x1="684.94" y1="85.17" x2="744.79" y2="85.17"/>
	</g>
	<line class="st2" x1="679.09" y1="123.79" x2="709.25" y2="123.79"/>
	<line class="st3" x1="671.5" y1="123.79" x2="671.5" y2="123.79"/>
	<line class="st4" x1="755.37" y1="123.79" x2="757.26" y2="123.79"/>
	<line class="st5" x1="746.37" y1="123.79" x2="748.26" y2="123.79"/>
	<line class="st6" x1="731.83" y1="97.45" x2="749.4" y2="97.45"/>
	<line class="st6" x1="730.76" y1="94.45" x2="747.4" y2="94.45"/>
	<line class="st6" x1="729.69" y1="91.45" x2="745.4" y2="91.45"/>
	<line class="st6" x1="728.62" y1="88.45" x2="743.4" y2="88.45"/>
	<path class="st7" d="M729.43,84.01"/>
	<path class="st7" d="M731.83,97.45"/>
</g>
<g>
	<polyline class="st0" points="664.87,86.84 664.87,106.84 764.87,106.84 764.87,86.84 664.87,86.84 684.94,58.17 744.79,58.17 
		764.87,86.84 	"/>
	<g>
		<line class="st1" x1="664.87" y1="86.84" x2="764.87" y2="86.84"/>
		<line class="st1" x1="764.87" y1="86.84" x2="764.87" y2="106.84"/>
		<line class="st1" x1="664.87" y1="86.84" x2="664.87" y2="106.84"/>
		<line class="st1" x1="664.87" y1="106.84" x2="764.87" y2="106.84"/>
		<line class="st1" x1="664.87" y1="86.84" x2="684.94" y2="58.17"/>
		<line class="st1" x1="764.87" y1="86.84" x2="744.79" y2="58.17"/>
		<line class="st1" x1="684.94" y1="58.17" x2="744.79" y2="58.17"/>
	</g>
	<line class="st2" x1="679.09" y1="96.79" x2="709.25" y2="96.79"/>
	<line class="st3" x1="671.5" y1="96.79" x2="671.5" y2="96.79"/>
	<line class="st4" x1="755.37" y1="96.79" x2="757.26" y2="96.79"/>
	<line class="st5" x1="746.37" y1="96.79" x2="748.26" y2="96.79"/>
	<line class="st6" x1="731.83" y1="70.45" x2="749.4" y2="70.45"/>
	<line class="st6" x1="730.76" y1="67.45" x2="747.4" y2="67.45"/>
	<line class="st6" x1="729.69" y1="64.45" x2="745.4" y2="64.45"/>
	<line class="st6" x1="728.62" y1="61.45" x2="743.4" y2="61.45"/>
	<path class="st7" d="M729.43,57.01"/>
	<path class="st7" d="M731.83,70.45"/>
</g>
<g>
	<polyline class="st0" points="664.87,59.84 664.87,79.84 764.87,79.84 764.87,59.84 664.87,59.84 684.94,31.17 744.79,31.17 
		764.87,59.84 	"/>
	<g>
		<line class="st1" x1="664.87" y1="59.84" x2="764.87" y2="59.84"/>
		<line class="st1" x1="764.87" y1="59.84" x2="764.87" y2="79.84"/>
		<line class="st1" x1="664.87" y1="59.84" x2="664.87" y2="79.84"/>
		<line class="st1" x1="664.87" y1="79.84" x2="764.87" y2="79.84"/>
		<line class="st1" x1="664.87" y1="59.84" x2="684.94" y2="31.17"/>
		<line class="st1" x1="764.87" y1="59.84" x2="744.79" y2="31.17"/>
		<line class="st1" x1="684.94" y1="31.17" x2="744.79" y2="31.17"/>
	</g>
	<line class="st2" x1="679.09" y1="69.79" x2="709.25" y2="69.79"/>
	<line class="st3" x1="671.5" y1="69.79" x2="671.5" y2="69.79"/>
	<line class="st4" x1="755.37" y1="69.79" x2="757.26" y2="69.79"/>
	<line class="st5" x1="746.37" y1="69.79" x2="748.26" y2="69.79"/>
	<line class="st6" x1="731.83" y1="43.45" x2="749.4" y2="43.45"/>
	<line class="st6" x1="730.76" y1="40.45" x2="747.4" y2="40.45"/>
	<line class="st6" x1="729.69" y1="37.45" x2="745.4" y2="37.45"/>
	<line class="st6" x1="728.62" y1="34.45" x2="743.4" y2="34.45"/>
	<path class="st7" d="M729.43,30.01"/>
	<path class="st7" d="M731.83,43.45"/>
</g>
<g>
	<polyline class="st0" points="483.9,130.42 483.9,150.42 583.9,150.42 583.9,130.42 483.9,130.42 503.97,101.75 563.82,101.75 
		583.9,130.42 	"/>
	<g>
		<line class="st7" x1="483.9" y1="130.42" x2="583.9" y2="130.42"/>
		<line class="st7" x1="583.9" y1="130.42" x2="583.9" y2="150.42"/>
		<line class="st7" x1="483.9" y1="130.42" x2="483.9" y2="150.42"/>
		<line class="st7" x1="483.9" y1="150.42" x2="583.9" y2="150.42"/>
		<line class="st7" x1="483.9" y1="130.42" x2="503.97" y2="101.75"/>
		<line class="st7" x1="583.9" y1="130.42" x2="563.82" y2="101.75"/>
		<line class="st7" x1="503.97" y1="101.75" x2="563.82" y2="101.75"/>
	</g>
	<line class="st2" x1="498.12" y1="140.37" x2="528.28" y2="140.37"/>
	<line class="st3" x1="490.53" y1="140.37" x2="490.53" y2="140.37"/>
	<line class="st4" x1="574.4" y1="140.37" x2="576.29" y2="140.37"/>
	<line class="st5" x1="565.4" y1="140.37" x2="567.29" y2="140.37"/>
	<line class="st6" x1="550.86" y1="114.03" x2="568.43" y2="114.03"/>
	<line class="st6" x1="549.79" y1="111.03" x2="566.43" y2="111.03"/>
	<line class="st6" x1="548.72" y1="108.03" x2="564.43" y2="108.03"/>
	<line class="st6" x1="547.65" y1="105.03" x2="562.43" y2="105.03"/>
	<path class="st7" d="M548.46,100.59"/>
	<path class="st7" d="M550.86,114.03"/>
</g>
<g>
	<polyline class="st0" points="484.59,42.49 484.59,62.49 584.59,62.49 584.59,42.49 484.59,42.49 504.67,13.82 564.52,13.82 
		584.59,42.49 	"/>
	<g>
		<line class="st7" x1="484.59" y1="42.49" x2="584.59" y2="42.49"/>
		<line class="st7" x1="584.59" y1="42.49" x2="584.59" y2="62.49"/>
		<line class="st7" x1="484.59" y1="42.49" x2="484.59" y2="62.49"/>
		<line class="st7" x1="484.59" y1="62.49" x2="584.59" y2="62.49"/>
		<line class="st7" x1="484.59" y1="42.49" x2="504.67" y2="13.82"/>
		<line class="st7" x1="584.59" y1="42.49" x2="564.52" y2="13.82"/>
		<line class="st7" x1="504.67" y1="13.82" x2="564.52" y2="13.82"/>
	</g>
	<line class="st2" x1="498.82" y1="52.44" x2="528.98" y2="52.44"/>
	<line class="st3" x1="491.23" y1="52.44" x2="491.23" y2="52.44"/>
	<line class="st4" x1="575.1" y1="52.44" x2="576.98" y2="52.44"/>
	<line class="st5" x1="566.1" y1="52.44" x2="567.98" y2="52.44"/>
	<line class="st6" x1="551.56" y1="26.1" x2="569.12" y2="26.1"/>
	<line class="st6" x1="550.49" y1="23.1" x2="567.12" y2="23.1"/>
	<line class="st6" x1="549.42" y1="20.1" x2="565.12" y2="20.1"/>
	<line class="st6" x1="548.35" y1="17.1" x2="563.12" y2="17.1"/>
	<path class="st7" d="M549.15,12.66"/>
	<path class="st7" d="M551.56,26.1"/>
</g>
<g>
	<path class="st8" d="M490.2,166.17h-4.85c-0.53,0-0.96-0.43-0.96-0.96v-9.17c0-0.35,0.29-0.64,0.69-0.64
		c0.35,0,0.64,0.29,0.64,0.64v8.95h4.48c0.32,0,0.58,0.26,0.58,0.58C490.78,165.91,490.52,166.17,490.2,166.17z"/>
	<path class="st8" d="M495.54,166.36c-2.35,0-3.83-1.83-3.83-4.07c0-2.24,1.47-4.05,3.83-4.05c2.35,0,3.83,1.81,3.83,4.05
		C499.37,164.54,497.9,166.36,495.54,166.36z M495.54,159.32c-1.65,0-2.58,1.41-2.58,2.98c0,1.58,0.93,2.99,2.58,2.99
		c1.65,0,2.56-1.41,2.56-2.99C498.1,160.73,497.19,159.32,495.54,159.32z"/>
	<path class="st8" d="M506.74,166.26c-0.34,0-0.59-0.29-0.59-0.62v-0.35c-0.64,0.7-1.52,1.07-2.56,1.07c-1.31,0-2.71-0.88-2.71-2.56
		c0-1.73,1.39-2.54,2.71-2.54c1.06,0,1.94,0.34,2.56,1.06v-1.39c0-1.04-0.83-1.63-1.95-1.63c-0.77,0-1.42,0.24-2.02,0.74
		c-0.1,0.08-0.22,0.13-0.34,0.13c-0.26,0-0.53-0.19-0.53-0.48c0-0.13,0.05-0.26,0.16-0.35c0.82-0.74,1.78-1.07,2.88-1.07
		c1.63,0,2.99,0.74,2.99,2.61v4.82C507.35,165.99,507.08,166.26,506.74,166.26z M506.15,163.08c-0.46-0.64-1.28-0.96-2.13-0.96
		c-1.12,0-1.9,0.7-1.9,1.7c0,0.98,0.78,1.68,1.9,1.68c0.85,0,1.67-0.32,2.13-0.96V163.08z"/>
	<path class="st8" d="M515.94,166.26c-0.32,0-0.59-0.27-0.59-0.59v-0.66c-0.58,0.78-1.52,1.34-2.61,1.34
		c-2.02,0-3.44-1.54-3.44-4.05c0-2.46,1.41-4.07,3.44-4.07c1.04,0,1.99,0.51,2.61,1.36v-3.63c0-0.3,0.27-0.58,0.62-0.58
		c0.3,0,0.58,0.27,0.58,0.58v9.7C516.55,165.99,516.28,166.26,515.94,166.26z M515.35,160.57c-0.43-0.67-1.36-1.25-2.32-1.25
		c-1.55,0-2.48,1.28-2.48,2.99s0.93,2.98,2.48,2.98c0.96,0,1.89-0.54,2.32-1.22V160.57z"/>
	<path class="st8" d="M527.99,166.17h-3.91c-0.53,0-0.96-0.43-0.96-0.96v-8.76c0-0.53,0.43-0.96,0.96-0.96h3.79
		c1.86,0,2.99,1.12,2.99,2.72c0,1.34-0.9,2.24-1.87,2.45c1.14,0.18,2.08,1.34,2.08,2.63C531.08,165,529.94,166.17,527.99,166.17z
		 M527.66,156.68h-3.2v3.44h3.2c1.2,0,1.84-0.74,1.84-1.71C529.5,157.45,528.86,156.68,527.66,156.68z M527.72,161.3h-3.27v3.68
		h3.27c1.25,0,1.98-0.7,1.98-1.84C529.7,162.17,529.03,161.3,527.72,161.3z"/>
	<path class="st8" d="M538.57,166.26c-0.34,0-0.59-0.29-0.59-0.62v-0.35c-0.64,0.7-1.52,1.07-2.56,1.07c-1.31,0-2.71-0.88-2.71-2.56
		c0-1.73,1.39-2.54,2.71-2.54c1.06,0,1.94,0.34,2.56,1.06v-1.39c0-1.04-0.83-1.63-1.95-1.63c-0.77,0-1.42,0.24-2.02,0.74
		c-0.1,0.08-0.22,0.13-0.34,0.13c-0.26,0-0.53-0.19-0.53-0.48c0-0.13,0.05-0.26,0.16-0.35c0.82-0.74,1.78-1.07,2.88-1.07
		c1.63,0,2.99,0.74,2.99,2.61v4.82C539.18,165.99,538.9,166.26,538.57,166.26z M537.98,163.08c-0.46-0.64-1.28-0.96-2.13-0.96
		c-1.12,0-1.9,0.7-1.9,1.7c0,0.98,0.78,1.68,1.9,1.68c0.85,0,1.67-0.32,2.13-0.96V163.08z"/>
	<path class="st8" d="M542.17,166.26c-0.32,0-0.59-0.27-0.59-0.59v-9.7c0-0.3,0.27-0.58,0.63-0.58c0.3,0,0.58,0.27,0.58,0.58v9.7
		C542.77,165.99,542.5,166.26,542.17,166.26z"/>
	<path class="st8" d="M550.6,166.26c-0.34,0-0.59-0.29-0.59-0.62v-0.35c-0.64,0.7-1.52,1.07-2.56,1.07c-1.31,0-2.71-0.88-2.71-2.56
		c0-1.73,1.39-2.54,2.71-2.54c1.06,0,1.94,0.34,2.56,1.06v-1.39c0-1.04-0.83-1.63-1.95-1.63c-0.77,0-1.42,0.24-2.02,0.74
		c-0.1,0.08-0.22,0.13-0.34,0.13c-0.26,0-0.53-0.19-0.53-0.48c0-0.13,0.05-0.26,0.16-0.35c0.82-0.74,1.78-1.07,2.88-1.07
		c1.63,0,2.99,0.74,2.99,2.61v4.82C551.21,165.99,550.94,166.26,550.6,166.26z M550.01,163.08c-0.46-0.64-1.28-0.96-2.13-0.96
		c-1.12,0-1.9,0.7-1.9,1.7c0,0.98,0.78,1.68,1.9,1.68c0.85,0,1.67-0.32,2.13-0.96V163.08z"/>
	<path class="st8" d="M559.42,166.26c-0.32,0-0.59-0.27-0.59-0.59v-4.56c0-1.36-0.69-1.79-1.73-1.79c-0.94,0-1.84,0.58-2.29,1.2
		v5.15c0,0.32-0.27,0.59-0.61,0.59c-0.32,0-0.59-0.27-0.59-0.59v-6.75c0-0.3,0.27-0.58,0.63-0.58c0.3,0,0.58,0.27,0.58,0.58v0.64
		c0.54-0.64,1.6-1.31,2.75-1.31c1.62,0,2.46,0.82,2.46,2.5v4.93C560.02,165.99,559.75,166.26,559.42,166.26z"/>
	<path class="st8" d="M568.38,165.35c-0.59,0.61-1.38,1.01-2.55,1.01c-2.3,0-3.86-1.76-3.86-4.07c0-2.29,1.55-4.05,3.86-4.05
		c1.17,0,1.95,0.4,2.55,1.01c0.08,0.1,0.13,0.21,0.13,0.34c0,0.27-0.24,0.54-0.54,0.54c-0.16,0-0.3-0.06-0.42-0.18
		c-0.46-0.45-1.01-0.64-1.65-0.64c-1.65,0-2.67,1.26-2.67,2.98c0,1.71,1.02,2.99,2.67,2.99c0.64,0,1.18-0.21,1.65-0.66
		c0.11-0.1,0.26-0.14,0.4-0.14c0.29,0,0.56,0.22,0.56,0.53C568.5,165.13,568.47,165.26,568.38,165.35z"/>
	<path class="st8" d="M576.74,162.7h-5.59c0.1,1.46,1.12,2.67,2.79,2.67c0.74,0,1.47-0.24,2.08-0.72c0.08-0.05,0.18-0.08,0.27-0.08
		c0.21,0,0.48,0.19,0.48,0.5c0,0.83-2,1.3-2.95,1.3c-2.29,0-3.94-1.65-3.94-4.07c0-2.24,1.6-4.05,3.81-4.05
		c1.92,0,3.19,1.22,3.59,2.99c0.05,0.24,0.11,0.53,0.11,0.8C577.4,162.39,577.11,162.7,576.74,162.7z M573.69,159.24
		c-1.65,0-2.46,1.39-2.53,2.58h5.07C576.22,160.66,575.45,159.24,573.69,159.24z"/>
	<path class="st8" d="M582.6,159.53c-0.79,0.05-1.54,0.4-2.05,1.17v4.98c0,0.32-0.27,0.59-0.61,0.59h-0.02
		c-0.32-0.02-0.58-0.27-0.58-0.59v-6.75c0-0.3,0.27-0.58,0.63-0.58c0.3,0,0.58,0.27,0.58,0.58v0.77c0.46-0.61,1.23-1.38,2.13-1.38
		c0.29,0,0.54,0.24,0.54,0.56C583.22,159.22,582.95,159.51,582.6,159.53z"/>
</g>
<g>
	<path class="st9" d="M664.49,178.93h-2.96v3.68c0,0.37-0.29,0.66-0.67,0.66c-0.37,0-0.66-0.29-0.66-0.66v-9.16
		c0-0.53,0.43-0.96,0.96-0.96h3.33c2.14,0,3.35,1.47,3.35,3.22S666.61,178.93,664.49,178.93z M664.33,173.68h-2.8v4.07h2.8
		c1.26,0,2.13-0.83,2.13-2.03S665.6,173.68,664.33,173.68z"/>
	<path class="st9" d="M672.8,176.53c-0.79,0.05-1.54,0.4-2.05,1.17v4.98c0,0.32-0.27,0.59-0.61,0.59h-0.02
		c-0.32-0.02-0.58-0.27-0.58-0.59v-6.75c0-0.3,0.27-0.58,0.63-0.58c0.3,0,0.58,0.27,0.58,0.58v0.77c0.46-0.61,1.23-1.38,2.13-1.38
		c0.29,0,0.54,0.24,0.54,0.56C673.42,176.22,673.15,176.51,672.8,176.53z"/>
	<path class="st9" d="M676.24,173.53c0,0.45-0.37,0.8-0.82,0.8c-0.43,0-0.8-0.35-0.8-0.8s0.37-0.82,0.8-0.82
		C675.87,172.72,676.24,173.08,676.24,173.53z M675.42,183.26c-0.32,0-0.59-0.27-0.59-0.59v-6.75c0-0.3,0.27-0.58,0.63-0.58
		c0.3,0,0.58,0.27,0.58,0.58v6.75C676.03,182.99,675.76,183.26,675.42,183.26z"/>
	<path class="st9" d="M684.73,176.14l-2.72,6.56c-0.14,0.34-0.48,0.56-0.88,0.56h-0.02c-0.37,0-0.69-0.22-0.83-0.56l-2.72-6.56
		c-0.03-0.06-0.05-0.14-0.05-0.21c0-0.3,0.26-0.59,0.61-0.59c0.24,0,0.46,0.13,0.56,0.37l2.46,6.07l2.45-6.07
		c0.1-0.22,0.32-0.37,0.56-0.37c0.35,0,0.62,0.27,0.62,0.59C684.78,176,684.77,176.08,684.73,176.14z"/>
	<path class="st9" d="M691.69,183.26c-0.34,0-0.59-0.29-0.59-0.62v-0.35c-0.64,0.7-1.52,1.07-2.56,1.07c-1.31,0-2.71-0.88-2.71-2.56
		c0-1.73,1.39-2.54,2.71-2.54c1.06,0,1.94,0.34,2.56,1.06v-1.39c0-1.04-0.83-1.63-1.95-1.63c-0.77,0-1.42,0.24-2.02,0.74
		c-0.1,0.08-0.22,0.13-0.34,0.13c-0.26,0-0.53-0.19-0.53-0.48c0-0.13,0.05-0.26,0.16-0.35c0.82-0.74,1.78-1.07,2.88-1.07
		c1.63,0,2.99,0.74,2.99,2.61v4.82C692.3,182.99,692.03,183.26,691.69,183.26z M691.1,180.08c-0.46-0.64-1.28-0.96-2.13-0.96
		c-1.12,0-1.9,0.7-1.9,1.7c0,0.98,0.78,1.68,1.9,1.68c0.85,0,1.67-0.32,2.13-0.96V180.08z"/>
	<path class="st9" d="M696.65,183.36c-1.14,0-1.71-0.66-1.71-1.81v-5.06h-0.86c-0.29,0-0.51-0.22-0.51-0.54
		c0-0.29,0.22-0.51,0.51-0.51h0.86v-1.63c0-0.3,0.27-0.58,0.62-0.58c0.3,0,0.58,0.27,0.58,0.58v1.63h1.15
		c0.29,0,0.51,0.22,0.51,0.54c0,0.29-0.22,0.51-0.51,0.51h-1.15v4.8c0,0.58,0.26,0.99,0.79,0.99c0.21,0,0.45-0.11,0.64-0.11
		c0.27,0,0.51,0.22,0.51,0.5C698.08,183.18,697.34,183.36,696.65,183.36z"/>
	<path class="st9" d="M705.81,179.7h-5.59c0.1,1.46,1.12,2.67,2.79,2.67c0.74,0,1.47-0.24,2.08-0.72c0.08-0.05,0.18-0.08,0.27-0.08
		c0.21,0,0.48,0.19,0.48,0.5c0,0.83-2,1.3-2.95,1.3c-2.29,0-3.94-1.65-3.94-4.07c0-2.24,1.6-4.05,3.81-4.05
		c1.92,0,3.19,1.22,3.59,2.99c0.05,0.24,0.11,0.53,0.11,0.8C706.46,179.39,706.17,179.7,705.81,179.7z M702.75,176.24
		c-1.65,0-2.46,1.39-2.53,2.58h5.07C705.28,177.66,704.51,176.24,702.75,176.24z"/>
	<path class="st9" d="M720.62,183.26c-0.26,0-0.51-0.13-0.66-0.34l-6.05-8.28v7.96c0,0.37-0.29,0.66-0.67,0.66
		c-0.37,0-0.66-0.29-0.66-0.66v-9.41c0-0.42,0.35-0.8,0.85-0.8c0.27,0,0.54,0.13,0.7,0.35l5.96,8.08v-7.79
		c0-0.35,0.29-0.64,0.69-0.64c0.35,0,0.64,0.29,0.64,0.64v9.48C721.42,182.9,721.1,183.26,720.62,183.26z"/>
	<path class="st9" d="M730.27,179.7h-5.59c0.1,1.46,1.12,2.67,2.79,2.67c0.74,0,1.47-0.24,2.08-0.72c0.08-0.05,0.18-0.08,0.27-0.08
		c0.21,0,0.48,0.19,0.48,0.5c0,0.83-2,1.3-2.95,1.3c-2.29,0-3.94-1.65-3.94-4.07c0-2.24,1.6-4.05,3.81-4.05
		c1.92,0,3.19,1.22,3.59,2.99c0.05,0.24,0.11,0.53,0.11,0.8C730.93,179.39,730.64,179.7,730.27,179.7z M727.21,176.24
		c-1.65,0-2.46,1.39-2.53,2.58h5.07C729.74,177.66,728.97,176.24,727.21,176.24z"/>
	<path class="st9" d="M734.83,183.36c-1.14,0-1.71-0.66-1.71-1.81v-5.06h-0.86c-0.29,0-0.51-0.22-0.51-0.54
		c0-0.29,0.22-0.51,0.51-0.51h0.86v-1.63c0-0.3,0.27-0.58,0.62-0.58c0.3,0,0.58,0.27,0.58,0.58v1.63h1.15
		c0.29,0,0.51,0.22,0.51,0.54c0,0.29-0.22,0.51-0.51,0.51h-1.15v4.8c0,0.58,0.26,0.99,0.79,0.99c0.21,0,0.45-0.11,0.64-0.11
		c0.27,0,0.51,0.22,0.51,0.5C736.25,183.18,735.52,183.36,734.83,183.36z"/>
	<path class="st9" d="M747.73,176.08l-2.13,6.66c-0.1,0.3-0.38,0.53-0.74,0.53h-0.02c-0.34,0-0.63-0.22-0.72-0.53l-1.87-5.78
		l-1.87,5.78c-0.1,0.3-0.4,0.53-0.75,0.53h-0.02c-0.34,0-0.61-0.22-0.7-0.53l-2.13-6.66c-0.02-0.05-0.03-0.11-0.03-0.16
		c0-0.27,0.24-0.58,0.58-0.58c0.26,0,0.51,0.16,0.59,0.4l1.79,5.86l1.92-5.81c0.1-0.27,0.32-0.45,0.64-0.45
		c0.27,0,0.51,0.18,0.61,0.45l1.92,5.81l1.79-5.86c0.08-0.24,0.32-0.4,0.58-0.4c0.34,0,0.59,0.27,0.59,0.58
		C747.76,175.97,747.74,176.03,747.73,176.08z"/>
	<path class="st9" d="M752.7,183.36c-2.35,0-3.83-1.83-3.83-4.07c0-2.24,1.47-4.05,3.83-4.05c2.35,0,3.83,1.81,3.83,4.05
		C756.53,181.54,755.05,183.36,752.7,183.36z M752.7,176.32c-1.65,0-2.58,1.41-2.58,2.98c0,1.58,0.93,2.99,2.58,2.99
		c1.65,0,2.56-1.41,2.56-2.99C755.26,177.73,754.35,176.32,752.7,176.32z"/>
	<path class="st9" d="M761.72,176.53c-0.79,0.05-1.54,0.4-2.05,1.17v4.98c0,0.32-0.27,0.59-0.61,0.59h-0.02
		c-0.32-0.02-0.58-0.27-0.58-0.59v-6.75c0-0.3,0.27-0.58,0.63-0.58c0.3,0,0.58,0.27,0.58,0.58v0.77c0.46-0.61,1.23-1.38,2.13-1.38
		c0.29,0,0.54,0.24,0.54,0.56C762.35,176.22,762.08,176.51,761.72,176.53z"/>
	<path class="st9" d="M769.39,183.28c-0.18,0-0.35-0.08-0.46-0.22l-2.69-3.36l-1.28,1.26v1.71c0,0.32-0.27,0.59-0.61,0.59
		c-0.32,0-0.59-0.27-0.59-0.59v-9.7c0-0.3,0.27-0.58,0.63-0.58c0.3,0,0.58,0.27,0.58,0.58v6.58l4-4.07c0.1-0.1,0.24-0.16,0.37-0.16
		c0.29,0,0.56,0.27,0.56,0.58c0,0.13-0.05,0.26-0.14,0.35l-2.63,2.69l2.74,3.38c0.08,0.1,0.13,0.22,0.13,0.35
		C769.98,182.95,769.76,183.28,769.39,183.28z"/>
	<path class="st9" d="M677.48,198.26c-0.37,0-0.66-0.29-0.66-0.66v-8.36l-1.41,1.49c-0.11,0.11-0.24,0.16-0.38,0.16
		c-0.29,0-0.58-0.24-0.58-0.58c0-0.14,0.05-0.29,0.16-0.4l2.26-2.3c0.13-0.14,0.32-0.21,0.53-0.21c0.4,0,0.75,0.3,0.75,0.72v9.48
		C678.15,197.98,677.86,198.26,677.48,198.26z"/>
	<path class="st9" d="M684.29,198.36c-2.93,0-4.08-2.93-4.08-5.52c0-2.61,1.15-5.51,4.08-5.51c2.91,0,4.08,2.9,4.08,5.51
		C688.38,195.43,687.21,198.36,684.29,198.36z M684.29,188.52c-2.03,0-2.72,2.19-2.72,4.32s0.69,4.34,2.72,4.34
		c2.03,0,2.72-2.21,2.72-4.34S686.33,188.52,684.29,188.52z"/>
	<path class="st9" d="M690.53,198.33c-0.48,0-0.88-0.4-0.88-0.88c0-0.48,0.4-0.88,0.88-0.88s0.88,0.4,0.88,0.88
		C691.41,197.93,691.01,198.33,690.53,198.33z"/>
	<path class="st9" d="M696.63,198.36c-1.54,0-2.75-0.59-3.51-1.41c-0.11-0.11-0.16-0.24-0.16-0.38c0-0.3,0.24-0.62,0.56-0.62
		c0.14,0,0.29,0.06,0.4,0.16c0.67,0.67,1.62,1.07,2.67,1.07c1.55,0,2.5-0.77,2.5-2c0-1.33-1.09-1.89-2.66-1.89
		c-0.48,0-1.2,0.1-1.2-0.61c0-0.32,0.26-0.58,0.58-0.58c1.6,0,3.11-0.24,3.11-1.76c0-1.18-1.09-1.83-2.38-1.83
		c-0.99,0-1.79,0.34-2.51,0.98c-0.1,0.1-0.22,0.14-0.35,0.14c-0.27,0-0.58-0.24-0.58-0.58c0-0.14,0.06-0.3,0.18-0.4
		c0.83-0.8,1.94-1.33,3.36-1.33c2.05,0,3.62,1.04,3.62,2.85c0,1.54-1.3,2.3-2.3,2.48c0.98,0.08,2.46,0.91,2.46,2.63
		C700.41,197.06,698.98,198.36,696.63,198.36z"/>
	<path class="st9" d="M709,198.17h-6.39c-0.3,0-0.61-0.27-0.61-0.64c0-0.19,0.08-0.37,0.24-0.5c3.75-2.9,5.83-4.77,5.83-6.56
		c0-1.36-1.12-1.95-2.23-1.95c-1.06,0-1.94,0.37-2.58,0.99c-0.11,0.11-0.26,0.16-0.38,0.16c-0.3,0-0.61-0.26-0.61-0.59
		c0-0.14,0.05-0.3,0.16-0.42c0.88-0.88,2.1-1.33,3.41-1.33c1.78,0,3.59,1.01,3.59,3.14c0,2.18-2.21,4.16-5.19,6.51H709
		c0.32,0,0.58,0.26,0.58,0.58C709.57,197.91,709.32,198.17,709,198.17z"/>
	<path class="st9" d="M712.53,198.33c-0.48,0-0.88-0.4-0.88-0.88c0-0.48,0.4-0.88,0.88-0.88s0.88,0.4,0.88,0.88
		C713.41,197.93,713.01,198.33,712.53,198.33z"/>
	<path class="st9" d="M718.77,198.36c-2.93,0-4.08-2.93-4.08-5.52c0-2.61,1.15-5.51,4.08-5.51c2.91,0,4.08,2.9,4.08,5.51
		C722.85,195.43,721.69,198.36,718.77,198.36z M718.77,188.52c-2.03,0-2.72,2.19-2.72,4.32s0.69,4.34,2.72,4.34
		c2.03,0,2.72-2.21,2.72-4.34S720.81,188.52,718.77,188.52z"/>
	<path class="st9" d="M725.01,198.33c-0.48,0-0.88-0.4-0.88-0.88c0-0.48,0.4-0.88,0.88-0.88s0.88,0.4,0.88,0.88
		C725.89,197.93,725.49,198.33,725.01,198.33z"/>
	<path class="st9" d="M731.25,198.36c-2.93,0-4.08-2.93-4.08-5.52c0-2.61,1.15-5.51,4.08-5.51c2.91,0,4.08,2.9,4.08,5.51
		C735.33,195.43,734.17,198.36,731.25,198.36z M731.25,188.52c-2.03,0-2.72,2.19-2.72,4.32s0.69,4.34,2.72,4.34
		c2.03,0,2.72-2.21,2.72-4.34S733.29,188.52,731.25,188.52z"/>
	<path class="st9" d="M740.74,187.59l-3.6,10.79c-0.06,0.18-0.22,0.29-0.42,0.29c-0.26,0-0.46-0.21-0.46-0.45
		c0-0.05,0.02-0.1,0.03-0.14l3.6-10.79c0.06-0.18,0.22-0.29,0.42-0.29c0.26,0,0.45,0.22,0.45,0.45
		C740.76,187.49,740.76,187.54,740.74,187.59z"/>
	<path class="st9" d="M744.39,198.26c-0.37,0-0.66-0.29-0.66-0.66v-8.36l-1.41,1.49c-0.11,0.11-0.24,0.16-0.38,0.16
		c-0.29,0-0.58-0.24-0.58-0.58c0-0.14,0.05-0.29,0.16-0.4l2.26-2.3c0.13-0.14,0.32-0.21,0.53-0.21c0.4,0,0.75,0.3,0.75,0.72v9.48
		C745.06,197.98,744.77,198.26,744.39,198.26z"/>
	<path class="st9" d="M751.24,198.36c-2.98,0-4.11-2.61-4.11-5.51c0-2.9,1.34-5.52,4.34-5.52c1.17,0,2,0.34,2.72,1.02
		c0.11,0.11,0.16,0.26,0.16,0.4c0,0.32-0.27,0.59-0.59,0.59c-0.14,0-0.29-0.05-0.4-0.14c-0.46-0.42-1.02-0.69-1.89-0.69
		c-2.07,0-3.01,2.1-3.01,4.19c0,0.14,0,0.27,0.02,0.42c0.46-0.74,1.65-1.67,3.03-1.67c1.92,0,3.49,1.14,3.49,3.41
		C754.98,196.73,753.57,198.36,751.24,198.36z M751.17,192.61c-1.06,0-2.08,0.66-2.67,1.6c0.13,1.33,0.83,2.96,2.69,2.96
		c1.65,0,2.45-1.23,2.45-2.26C753.64,193.35,752.55,192.61,751.17,192.61z"/>
</g>
<g>
	<path class="st8" d="M495.5,74h-2.96v3.68c0,0.37-0.29,0.66-0.67,0.66c-0.37,0-0.66-0.29-0.66-0.66v-9.16
		c0-0.53,0.43-0.96,0.96-0.96h3.33c2.15,0,3.35,1.47,3.35,3.22S497.61,74,495.5,74z M495.33,68.75h-2.8v4.07h2.8
		c1.26,0,2.13-0.83,2.13-2.03S496.6,68.75,495.33,68.75z"/>
	<path class="st8" d="M503.8,71.6c-0.79,0.05-1.54,0.4-2.05,1.17v4.98c0,0.32-0.27,0.59-0.61,0.59h-0.02
		c-0.32-0.02-0.58-0.27-0.58-0.59v-6.75c0-0.3,0.27-0.58,0.63-0.58c0.3,0,0.58,0.27,0.58,0.58v0.77c0.46-0.61,1.23-1.38,2.13-1.38
		c0.29,0,0.54,0.24,0.54,0.56C504.42,71.29,504.15,71.58,503.8,71.6z"/>
	<path class="st8" d="M507.24,68.6c0,0.45-0.37,0.8-0.82,0.8c-0.43,0-0.8-0.35-0.8-0.8s0.37-0.82,0.8-0.82
		C506.87,67.79,507.24,68.15,507.24,68.6z M506.42,78.33c-0.32,0-0.59-0.27-0.59-0.59v-6.75c0-0.3,0.27-0.58,0.63-0.58
		c0.3,0,0.58,0.27,0.58,0.58v6.75C507.03,78.06,506.76,78.33,506.42,78.33z"/>
	<path class="st8" d="M511.38,78.43c-1.14,0-1.71-0.66-1.71-1.81v-5.06h-0.86c-0.29,0-0.51-0.22-0.51-0.54
		c0-0.29,0.22-0.51,0.51-0.51h0.86v-1.63c0-0.3,0.27-0.58,0.62-0.58c0.3,0,0.58,0.27,0.58,0.58v1.63h1.15
		c0.29,0,0.51,0.22,0.51,0.54c0,0.29-0.22,0.51-0.51,0.51h-1.15v4.8c0,0.58,0.26,0.99,0.79,0.99c0.21,0,0.45-0.11,0.64-0.11
		c0.27,0,0.51,0.22,0.51,0.5C512.81,78.25,512.07,78.43,511.38,78.43z"/>
	<path class="st8" d="M519.94,78.33c-0.32,0-0.59-0.27-0.59-0.59v-0.59c-0.59,0.67-1.6,1.28-2.75,1.28c-1.62,0-2.46-0.78-2.46-2.46
		v-4.98c0-0.3,0.27-0.58,0.63-0.58c0.3,0,0.58,0.27,0.58,0.58v4.61c0,1.36,0.69,1.76,1.73,1.76c0.94,0,1.84-0.54,2.29-1.17v-5.2
		c0-0.3,0.27-0.58,0.62-0.58c0.3,0,0.58,0.27,0.58,0.58v6.75C520.55,78.06,520.28,78.33,519.94,78.33z"/>
	<path class="st8" d="M528.76,78.33c-0.32,0-0.59-0.27-0.59-0.59v-4.56c0-1.36-0.69-1.79-1.73-1.79c-0.94,0-1.84,0.58-2.29,1.2v5.15
		c0,0.32-0.27,0.59-0.61,0.59c-0.32,0-0.59-0.27-0.59-0.59v-6.75c0-0.3,0.27-0.58,0.63-0.58c0.3,0,0.58,0.27,0.58,0.58v0.64
		c0.54-0.64,1.6-1.31,2.75-1.31c1.62,0,2.46,0.82,2.46,2.5v4.93C529.37,78.06,529.09,78.33,528.76,78.33z"/>
	<path class="st8" d="M532.36,78.33c-0.32,0-0.59-0.27-0.59-0.59v-9.7c0-0.3,0.27-0.58,0.63-0.58c0.3,0,0.58,0.27,0.58,0.58v9.7
		C532.97,78.06,532.69,78.33,532.36,78.33z"/>
	<path class="st8" d="M543,78.43c-1.58,0-2.83-0.53-3.75-1.33c-0.14-0.13-0.21-0.3-0.21-0.48c0-0.32,0.24-0.67,0.63-0.67
		c0.13,0,0.27,0.03,0.38,0.13c0.74,0.66,1.76,1.17,2.99,1.17c1.91,0,2.51-1.02,2.51-1.84c0-2.75-6.32-1.23-6.32-5.04
		c0-1.76,1.57-2.96,3.67-2.96c1.38,0,2.56,0.42,3.42,1.14c0.14,0.13,0.22,0.3,0.22,0.48c0,0.32-0.27,0.64-0.63,0.64
		c-0.13,0-0.27-0.05-0.38-0.14c-0.78-0.64-1.76-0.93-2.74-0.93c-1.28,0-2.19,0.69-2.19,1.7c0,2.4,6.32,1.02,6.32,5.01
		C546.94,76.85,545.88,78.43,543,78.43z"/>
	<path class="st8" d="M555.27,74.76h-5.59c0.1,1.46,1.12,2.67,2.79,2.67c0.74,0,1.47-0.24,2.08-0.72c0.08-0.05,0.18-0.08,0.27-0.08
		c0.21,0,0.48,0.19,0.48,0.5c0,0.83-2,1.3-2.95,1.3c-2.29,0-3.94-1.65-3.94-4.07c0-2.24,1.6-4.05,3.81-4.05
		c1.92,0,3.19,1.22,3.59,2.99c0.05,0.24,0.11,0.53,0.11,0.8C555.93,74.46,555.64,74.76,555.27,74.76z M552.21,71.31
		c-1.65,0-2.46,1.39-2.53,2.58h5.07C554.74,72.73,553.97,71.31,552.21,71.31z"/>
	<path class="st8" d="M561.13,71.6c-0.79,0.05-1.54,0.4-2.05,1.17v4.98c0,0.32-0.27,0.59-0.61,0.59h-0.02
		c-0.32-0.02-0.58-0.27-0.58-0.59v-6.75c0-0.3,0.27-0.58,0.63-0.58c0.3,0,0.58,0.27,0.58,0.58v0.77c0.46-0.61,1.23-1.38,2.13-1.38
		c0.29,0,0.54,0.24,0.54,0.56C561.75,71.29,561.48,71.58,561.13,71.6z"/>
	<path class="st8" d="M569.46,71.21l-2.72,6.56c-0.14,0.34-0.48,0.56-0.88,0.56h-0.02c-0.37,0-0.69-0.22-0.83-0.56l-2.72-6.56
		c-0.03-0.06-0.05-0.14-0.05-0.21c0-0.3,0.26-0.59,0.61-0.59c0.24,0,0.46,0.13,0.56,0.37l2.46,6.07l2.45-6.07
		c0.1-0.22,0.32-0.37,0.56-0.37c0.35,0,0.62,0.27,0.62,0.59C569.51,71.07,569.49,71.15,569.46,71.21z"/>
	<path class="st8" d="M577.4,74.76h-5.59c0.1,1.46,1.12,2.67,2.79,2.67c0.74,0,1.47-0.24,2.08-0.72c0.08-0.05,0.18-0.08,0.27-0.08
		c0.21,0,0.48,0.19,0.48,0.5c0,0.83-2,1.3-2.95,1.3c-2.29,0-3.94-1.65-3.94-4.07c0-2.24,1.6-4.05,3.81-4.05
		c1.92,0,3.19,1.22,3.59,2.99c0.05,0.24,0.11,0.53,0.11,0.8C578.05,74.46,577.77,74.76,577.4,74.76z M574.34,71.31
		c-1.65,0-2.46,1.39-2.53,2.58h5.07C576.87,72.73,576.1,71.31,574.34,71.31z"/>
	<path class="st8" d="M583.25,71.6c-0.79,0.05-1.54,0.4-2.05,1.17v4.98c0,0.32-0.27,0.59-0.61,0.59h-0.02
		c-0.32-0.02-0.58-0.27-0.58-0.59v-6.75c0-0.3,0.27-0.58,0.63-0.58c0.3,0,0.58,0.27,0.58,0.58v0.77c0.46-0.61,1.23-1.38,2.13-1.38
		c0.29,0,0.54,0.24,0.54,0.56C583.88,71.29,583.6,71.58,583.25,71.6z"/>
</g>
<g>
	<path class="st8" d="M383.64,301.79c-2.9,0-4.35-1.71-4.35-4.34v-5.99c0-0.35,0.29-0.64,0.69-0.64c0.35,0,0.64,0.29,0.64,0.64v5.95
		c0,1.95,1.06,3.19,3.03,3.19s3.03-1.23,3.03-3.19v-5.95c0-0.35,0.29-0.64,0.69-0.64c0.35,0,0.64,0.29,0.64,0.64v5.97
		C387.99,300.09,386.54,301.79,383.64,301.79z"/>
	<path class="st8" d="M392.89,301.79c-1.09,0-2.08-0.29-2.88-0.99c-0.11-0.1-0.18-0.22-0.18-0.37c0-0.29,0.24-0.51,0.54-0.51
		c0.13,0,0.24,0.03,0.35,0.11c0.56,0.45,1.36,0.78,2.21,0.78c1.18,0,1.83-0.56,1.83-1.33c0-1.87-4.79-0.72-4.79-3.58
		c0-1.2,1.04-2.22,2.88-2.22c1.12,0,1.95,0.34,2.63,0.91c0.11,0.1,0.16,0.22,0.16,0.35c0,0.27-0.22,0.48-0.48,0.48
		c-0.11,0-0.22-0.03-0.32-0.11c-0.5-0.38-1.2-0.66-1.99-0.66c-1.06,0-1.71,0.53-1.71,1.22c0,1.7,4.79,0.58,4.79,3.59
		C395.93,300.75,394.89,301.79,392.89,301.79z"/>
	<path class="st8" d="M404.28,298.12h-5.59c0.1,1.46,1.12,2.67,2.79,2.67c0.74,0,1.47-0.24,2.08-0.72c0.08-0.05,0.18-0.08,0.27-0.08
		c0.21,0,0.48,0.19,0.48,0.5c0,0.83-2,1.3-2.95,1.3c-2.29,0-3.94-1.65-3.94-4.07c0-2.24,1.6-4.05,3.81-4.05
		c1.92,0,3.19,1.22,3.59,2.99c0.05,0.24,0.11,0.53,0.11,0.8C404.94,297.82,404.65,298.12,404.28,298.12z M401.22,294.66
		c-1.65,0-2.46,1.39-2.53,2.58h5.07C403.75,296.09,402.98,294.66,401.22,294.66z"/>
	<path class="st8" d="M410.13,294.95c-0.79,0.05-1.54,0.4-2.05,1.17v4.98c0,0.32-0.27,0.59-0.61,0.59h-0.02
		c-0.32-0.02-0.58-0.27-0.58-0.59v-6.75c0-0.3,0.27-0.58,0.63-0.58c0.3,0,0.58,0.27,0.58,0.58v0.77c0.46-0.61,1.23-1.38,2.13-1.38
		c0.29,0,0.54,0.24,0.54,0.56C410.76,294.65,410.49,294.94,410.13,294.95z"/>
</g>
<rect x="657.66" y="23.81" class="st10" width="114.4" height="143.28"/>
<polyline class="st0" points="376.5,236.02 412.5,236.02 412.5,287.02 376.5,287.02 376.5,236.02 384.75,216.17 404.25,216.17 
	412.5,236.02 "/>
<path class="st7" d="M408.01,236.02"/>
<path class="st7" d="M376.5,236.02"/>
<g>
	<line class="st7" x1="376.5" y1="287.02" x2="412.5" y2="287.02"/>
	<line class="st7" x1="376.5" y1="287.02" x2="376.5" y2="236.02"/>
	<line class="st7" x1="412.5" y1="287.02" x2="412.5" y2="236.02"/>
	<line class="st7" x1="376.5" y1="236.02" x2="412.5" y2="236.02"/>
	<line class="st7" x1="376.5" y1="236.02" x2="384.75" y2="216.17"/>
	<line class="st7" x1="412.5" y1="236.02" x2="404.25" y2="216.17"/>
	<line class="st7" x1="404.25" y1="216.17" x2="384.75" y2="216.17"/>
</g>
<line class="st11" x1="385.72" y1="247.27" x2="408.01" y2="247.27"/>
<line class="st12" x1="381.28" y1="247.27" x2="381.28" y2="247.27"/>
<line class="st13" x1="381.28" y1="241.27" x2="381.28" y2="241.27"/>
<line class="st14" x1="386.28" y1="241.27" x2="386.28" y2="241.27"/>
<line class="st11" x1="385.72" y1="252.27" x2="408.01" y2="252.27"/>
<line class="st12" x1="381.28" y1="252.27" x2="381.28" y2="252.27"/>
<line class="st11" x1="385.72" y1="257.27" x2="408.01" y2="257.27"/>
<line class="st12" x1="381.28" y1="257.27" x2="381.28" y2="257.27"/>
<line class="st15" x1="399.5" y1="284.08" x2="409.32" y2="284.08"/>
<line class="st15" x1="399.5" y1="282.08" x2="409.32" y2="282.08"/>
<line class="st15" x1="399.5" y1="280.08" x2="409.32" y2="280.08"/>
<line class="st15" x1="399.5" y1="278.08" x2="409.32" y2="278.08"/>
<line class="st15" x1="399.5" y1="276.08" x2="409.32" y2="276.08"/>
<g>
	<polyline class="st0" points="22.13,140.84 22.13,160.84 122.13,160.84 122.13,140.84 22.13,140.84 42.2,112.17 102.05,112.17 
		122.13,140.84 	"/>
	<g>
		<line class="st1" x1="22.13" y1="140.84" x2="122.13" y2="140.84"/>
		<line class="st1" x1="122.13" y1="140.84" x2="122.13" y2="160.84"/>
		<line class="st1" x1="22.13" y1="140.84" x2="22.13" y2="160.84"/>
		<line class="st1" x1="22.13" y1="160.84" x2="122.13" y2="160.84"/>
		<line class="st1" x1="22.13" y1="140.84" x2="42.2" y2="112.17"/>
		<line class="st1" x1="122.13" y1="140.84" x2="102.05" y2="112.17"/>
		<line class="st1" x1="42.2" y1="112.17" x2="102.05" y2="112.17"/>
	</g>
	<line class="st2" x1="36.35" y1="150.79" x2="66.51" y2="150.79"/>
	<line class="st3" x1="28.76" y1="150.79" x2="28.76" y2="150.79"/>
	<line class="st4" x1="112.63" y1="150.79" x2="114.52" y2="150.79"/>
	<line class="st5" x1="103.63" y1="150.79" x2="105.52" y2="150.79"/>
	<line class="st6" x1="89.09" y1="124.45" x2="106.66" y2="124.45"/>
	<line class="st6" x1="88.02" y1="121.45" x2="104.66" y2="121.45"/>
	<line class="st6" x1="86.95" y1="118.45" x2="102.66" y2="118.45"/>
	<line class="st6" x1="85.88" y1="115.45" x2="100.66" y2="115.45"/>
	<path class="st7" d="M86.69,111.01"/>
	<path class="st7" d="M89.09,124.45"/>
</g>
<g>
	<polyline class="st0" points="22.13,113.84 22.13,133.84 122.13,133.84 122.13,113.84 22.13,113.84 42.2,85.17 102.05,85.17 
		122.13,113.84 	"/>
	<g>
		<line class="st1" x1="22.13" y1="113.84" x2="122.13" y2="113.84"/>
		<line class="st1" x1="122.13" y1="113.84" x2="122.13" y2="133.84"/>
		<line class="st1" x1="22.13" y1="113.84" x2="22.13" y2="133.84"/>
		<line class="st1" x1="22.13" y1="133.84" x2="122.13" y2="133.84"/>
		<line class="st1" x1="22.13" y1="113.84" x2="42.2" y2="85.17"/>
		<line class="st1" x1="122.13" y1="113.84" x2="102.05" y2="85.17"/>
		<line class="st1" x1="42.2" y1="85.17" x2="102.05" y2="85.17"/>
	</g>
	<line class="st2" x1="36.35" y1="123.79" x2="66.51" y2="123.79"/>
	<line class="st3" x1="28.76" y1="123.79" x2="28.76" y2="123.79"/>
	<line class="st4" x1="112.63" y1="123.79" x2="114.52" y2="123.79"/>
	<line class="st5" x1="103.63" y1="123.79" x2="105.52" y2="123.79"/>
	<line class="st6" x1="89.09" y1="97.45" x2="106.66" y2="97.45"/>
	<line class="st6" x1="88.02" y1="94.45" x2="104.66" y2="94.45"/>
	<line class="st6" x1="86.95" y1="91.45" x2="102.66" y2="91.45"/>
	<line class="st6" x1="85.88" y1="88.45" x2="100.66" y2="88.45"/>
	<path class="st7" d="M86.69,84.01"/>
	<path class="st7" d="M89.09,97.45"/>
</g>
<g>
	<polyline class="st0" points="22.13,86.84 22.13,106.84 122.13,106.84 122.13,86.84 22.13,86.84 42.2,58.17 102.05,58.17 
		122.13,86.84 	"/>
	<g>
		<line class="st1" x1="22.13" y1="86.84" x2="122.13" y2="86.84"/>
		<line class="st1" x1="122.13" y1="86.84" x2="122.13" y2="106.84"/>
		<line class="st1" x1="22.13" y1="86.84" x2="22.13" y2="106.84"/>
		<line class="st1" x1="22.13" y1="106.84" x2="122.13" y2="106.84"/>
		<line class="st1" x1="22.13" y1="86.84" x2="42.2" y2="58.17"/>
		<line class="st1" x1="122.13" y1="86.84" x2="102.05" y2="58.17"/>
		<line class="st1" x1="42.2" y1="58.17" x2="102.05" y2="58.17"/>
	</g>
	<line class="st2" x1="36.35" y1="96.79" x2="66.51" y2="96.79"/>
	<line class="st3" x1="28.76" y1="96.79" x2="28.76" y2="96.79"/>
	<line class="st4" x1="112.63" y1="96.79" x2="114.52" y2="96.79"/>
	<line class="st5" x1="103.63" y1="96.79" x2="105.52" y2="96.79"/>
	<line class="st6" x1="89.09" y1="70.45" x2="106.66" y2="70.45"/>
	<line class="st6" x1="88.02" y1="67.45" x2="104.66" y2="67.45"/>
	<line class="st6" x1="86.95" y1="64.45" x2="102.66" y2="64.45"/>
	<line class="st6" x1="85.88" y1="61.45" x2="100.66" y2="61.45"/>
	<path class="st7" d="M86.69,57.01"/>
	<path class="st7" d="M89.09,70.45"/>
</g>
<g>
	<polyline class="st0" points="22.13,59.84 22.13,79.84 122.13,79.84 122.13,59.84 22.13,59.84 42.2,31.17 102.05,31.17 
		122.13,59.84 	"/>
	<g>
		<line class="st1" x1="22.13" y1="59.84" x2="122.13" y2="59.84"/>
		<line class="st1" x1="122.13" y1="59.84" x2="122.13" y2="79.84"/>
		<line class="st1" x1="22.13" y1="59.84" x2="22.13" y2="79.84"/>
		<line class="st1" x1="22.13" y1="79.84" x2="122.13" y2="79.84"/>
		<line class="st1" x1="22.13" y1="59.84" x2="42.2" y2="31.17"/>
		<line class="st1" x1="122.13" y1="59.84" x2="102.05" y2="31.17"/>
		<line class="st1" x1="42.2" y1="31.17" x2="102.05" y2="31.17"/>
	</g>
	<line class="st2" x1="36.35" y1="69.79" x2="66.51" y2="69.79"/>
	<line class="st3" x1="28.76" y1="69.79" x2="28.76" y2="69.79"/>
	<line class="st4" x1="112.63" y1="69.79" x2="114.52" y2="69.79"/>
	<line class="st5" x1="103.63" y1="69.79" x2="105.52" y2="69.79"/>
	<line class="st6" x1="89.09" y1="43.45" x2="106.66" y2="43.45"/>
	<line class="st6" x1="88.02" y1="40.45" x2="104.66" y2="40.45"/>
	<line class="st6" x1="86.95" y1="37.45" x2="102.66" y2="37.45"/>
	<line class="st6" x1="85.88" y1="34.45" x2="100.66" y2="34.45"/>
	<path class="st7" d="M86.69,30.01"/>
	<path class="st7" d="M89.09,43.45"/>
</g>
<g>
	<polyline class="st0" points="203.16,130.42 203.16,150.42 303.16,150.42 303.16,130.42 203.16,130.42 223.23,101.75 
		283.08,101.75 303.16,130.42 	"/>
	<g>
		<line class="st7" x1="203.16" y1="130.42" x2="303.16" y2="130.42"/>
		<line class="st7" x1="303.16" y1="130.42" x2="303.16" y2="150.42"/>
		<line class="st7" x1="203.16" y1="130.42" x2="203.16" y2="150.42"/>
		<line class="st7" x1="203.16" y1="150.42" x2="303.16" y2="150.42"/>
		<line class="st7" x1="203.16" y1="130.42" x2="223.23" y2="101.75"/>
		<line class="st7" x1="303.16" y1="130.42" x2="283.08" y2="101.75"/>
		<line class="st7" x1="223.23" y1="101.75" x2="283.08" y2="101.75"/>
	</g>
	<line class="st2" x1="217.38" y1="140.37" x2="247.54" y2="140.37"/>
	<line class="st3" x1="209.79" y1="140.37" x2="209.79" y2="140.37"/>
	<line class="st4" x1="293.66" y1="140.37" x2="295.55" y2="140.37"/>
	<line class="st5" x1="284.66" y1="140.37" x2="286.55" y2="140.37"/>
	<line class="st6" x1="270.12" y1="114.03" x2="287.69" y2="114.03"/>
	<line class="st6" x1="269.05" y1="111.03" x2="285.69" y2="111.03"/>
	<line class="st6" x1="267.98" y1="108.03" x2="283.69" y2="108.03"/>
	<line class="st6" x1="266.91" y1="105.03" x2="281.69" y2="105.03"/>
	<path class="st7" d="M267.72,100.59"/>
	<path class="st7" d="M270.12,114.03"/>
</g>
<g>
	<polyline class="st0" points="203.85,42.49 203.85,62.49 303.85,62.49 303.85,42.49 203.85,42.49 223.93,13.82 283.78,13.82 
		303.85,42.49 	"/>
	<g>
		<line class="st7" x1="203.85" y1="42.49" x2="303.85" y2="42.49"/>
		<line class="st7" x1="303.85" y1="42.49" x2="303.85" y2="62.49"/>
		<line class="st7" x1="203.85" y1="42.49" x2="203.85" y2="62.49"/>
		<line class="st7" x1="203.85" y1="62.49" x2="303.85" y2="62.49"/>
		<line class="st7" x1="203.85" y1="42.49" x2="223.93" y2="13.82"/>
		<line class="st7" x1="303.85" y1="42.49" x2="283.78" y2="13.82"/>
		<line class="st7" x1="223.93" y1="13.82" x2="283.78" y2="13.82"/>
	</g>
	<line class="st2" x1="218.07" y1="52.44" x2="248.24" y2="52.44"/>
	<line class="st3" x1="210.49" y1="52.44" x2="210.49" y2="52.44"/>
	<line class="st4" x1="294.35" y1="52.44" x2="296.24" y2="52.44"/>
	<line class="st5" x1="285.35" y1="52.44" x2="287.24" y2="52.44"/>
	<line class="st6" x1="270.82" y1="26.1" x2="288.38" y2="26.1"/>
	<line class="st6" x1="269.75" y1="23.1" x2="286.38" y2="23.1"/>
	<line class="st6" x1="268.68" y1="20.1" x2="284.38" y2="20.1"/>
	<line class="st6" x1="267.61" y1="17.1" x2="282.38" y2="17.1"/>
	<path class="st7" d="M268.41,12.66"/>
	<path class="st7" d="M270.82,26.1"/>
</g>
<line class="st16" x1="138.33" y1="140.37" x2="197.25" y2="140.37"/>
<line class="st17" x1="138.08" y1="52.17" x2="197.25" y2="52.17"/>
<line class="st16" x1="591.33" y1="140.37" x2="650.25" y2="140.37"/>
<line class="st17" x1="591.08" y1="52.17" x2="650.25" y2="52.17"/>
<g>
	<g>
		<line class="st18" x1="320" y1="52.17" x2="325" y2="52.17"/>
		<line class="st19" x1="335.69" y1="52.17" x2="458.65" y2="52.17"/>
		<line class="st18" x1="464" y1="52.17" x2="469" y2="52.17"/>
	</g>
</g>
<g>
	<g>
		<line class="st18" x1="394.5" y1="209.92" x2="394.5" y2="204.92"/>
		<line class="st19" x1="394.5" y1="194.23" x2="394.5" y2="71.26"/>
		<line class="st18" x1="394.5" y1="65.92" x2="394.5" y2="60.92"/>
	</g>
</g>
<g>
	<path class="st8" d="M209.46,166.17h-4.85c-0.53,0-0.96-0.43-0.96-0.96v-9.17c0-0.35,0.29-0.64,0.69-0.64
		c0.35,0,0.64,0.29,0.64,0.64v8.95h4.48c0.32,0,0.58,0.26,0.58,0.58C210.04,165.91,209.78,166.17,209.46,166.17z"/>
	<path class="st8" d="M214.8,166.36c-2.35,0-3.83-1.83-3.83-4.07c0-2.24,1.47-4.05,3.83-4.05c2.35,0,3.83,1.81,3.83,4.05
		C218.63,164.54,217.16,166.36,214.8,166.36z M214.8,159.32c-1.65,0-2.58,1.41-2.58,2.98c0,1.58,0.93,2.99,2.58,2.99
		c1.65,0,2.56-1.41,2.56-2.99C217.36,160.73,216.45,159.32,214.8,159.32z"/>
	<path class="st8" d="M226,166.26c-0.34,0-0.59-0.29-0.59-0.62v-0.35c-0.64,0.7-1.52,1.07-2.56,1.07c-1.31,0-2.71-0.88-2.71-2.56
		c0-1.73,1.39-2.54,2.71-2.54c1.06,0,1.94,0.34,2.56,1.06v-1.39c0-1.04-0.83-1.63-1.95-1.63c-0.77,0-1.42,0.24-2.02,0.74
		c-0.1,0.08-0.22,0.13-0.34,0.13c-0.26,0-0.53-0.19-0.53-0.48c0-0.13,0.05-0.26,0.16-0.35c0.82-0.74,1.78-1.07,2.88-1.07
		c1.63,0,2.99,0.74,2.99,2.61v4.82C226.61,165.99,226.34,166.26,226,166.26z M225.41,163.08c-0.46-0.64-1.28-0.96-2.13-0.96
		c-1.12,0-1.9,0.7-1.9,1.7c0,0.98,0.78,1.68,1.9,1.68c0.85,0,1.67-0.32,2.13-0.96V163.08z"/>
	<path class="st8" d="M235.2,166.26c-0.32,0-0.59-0.27-0.59-0.59v-0.66c-0.58,0.78-1.52,1.34-2.61,1.34c-2.02,0-3.44-1.54-3.44-4.05
		c0-2.46,1.41-4.07,3.44-4.07c1.04,0,1.99,0.51,2.61,1.36v-3.63c0-0.3,0.27-0.58,0.62-0.58c0.3,0,0.58,0.27,0.58,0.58v9.7
		C235.81,165.99,235.54,166.26,235.2,166.26z M234.61,160.57c-0.43-0.67-1.36-1.25-2.32-1.25c-1.55,0-2.48,1.28-2.48,2.99
		s0.93,2.98,2.48,2.98c0.96,0,1.89-0.54,2.32-1.22V160.57z"/>
	<path class="st8" d="M247.25,166.17h-3.91c-0.53,0-0.96-0.43-0.96-0.96v-8.76c0-0.53,0.43-0.96,0.96-0.96h3.79
		c1.86,0,2.99,1.12,2.99,2.72c0,1.34-0.9,2.24-1.87,2.45c1.14,0.18,2.08,1.34,2.08,2.63C250.34,165,249.2,166.17,247.25,166.17z
		 M246.91,156.68h-3.2v3.44h3.2c1.2,0,1.84-0.74,1.84-1.71C248.75,157.45,248.11,156.68,246.91,156.68z M246.98,161.3h-3.27v3.68
		h3.27c1.25,0,1.98-0.7,1.98-1.84C248.96,162.17,248.29,161.3,246.98,161.3z"/>
	<path class="st8" d="M257.83,166.26c-0.34,0-0.59-0.29-0.59-0.62v-0.35c-0.64,0.7-1.52,1.07-2.56,1.07c-1.31,0-2.71-0.88-2.71-2.56
		c0-1.73,1.39-2.54,2.71-2.54c1.06,0,1.94,0.34,2.56,1.06v-1.39c0-1.04-0.83-1.63-1.95-1.63c-0.77,0-1.42,0.24-2.02,0.74
		c-0.1,0.08-0.22,0.13-0.34,0.13c-0.26,0-0.53-0.19-0.53-0.48c0-0.13,0.05-0.26,0.16-0.35c0.82-0.74,1.78-1.07,2.88-1.07
		c1.63,0,2.99,0.74,2.99,2.61v4.82C258.44,165.99,258.16,166.26,257.83,166.26z M257.23,163.08c-0.46-0.64-1.28-0.96-2.13-0.96
		c-1.12,0-1.9,0.7-1.9,1.7c0,0.98,0.78,1.68,1.9,1.68c0.85,0,1.67-0.32,2.13-0.96V163.08z"/>
	<path class="st8" d="M261.42,166.26c-0.32,0-0.59-0.27-0.59-0.59v-9.7c0-0.3,0.27-0.58,0.63-0.58c0.3,0,0.58,0.27,0.58,0.58v9.7
		C262.03,165.99,261.76,166.26,261.42,166.26z"/>
	<path class="st8" d="M269.86,166.26c-0.34,0-0.59-0.29-0.59-0.62v-0.35c-0.64,0.7-1.52,1.07-2.56,1.07c-1.31,0-2.71-0.88-2.71-2.56
		c0-1.73,1.39-2.54,2.71-2.54c1.06,0,1.94,0.34,2.56,1.06v-1.39c0-1.04-0.83-1.63-1.95-1.63c-0.77,0-1.42,0.24-2.02,0.74
		c-0.1,0.08-0.22,0.13-0.34,0.13c-0.26,0-0.53-0.19-0.53-0.48c0-0.13,0.05-0.26,0.16-0.35c0.82-0.74,1.78-1.07,2.88-1.07
		c1.63,0,2.99,0.74,2.99,2.61v4.82C270.47,165.99,270.19,166.26,269.86,166.26z M269.27,163.08c-0.46-0.64-1.28-0.96-2.13-0.96
		c-1.12,0-1.9,0.7-1.9,1.7c0,0.98,0.78,1.68,1.9,1.68c0.85,0,1.67-0.32,2.13-0.96V163.08z"/>
	<path class="st8" d="M278.67,166.26c-0.32,0-0.59-0.27-0.59-0.59v-4.56c0-1.36-0.69-1.79-1.73-1.79c-0.94,0-1.84,0.58-2.29,1.2
		v5.15c0,0.32-0.27,0.59-0.61,0.59c-0.32,0-0.59-0.27-0.59-0.59v-6.75c0-0.3,0.27-0.58,0.63-0.58c0.3,0,0.58,0.27,0.58,0.58v0.64
		c0.54-0.64,1.6-1.31,2.75-1.31c1.62,0,2.46,0.82,2.46,2.5v4.93C279.28,165.99,279.01,166.26,278.67,166.26z"/>
	<path class="st8" d="M287.63,165.35c-0.59,0.61-1.38,1.01-2.55,1.01c-2.3,0-3.86-1.76-3.86-4.07c0-2.29,1.55-4.05,3.86-4.05
		c1.17,0,1.95,0.4,2.55,1.01c0.08,0.1,0.13,0.21,0.13,0.34c0,0.27-0.24,0.54-0.54,0.54c-0.16,0-0.3-0.06-0.42-0.18
		c-0.46-0.45-1.01-0.64-1.65-0.64c-1.65,0-2.67,1.26-2.67,2.98c0,1.71,1.02,2.99,2.67,2.99c0.64,0,1.18-0.21,1.65-0.66
		c0.11-0.1,0.26-0.14,0.4-0.14c0.29,0,0.56,0.22,0.56,0.53C287.76,165.13,287.73,165.26,287.63,165.35z"/>
	<path class="st8" d="M296,162.7h-5.59c0.1,1.46,1.12,2.67,2.79,2.67c0.74,0,1.47-0.24,2.08-0.72c0.08-0.05,0.18-0.08,0.27-0.08
		c0.21,0,0.48,0.19,0.48,0.5c0,0.83-2,1.3-2.95,1.3c-2.29,0-3.94-1.65-3.94-4.07c0-2.24,1.6-4.05,3.81-4.05
		c1.92,0,3.19,1.22,3.59,2.99c0.05,0.24,0.11,0.53,0.11,0.8C296.66,162.39,296.37,162.7,296,162.7z M292.95,159.24
		c-1.65,0-2.46,1.39-2.53,2.58h5.07C295.47,160.66,294.71,159.24,292.95,159.24z"/>
	<path class="st8" d="M301.86,159.53c-0.79,0.05-1.54,0.4-2.05,1.17v4.98c0,0.32-0.27,0.59-0.61,0.59h-0.02
		c-0.32-0.02-0.58-0.27-0.58-0.59v-6.75c0-0.3,0.27-0.58,0.63-0.58c0.3,0,0.58,0.27,0.58,0.58v0.77c0.46-0.61,1.23-1.38,2.13-1.38
		c0.29,0,0.54,0.24,0.54,0.56C302.48,159.22,302.21,159.51,301.86,159.53z"/>
</g>
<g>
	<path class="st9" d="M21.75,178.93h-2.96v3.68c0,0.37-0.29,0.66-0.67,0.66c-0.37,0-0.66-0.29-0.66-0.66v-9.16
		c0-0.53,0.43-0.96,0.96-0.96h3.33c2.14,0,3.35,1.47,3.35,3.22S23.87,178.93,21.75,178.93z M21.59,173.68h-2.8v4.07h2.8
		c1.26,0,2.13-0.83,2.13-2.03S22.86,173.68,21.59,173.68z"/>
	<path class="st9" d="M30.06,176.53c-0.79,0.05-1.54,0.4-2.05,1.17v4.98c0,0.32-0.27,0.59-0.61,0.59h-0.02
		c-0.32-0.02-0.58-0.27-0.58-0.59v-6.75c0-0.3,0.27-0.58,0.63-0.58c0.3,0,0.58,0.27,0.58,0.58v0.77c0.46-0.61,1.23-1.38,2.13-1.38
		c0.29,0,0.54,0.24,0.54,0.56C30.68,176.22,30.41,176.51,30.06,176.53z"/>
	<path class="st9" d="M33.5,173.53c0,0.45-0.37,0.8-0.82,0.8c-0.43,0-0.8-0.35-0.8-0.8s0.37-0.82,0.8-0.82
		C33.13,172.72,33.5,173.08,33.5,173.53z M32.68,183.26c-0.32,0-0.59-0.27-0.59-0.59v-6.75c0-0.3,0.27-0.58,0.63-0.58
		c0.3,0,0.58,0.27,0.58,0.58v6.75C33.29,182.99,33.02,183.26,32.68,183.26z"/>
	<path class="st9" d="M41.99,176.14l-2.72,6.56c-0.14,0.34-0.48,0.56-0.88,0.56h-0.02c-0.37,0-0.69-0.22-0.83-0.56l-2.72-6.56
		c-0.03-0.06-0.05-0.14-0.05-0.21c0-0.3,0.26-0.59,0.61-0.59c0.24,0,0.46,0.13,0.56,0.37l2.46,6.07l2.45-6.07
		c0.1-0.22,0.32-0.37,0.56-0.37c0.35,0,0.62,0.27,0.62,0.59C42.04,176,42.03,176.08,41.99,176.14z"/>
	<path class="st9" d="M48.95,183.26c-0.34,0-0.59-0.29-0.59-0.62v-0.35c-0.64,0.7-1.52,1.07-2.56,1.07c-1.31,0-2.71-0.88-2.71-2.56
		c0-1.73,1.39-2.54,2.71-2.54c1.06,0,1.94,0.34,2.56,1.06v-1.39c0-1.04-0.83-1.63-1.95-1.63c-0.77,0-1.42,0.24-2.02,0.74
		c-0.1,0.08-0.22,0.13-0.34,0.13c-0.26,0-0.53-0.19-0.53-0.48c0-0.13,0.05-0.26,0.16-0.35c0.82-0.74,1.78-1.07,2.88-1.07
		c1.63,0,2.99,0.74,2.99,2.61v4.82C49.56,182.99,49.29,183.26,48.95,183.26z M48.36,180.08c-0.46-0.64-1.28-0.96-2.13-0.96
		c-1.12,0-1.9,0.7-1.9,1.7c0,0.98,0.78,1.68,1.9,1.68c0.85,0,1.67-0.32,2.13-0.96V180.08z"/>
	<path class="st9" d="M53.91,183.36c-1.14,0-1.71-0.66-1.71-1.81v-5.06h-0.86c-0.29,0-0.51-0.22-0.51-0.54
		c0-0.29,0.22-0.51,0.51-0.51h0.86v-1.63c0-0.3,0.27-0.58,0.62-0.58c0.3,0,0.58,0.27,0.58,0.58v1.63h1.15
		c0.29,0,0.51,0.22,0.51,0.54c0,0.29-0.22,0.51-0.51,0.51H53.4v4.8c0,0.58,0.26,0.99,0.79,0.99c0.21,0,0.45-0.11,0.64-0.11
		c0.27,0,0.51,0.22,0.51,0.5C55.34,183.18,54.6,183.36,53.91,183.36z"/>
	<path class="st9" d="M63.07,179.7h-5.59c0.1,1.46,1.12,2.67,2.79,2.67c0.74,0,1.47-0.24,2.08-0.72c0.08-0.05,0.18-0.08,0.27-0.08
		c0.21,0,0.48,0.19,0.48,0.5c0,0.83-2,1.3-2.95,1.3c-2.29,0-3.94-1.65-3.94-4.07c0-2.24,1.6-4.05,3.81-4.05
		c1.92,0,3.19,1.22,3.59,2.99c0.05,0.24,0.11,0.53,0.11,0.8C63.72,179.39,63.43,179.7,63.07,179.7z M60.01,176.24
		c-1.65,0-2.46,1.39-2.53,2.58h5.07C62.54,177.66,61.77,176.24,60.01,176.24z"/>
	<path class="st9" d="M77.88,183.26c-0.26,0-0.51-0.13-0.66-0.34l-6.05-8.28v7.96c0,0.37-0.29,0.66-0.67,0.66
		c-0.37,0-0.66-0.29-0.66-0.66v-9.41c0-0.42,0.35-0.8,0.85-0.8c0.27,0,0.54,0.13,0.7,0.35l5.96,8.08v-7.79
		c0-0.35,0.29-0.64,0.69-0.64c0.35,0,0.64,0.29,0.64,0.64v9.48C78.68,182.9,78.36,183.26,77.88,183.26z"/>
	<path class="st9" d="M87.53,179.7h-5.59c0.1,1.46,1.12,2.67,2.79,2.67c0.74,0,1.47-0.24,2.08-0.72c0.08-0.05,0.18-0.08,0.27-0.08
		c0.21,0,0.48,0.19,0.48,0.5c0,0.83-2,1.3-2.95,1.3c-2.29,0-3.94-1.65-3.94-4.07c0-2.24,1.6-4.05,3.81-4.05
		c1.92,0,3.19,1.22,3.59,2.99c0.05,0.24,0.11,0.53,0.11,0.8C88.19,179.39,87.9,179.7,87.53,179.7z M84.47,176.24
		c-1.65,0-2.46,1.39-2.53,2.58h5.07C87,177.66,86.23,176.24,84.47,176.24z"/>
	<path class="st9" d="M92.09,183.36c-1.14,0-1.71-0.66-1.71-1.81v-5.06h-0.86c-0.29,0-0.51-0.22-0.51-0.54
		c0-0.29,0.22-0.51,0.51-0.51h0.86v-1.63c0-0.3,0.27-0.58,0.62-0.58c0.3,0,0.58,0.27,0.58,0.58v1.63h1.15
		c0.29,0,0.51,0.22,0.51,0.54c0,0.29-0.22,0.51-0.51,0.51h-1.15v4.8c0,0.58,0.26,0.99,0.79,0.99c0.21,0,0.45-0.11,0.64-0.11
		c0.27,0,0.51,0.22,0.51,0.5C93.51,183.18,92.78,183.36,92.09,183.36z"/>
	<path class="st9" d="M104.99,176.08l-2.13,6.66c-0.1,0.3-0.38,0.53-0.74,0.53h-0.02c-0.34,0-0.63-0.22-0.72-0.53l-1.87-5.78
		l-1.87,5.78c-0.1,0.3-0.4,0.53-0.75,0.53h-0.02c-0.34,0-0.61-0.22-0.7-0.53l-2.13-6.66c-0.02-0.05-0.03-0.11-0.03-0.16
		c0-0.27,0.24-0.58,0.58-0.58c0.26,0,0.51,0.16,0.59,0.4l1.79,5.86l1.92-5.81c0.1-0.27,0.32-0.45,0.64-0.45
		c0.27,0,0.51,0.18,0.61,0.45l1.92,5.81l1.79-5.86c0.08-0.24,0.32-0.4,0.58-0.4c0.34,0,0.59,0.27,0.59,0.58
		C105.02,175.97,105,176.03,104.99,176.08z"/>
	<path class="st9" d="M109.96,183.36c-2.35,0-3.83-1.83-3.83-4.07c0-2.24,1.47-4.05,3.83-4.05c2.35,0,3.83,1.81,3.83,4.05
		C113.78,181.54,112.31,183.36,109.96,183.36z M109.96,176.32c-1.65,0-2.58,1.41-2.58,2.98c0,1.58,0.93,2.99,2.58,2.99
		c1.65,0,2.56-1.41,2.56-2.99C112.52,177.73,111.61,176.32,109.96,176.32z"/>
	<path class="st9" d="M118.98,176.53c-0.79,0.05-1.54,0.4-2.05,1.17v4.98c0,0.32-0.27,0.59-0.61,0.59h-0.02
		c-0.32-0.02-0.58-0.27-0.58-0.59v-6.75c0-0.3,0.27-0.58,0.63-0.58c0.3,0,0.58,0.27,0.58,0.58v0.77c0.46-0.61,1.23-1.38,2.13-1.38
		c0.29,0,0.54,0.24,0.54,0.56C119.61,176.22,119.33,176.51,118.98,176.53z"/>
	<path class="st9" d="M126.65,183.28c-0.18,0-0.35-0.08-0.46-0.22l-2.69-3.36l-1.28,1.26v1.71c0,0.32-0.27,0.59-0.61,0.59
		c-0.32,0-0.59-0.27-0.59-0.59v-9.7c0-0.3,0.27-0.58,0.63-0.58c0.3,0,0.58,0.27,0.58,0.58v6.58l4-4.07c0.1-0.1,0.24-0.16,0.37-0.16
		c0.29,0,0.56,0.27,0.56,0.58c0,0.13-0.05,0.26-0.14,0.35l-2.63,2.69l2.74,3.38c0.08,0.1,0.13,0.22,0.13,0.35
		C127.24,182.95,127.02,183.28,126.65,183.28z"/>
	<path class="st9" d="M34.73,198.26c-0.37,0-0.66-0.29-0.66-0.66v-8.36l-1.41,1.49c-0.11,0.11-0.24,0.16-0.38,0.16
		c-0.29,0-0.58-0.24-0.58-0.58c0-0.14,0.05-0.29,0.16-0.4l2.26-2.3c0.13-0.14,0.32-0.21,0.53-0.21c0.4,0,0.75,0.3,0.75,0.72v9.48
		C35.4,197.98,35.11,198.26,34.73,198.26z"/>
	<path class="st9" d="M41.54,198.36c-2.93,0-4.08-2.93-4.08-5.52c0-2.61,1.15-5.51,4.08-5.51c2.91,0,4.08,2.9,4.08,5.51
		C45.63,195.43,44.46,198.36,41.54,198.36z M41.54,188.52c-2.03,0-2.72,2.19-2.72,4.32s0.69,4.34,2.72,4.34
		c2.03,0,2.72-2.21,2.72-4.34S43.58,188.52,41.54,188.52z"/>
	<path class="st9" d="M47.78,198.33c-0.48,0-0.88-0.4-0.88-0.88c0-0.48,0.4-0.88,0.88-0.88s0.88,0.4,0.88,0.88
		C48.66,197.93,48.26,198.33,47.78,198.33z"/>
	<path class="st9" d="M57.34,198.17h-6.39c-0.3,0-0.61-0.27-0.61-0.64c0-0.19,0.08-0.37,0.24-0.5c3.75-2.9,5.83-4.77,5.83-6.56
		c0-1.36-1.12-1.95-2.23-1.95c-1.06,0-1.94,0.37-2.58,0.99c-0.11,0.11-0.26,0.16-0.38,0.16c-0.3,0-0.61-0.26-0.61-0.59
		c0-0.14,0.05-0.3,0.16-0.42c0.88-0.88,2.1-1.33,3.41-1.33c1.78,0,3.59,1.01,3.59,3.14c0,2.18-2.21,4.16-5.19,6.51h4.75
		c0.32,0,0.58,0.26,0.58,0.58C57.91,197.91,57.66,198.17,57.34,198.17z"/>
	<path class="st9" d="M66.98,195.46h-1.04v2.14c0,0.37-0.29,0.66-0.67,0.66c-0.37,0-0.66-0.29-0.66-0.66v-2.14H60.1
		c-0.34,0-0.66-0.29-0.66-0.72c0-0.14,0.05-0.3,0.13-0.43l4.27-6.42c0.21-0.3,0.58-0.5,0.96-0.5c0.61,0,1.14,0.53,1.14,1.12v5.78
		h1.04c0.3,0,0.56,0.26,0.56,0.59C67.54,195.21,67.29,195.46,66.98,195.46z M64.62,188.73l-3.75,5.57h3.75V188.73z"/>
	<path class="st9" d="M69.8,198.33c-0.48,0-0.88-0.4-0.88-0.88c0-0.48,0.4-0.88,0.88-0.88s0.88,0.4,0.88,0.88
		C70.68,197.93,70.28,198.33,69.8,198.33z"/>
	<path class="st9" d="M76.04,198.36c-2.93,0-4.08-2.93-4.08-5.52c0-2.61,1.15-5.51,4.08-5.51c2.91,0,4.08,2.9,4.08,5.51
		C80.12,195.43,78.95,198.36,76.04,198.36z M76.04,188.52c-2.03,0-2.72,2.19-2.72,4.32s0.69,4.34,2.72,4.34
		c2.03,0,2.72-2.21,2.72-4.34S78.07,188.52,76.04,188.52z"/>
	<path class="st9" d="M82.28,198.33c-0.48,0-0.88-0.4-0.88-0.88c0-0.48,0.4-0.88,0.88-0.88s0.88,0.4,0.88,0.88
		C83.16,197.93,82.76,198.33,82.28,198.33z"/>
	<path class="st9" d="M88.52,198.36c-2.93,0-4.08-2.93-4.08-5.52c0-2.61,1.15-5.51,4.08-5.51c2.91,0,4.08,2.9,4.08,5.51
		C92.6,195.43,91.43,198.36,88.52,198.36z M88.52,188.52c-2.03,0-2.72,2.19-2.72,4.32s0.69,4.34,2.72,4.34
		c2.03,0,2.72-2.21,2.72-4.34S90.55,188.52,88.52,188.52z"/>
	<path class="st9" d="M98.01,187.59l-3.6,10.79c-0.06,0.18-0.22,0.29-0.42,0.29c-0.26,0-0.46-0.21-0.46-0.45
		c0-0.05,0.02-0.1,0.03-0.14l3.6-10.79c0.06-0.18,0.22-0.29,0.42-0.29c0.26,0,0.45,0.22,0.45,0.45
		C98.02,187.49,98.02,187.54,98.01,187.59z"/>
	<path class="st9" d="M101.66,198.26c-0.37,0-0.66-0.29-0.66-0.66v-8.36l-1.41,1.49c-0.11,0.11-0.24,0.16-0.38,0.16
		c-0.29,0-0.58-0.24-0.58-0.58c0-0.14,0.05-0.29,0.16-0.4l2.26-2.3c0.13-0.14,0.32-0.21,0.53-0.21c0.4,0,0.75,0.3,0.75,0.72v9.48
		C102.33,197.98,102.04,198.26,101.66,198.26z"/>
	<path class="st9" d="M108.5,198.36c-2.98,0-4.11-2.61-4.11-5.51c0-2.9,1.34-5.52,4.34-5.52c1.17,0,2,0.34,2.72,1.02
		c0.11,0.11,0.16,0.26,0.16,0.4c0,0.32-0.27,0.59-0.59,0.59c-0.14,0-0.29-0.05-0.4-0.14c-0.46-0.42-1.02-0.69-1.89-0.69
		c-2.07,0-3.01,2.1-3.01,4.19c0,0.14,0,0.27,0.02,0.42c0.46-0.74,1.65-1.67,3.03-1.67c1.92,0,3.49,1.14,3.49,3.41
		C112.25,196.73,110.84,198.36,108.5,198.36z M108.44,192.61c-1.06,0-2.08,0.66-2.67,1.6c0.13,1.33,0.83,2.96,2.69,2.96
		c1.65,0,2.45-1.23,2.45-2.26C110.9,193.35,109.82,192.61,108.44,192.61z"/>
</g>
<g>
	<path class="st20" d="M114.65,219.36c-1.58,0-2.83-0.53-3.75-1.33c-0.14-0.13-0.21-0.3-0.21-0.48c0-0.32,0.24-0.67,0.63-0.67
		c0.13,0,0.27,0.03,0.38,0.13c0.74,0.66,1.76,1.17,2.99,1.17c1.91,0,2.51-1.02,2.51-1.84c0-2.75-6.32-1.23-6.32-5.04
		c0-1.76,1.57-2.96,3.67-2.96c1.38,0,2.56,0.42,3.42,1.14c0.14,0.13,0.22,0.3,0.22,0.48c0,0.32-0.27,0.64-0.63,0.64
		c-0.13,0-0.27-0.05-0.38-0.14c-0.78-0.64-1.76-0.93-2.74-0.93c-1.28,0-2.19,0.69-2.19,1.7c0,2.4,6.32,1.02,6.32,5.01
		C118.59,217.78,117.53,219.36,114.65,219.36z"/>
	<path class="st20" d="M125.95,219.26c-0.34,0-0.59-0.29-0.59-0.62v-0.35c-0.64,0.7-1.52,1.07-2.56,1.07
		c-1.31,0-2.71-0.88-2.71-2.56c0-1.73,1.39-2.54,2.71-2.54c1.06,0,1.94,0.34,2.56,1.06v-1.39c0-1.04-0.83-1.63-1.95-1.63
		c-0.77,0-1.42,0.24-2.02,0.74c-0.1,0.08-0.22,0.13-0.34,0.13c-0.26,0-0.53-0.19-0.53-0.48c0-0.13,0.05-0.26,0.16-0.35
		c0.82-0.74,1.78-1.07,2.88-1.07c1.63,0,2.99,0.74,2.99,2.61v4.82C126.56,218.99,126.28,219.26,125.95,219.26z M125.35,216.08
		c-0.46-0.64-1.28-0.96-2.13-0.96c-1.12,0-1.9,0.7-1.9,1.7c0,0.98,0.78,1.68,1.9,1.68c0.85,0,1.67-0.32,2.13-0.96V216.08z"/>
	<path class="st20" d="M134.76,219.26c-0.32,0-0.59-0.27-0.59-0.59v-4.56c0-1.36-0.69-1.79-1.73-1.79c-0.94,0-1.84,0.58-2.29,1.2
		v5.15c0,0.32-0.27,0.59-0.61,0.59c-0.32,0-0.59-0.27-0.59-0.59v-6.75c0-0.3,0.27-0.58,0.63-0.58c0.3,0,0.58,0.27,0.58,0.58v0.64
		c0.54-0.64,1.6-1.31,2.75-1.31c1.62,0,2.46,0.82,2.46,2.5v4.93C135.37,218.99,135.1,219.26,134.76,219.26z"/>
	<path class="st20" d="M148.46,209.68h-5.19v3.44h5.07c0.32,0,0.58,0.26,0.58,0.61c0,0.32-0.26,0.58-0.58,0.58h-5.07v4.31
		c0,0.37-0.29,0.66-0.67,0.66c-0.37,0-0.66-0.29-0.66-0.66v-9.16c0-0.53,0.43-0.96,0.96-0.96h5.55c0.32,0,0.58,0.26,0.58,0.61
		C149.04,209.42,148.78,209.68,148.46,209.68z"/>
	<path class="st20" d="M153.95,212.53c-0.79,0.05-1.54,0.4-2.05,1.17v4.98c0,0.32-0.27,0.59-0.61,0.59h-0.02
		c-0.32-0.02-0.58-0.27-0.58-0.59v-6.75c0-0.3,0.27-0.58,0.63-0.58c0.3,0,0.58,0.27,0.58,0.58v0.77c0.46-0.61,1.23-1.38,2.13-1.38
		c0.29,0,0.54,0.24,0.54,0.56C154.57,212.22,154.3,212.51,153.95,212.53z"/>
	<path class="st20" d="M161.4,219.26c-0.34,0-0.59-0.29-0.59-0.62v-0.35c-0.64,0.7-1.52,1.07-2.56,1.07c-1.31,0-2.71-0.88-2.71-2.56
		c0-1.73,1.39-2.54,2.71-2.54c1.06,0,1.94,0.34,2.56,1.06v-1.39c0-1.04-0.83-1.63-1.95-1.63c-0.77,0-1.42,0.24-2.02,0.74
		c-0.1,0.08-0.22,0.13-0.34,0.13c-0.26,0-0.53-0.19-0.53-0.48c0-0.13,0.05-0.26,0.16-0.35c0.82-0.74,1.78-1.07,2.88-1.07
		c1.63,0,2.99,0.74,2.99,2.61v4.82C162.01,218.99,161.74,219.26,161.4,219.26z M160.81,216.08c-0.46-0.64-1.28-0.96-2.13-0.96
		c-1.12,0-1.9,0.7-1.9,1.7c0,0.98,0.78,1.68,1.9,1.68c0.85,0,1.67-0.32,2.13-0.96V216.08z"/>
	<path class="st20" d="M170.22,219.26c-0.32,0-0.59-0.27-0.59-0.59v-4.56c0-1.36-0.69-1.79-1.73-1.79c-0.94,0-1.84,0.58-2.29,1.2
		v5.15c0,0.32-0.27,0.59-0.61,0.59c-0.32,0-0.59-0.27-0.59-0.59v-6.75c0-0.3,0.27-0.58,0.63-0.58c0.3,0,0.58,0.27,0.58,0.58v0.64
		c0.54-0.64,1.6-1.31,2.75-1.31c1.62,0,2.46,0.82,2.46,2.5v4.93C170.83,218.99,170.55,219.26,170.22,219.26z"/>
	<path class="st20" d="M179.18,218.35c-0.59,0.61-1.38,1.01-2.55,1.01c-2.3,0-3.86-1.76-3.86-4.07c0-2.29,1.55-4.05,3.86-4.05
		c1.17,0,1.95,0.4,2.55,1.01c0.08,0.1,0.13,0.21,0.13,0.34c0,0.27-0.24,0.54-0.54,0.54c-0.16,0-0.3-0.06-0.42-0.18
		c-0.46-0.45-1.01-0.64-1.65-0.64c-1.65,0-2.67,1.26-2.67,2.98c0,1.71,1.02,2.99,2.67,2.99c0.64,0,1.18-0.21,1.65-0.66
		c0.11-0.1,0.26-0.14,0.4-0.14c0.29,0,0.56,0.22,0.56,0.53C179.31,218.13,179.27,218.26,179.18,218.35z"/>
	<path class="st20" d="M182.55,209.53c0,0.45-0.37,0.8-0.82,0.8c-0.43,0-0.8-0.35-0.8-0.8s0.37-0.82,0.8-0.82
		C182.18,208.72,182.55,209.08,182.55,209.53z M181.74,219.26c-0.32,0-0.59-0.27-0.59-0.59v-6.75c0-0.3,0.27-0.58,0.63-0.58
		c0.3,0,0.58,0.27,0.58,0.58v6.75C182.34,218.99,182.07,219.26,181.74,219.26z"/>
	<path class="st20" d="M187.19,219.36c-1.09,0-2.08-0.29-2.88-0.99c-0.11-0.1-0.18-0.22-0.18-0.37c0-0.29,0.24-0.51,0.54-0.51
		c0.13,0,0.24,0.03,0.35,0.11c0.56,0.45,1.36,0.78,2.21,0.78c1.18,0,1.83-0.56,1.83-1.33c0-1.87-4.79-0.72-4.79-3.58
		c0-1.2,1.04-2.22,2.88-2.22c1.12,0,1.95,0.34,2.63,0.91c0.11,0.1,0.16,0.22,0.16,0.35c0,0.27-0.22,0.48-0.48,0.48
		c-0.11,0-0.22-0.03-0.32-0.11c-0.5-0.38-1.2-0.66-1.99-0.66c-1.06,0-1.71,0.53-1.71,1.22c0,1.7,4.79,0.58,4.79,3.59
		C190.23,218.32,189.19,219.36,187.19,219.36z"/>
	<path class="st20" d="M198.14,218.35c-0.59,0.61-1.38,1.01-2.54,1.01c-2.31,0-3.86-1.76-3.86-4.07c0-2.29,1.55-4.05,3.86-4.05
		c1.17,0,1.95,0.4,2.54,1.01c0.08,0.1,0.13,0.21,0.13,0.34c0,0.27-0.24,0.54-0.54,0.54c-0.16,0-0.3-0.06-0.42-0.18
		c-0.46-0.45-1.01-0.64-1.65-0.64c-1.65,0-2.67,1.26-2.67,2.98c0,1.71,1.02,2.99,2.67,2.99c0.64,0,1.18-0.21,1.65-0.66
		c0.11-0.1,0.26-0.14,0.4-0.14c0.29,0,0.56,0.22,0.56,0.53C198.27,218.13,198.23,218.26,198.14,218.35z"/>
	<path class="st20" d="M203.48,219.36c-2.35,0-3.83-1.83-3.83-4.07c0-2.24,1.47-4.05,3.83-4.05c2.35,0,3.83,1.81,3.83,4.05
		C207.31,217.54,205.83,219.36,203.48,219.36z M203.48,212.32c-1.65,0-2.58,1.41-2.58,2.98c0,1.58,0.93,2.99,2.58,2.99
		c1.65,0,2.56-1.41,2.56-2.99C206.04,213.73,205.13,212.32,203.48,212.32z"/>
</g>
<g>
	<path class="st8" d="M214.75,74h-2.96v3.68c0,0.37-0.29,0.66-0.67,0.66c-0.37,0-0.66-0.29-0.66-0.66v-9.16
		c0-0.53,0.43-0.96,0.96-0.96h3.33c2.15,0,3.35,1.47,3.35,3.22S216.87,74,214.75,74z M214.59,68.75h-2.8v4.07h2.8
		c1.26,0,2.13-0.83,2.13-2.03S215.86,68.75,214.59,68.75z"/>
	<path class="st8" d="M223.06,71.6c-0.79,0.05-1.54,0.4-2.05,1.17v4.98c0,0.32-0.27,0.59-0.61,0.59h-0.02
		c-0.32-0.02-0.58-0.27-0.58-0.59v-6.75c0-0.3,0.27-0.58,0.63-0.58c0.3,0,0.58,0.27,0.58,0.58v0.77c0.46-0.61,1.23-1.38,2.13-1.38
		c0.29,0,0.54,0.24,0.54,0.56C223.68,71.29,223.41,71.58,223.06,71.6z"/>
	<path class="st8" d="M226.5,68.6c0,0.45-0.37,0.8-0.82,0.8c-0.43,0-0.8-0.35-0.8-0.8s0.37-0.82,0.8-0.82
		C226.13,67.79,226.5,68.15,226.5,68.6z M225.68,78.33c-0.32,0-0.59-0.27-0.59-0.59v-6.75c0-0.3,0.27-0.58,0.63-0.58
		c0.3,0,0.58,0.27,0.58,0.58v6.75C226.29,78.06,226.02,78.33,225.68,78.33z"/>
	<path class="st8" d="M230.64,78.43c-1.14,0-1.71-0.66-1.71-1.81v-5.06h-0.86c-0.29,0-0.51-0.22-0.51-0.54
		c0-0.29,0.22-0.51,0.51-0.51h0.86v-1.63c0-0.3,0.27-0.58,0.62-0.58c0.3,0,0.58,0.27,0.58,0.58v1.63h1.15
		c0.29,0,0.51,0.22,0.51,0.54c0,0.29-0.22,0.51-0.51,0.51h-1.15v4.8c0,0.58,0.26,0.99,0.79,0.99c0.21,0,0.45-0.11,0.64-0.11
		c0.27,0,0.51,0.22,0.51,0.5C232.07,78.25,231.33,78.43,230.64,78.43z"/>
	<path class="st8" d="M239.2,78.33c-0.32,0-0.59-0.27-0.59-0.59v-0.59c-0.59,0.67-1.6,1.28-2.75,1.28c-1.62,0-2.46-0.78-2.46-2.46
		v-4.98c0-0.3,0.27-0.58,0.63-0.58c0.3,0,0.58,0.27,0.58,0.58v4.61c0,1.36,0.69,1.76,1.73,1.76c0.94,0,1.84-0.54,2.29-1.17v-5.2
		c0-0.3,0.27-0.58,0.62-0.58c0.3,0,0.58,0.27,0.58,0.58v6.75C239.81,78.06,239.54,78.33,239.2,78.33z"/>
	<path class="st8" d="M248.02,78.33c-0.32,0-0.59-0.27-0.59-0.59v-4.56c0-1.36-0.69-1.79-1.73-1.79c-0.94,0-1.84,0.58-2.29,1.2v5.15
		c0,0.32-0.27,0.59-0.61,0.59c-0.32,0-0.59-0.27-0.59-0.59v-6.75c0-0.3,0.27-0.58,0.63-0.58c0.3,0,0.58,0.27,0.58,0.58v0.64
		c0.54-0.64,1.6-1.31,2.75-1.31c1.62,0,2.46,0.82,2.46,2.5v4.93C248.63,78.06,248.35,78.33,248.02,78.33z"/>
	<path class="st8" d="M251.62,78.33c-0.32,0-0.59-0.27-0.59-0.59v-9.7c0-0.3,0.27-0.58,0.63-0.58c0.3,0,0.58,0.27,0.58,0.58v9.7
		C252.22,78.06,251.95,78.33,251.62,78.33z"/>
	<path class="st8" d="M262.26,78.43c-1.58,0-2.83-0.53-3.75-1.33c-0.14-0.13-0.21-0.3-0.21-0.48c0-0.32,0.24-0.67,0.63-0.67
		c0.13,0,0.27,0.03,0.38,0.13c0.74,0.66,1.76,1.17,2.99,1.17c1.91,0,2.51-1.02,2.51-1.84c0-2.75-6.32-1.23-6.32-5.04
		c0-1.76,1.57-2.96,3.67-2.96c1.38,0,2.56,0.42,3.42,1.14c0.14,0.13,0.22,0.3,0.22,0.48c0,0.32-0.27,0.64-0.63,0.64
		c-0.13,0-0.27-0.05-0.38-0.14c-0.78-0.64-1.76-0.93-2.74-0.93c-1.28,0-2.19,0.69-2.19,1.7c0,2.4,6.32,1.02,6.32,5.01
		C266.19,76.85,265.14,78.43,262.26,78.43z"/>
	<path class="st8" d="M274.53,74.76h-5.59c0.1,1.46,1.12,2.67,2.79,2.67c0.74,0,1.47-0.24,2.08-0.72c0.08-0.05,0.18-0.08,0.27-0.08
		c0.21,0,0.48,0.19,0.48,0.5c0,0.83-2,1.3-2.95,1.3c-2.29,0-3.94-1.65-3.94-4.07c0-2.24,1.6-4.05,3.81-4.05
		c1.92,0,3.19,1.22,3.59,2.99c0.05,0.24,0.11,0.53,0.11,0.8C275.19,74.46,274.9,74.76,274.53,74.76z M271.47,71.31
		c-1.65,0-2.46,1.39-2.53,2.58h5.07C274,72.73,273.23,71.31,271.47,71.31z"/>
	<path class="st8" d="M280.38,71.6c-0.79,0.05-1.54,0.4-2.05,1.17v4.98c0,0.32-0.27,0.59-0.61,0.59h-0.02
		c-0.32-0.02-0.58-0.27-0.58-0.59v-6.75c0-0.3,0.27-0.58,0.63-0.58c0.3,0,0.58,0.27,0.58,0.58v0.77c0.46-0.61,1.23-1.38,2.13-1.38
		c0.29,0,0.54,0.24,0.54,0.56C281.01,71.29,280.74,71.58,280.38,71.6z"/>
	<path class="st8" d="M288.72,71.21L286,77.77c-0.14,0.34-0.48,0.56-0.88,0.56h-0.02c-0.37,0-0.69-0.22-0.83-0.56l-2.72-6.56
		c-0.03-0.06-0.05-0.14-0.05-0.21c0-0.3,0.26-0.59,0.61-0.59c0.24,0,0.46,0.13,0.56,0.37l2.46,6.07l2.45-6.07
		c0.1-0.22,0.32-0.37,0.56-0.37c0.35,0,0.62,0.27,0.62,0.59C288.77,71.07,288.75,71.15,288.72,71.21z"/>
	<path class="st8" d="M296.66,74.76h-5.59c0.1,1.46,1.12,2.67,2.79,2.67c0.74,0,1.47-0.24,2.08-0.72c0.08-0.05,0.18-0.08,0.27-0.08
		c0.21,0,0.48,0.19,0.48,0.5c0,0.83-2,1.3-2.95,1.3c-2.29,0-3.94-1.65-3.94-4.07c0-2.24,1.6-4.05,3.81-4.05
		c1.92,0,3.19,1.22,3.59,2.99c0.05,0.24,0.11,0.53,0.11,0.8C297.31,74.46,297.03,74.76,296.66,74.76z M293.6,71.31
		c-1.65,0-2.46,1.39-2.53,2.58h5.07C296.13,72.73,295.36,71.31,293.6,71.31z"/>
	<path class="st8" d="M302.51,71.6c-0.79,0.05-1.54,0.4-2.05,1.17v4.98c0,0.32-0.27,0.59-0.61,0.59h-0.02
		c-0.32-0.02-0.58-0.27-0.58-0.59v-6.75c0-0.3,0.27-0.58,0.63-0.58c0.3,0,0.58,0.27,0.58,0.58v0.77c0.46-0.61,1.23-1.38,2.13-1.38
		c0.29,0,0.54,0.24,0.54,0.56C303.14,71.29,302.86,71.58,302.51,71.6z"/>
</g>
<rect x="14.92" y="23.81" class="st10" width="114.4" height="143.28"/>
<rect x="7" y="7.25" class="st21" width="304" height="196.5"/>
<g>
	<path class="st20" d="M604.86,219.26c-0.26,0-0.51-0.13-0.66-0.34l-6.05-8.28v7.96c0,0.37-0.29,0.66-0.67,0.66
		c-0.37,0-0.66-0.29-0.66-0.66v-9.41c0-0.42,0.35-0.8,0.85-0.8c0.27,0,0.54,0.13,0.7,0.35l5.96,8.08v-7.79
		c0-0.35,0.29-0.64,0.69-0.64c0.35,0,0.64,0.29,0.64,0.64v9.48C605.66,218.9,605.34,219.26,604.86,219.26z"/>
	<path class="st20" d="M614.51,215.7h-5.59c0.1,1.46,1.12,2.67,2.79,2.67c0.74,0,1.47-0.24,2.08-0.72c0.08-0.05,0.18-0.08,0.27-0.08
		c0.21,0,0.48,0.19,0.48,0.5c0,0.83-2,1.3-2.95,1.3c-2.29,0-3.94-1.65-3.94-4.07c0-2.24,1.6-4.05,3.81-4.05
		c1.92,0,3.19,1.22,3.59,2.99c0.05,0.24,0.11,0.53,0.11,0.8C615.16,215.39,614.88,215.7,614.51,215.7z M611.45,212.24
		c-1.65,0-2.46,1.39-2.53,2.58H614C613.98,213.66,613.21,212.24,611.45,212.24z"/>
	<path class="st20" d="M627.26,212.08l-2.13,6.66c-0.1,0.3-0.38,0.53-0.74,0.53h-0.02c-0.34,0-0.63-0.22-0.72-0.53l-1.87-5.78
		l-1.87,5.78c-0.1,0.3-0.4,0.53-0.75,0.53h-0.02c-0.34,0-0.61-0.22-0.7-0.53l-2.13-6.66c-0.02-0.05-0.03-0.11-0.03-0.16
		c0-0.27,0.24-0.58,0.58-0.58c0.26,0,0.51,0.16,0.59,0.4l1.79,5.86l1.92-5.81c0.1-0.27,0.32-0.45,0.64-0.45
		c0.27,0,0.51,0.18,0.61,0.45l1.92,5.81l1.79-5.86c0.08-0.24,0.32-0.4,0.58-0.4c0.34,0,0.59,0.27,0.59,0.58
		C627.29,211.97,627.28,212.03,627.26,212.08z"/>
	<path class="st20" d="M641.05,209.37l-3.58,5.28v3.95c0,0.37-0.29,0.66-0.67,0.66c-0.37,0-0.66-0.29-0.66-0.66v-3.95l-3.6-5.28
		c-0.06-0.1-0.11-0.21-0.11-0.34c0-0.3,0.24-0.64,0.64-0.64c0.19,0,0.42,0.1,0.54,0.27l3.18,4.79l3.19-4.79
		c0.11-0.16,0.32-0.26,0.51-0.26c0.35,0,0.66,0.29,0.66,0.62C641.15,209.15,641.12,209.28,641.05,209.37z"/>
	<path class="st20" d="M644.35,219.36c-2.35,0-3.83-1.83-3.83-4.07c0-2.24,1.47-4.05,3.83-4.05c2.35,0,3.83,1.81,3.83,4.05
		C648.17,217.54,646.7,219.36,644.35,219.36z M644.35,212.32c-1.65,0-2.58,1.41-2.58,2.98c0,1.58,0.93,2.99,2.58,2.99
		c1.65,0,2.56-1.41,2.56-2.99C646.91,213.73,645.99,212.32,644.35,212.32z"/>
	<path class="st20" d="M653.37,212.53c-0.79,0.05-1.54,0.4-2.05,1.17v4.98c0,0.32-0.27,0.59-0.61,0.59h-0.02
		c-0.32-0.02-0.58-0.27-0.58-0.59v-6.75c0-0.3,0.27-0.58,0.63-0.58c0.3,0,0.58,0.27,0.58,0.58v0.77c0.46-0.61,1.23-1.38,2.13-1.38
		c0.29,0,0.54,0.24,0.54,0.56C653.99,212.22,653.72,212.51,653.37,212.53z"/>
	<path class="st20" d="M661.03,219.28c-0.18,0-0.35-0.08-0.46-0.22l-2.69-3.36l-1.28,1.26v1.71c0,0.32-0.27,0.59-0.61,0.59
		c-0.32,0-0.59-0.27-0.59-0.59v-9.7c0-0.3,0.27-0.58,0.63-0.58c0.3,0,0.58,0.27,0.58,0.58v6.58l4-4.07c0.1-0.1,0.24-0.16,0.37-0.16
		c0.29,0,0.56,0.27,0.56,0.58c0,0.13-0.05,0.26-0.14,0.35l-2.63,2.69l2.74,3.38c0.08,0.1,0.13,0.22,0.13,0.35
		C661.63,218.95,661.4,219.28,661.03,219.28z"/>
</g>
<rect x="477" y="7.25" class="st21" width="304" height="196.5"/>
<path class="st7" d="M-201-31.21"/>
<g>
</g>
<g>
</g>
<g>
</g>
<g>
</g>
<g>
</g>
<g>
</g>
<g>
</g>
<g>
</g>
<g>
</g>
<g>
</g>
<g>
</g>
<g>
</g>
<g>
</g>
<g>
</g>
<g>
</g>
</svg>
