<?xml version="1.0" encoding="utf-8"?>
<!-- Generator: Adobe Illustrator 18.1.0, SVG Export Plug-In . SVG Version: 6.00 Build 0)  -->
<svg version="1.1" id="main" xmlns="http://www.w3.org/2000/svg" xmlns:xlink="http://www.w3.org/1999/xlink" x="0px" y="0px"
	 width="462px" height="199px" viewBox="0 0 462 199" style="enable-background:new 0 0 462 199;" xml:space="preserve">
<style type="text/css">
	.st0{fill:#404040;}
	.st1{fill:none;stroke:#000000;stroke-width:2;stroke-miterlimit:10;}
	.st2{opacity:0.6;fill:none;stroke:#000000;stroke-width:4;stroke-linecap:round;stroke-miterlimit:10;}
	.st3{fill:none;stroke:#54B734;stroke-width:4;stroke-linecap:round;stroke-miterlimit:10;}
	.st4{fill:none;stroke:#BF42F4;stroke-width:4;stroke-linecap:round;stroke-miterlimit:10;}
	.st5{fill:none;stroke:#64D0FF;stroke-width:4;stroke-linecap:round;stroke-miterlimit:10;}
	.st6{opacity:0.4;fill:none;stroke:#000000;stroke-width:1.7;stroke-linecap:round;stroke-miterlimit:10;}
	.st7{fill:none;stroke:#000000;stroke-width:2;stroke-linecap:round;stroke-miterlimit:10;}
	.st8{fill:none;stroke:#DDDDDD;stroke-width:6;stroke-linecap:round;stroke-miterlimit:10;}
	.st9{fill:none;stroke:#E07B58;stroke-width:6;stroke-linecap:round;stroke-miterlimit:10;}
	.st10{fill:#1C426B;}
	.st11{fill:#E07B58;}
	.st12{fill:none;stroke:#E07B58;stroke-width:4;stroke-linejoin:round;stroke-miterlimit:10;}
	.st13{opacity:0.6;fill:none;stroke:#000000;stroke-width:3;stroke-linecap:round;stroke-miterlimit:10;}
	.st14{fill:none;stroke:#54B734;stroke-width:3;stroke-linecap:round;stroke-miterlimit:10;}
	.st15{fill:none;stroke:#64D0FF;stroke-width:3;stroke-linecap:round;stroke-miterlimit:10;}
	.st16{fill:none;stroke:#BF42F4;stroke-width:3;stroke-linecap:round;stroke-miterlimit:10;}
	.st17{opacity:0.4;fill:none;stroke:#000000;stroke-linecap:round;stroke-miterlimit:10;}
</style>
<g>
	<polyline class="st0" points="347.75,136.81 347.75,156.81 447.75,156.81 447.75,136.81 347.75,136.81 367.82,108.14 
		427.67,108.14 447.75,136.81 	"/>
	<g>
		<line class="st1" x1="347.75" y1="136.81" x2="447.75" y2="136.81"/>
		<line class="st1" x1="447.75" y1="136.81" x2="447.75" y2="156.81"/>
		<line class="st1" x1="347.75" y1="136.81" x2="347.75" y2="156.81"/>
		<line class="st1" x1="347.75" y1="156.81" x2="447.75" y2="156.81"/>
		<line class="st1" x1="347.75" y1="136.81" x2="367.82" y2="108.14"/>
		<line class="st1" x1="447.75" y1="136.81" x2="427.67" y2="108.14"/>
		<line class="st1" x1="367.82" y1="108.14" x2="427.67" y2="108.14"/>
	</g>
	<line class="st2" x1="361.97" y1="146.75" x2="392.13" y2="146.75"/>
	<line class="st3" x1="354.38" y1="146.75" x2="354.38" y2="146.75"/>
	<line class="st4" x1="438.25" y1="146.75" x2="440.14" y2="146.75"/>
	<line class="st5" x1="429.25" y1="146.75" x2="431.14" y2="146.75"/>
	<line class="st6" x1="414.71" y1="120.42" x2="432.28" y2="120.42"/>
	<line class="st6" x1="413.64" y1="117.42" x2="430.28" y2="117.42"/>
	<line class="st6" x1="412.57" y1="114.42" x2="428.28" y2="114.42"/>
	<line class="st6" x1="411.5" y1="111.42" x2="426.28" y2="111.42"/>
	<path class="st7" d="M412.31,106.98"/>
	<path class="st7" d="M414.71,120.42"/>
</g>
<g>
	<polyline class="st0" points="347.75,109.81 347.75,129.81 447.75,129.81 447.75,109.81 347.75,109.81 367.82,81.14 427.67,81.14 
		447.75,109.81 	"/>
	<g>
		<line class="st1" x1="347.75" y1="109.81" x2="447.75" y2="109.81"/>
		<line class="st1" x1="447.75" y1="109.81" x2="447.75" y2="129.81"/>
		<line class="st1" x1="347.75" y1="109.81" x2="347.75" y2="129.81"/>
		<line class="st1" x1="347.75" y1="129.81" x2="447.75" y2="129.81"/>
		<line class="st1" x1="347.75" y1="109.81" x2="367.82" y2="81.14"/>
		<line class="st1" x1="447.75" y1="109.81" x2="427.67" y2="81.14"/>
		<line class="st1" x1="367.82" y1="81.14" x2="427.67" y2="81.14"/>
	</g>
	<line class="st2" x1="361.97" y1="119.75" x2="392.13" y2="119.75"/>
	<line class="st3" x1="354.38" y1="119.75" x2="354.38" y2="119.75"/>
	<line class="st4" x1="438.25" y1="119.75" x2="440.14" y2="119.75"/>
	<line class="st5" x1="429.25" y1="119.75" x2="431.14" y2="119.75"/>
	<line class="st6" x1="414.71" y1="93.42" x2="432.28" y2="93.42"/>
	<line class="st6" x1="413.64" y1="90.42" x2="430.28" y2="90.42"/>
	<line class="st6" x1="412.57" y1="87.42" x2="428.28" y2="87.42"/>
	<line class="st6" x1="411.5" y1="84.42" x2="426.28" y2="84.42"/>
	<path class="st7" d="M412.31,79.98"/>
	<path class="st7" d="M414.71,93.42"/>
</g>
<g>
	<polyline class="st0" points="347.75,82.81 347.75,102.81 447.75,102.81 447.75,82.81 347.75,82.81 367.82,54.14 427.67,54.14 
		447.75,82.81 	"/>
	<g>
		<line class="st1" x1="347.75" y1="82.81" x2="447.75" y2="82.81"/>
		<line class="st1" x1="447.75" y1="82.81" x2="447.75" y2="102.81"/>
		<line class="st1" x1="347.75" y1="82.81" x2="347.75" y2="102.81"/>
		<line class="st1" x1="347.75" y1="102.81" x2="447.75" y2="102.81"/>
		<line class="st1" x1="347.75" y1="82.81" x2="367.82" y2="54.14"/>
		<line class="st1" x1="447.75" y1="82.81" x2="427.67" y2="54.14"/>
		<line class="st1" x1="367.82" y1="54.14" x2="427.67" y2="54.14"/>
	</g>
	<line class="st2" x1="361.97" y1="92.75" x2="392.13" y2="92.75"/>
	<line class="st3" x1="354.38" y1="92.75" x2="354.38" y2="92.75"/>
	<line class="st4" x1="438.25" y1="92.75" x2="440.14" y2="92.75"/>
	<line class="st5" x1="429.25" y1="92.75" x2="431.14" y2="92.75"/>
	<line class="st6" x1="414.71" y1="66.42" x2="432.28" y2="66.42"/>
	<line class="st6" x1="413.64" y1="63.42" x2="430.28" y2="63.42"/>
	<line class="st6" x1="412.57" y1="60.42" x2="428.28" y2="60.42"/>
	<line class="st6" x1="411.5" y1="57.42" x2="426.28" y2="57.42"/>
	<path class="st7" d="M412.31,52.98"/>
	<path class="st7" d="M414.71,66.42"/>
</g>
<g>
	<polyline class="st0" points="347.75,55.81 347.75,75.81 447.75,75.81 447.75,55.81 347.75,55.81 367.82,27.14 427.67,27.14 
		447.75,55.81 	"/>
	<g>
		<line class="st1" x1="347.75" y1="55.81" x2="447.75" y2="55.81"/>
		<line class="st1" x1="447.75" y1="55.81" x2="447.75" y2="75.81"/>
		<line class="st1" x1="347.75" y1="55.81" x2="347.75" y2="75.81"/>
		<line class="st1" x1="347.75" y1="75.81" x2="447.75" y2="75.81"/>
		<line class="st1" x1="347.75" y1="55.81" x2="367.82" y2="27.14"/>
		<line class="st1" x1="447.75" y1="55.81" x2="427.67" y2="27.14"/>
		<line class="st1" x1="367.82" y1="27.14" x2="427.67" y2="27.14"/>
	</g>
	<line class="st2" x1="361.97" y1="65.75" x2="392.13" y2="65.75"/>
	<line class="st3" x1="354.38" y1="65.75" x2="354.38" y2="65.75"/>
	<line class="st4" x1="438.25" y1="65.75" x2="440.14" y2="65.75"/>
	<line class="st5" x1="429.25" y1="65.75" x2="431.14" y2="65.75"/>
	<line class="st6" x1="414.71" y1="39.42" x2="432.28" y2="39.42"/>
	<line class="st6" x1="413.64" y1="36.42" x2="430.28" y2="36.42"/>
	<line class="st6" x1="412.57" y1="33.42" x2="428.28" y2="33.42"/>
	<line class="st6" x1="411.5" y1="30.42" x2="426.28" y2="30.42"/>
	<path class="st7" d="M412.31,25.98"/>
	<path class="st7" d="M414.71,39.42"/>
</g>
<g>
	<polyline class="st0" points="139.78,126.38 139.78,146.38 239.78,146.38 239.78,126.38 139.78,126.38 159.85,97.71 219.7,97.71 
		239.78,126.38 	"/>
	<g>
		<line class="st7" x1="139.78" y1="126.38" x2="239.78" y2="126.38"/>
		<line class="st7" x1="239.78" y1="126.38" x2="239.78" y2="146.38"/>
		<line class="st7" x1="139.78" y1="126.38" x2="139.78" y2="146.38"/>
		<line class="st7" x1="139.78" y1="146.38" x2="239.78" y2="146.38"/>
		<line class="st7" x1="139.78" y1="126.38" x2="159.85" y2="97.71"/>
		<line class="st7" x1="239.78" y1="126.38" x2="219.7" y2="97.71"/>
		<line class="st7" x1="159.85" y1="97.71" x2="219.7" y2="97.71"/>
	</g>
	<line class="st2" x1="154" y1="136.33" x2="184.16" y2="136.33"/>
	<line class="st3" x1="146.41" y1="136.33" x2="146.41" y2="136.33"/>
	<line class="st4" x1="230.28" y1="136.33" x2="232.17" y2="136.33"/>
	<line class="st5" x1="221.28" y1="136.33" x2="223.17" y2="136.33"/>
	<line class="st6" x1="206.74" y1="109.99" x2="224.31" y2="109.99"/>
	<line class="st6" x1="205.67" y1="107" x2="222.31" y2="106.99"/>
	<line class="st6" x1="204.6" y1="103.99" x2="220.31" y2="103.99"/>
	<line class="st6" x1="203.53" y1="100.99" x2="218.31" y2="100.99"/>
	<path class="st7" d="M204.34,96.56"/>
	<path class="st7" d="M206.74,109.99"/>
</g>
<g>
	<polyline class="st0" points="140.47,38.45 140.47,58.45 240.47,58.45 240.47,38.45 140.47,38.45 160.55,9.78 220.39,9.78 
		240.47,38.45 	"/>
	<g>
		<line class="st7" x1="140.47" y1="38.45" x2="240.47" y2="38.45"/>
		<line class="st7" x1="240.47" y1="38.45" x2="240.47" y2="58.45"/>
		<line class="st7" x1="140.47" y1="38.45" x2="140.47" y2="58.45"/>
		<line class="st7" x1="140.47" y1="58.45" x2="240.47" y2="58.45"/>
		<line class="st7" x1="140.47" y1="38.45" x2="160.55" y2="9.78"/>
		<line class="st7" x1="240.47" y1="38.45" x2="220.39" y2="9.78"/>
		<line class="st7" x1="160.55" y1="9.78" x2="220.39" y2="9.78"/>
	</g>
	<line class="st2" x1="154.69" y1="48.4" x2="184.86" y2="48.4"/>
	<line class="st3" x1="147.11" y1="48.4" x2="147.11" y2="48.4"/>
	<line class="st4" x1="230.97" y1="48.4" x2="232.86" y2="48.4"/>
	<line class="st5" x1="221.97" y1="48.4" x2="223.86" y2="48.4"/>
	<line class="st6" x1="207.44" y1="22.06" x2="225" y2="22.06"/>
	<line class="st6" x1="206.37" y1="19.07" x2="223" y2="19.06"/>
	<line class="st6" x1="205.3" y1="16.06" x2="221" y2="16.06"/>
	<line class="st6" x1="204.23" y1="13.06" x2="219" y2="13.06"/>
	<path class="st7" d="M205.03,8.63"/>
	<path class="st7" d="M207.44,22.06"/>
</g>
<line class="st8" x1="248.95" y1="136.33" x2="331.45" y2="136.33"/>
<line class="st9" x1="248.7" y1="48.14" x2="331.2" y2="48.14"/>
<line class="st9" x1="49.53" y1="48.45" x2="132.03" y2="48.45"/>
<g>
	<path class="st10" d="M146.08,162.13h-4.85c-0.53,0-0.96-0.43-0.96-0.96V152c0-0.35,0.29-0.64,0.69-0.64
		c0.35,0,0.64,0.29,0.64,0.64v8.95h4.48c0.32,0,0.58,0.26,0.58,0.58C146.66,161.88,146.4,162.13,146.08,162.13z"/>
	<path class="st10" d="M151.42,162.33c-2.35,0-3.83-1.83-3.83-4.07c0-2.24,1.47-4.05,3.83-4.05c2.35,0,3.83,1.81,3.83,4.05
		C155.25,160.5,153.78,162.33,151.42,162.33z M151.42,155.28c-1.65,0-2.58,1.41-2.58,2.98c0,1.58,0.93,2.99,2.58,2.99
		c1.65,0,2.56-1.41,2.56-2.99C153.98,156.69,153.07,155.28,151.42,155.28z"/>
	<path class="st10" d="M162.62,162.23c-0.34,0-0.59-0.29-0.59-0.62v-0.35c-0.64,0.7-1.52,1.07-2.56,1.07
		c-1.31,0-2.71-0.88-2.71-2.56c0-1.73,1.39-2.54,2.71-2.54c1.06,0,1.94,0.34,2.56,1.06v-1.39c0-1.04-0.83-1.63-1.95-1.63
		c-0.77,0-1.42,0.24-2.02,0.74c-0.1,0.08-0.22,0.13-0.34,0.13c-0.26,0-0.53-0.19-0.53-0.48c0-0.13,0.05-0.26,0.16-0.35
		c0.82-0.74,1.78-1.07,2.88-1.07c1.63,0,2.99,0.74,2.99,2.61v4.82C163.23,161.96,162.96,162.23,162.62,162.23z M162.03,159.05
		c-0.46-0.64-1.28-0.96-2.13-0.96c-1.12,0-1.9,0.7-1.9,1.7c0,0.98,0.78,1.68,1.9,1.68c0.85,0,1.67-0.32,2.13-0.96V159.05z"/>
	<path class="st10" d="M171.82,162.23c-0.32,0-0.59-0.27-0.59-0.59v-0.66c-0.58,0.78-1.52,1.34-2.61,1.34
		c-2.02,0-3.44-1.54-3.44-4.05c0-2.46,1.41-4.07,3.44-4.07c1.04,0,1.99,0.51,2.61,1.36v-3.63c0-0.3,0.27-0.58,0.62-0.58
		c0.3,0,0.58,0.27,0.58,0.58v9.7C172.43,161.96,172.16,162.23,171.82,162.23z M171.23,156.53c-0.43-0.67-1.36-1.25-2.32-1.25
		c-1.55,0-2.48,1.28-2.48,2.99s0.93,2.98,2.48,2.98c0.96,0,1.89-0.54,2.32-1.22V156.53z"/>
	<path class="st10" d="M183.87,162.13h-3.91c-0.53,0-0.96-0.43-0.96-0.96v-8.76c0-0.53,0.43-0.96,0.96-0.96h3.79
		c1.86,0,2.99,1.12,2.99,2.72c0,1.34-0.9,2.24-1.87,2.45c1.14,0.18,2.08,1.34,2.08,2.63C186.96,160.97,185.82,162.13,183.87,162.13z
		 M183.53,152.64h-3.2v3.44h3.2c1.2,0,1.84-0.74,1.84-1.71C185.38,153.41,184.73,152.64,183.53,152.64z M183.6,157.27h-3.27v3.68
		h3.27c1.25,0,1.98-0.7,1.98-1.84C185.58,158.13,184.91,157.27,183.6,157.27z"/>
	<path class="st10" d="M194.45,162.23c-0.34,0-0.59-0.29-0.59-0.62v-0.35c-0.64,0.7-1.52,1.07-2.56,1.07
		c-1.31,0-2.71-0.88-2.71-2.56c0-1.73,1.39-2.54,2.71-2.54c1.06,0,1.94,0.34,2.56,1.06v-1.39c0-1.04-0.83-1.63-1.95-1.63
		c-0.77,0-1.42,0.24-2.02,0.74c-0.1,0.08-0.22,0.13-0.34,0.13c-0.26,0-0.53-0.19-0.53-0.48c0-0.13,0.05-0.26,0.16-0.35
		c0.82-0.74,1.78-1.07,2.88-1.07c1.63,0,2.99,0.74,2.99,2.61v4.82C195.06,161.96,194.78,162.23,194.45,162.23z M193.85,159.05
		c-0.46-0.64-1.28-0.96-2.13-0.96c-1.12,0-1.9,0.7-1.9,1.7c0,0.98,0.78,1.68,1.9,1.68c0.85,0,1.67-0.32,2.13-0.96V159.05z"/>
	<path class="st10" d="M198.04,162.23c-0.32,0-0.59-0.27-0.59-0.59v-9.7c0-0.3,0.27-0.58,0.63-0.58c0.3,0,0.58,0.27,0.58,0.58v9.7
		C198.65,161.96,198.38,162.23,198.04,162.23z"/>
	<path class="st10" d="M206.48,162.23c-0.34,0-0.59-0.29-0.59-0.62v-0.35c-0.64,0.7-1.52,1.07-2.56,1.07
		c-1.31,0-2.71-0.88-2.71-2.56c0-1.73,1.39-2.54,2.71-2.54c1.06,0,1.94,0.34,2.56,1.06v-1.39c0-1.04-0.83-1.63-1.95-1.63
		c-0.77,0-1.42,0.24-2.02,0.74c-0.1,0.08-0.22,0.13-0.34,0.13c-0.26,0-0.53-0.19-0.53-0.48c0-0.13,0.05-0.26,0.16-0.35
		c0.82-0.74,1.78-1.07,2.88-1.07c1.63,0,2.99,0.74,2.99,2.61v4.82C207.09,161.96,206.81,162.23,206.48,162.23z M205.89,159.05
		c-0.46-0.64-1.28-0.96-2.13-0.96c-1.12,0-1.9,0.7-1.9,1.7c0,0.98,0.78,1.68,1.9,1.68c0.85,0,1.67-0.32,2.13-0.96V159.05z"/>
	<path class="st10" d="M215.29,162.23c-0.32,0-0.59-0.27-0.59-0.59v-4.56c0-1.36-0.69-1.79-1.73-1.79c-0.94,0-1.84,0.58-2.29,1.2
		v5.15c0,0.32-0.27,0.59-0.61,0.59c-0.32,0-0.59-0.27-0.59-0.59v-6.75c0-0.3,0.27-0.58,0.63-0.58c0.3,0,0.58,0.27,0.58,0.58v0.64
		c0.54-0.64,1.6-1.31,2.75-1.31c1.62,0,2.46,0.82,2.46,2.5v4.93C215.9,161.96,215.63,162.23,215.29,162.23z"/>
	<path class="st10" d="M224.25,161.32c-0.59,0.61-1.38,1.01-2.55,1.01c-2.3,0-3.86-1.76-3.86-4.07c0-2.29,1.55-4.05,3.86-4.05
		c1.17,0,1.95,0.4,2.55,1.01c0.08,0.1,0.13,0.21,0.13,0.34c0,0.27-0.24,0.54-0.54,0.54c-0.16,0-0.3-0.06-0.42-0.18
		c-0.46-0.45-1.01-0.64-1.65-0.64c-1.65,0-2.67,1.26-2.67,2.98c0,1.71,1.02,2.99,2.67,2.99c0.64,0,1.18-0.21,1.65-0.66
		c0.11-0.1,0.26-0.14,0.4-0.14c0.29,0,0.56,0.22,0.56,0.53C224.38,161.09,224.35,161.22,224.25,161.32z"/>
	<path class="st10" d="M232.62,158.66h-5.59c0.1,1.46,1.12,2.67,2.79,2.67c0.74,0,1.47-0.24,2.08-0.72
		c0.08-0.05,0.18-0.08,0.27-0.08c0.21,0,0.48,0.19,0.48,0.5c0,0.83-2,1.3-2.95,1.3c-2.29,0-3.94-1.65-3.94-4.07
		c0-2.24,1.6-4.05,3.81-4.05c1.92,0,3.19,1.22,3.59,2.99c0.05,0.24,0.11,0.53,0.11,0.8C233.28,158.36,232.99,158.66,232.62,158.66z
		 M229.57,155.2c-1.65,0-2.46,1.39-2.53,2.58h5.07C232.09,156.63,231.33,155.2,229.57,155.2z"/>
	<path class="st10" d="M238.48,155.49c-0.79,0.05-1.54,0.4-2.05,1.17v4.98c0,0.32-0.27,0.59-0.61,0.59h-0.02
		c-0.32-0.02-0.58-0.27-0.58-0.59v-6.75c0-0.3,0.27-0.58,0.63-0.58c0.3,0,0.58,0.27,0.58,0.58v0.77c0.46-0.61,1.23-1.38,2.13-1.38
		c0.29,0,0.54,0.24,0.54,0.56C239.1,155.19,238.83,155.48,238.48,155.49z"/>
</g>
<g>
	<path class="st11" d="M347.37,174.89h-2.96v3.68c0,0.37-0.29,0.66-0.67,0.66c-0.37,0-0.66-0.29-0.66-0.66v-9.16
		c0-0.53,0.43-0.96,0.96-0.96h3.33c2.14,0,3.35,1.47,3.35,3.22S349.49,174.89,347.37,174.89z M347.21,169.64h-2.8v4.07h2.8
		c1.26,0,2.13-0.83,2.13-2.03S348.48,169.64,347.21,169.64z"/>
	<path class="st11" d="M355.68,172.49c-0.79,0.05-1.54,0.4-2.05,1.17v4.98c0,0.32-0.27,0.59-0.61,0.59H353
		c-0.32-0.02-0.58-0.27-0.58-0.59v-6.75c0-0.3,0.27-0.58,0.63-0.58c0.3,0,0.58,0.27,0.58,0.58v0.77c0.46-0.61,1.23-1.38,2.13-1.38
		c0.29,0,0.54,0.24,0.54,0.56C356.3,172.19,356.03,172.48,355.68,172.49z"/>
	<path class="st11" d="M359.12,169.5c0,0.45-0.37,0.8-0.82,0.8c-0.43,0-0.8-0.35-0.8-0.8s0.37-0.82,0.8-0.82
		C358.75,168.68,359.12,169.05,359.12,169.5z M358.3,179.23c-0.32,0-0.59-0.27-0.59-0.59v-6.75c0-0.3,0.27-0.58,0.63-0.58
		c0.3,0,0.58,0.27,0.58,0.58v6.75C358.91,178.96,358.64,179.23,358.3,179.23z"/>
	<path class="st11" d="M367.61,172.11l-2.72,6.56c-0.14,0.34-0.48,0.56-0.88,0.56H364c-0.37,0-0.69-0.22-0.83-0.56l-2.72-6.56
		c-0.03-0.06-0.05-0.14-0.05-0.21c0-0.3,0.26-0.59,0.61-0.59c0.24,0,0.46,0.13,0.56,0.37l2.46,6.07l2.45-6.07
		c0.1-0.22,0.32-0.37,0.56-0.37c0.35,0,0.62,0.27,0.62,0.59C367.66,171.96,367.65,172.04,367.61,172.11z"/>
	<path class="st11" d="M374.57,179.23c-0.34,0-0.59-0.29-0.59-0.62v-0.35c-0.64,0.7-1.52,1.07-2.56,1.07
		c-1.31,0-2.71-0.88-2.71-2.56c0-1.73,1.39-2.54,2.71-2.54c1.06,0,1.94,0.34,2.56,1.06v-1.39c0-1.04-0.83-1.63-1.95-1.63
		c-0.77,0-1.42,0.24-2.02,0.74c-0.1,0.08-0.22,0.13-0.34,0.13c-0.26,0-0.53-0.19-0.53-0.48c0-0.13,0.05-0.26,0.16-0.35
		c0.82-0.74,1.78-1.07,2.88-1.07c1.63,0,2.99,0.74,2.99,2.61v4.82C375.18,178.96,374.91,179.23,374.57,179.23z M373.98,176.05
		c-0.46-0.64-1.28-0.96-2.13-0.96c-1.12,0-1.9,0.7-1.9,1.7c0,0.98,0.78,1.68,1.9,1.68c0.85,0,1.67-0.32,2.13-0.96V176.05z"/>
	<path class="st11" d="M379.53,179.33c-1.14,0-1.71-0.66-1.71-1.81v-5.06h-0.86c-0.29,0-0.51-0.22-0.51-0.54
		c0-0.29,0.22-0.51,0.51-0.51h0.86v-1.63c0-0.3,0.27-0.58,0.62-0.58c0.3,0,0.58,0.27,0.58,0.58v1.63h1.15
		c0.29,0,0.51,0.22,0.51,0.54c0,0.29-0.22,0.51-0.51,0.51h-1.15v4.8c0,0.58,0.26,0.99,0.79,0.99c0.21,0,0.45-0.11,0.64-0.11
		c0.27,0,0.51,0.22,0.51,0.5C380.96,179.15,380.22,179.33,379.53,179.33z"/>
	<path class="st11" d="M388.69,175.66h-5.59c0.1,1.46,1.12,2.67,2.79,2.67c0.74,0,1.47-0.24,2.08-0.72
		c0.08-0.05,0.18-0.08,0.27-0.08c0.21,0,0.48,0.19,0.48,0.5c0,0.83-2,1.3-2.95,1.3c-2.29,0-3.94-1.65-3.94-4.07
		c0-2.24,1.6-4.05,3.81-4.05c1.92,0,3.19,1.22,3.59,2.99c0.05,0.24,0.11,0.53,0.11,0.8C389.34,175.36,389.05,175.66,388.69,175.66z
		 M385.63,172.2c-1.65,0-2.46,1.39-2.53,2.58h5.07C388.16,173.63,387.39,172.2,385.63,172.2z"/>
	<path class="st11" d="M403.5,179.23c-0.26,0-0.51-0.13-0.66-0.34l-6.05-8.28v7.96c0,0.37-0.29,0.66-0.67,0.66
		c-0.37,0-0.66-0.29-0.66-0.66v-9.41c0-0.42,0.35-0.8,0.85-0.8c0.27,0,0.54,0.13,0.7,0.35l5.96,8.08V169c0-0.35,0.29-0.64,0.69-0.64
		c0.35,0,0.64,0.29,0.64,0.64v9.48C404.3,178.86,403.98,179.23,403.5,179.23z"/>
	<path class="st11" d="M413.15,175.66h-5.59c0.1,1.46,1.12,2.67,2.79,2.67c0.74,0,1.47-0.24,2.08-0.72
		c0.08-0.05,0.18-0.08,0.27-0.08c0.21,0,0.48,0.19,0.48,0.5c0,0.83-2,1.3-2.95,1.3c-2.29,0-3.94-1.65-3.94-4.07
		c0-2.24,1.6-4.05,3.81-4.05c1.92,0,3.19,1.22,3.59,2.99c0.05,0.24,0.11,0.53,0.11,0.8C413.81,175.36,413.52,175.66,413.15,175.66z
		 M410.09,172.2c-1.65,0-2.46,1.39-2.53,2.58h5.07C412.62,173.63,411.85,172.2,410.09,172.2z"/>
	<path class="st11" d="M417.71,179.33c-1.14,0-1.71-0.66-1.71-1.81v-5.06h-0.86c-0.29,0-0.51-0.22-0.51-0.54
		c0-0.29,0.22-0.51,0.51-0.51h0.86v-1.63c0-0.3,0.27-0.58,0.62-0.58c0.3,0,0.58,0.27,0.58,0.58v1.63h1.15
		c0.29,0,0.51,0.22,0.51,0.54c0,0.29-0.22,0.51-0.51,0.51h-1.15v4.8c0,0.58,0.26,0.99,0.79,0.99c0.21,0,0.45-0.11,0.64-0.11
		c0.27,0,0.51,0.22,0.51,0.5C419.13,179.15,418.4,179.33,417.71,179.33z"/>
	<path class="st11" d="M430.61,172.04l-2.13,6.66c-0.1,0.3-0.38,0.53-0.74,0.53h-0.02c-0.34,0-0.63-0.22-0.72-0.53l-1.87-5.78
		l-1.87,5.78c-0.1,0.3-0.4,0.53-0.75,0.53h-0.02c-0.34,0-0.61-0.22-0.7-0.53l-2.13-6.66c-0.02-0.05-0.03-0.11-0.03-0.16
		c0-0.27,0.24-0.58,0.58-0.58c0.26,0,0.51,0.16,0.59,0.4l1.79,5.86l1.92-5.81c0.1-0.27,0.32-0.45,0.64-0.45
		c0.27,0,0.51,0.18,0.61,0.45l1.92,5.81l1.79-5.86c0.08-0.24,0.32-0.4,0.58-0.4c0.34,0,0.59,0.27,0.59,0.58
		C430.64,171.93,430.62,172,430.61,172.04z"/>
	<path class="st11" d="M435.58,179.33c-2.35,0-3.83-1.83-3.83-4.07c0-2.24,1.47-4.05,3.83-4.05c2.35,0,3.83,1.81,3.83,4.05
		C439.4,177.5,437.93,179.33,435.58,179.33z M435.58,172.28c-1.65,0-2.58,1.41-2.58,2.98c0,1.58,0.93,2.99,2.58,2.99
		c1.65,0,2.56-1.41,2.56-2.99C438.14,173.69,437.23,172.28,435.58,172.28z"/>
	<path class="st11" d="M444.6,172.49c-0.79,0.05-1.54,0.4-2.05,1.17v4.98c0,0.32-0.27,0.59-0.61,0.59h-0.02
		c-0.32-0.02-0.58-0.27-0.58-0.59v-6.75c0-0.3,0.27-0.58,0.63-0.58c0.3,0,0.58,0.27,0.58,0.58v0.77c0.46-0.61,1.23-1.38,2.13-1.38
		c0.29,0,0.54,0.24,0.54,0.56C445.23,172.19,444.96,172.48,444.6,172.49z"/>
	<path class="st11" d="M452.27,179.25c-0.18,0-0.35-0.08-0.46-0.22l-2.69-3.36l-1.28,1.26v1.71c0,0.32-0.27,0.59-0.61,0.59
		c-0.32,0-0.59-0.27-0.59-0.59v-9.7c0-0.3,0.27-0.58,0.63-0.58c0.3,0,0.58,0.27,0.58,0.58v6.58l4-4.07c0.1-0.1,0.24-0.16,0.37-0.16
		c0.29,0,0.56,0.27,0.56,0.58c0,0.13-0.05,0.26-0.14,0.35l-2.63,2.69l2.74,3.38c0.08,0.1,0.13,0.22,0.13,0.35
		C452.86,178.91,452.64,179.25,452.27,179.25z"/>
	<path class="st11" d="M360.35,194.23c-0.37,0-0.66-0.29-0.66-0.66v-8.36l-1.41,1.49c-0.11,0.11-0.24,0.16-0.38,0.16
		c-0.29,0-0.58-0.24-0.58-0.58c0-0.14,0.05-0.29,0.16-0.4l2.26-2.3c0.13-0.14,0.32-0.21,0.53-0.21c0.4,0,0.75,0.3,0.75,0.72v9.48
		C361.02,193.94,360.73,194.23,360.35,194.23z"/>
	<path class="st11" d="M367.16,194.33c-2.93,0-4.08-2.93-4.08-5.52c0-2.61,1.15-5.51,4.08-5.51c2.91,0,4.08,2.9,4.08,5.51
		C371.25,191.4,370.08,194.33,367.16,194.33z M367.16,184.48c-2.03,0-2.72,2.19-2.72,4.32s0.69,4.34,2.72,4.34
		c2.03,0,2.72-2.21,2.72-4.34S369.2,184.48,367.16,184.48z"/>
	<path class="st11" d="M373.4,194.29c-0.48,0-0.88-0.4-0.88-0.88c0-0.48,0.4-0.88,0.88-0.88s0.88,0.4,0.88,0.88
		C374.28,193.89,373.88,194.29,373.4,194.29z"/>
	<path class="st11" d="M382.96,194.13h-6.39c-0.3,0-0.61-0.27-0.61-0.64c0-0.19,0.08-0.37,0.24-0.5c3.75-2.9,5.83-4.77,5.83-6.56
		c0-1.36-1.12-1.95-2.23-1.95c-1.06,0-1.94,0.37-2.58,0.99c-0.11,0.11-0.26,0.16-0.38,0.16c-0.3,0-0.61-0.26-0.61-0.59
		c0-0.14,0.05-0.3,0.16-0.42c0.88-0.88,2.1-1.33,3.41-1.33c1.78,0,3.59,1.01,3.59,3.14c0,2.18-2.21,4.16-5.19,6.51h4.75
		c0.32,0,0.58,0.26,0.58,0.58C383.53,193.88,383.28,194.13,382.96,194.13z"/>
	<path class="st11" d="M392.6,191.43h-1.04v2.14c0,0.37-0.29,0.66-0.67,0.66c-0.37,0-0.66-0.29-0.66-0.66v-2.14h-4.51
		c-0.34,0-0.66-0.29-0.66-0.72c0-0.14,0.05-0.3,0.13-0.43l4.27-6.42c0.21-0.3,0.58-0.5,0.96-0.5c0.61,0,1.14,0.53,1.14,1.12v5.78
		h1.04c0.3,0,0.56,0.26,0.56,0.59C393.17,191.17,392.91,191.43,392.6,191.43z M390.24,184.69l-3.75,5.57h3.75V184.69z"/>
	<path class="st11" d="M395.42,194.29c-0.48,0-0.88-0.4-0.88-0.88c0-0.48,0.4-0.88,0.88-0.88s0.88,0.4,0.88,0.88
		C396.3,193.89,395.9,194.29,395.42,194.29z"/>
	<path class="st11" d="M401.66,194.33c-2.93,0-4.08-2.93-4.08-5.52c0-2.61,1.15-5.51,4.08-5.51c2.91,0,4.08,2.9,4.08,5.51
		C405.74,191.4,404.57,194.33,401.66,194.33z M401.66,184.48c-2.03,0-2.72,2.19-2.72,4.32s0.69,4.34,2.72,4.34
		c2.03,0,2.72-2.21,2.72-4.34S403.69,184.48,401.66,184.48z"/>
	<path class="st11" d="M407.9,194.29c-0.48,0-0.88-0.4-0.88-0.88c0-0.48,0.4-0.88,0.88-0.88s0.88,0.4,0.88,0.88
		C408.78,193.89,408.38,194.29,407.9,194.29z"/>
	<path class="st11" d="M414.14,194.33c-2.93,0-4.08-2.93-4.08-5.52c0-2.61,1.15-5.51,4.08-5.51c2.91,0,4.08,2.9,4.08,5.51
		C418.22,191.4,417.05,194.33,414.14,194.33z M414.14,184.48c-2.03,0-2.72,2.19-2.72,4.32s0.69,4.34,2.72,4.34
		c2.03,0,2.72-2.21,2.72-4.34S416.17,184.48,414.14,184.48z"/>
	<path class="st11" d="M423.63,183.55l-3.6,10.79c-0.06,0.18-0.22,0.29-0.42,0.29c-0.26,0-0.46-0.21-0.46-0.45
		c0-0.05,0.02-0.1,0.03-0.14l3.6-10.79c0.06-0.18,0.22-0.29,0.42-0.29c0.26,0,0.45,0.22,0.45,0.45
		C423.64,183.46,423.64,183.51,423.63,183.55z"/>
	<path class="st11" d="M427.28,194.23c-0.37,0-0.66-0.29-0.66-0.66v-8.36l-1.41,1.49c-0.11,0.11-0.24,0.16-0.38,0.16
		c-0.29,0-0.58-0.24-0.58-0.58c0-0.14,0.05-0.29,0.16-0.4l2.26-2.3c0.13-0.14,0.32-0.21,0.53-0.21c0.4,0,0.75,0.3,0.75,0.72v9.48
		C427.95,193.94,427.66,194.23,427.28,194.23z"/>
	<path class="st11" d="M434.12,194.33c-2.98,0-4.11-2.61-4.11-5.51c0-2.9,1.34-5.52,4.34-5.52c1.17,0,2,0.34,2.72,1.02
		c0.11,0.11,0.16,0.26,0.16,0.4c0,0.32-0.27,0.59-0.59,0.59c-0.14,0-0.29-0.05-0.4-0.14c-0.46-0.42-1.02-0.69-1.89-0.69
		c-2.07,0-3.01,2.1-3.01,4.19c0,0.14,0,0.27,0.02,0.42c0.46-0.74,1.65-1.67,3.03-1.67c1.92,0,3.49,1.14,3.49,3.41
		C437.87,192.69,436.46,194.33,434.12,194.33z M434.06,188.58c-1.06,0-2.08,0.66-2.67,1.6c0.13,1.33,0.83,2.96,2.69,2.96
		c1.65,0,2.45-1.23,2.45-2.26C436.52,189.32,435.44,188.58,434.06,188.58z"/>
</g>
<g>
	<path class="st10" d="M151.37,69.96h-2.96v3.68c0,0.37-0.29,0.66-0.67,0.66c-0.37,0-0.66-0.29-0.66-0.66v-9.16
		c0-0.53,0.43-0.96,0.96-0.96h3.33c2.15,0,3.35,1.47,3.35,3.22S153.49,69.96,151.37,69.96z M151.21,64.71h-2.8v4.07h2.8
		c1.26,0,2.13-0.83,2.13-2.03S152.48,64.71,151.21,64.71z"/>
	<path class="st10" d="M159.68,67.56c-0.79,0.05-1.54,0.4-2.05,1.17v4.98c0,0.32-0.27,0.59-0.61,0.59H157
		c-0.32-0.02-0.58-0.27-0.58-0.59v-6.75c0-0.3,0.27-0.58,0.63-0.58c0.3,0,0.58,0.27,0.58,0.58v0.77c0.46-0.61,1.23-1.38,2.13-1.38
		c0.29,0,0.54,0.24,0.54,0.56C160.3,67.26,160.03,67.55,159.68,67.56z"/>
	<path class="st10" d="M163.12,64.57c0,0.45-0.37,0.8-0.82,0.8c-0.43,0-0.8-0.35-0.8-0.8s0.37-0.82,0.8-0.82
		C162.75,63.75,163.12,64.12,163.12,64.57z M162.3,74.3c-0.32,0-0.59-0.27-0.59-0.59v-6.75c0-0.3,0.27-0.58,0.63-0.58
		c0.3,0,0.58,0.27,0.58,0.58v6.75C162.91,74.03,162.64,74.3,162.3,74.3z"/>
	<path class="st10" d="M167.26,74.4c-1.14,0-1.71-0.66-1.71-1.81v-5.06h-0.86c-0.29,0-0.51-0.22-0.51-0.54
		c0-0.29,0.22-0.51,0.51-0.51h0.86v-1.63c0-0.3,0.27-0.58,0.62-0.58c0.3,0,0.58,0.27,0.58,0.58v1.63h1.15
		c0.29,0,0.51,0.22,0.51,0.54c0,0.29-0.22,0.51-0.51,0.51h-1.15v4.8c0,0.58,0.26,0.99,0.79,0.99c0.21,0,0.45-0.11,0.64-0.11
		c0.27,0,0.51,0.22,0.51,0.5C168.69,74.22,167.95,74.4,167.26,74.4z"/>
	<path class="st10" d="M175.82,74.3c-0.32,0-0.59-0.27-0.59-0.59v-0.59c-0.59,0.67-1.6,1.28-2.75,1.28c-1.62,0-2.46-0.78-2.46-2.46
		v-4.98c0-0.3,0.27-0.58,0.63-0.58c0.3,0,0.58,0.27,0.58,0.58v4.61c0,1.36,0.69,1.76,1.73,1.76c0.94,0,1.84-0.54,2.29-1.17v-5.2
		c0-0.3,0.27-0.58,0.62-0.58c0.3,0,0.58,0.27,0.58,0.58v6.75C176.43,74.03,176.16,74.3,175.82,74.3z"/>
	<path class="st10" d="M184.64,74.3c-0.32,0-0.59-0.27-0.59-0.59v-4.56c0-1.36-0.69-1.79-1.73-1.79c-0.94,0-1.84,0.58-2.29,1.2v5.15
		c0,0.32-0.27,0.59-0.61,0.59c-0.32,0-0.59-0.27-0.59-0.59v-6.75c0-0.3,0.27-0.58,0.63-0.58c0.3,0,0.58,0.27,0.58,0.58v0.64
		c0.54-0.64,1.6-1.31,2.75-1.31c1.62,0,2.46,0.82,2.46,2.5v4.93C185.25,74.03,184.97,74.3,184.64,74.3z"/>
	<path class="st10" d="M188.24,74.3c-0.32,0-0.59-0.27-0.59-0.59v-9.7c0-0.3,0.27-0.58,0.63-0.58c0.3,0,0.58,0.27,0.58,0.58v9.7
		C188.84,74.03,188.57,74.3,188.24,74.3z"/>
	<path class="st10" d="M198.88,74.4c-1.58,0-2.83-0.53-3.75-1.33c-0.14-0.13-0.21-0.3-0.21-0.48c0-0.32,0.24-0.67,0.63-0.67
		c0.13,0,0.27,0.03,0.38,0.13c0.74,0.66,1.76,1.17,2.99,1.17c1.91,0,2.51-1.02,2.51-1.84c0-2.75-6.32-1.23-6.32-5.04
		c0-1.76,1.57-2.96,3.67-2.96c1.38,0,2.56,0.42,3.42,1.14c0.14,0.13,0.22,0.3,0.22,0.48c0,0.32-0.27,0.64-0.63,0.64
		c-0.13,0-0.27-0.05-0.38-0.14c-0.78-0.64-1.76-0.93-2.74-0.93c-1.28,0-2.19,0.69-2.19,1.7c0,2.4,6.32,1.02,6.32,5.01
		C202.81,72.81,201.76,74.4,198.88,74.4z"/>
	<path class="st10" d="M211.15,70.73h-5.59c0.1,1.46,1.12,2.67,2.79,2.67c0.74,0,1.47-0.24,2.08-0.72c0.08-0.05,0.18-0.08,0.27-0.08
		c0.21,0,0.48,0.19,0.48,0.5c0,0.83-2,1.3-2.95,1.3c-2.29,0-3.94-1.65-3.94-4.07c0-2.24,1.6-4.05,3.81-4.05
		c1.92,0,3.19,1.22,3.59,2.99c0.05,0.24,0.11,0.53,0.11,0.8C211.81,70.43,211.52,70.73,211.15,70.73z M208.09,67.27
		c-1.65,0-2.46,1.39-2.53,2.58h5.07C210.62,68.7,209.85,67.27,208.09,67.27z"/>
	<path class="st10" d="M217,67.56c-0.79,0.05-1.54,0.4-2.05,1.17v4.98c0,0.32-0.27,0.59-0.61,0.59h-0.02
		c-0.32-0.02-0.58-0.27-0.58-0.59v-6.75c0-0.3,0.27-0.58,0.63-0.58c0.3,0,0.58,0.27,0.58,0.58v0.77c0.46-0.61,1.23-1.38,2.13-1.38
		c0.29,0,0.54,0.24,0.54,0.56C217.63,67.26,217.36,67.55,217,67.56z"/>
	<path class="st10" d="M225.34,67.18l-2.72,6.56c-0.14,0.34-0.48,0.56-0.88,0.56h-0.02c-0.37,0-0.69-0.22-0.83-0.56l-2.72-6.56
		c-0.03-0.06-0.05-0.14-0.05-0.21c0-0.3,0.26-0.59,0.61-0.59c0.24,0,0.46,0.13,0.56,0.37l2.46,6.07l2.45-6.07
		c0.1-0.22,0.32-0.37,0.56-0.37c0.35,0,0.62,0.27,0.62,0.59C225.39,67.03,225.37,67.11,225.34,67.18z"/>
	<path class="st10" d="M233.28,70.73h-5.59c0.1,1.46,1.12,2.67,2.79,2.67c0.74,0,1.47-0.24,2.08-0.72c0.08-0.05,0.18-0.08,0.27-0.08
		c0.21,0,0.48,0.19,0.48,0.5c0,0.83-2,1.3-2.95,1.3c-2.29,0-3.94-1.65-3.94-4.07c0-2.24,1.6-4.05,3.81-4.05
		c1.92,0,3.19,1.22,3.59,2.99c0.05,0.24,0.11,0.53,0.11,0.8C233.93,70.43,233.65,70.73,233.28,70.73z M230.22,67.27
		c-1.65,0-2.46,1.39-2.53,2.58h5.07C232.75,68.7,231.98,67.27,230.22,67.27z"/>
	<path class="st10" d="M239.13,67.56c-0.79,0.05-1.54,0.4-2.05,1.17v4.98c0,0.32-0.27,0.59-0.61,0.59h-0.02
		c-0.32-0.02-0.58-0.27-0.58-0.59v-6.75c0-0.3,0.27-0.58,0.63-0.58c0.3,0,0.58,0.27,0.58,0.58v0.77c0.46-0.61,1.23-1.38,2.13-1.38
		c0.29,0,0.54,0.24,0.54,0.56C239.76,67.26,239.48,67.55,239.13,67.56z"/>
</g>
<g>
	<path class="st10" d="M12.89,91.61c-2.9,0-4.35-1.71-4.35-4.34v-5.99c0-0.35,0.29-0.64,0.69-0.64c0.35,0,0.64,0.29,0.64,0.64v5.95
		c0,1.95,1.06,3.19,3.03,3.19s3.03-1.23,3.03-3.19v-5.95c0-0.35,0.29-0.64,0.69-0.64c0.35,0,0.64,0.29,0.64,0.64v5.97
		C17.24,89.91,15.79,91.61,12.89,91.61z"/>
	<path class="st10" d="M22.14,91.61c-1.09,0-2.08-0.29-2.88-0.99c-0.11-0.1-0.18-0.22-0.18-0.37c0-0.29,0.24-0.51,0.54-0.51
		c0.13,0,0.24,0.03,0.35,0.11c0.56,0.45,1.36,0.78,2.21,0.78c1.18,0,1.83-0.56,1.83-1.33c0-1.87-4.79-0.72-4.79-3.58
		c0-1.2,1.04-2.22,2.88-2.22c1.12,0,1.95,0.34,2.63,0.91c0.11,0.1,0.16,0.22,0.16,0.35c0,0.27-0.22,0.48-0.48,0.48
		c-0.11,0-0.22-0.03-0.32-0.11c-0.5-0.38-1.2-0.66-1.99-0.66c-1.06,0-1.71,0.53-1.71,1.22c0,1.7,4.79,0.58,4.79,3.59
		C25.18,90.57,24.14,91.61,22.14,91.61z"/>
	<path class="st10" d="M33.53,87.94h-5.59c0.1,1.46,1.12,2.67,2.79,2.67c0.74,0,1.47-0.24,2.08-0.72c0.08-0.05,0.18-0.08,0.27-0.08
		c0.21,0,0.48,0.19,0.48,0.5c0,0.83-2,1.3-2.95,1.3c-2.29,0-3.94-1.65-3.94-4.07c0-2.24,1.6-4.05,3.81-4.05
		c1.92,0,3.19,1.22,3.59,2.99c0.05,0.24,0.11,0.53,0.11,0.8C34.19,87.64,33.9,87.94,33.53,87.94z M30.47,84.49
		c-1.65,0-2.46,1.39-2.53,2.58h5.07C33,85.91,32.23,84.49,30.47,84.49z"/>
	<path class="st10" d="M39.38,84.77c-0.79,0.05-1.54,0.4-2.05,1.17v4.98c0,0.32-0.27,0.59-0.61,0.59h-0.02
		c-0.32-0.02-0.58-0.27-0.58-0.59v-6.75c0-0.3,0.27-0.58,0.63-0.58c0.3,0,0.58,0.27,0.58,0.58v0.77c0.46-0.61,1.23-1.38,2.13-1.38
		c0.29,0,0.54,0.24,0.54,0.56C40.01,84.47,39.74,84.76,39.38,84.77z"/>
</g>
<rect x="340.54" y="19.78" class="st12" width="114.4" height="143.28"/>
<path class="st7" d="M72.07-25.12"/>
<path class="st7" d="M44.68-25.12"/>
<polyline class="st0" points="5.75,25.84 41.75,25.84 41.75,76.84 5.75,76.84 5.75,25.84 14,5.99 33.5,5.99 41.75,25.84 "/>
<path class="st7" d="M37.26,25.84"/>
<path class="st7" d="M5.75,25.84"/>
<g>
	<line class="st7" x1="5.75" y1="76.84" x2="41.75" y2="76.84"/>
	<line class="st7" x1="5.75" y1="76.84" x2="5.75" y2="25.84"/>
	<line class="st7" x1="41.75" y1="76.84" x2="41.75" y2="25.84"/>
	<line class="st7" x1="5.75" y1="25.84" x2="41.75" y2="25.84"/>
	<line class="st7" x1="5.75" y1="25.84" x2="14" y2="5.99"/>
	<line class="st7" x1="41.75" y1="25.84" x2="33.5" y2="5.99"/>
	<line class="st7" x1="33.5" y1="5.99" x2="14" y2="5.99"/>
</g>
<line class="st13" x1="14.97" y1="37.09" x2="37.26" y2="37.09"/>
<line class="st14" x1="10.53" y1="37.09" x2="10.53" y2="37.09"/>
<line class="st15" x1="10.53" y1="31.09" x2="10.53" y2="31.09"/>
<line class="st16" x1="15.53" y1="31.09" x2="15.53" y2="31.09"/>
<line class="st13" x1="14.97" y1="42.09" x2="37.26" y2="42.09"/>
<line class="st14" x1="10.53" y1="42.09" x2="10.53" y2="42.09"/>
<line class="st13" x1="14.97" y1="47.09" x2="37.26" y2="47.09"/>
<line class="st14" x1="10.53" y1="47.09" x2="10.53" y2="47.09"/>
<line class="st17" x1="28.75" y1="73.9" x2="38.57" y2="73.9"/>
<line class="st17" x1="28.75" y1="71.9" x2="38.57" y2="71.9"/>
<line class="st17" x1="28.75" y1="69.9" x2="38.57" y2="69.9"/>
<line class="st17" x1="28.75" y1="67.9" x2="38.57" y2="67.9"/>
<line class="st17" x1="28.75" y1="65.9" x2="38.57" y2="65.9"/>
<g>
</g>
<g>
</g>
<g>
</g>
<g>
</g>
<g>
</g>
<g>
</g>
<g>
</g>
<g>
</g>
<g>
</g>
<g>
</g>
<g>
</g>
<g>
</g>
<g>
</g>
<g>
</g>
<g>
</g>
</svg>
