<?xml version="1.0" encoding="utf-8"?>
<!-- Generator: Adobe Illustrator 19.1.0, SVG Export Plug-In . SVG Version: 6.00 Build 0)  -->
<svg version="1.1" id="main" xmlns="http://www.w3.org/2000/svg" xmlns:xlink="http://www.w3.org/1999/xlink" x="0px" y="0px"
	 viewBox="0 0 370 96" style="enable-background:new 0 0 370 96;" xml:space="preserve">
<style type="text/css">
	.st0{fill:#404040;}
	.st1{fill:none;stroke:#000000;stroke-width:2;stroke-linecap:round;stroke-miterlimit:10;}
	.st2{opacity:0.6;fill:none;stroke:#000000;stroke-width:4;stroke-linecap:round;stroke-miterlimit:10;}
	.st3{fill:none;stroke:#54B734;stroke-width:4;stroke-linecap:round;stroke-miterlimit:10;}
	.st4{fill:none;stroke:#BF42F4;stroke-width:4;stroke-linecap:round;stroke-miterlimit:10;}
	.st5{fill:none;stroke:#64D0FF;stroke-width:4;stroke-linecap:round;stroke-miterlimit:10;}
	.st6{opacity:0.4;fill:none;stroke:#000000;stroke-width:1.7;stroke-linecap:round;stroke-miterlimit:10;}
	.st7{fill:none;stroke:#E07B58;stroke-width:6;stroke-linecap:round;stroke-miterlimit:10;}
	.st8{fill:none;stroke:#1C426B;stroke-width:6;stroke-linecap:round;stroke-miterlimit:10;}
	.st9{fill:#1C426B;}
	.st10{fill:#E07B58;}
	.st11{opacity:0.6;fill:none;stroke:#000000;stroke-width:3;stroke-linecap:round;stroke-miterlimit:10;}
	.st12{fill:none;stroke:#54B734;stroke-width:3;stroke-linecap:round;stroke-miterlimit:10;}
	.st13{fill:none;stroke:#64D0FF;stroke-width:3;stroke-linecap:round;stroke-miterlimit:10;}
	.st14{fill:none;stroke:#BF42F4;stroke-width:3;stroke-linecap:round;stroke-miterlimit:10;}
	.st15{opacity:0.4;fill:none;stroke:#000000;stroke-linecap:round;stroke-miterlimit:10;}
	.st16{fill:none;stroke:#191919;stroke-width:3;stroke-linecap:square;stroke-miterlimit:10;}
	.st17{fill:none;stroke:#54B734;stroke-width:2;stroke-linecap:round;stroke-miterlimit:10;}
	.st18{fill:none;stroke:#286AB2;stroke-width:2;stroke-linecap:round;stroke-miterlimit:10;}
</style>
<g>
	<polyline class="st0" points="140.47,38.45 140.47,58.45 240.47,58.45 240.47,38.45 140.47,38.45 160.55,9.78 220.39,9.78 
		240.47,38.45 	"/>
	<g>
		<line class="st1" x1="140.47" y1="38.45" x2="240.47" y2="38.45"/>
		<line class="st1" x1="240.47" y1="38.45" x2="240.47" y2="58.45"/>
		<line class="st1" x1="140.47" y1="38.45" x2="140.47" y2="58.45"/>
		<line class="st1" x1="140.47" y1="58.45" x2="240.47" y2="58.45"/>
		<line class="st1" x1="140.47" y1="38.45" x2="160.55" y2="9.78"/>
		<line class="st1" x1="240.47" y1="38.45" x2="220.39" y2="9.78"/>
		<line class="st1" x1="160.55" y1="9.78" x2="220.39" y2="9.78"/>
	</g>
	<line class="st2" x1="154.69" y1="48.4" x2="184.86" y2="48.4"/>
	<line class="st3" x1="147.11" y1="48.4" x2="147.11" y2="48.4"/>
	<line class="st4" x1="230.97" y1="48.4" x2="232.86" y2="48.4"/>
	<line class="st5" x1="221.97" y1="48.4" x2="223.86" y2="48.4"/>
	<line class="st6" x1="207.44" y1="22.06" x2="225" y2="22.06"/>
	<line class="st6" x1="206.37" y1="19.07" x2="223" y2="19.06"/>
	<line class="st6" x1="205.3" y1="16.06" x2="221" y2="16.06"/>
	<line class="st6" x1="204.23" y1="13.06" x2="219" y2="13.06"/>
</g>
<line class="st7" x1="49.53" y1="48.45" x2="132.03" y2="48.45"/>
<line class="st8" x1="249.55" y1="48.48" x2="312" y2="48.48"/>
<g>
	<path class="st9" d="M151.37,69.96h-2.96v3.68c0,0.37-0.29,0.66-0.67,0.66c-0.37,0-0.66-0.29-0.66-0.66v-9.16
		c0-0.53,0.43-0.96,0.96-0.96h3.33c2.15,0,3.35,1.47,3.35,3.22S153.49,69.96,151.37,69.96z M151.21,64.71h-2.8v4.07h2.8
		c1.26,0,2.13-0.83,2.13-2.03S152.48,64.71,151.21,64.71z"/>
	<path class="st9" d="M159.68,67.56c-0.79,0.05-1.54,0.4-2.05,1.17v4.98c0,0.32-0.27,0.59-0.61,0.59H157
		c-0.32-0.02-0.58-0.27-0.58-0.59v-6.75c0-0.3,0.27-0.58,0.63-0.58c0.3,0,0.58,0.27,0.58,0.58v0.77c0.46-0.61,1.23-1.38,2.13-1.38
		c0.29,0,0.54,0.24,0.54,0.56C160.3,67.26,160.03,67.55,159.68,67.56z"/>
	<path class="st9" d="M163.12,64.57c0,0.45-0.37,0.8-0.82,0.8c-0.43,0-0.8-0.35-0.8-0.8s0.37-0.82,0.8-0.82
		C162.75,63.75,163.12,64.12,163.12,64.57z M162.3,74.3c-0.32,0-0.59-0.27-0.59-0.59v-6.75c0-0.3,0.27-0.58,0.63-0.58
		c0.3,0,0.58,0.27,0.58,0.58v6.75C162.91,74.03,162.64,74.3,162.3,74.3z"/>
	<path class="st9" d="M167.26,74.4c-1.14,0-1.71-0.66-1.71-1.81v-5.06h-0.86c-0.29,0-0.51-0.22-0.51-0.54
		c0-0.29,0.22-0.51,0.51-0.51h0.86v-1.63c0-0.3,0.27-0.58,0.62-0.58c0.3,0,0.58,0.27,0.58,0.58v1.63h1.15
		c0.29,0,0.51,0.22,0.51,0.54c0,0.29-0.22,0.51-0.51,0.51h-1.15v4.8c0,0.58,0.26,0.99,0.79,0.99c0.21,0,0.45-0.11,0.64-0.11
		c0.27,0,0.51,0.22,0.51,0.5C168.69,74.22,167.95,74.4,167.26,74.4z"/>
	<path class="st9" d="M175.82,74.3c-0.32,0-0.59-0.27-0.59-0.59v-0.59c-0.59,0.67-1.6,1.28-2.75,1.28c-1.62,0-2.46-0.78-2.46-2.46
		v-4.98c0-0.3,0.27-0.58,0.63-0.58c0.3,0,0.58,0.27,0.58,0.58v4.61c0,1.36,0.69,1.76,1.73,1.76c0.94,0,1.84-0.54,2.29-1.17v-5.2
		c0-0.3,0.27-0.58,0.62-0.58c0.3,0,0.58,0.27,0.58,0.58v6.75C176.43,74.03,176.16,74.3,175.82,74.3z"/>
	<path class="st9" d="M184.64,74.3c-0.32,0-0.59-0.27-0.59-0.59v-4.56c0-1.36-0.69-1.79-1.73-1.79c-0.94,0-1.84,0.58-2.29,1.2v5.15
		c0,0.32-0.27,0.59-0.61,0.59c-0.32,0-0.59-0.27-0.59-0.59v-6.75c0-0.3,0.27-0.58,0.63-0.58c0.3,0,0.58,0.27,0.58,0.58v0.64
		c0.54-0.64,1.6-1.31,2.75-1.31c1.62,0,2.46,0.82,2.46,2.5v4.93C185.25,74.03,184.97,74.3,184.64,74.3z"/>
	<path class="st9" d="M188.24,74.3c-0.32,0-0.59-0.27-0.59-0.59v-9.7c0-0.3,0.27-0.58,0.63-0.58c0.3,0,0.58,0.27,0.58,0.58v9.7
		C188.84,74.03,188.57,74.3,188.24,74.3z"/>
	<path class="st9" d="M198.88,74.4c-1.58,0-2.83-0.53-3.75-1.33c-0.14-0.13-0.21-0.3-0.21-0.48c0-0.32,0.24-0.67,0.63-0.67
		c0.13,0,0.27,0.03,0.38,0.13c0.74,0.66,1.76,1.17,2.99,1.17c1.91,0,2.51-1.02,2.51-1.84c0-2.75-6.32-1.23-6.32-5.04
		c0-1.76,1.57-2.96,3.67-2.96c1.38,0,2.56,0.42,3.42,1.14c0.14,0.13,0.22,0.3,0.22,0.48c0,0.32-0.27,0.64-0.63,0.64
		c-0.13,0-0.27-0.05-0.38-0.14c-0.78-0.64-1.76-0.93-2.74-0.93c-1.28,0-2.19,0.69-2.19,1.7c0,2.4,6.32,1.02,6.32,5.01
		C202.81,72.81,201.76,74.4,198.88,74.4z"/>
	<path class="st9" d="M211.15,70.73h-5.59c0.1,1.46,1.12,2.67,2.79,2.67c0.74,0,1.47-0.24,2.08-0.72c0.08-0.05,0.18-0.08,0.27-0.08
		c0.21,0,0.48,0.19,0.48,0.5c0,0.83-2,1.3-2.95,1.3c-2.29,0-3.94-1.65-3.94-4.07c0-2.24,1.6-4.05,3.81-4.05
		c1.92,0,3.19,1.22,3.59,2.99c0.05,0.24,0.11,0.53,0.11,0.8C211.81,70.43,211.52,70.73,211.15,70.73z M208.09,67.27
		c-1.65,0-2.46,1.39-2.53,2.58h5.07C210.62,68.7,209.85,67.27,208.09,67.27z"/>
	<path class="st9" d="M217,67.56c-0.79,0.05-1.54,0.4-2.05,1.17v4.98c0,0.32-0.27,0.59-0.61,0.59h-0.02
		c-0.32-0.02-0.58-0.27-0.58-0.59v-6.75c0-0.3,0.27-0.58,0.63-0.58c0.3,0,0.58,0.27,0.58,0.58v0.77c0.46-0.61,1.23-1.38,2.13-1.38
		c0.29,0,0.54,0.24,0.54,0.56C217.63,67.26,217.36,67.55,217,67.56z"/>
	<path class="st9" d="M225.34,67.18l-2.72,6.56c-0.14,0.34-0.48,0.56-0.88,0.56h-0.02c-0.37,0-0.69-0.22-0.83-0.56l-2.72-6.56
		c-0.03-0.06-0.05-0.14-0.05-0.21c0-0.3,0.26-0.59,0.61-0.59c0.24,0,0.46,0.13,0.56,0.37l2.46,6.07l2.45-6.07
		c0.1-0.22,0.32-0.37,0.56-0.37c0.35,0,0.62,0.27,0.62,0.59C225.39,67.03,225.37,67.11,225.34,67.18z"/>
	<path class="st9" d="M233.28,70.73h-5.59c0.1,1.46,1.12,2.67,2.79,2.67c0.74,0,1.47-0.24,2.08-0.72c0.08-0.05,0.18-0.08,0.27-0.08
		c0.21,0,0.48,0.19,0.48,0.5c0,0.83-2,1.3-2.95,1.3c-2.29,0-3.94-1.65-3.94-4.07c0-2.24,1.6-4.05,3.81-4.05
		c1.92,0,3.19,1.22,3.59,2.99c0.05,0.24,0.11,0.53,0.11,0.8C233.93,70.43,233.65,70.73,233.28,70.73z M230.22,67.27
		c-1.65,0-2.46,1.39-2.53,2.58h5.07C232.75,68.7,231.98,67.27,230.22,67.27z"/>
	<path class="st9" d="M239.13,67.56c-0.79,0.05-1.54,0.4-2.05,1.17v4.98c0,0.32-0.27,0.59-0.61,0.59h-0.02
		c-0.32-0.02-0.58-0.27-0.58-0.59v-6.75c0-0.3,0.27-0.58,0.63-0.58c0.3,0,0.58,0.27,0.58,0.58v0.77c0.46-0.61,1.23-1.38,2.13-1.38
		c0.29,0,0.54,0.24,0.54,0.56C239.76,67.26,239.48,67.55,239.13,67.56z"/>
</g>
<g>
	<path class="st9" d="M314.02,70c-0.37,0-0.66-0.29-0.66-0.66v-9.57c0-0.35,0.29-0.64,0.69-0.64c0.35,0,0.64,0.29,0.64,0.64v9.57
		C314.69,69.71,314.41,70,314.02,70z"/>
	<path class="st9" d="M322.95,70c-0.32,0-0.59-0.27-0.59-0.59v-4.56c0-1.36-0.69-1.79-1.73-1.79c-0.94,0-1.84,0.58-2.29,1.2v5.15
		c0,0.32-0.27,0.59-0.61,0.59c-0.32,0-0.59-0.27-0.59-0.59v-6.75c0-0.3,0.27-0.58,0.63-0.58c0.3,0,0.58,0.27,0.58,0.58v0.64
		c0.54-0.64,1.6-1.31,2.75-1.31c1.62,0,2.46,0.82,2.46,2.5v4.93C323.56,69.72,323.29,70,322.95,70z"/>
	<path class="st9" d="M327.91,70.09c-1.14,0-1.71-0.66-1.71-1.81v-5.06h-0.86c-0.29,0-0.51-0.22-0.51-0.54
		c0-0.29,0.22-0.51,0.51-0.51h0.86v-1.63c0-0.3,0.27-0.58,0.62-0.58c0.3,0,0.58,0.27,0.58,0.58v1.63h1.15
		c0.29,0,0.51,0.22,0.51,0.54c0,0.29-0.22,0.51-0.51,0.51h-1.15v4.8c0,0.58,0.26,0.99,0.79,0.99c0.21,0,0.45-0.11,0.64-0.11
		c0.27,0,0.51,0.22,0.51,0.5C329.33,69.92,328.6,70.09,327.91,70.09z"/>
	<path class="st9" d="M337.06,66.43h-5.59c0.1,1.46,1.12,2.67,2.79,2.67c0.74,0,1.47-0.24,2.08-0.72c0.08-0.05,0.18-0.08,0.27-0.08
		c0.21,0,0.48,0.19,0.48,0.5c0,0.83-2,1.3-2.95,1.3c-2.29,0-3.94-1.65-3.94-4.07c0-2.24,1.6-4.05,3.81-4.05
		c1.92,0,3.19,1.22,3.59,2.99c0.05,0.24,0.11,0.53,0.11,0.8C337.72,66.12,337.43,66.43,337.06,66.43z M334.01,62.97
		c-1.65,0-2.46,1.39-2.53,2.58h5.07C336.54,64.39,335.77,62.97,334.01,62.97z"/>
	<path class="st9" d="M342.92,63.26c-0.79,0.05-1.54,0.4-2.05,1.17v4.98c0,0.32-0.27,0.59-0.61,0.59h-0.02
		c-0.32-0.02-0.58-0.27-0.58-0.59v-6.75c0-0.3,0.27-0.58,0.63-0.58c0.3,0,0.58,0.27,0.58,0.58v0.77c0.46-0.61,1.23-1.38,2.13-1.38
		c0.29,0,0.54,0.24,0.54,0.56C343.54,62.95,343.27,63.24,342.92,63.26z"/>
	<path class="st9" d="M350.76,70c-0.32,0-0.59-0.27-0.59-0.59v-4.56c0-1.36-0.69-1.79-1.73-1.79c-0.94,0-1.84,0.58-2.29,1.2v5.15
		c0,0.32-0.27,0.59-0.61,0.59c-0.32,0-0.59-0.27-0.59-0.59v-6.75c0-0.3,0.27-0.58,0.63-0.58c0.3,0,0.58,0.27,0.58,0.58v0.64
		c0.54-0.64,1.6-1.31,2.75-1.31c1.62,0,2.46,0.82,2.46,2.5v4.93C351.37,69.72,351.09,70,350.76,70z"/>
	<path class="st9" d="M360.17,66.43h-5.59c0.1,1.46,1.12,2.67,2.79,2.67c0.74,0,1.47-0.24,2.08-0.72c0.08-0.05,0.18-0.08,0.27-0.08
		c0.21,0,0.48,0.19,0.48,0.5c0,0.83-2,1.3-2.95,1.3c-2.29,0-3.94-1.65-3.94-4.07c0-2.24,1.6-4.05,3.81-4.05
		c1.92,0,3.19,1.22,3.59,2.99c0.05,0.24,0.11,0.53,0.11,0.8C360.82,66.12,360.54,66.43,360.17,66.43z M357.11,62.97
		c-1.65,0-2.46,1.39-2.53,2.58h5.07C359.64,64.39,358.87,62.97,357.11,62.97z"/>
	<path class="st9" d="M364.73,70.09c-1.14,0-1.71-0.66-1.71-1.81v-5.06h-0.86c-0.29,0-0.51-0.22-0.51-0.54
		c0-0.29,0.22-0.51,0.51-0.51h0.86v-1.63c0-0.3,0.27-0.58,0.62-0.58c0.3,0,0.58,0.27,0.58,0.58v1.63h1.15
		c0.29,0,0.51,0.22,0.51,0.54c0,0.29-0.22,0.51-0.51,0.51h-1.15v4.8c0,0.58,0.26,0.99,0.79,0.99c0.21,0,0.45-0.11,0.64-0.11
		c0.27,0,0.51,0.22,0.51,0.5C366.15,69.92,365.41,70.09,364.73,70.09z"/>
</g>
<g>
	<path class="st9" d="M12.89,91.61c-2.9,0-4.35-1.71-4.35-4.34v-5.99c0-0.35,0.29-0.64,0.69-0.64c0.35,0,0.64,0.29,0.64,0.64v5.95
		c0,1.95,1.06,3.19,3.03,3.19s3.03-1.23,3.03-3.19v-5.95c0-0.35,0.29-0.64,0.69-0.64c0.35,0,0.64,0.29,0.64,0.64v5.97
		C17.24,89.91,15.79,91.61,12.89,91.61z"/>
	<path class="st9" d="M22.14,91.61c-1.09,0-2.08-0.29-2.88-0.99c-0.11-0.1-0.18-0.22-0.18-0.37c0-0.29,0.24-0.51,0.54-0.51
		c0.13,0,0.24,0.03,0.35,0.11c0.56,0.45,1.36,0.78,2.21,0.78c1.18,0,1.83-0.56,1.83-1.33c0-1.87-4.79-0.72-4.79-3.58
		c0-1.2,1.04-2.22,2.88-2.22c1.12,0,1.95,0.34,2.63,0.91c0.11,0.1,0.16,0.22,0.16,0.35c0,0.27-0.22,0.48-0.48,0.48
		c-0.11,0-0.22-0.03-0.32-0.11c-0.5-0.38-1.2-0.66-1.99-0.66c-1.06,0-1.71,0.53-1.71,1.22c0,1.7,4.79,0.58,4.79,3.59
		C25.18,90.57,24.14,91.61,22.14,91.61z"/>
	<path class="st9" d="M33.53,87.94h-5.59c0.1,1.46,1.12,2.67,2.79,2.67c0.74,0,1.47-0.24,2.08-0.72c0.08-0.05,0.18-0.08,0.27-0.08
		c0.21,0,0.48,0.19,0.48,0.5c0,0.83-2,1.3-2.95,1.3c-2.29,0-3.94-1.65-3.94-4.07c0-2.24,1.6-4.05,3.81-4.05
		c1.92,0,3.19,1.22,3.59,2.99c0.05,0.24,0.11,0.53,0.11,0.8C34.19,87.64,33.9,87.94,33.53,87.94z M30.47,84.49
		c-1.65,0-2.46,1.39-2.53,2.58h5.07C33,85.91,32.23,84.49,30.47,84.49z"/>
	<path class="st9" d="M39.38,84.77c-0.79,0.05-1.54,0.4-2.05,1.17v4.98c0,0.32-0.27,0.59-0.61,0.59h-0.02
		c-0.32-0.02-0.58-0.27-0.58-0.59v-6.75c0-0.3,0.27-0.58,0.63-0.58c0.3,0,0.58,0.27,0.58,0.58v0.77c0.46-0.61,1.23-1.38,2.13-1.38
		c0.29,0,0.54,0.24,0.54,0.56C40.01,84.47,39.74,84.76,39.38,84.77z"/>
</g>
<g>
	<path class="st10" d="M81.45,43.85c-0.25,0-0.45-0.2-0.45-0.45v-6.58c0-0.24,0.2-0.44,0.47-0.44c0.24,0,0.44,0.2,0.44,0.44v6.58
		C81.91,43.65,81.71,43.85,81.45,43.85z"/>
	<path class="st10" d="M86.58,40.87h-2.04v2.53c0,0.25-0.2,0.45-0.46,0.45c-0.25,0-0.45-0.2-0.45-0.45v-6.29
		c0-0.36,0.3-0.66,0.66-0.66h2.29c1.47,0,2.3,1.01,2.3,2.21S88.03,40.87,86.58,40.87z M86.47,37.26h-1.92v2.79h1.92
		c0.87,0,1.46-0.57,1.46-1.4S87.33,37.26,86.47,37.26z"/>
	<path class="st10" d="M94.39,38.96l-1.87,4.51c-0.1,0.23-0.33,0.39-0.6,0.39H91.9c-0.25,0-0.47-0.15-0.57-0.39l-1.87-4.51
		c-0.02-0.04-0.03-0.1-0.03-0.14c0-0.21,0.18-0.41,0.42-0.41c0.17,0,0.32,0.09,0.38,0.25l1.69,4.17l1.68-4.17
		c0.07-0.15,0.22-0.25,0.38-0.25c0.24,0,0.43,0.19,0.43,0.41C94.42,38.86,94.41,38.91,94.39,38.96z"/>
	<path class="st10" d="M100.08,41.93h-0.71v1.47c0,0.25-0.2,0.45-0.46,0.45c-0.25,0-0.45-0.2-0.45-0.45v-1.47h-3.1
		c-0.23,0-0.45-0.2-0.45-0.5c0-0.1,0.03-0.21,0.09-0.3l2.94-4.41c0.14-0.21,0.4-0.34,0.66-0.34c0.42,0,0.78,0.36,0.78,0.77v3.97
		h0.71c0.21,0,0.38,0.18,0.38,0.41C100.47,41.75,100.29,41.93,100.08,41.93z M98.46,37.29l-2.57,3.83h2.57V37.29z"/>
</g>
<g>
	<path class="st9" d="M258.55,43.85c-0.25,0-0.45-0.2-0.45-0.45v-6.58c0-0.24,0.2-0.44,0.47-0.44c0.24,0,0.44,0.2,0.44,0.44v6.58
		C259.01,43.65,258.81,43.85,258.55,43.85z"/>
	<path class="st9" d="M263.67,40.87h-2.04v2.53c0,0.25-0.2,0.45-0.46,0.45c-0.25,0-0.45-0.2-0.45-0.45v-6.29
		c0-0.36,0.3-0.66,0.66-0.66h2.29c1.47,0,2.3,1.01,2.3,2.21S265.13,40.87,263.67,40.87z M263.56,37.26h-1.92v2.79h1.92
		c0.87,0,1.46-0.57,1.46-1.4S264.43,37.26,263.56,37.26z"/>
	<path class="st9" d="M271.48,38.96l-1.87,4.51c-0.1,0.23-0.33,0.39-0.6,0.39H269c-0.25,0-0.47-0.15-0.57-0.39l-1.87-4.51
		c-0.02-0.04-0.03-0.1-0.03-0.14c0-0.21,0.18-0.41,0.42-0.41c0.17,0,0.32,0.09,0.38,0.25l1.69,4.17l1.68-4.17
		c0.07-0.15,0.22-0.25,0.38-0.25c0.24,0,0.43,0.19,0.43,0.41C271.52,38.86,271.5,38.91,271.48,38.96z"/>
	<path class="st9" d="M277.18,41.93h-0.71v1.47c0,0.25-0.2,0.45-0.46,0.45c-0.25,0-0.45-0.2-0.45-0.45v-1.47h-3.1
		c-0.23,0-0.45-0.2-0.45-0.5c0-0.1,0.03-0.21,0.09-0.3l2.94-4.41c0.14-0.21,0.4-0.34,0.66-0.34c0.42,0,0.78,0.36,0.78,0.77v3.97
		h0.71c0.21,0,0.38,0.18,0.38,0.41C277.57,41.75,277.39,41.93,277.18,41.93z M275.55,37.29l-2.57,3.83h2.57V37.29z"/>
	<path class="st9" d="M282.81,40.36h-1.9v2.1c0,0.18-0.13,0.31-0.32,0.31c-0.18,0-0.31-0.13-0.31-0.31v-2.1h-1.9
		c-0.15,0-0.28-0.12-0.28-0.3c0-0.15,0.12-0.27,0.28-0.27h1.9v-2.05c0-0.17,0.13-0.3,0.33-0.3c0.17,0,0.3,0.13,0.3,0.3v2.05h1.9
		c0.15,0,0.27,0.12,0.27,0.27C283.09,40.24,282.97,40.36,282.81,40.36z"/>
	<path class="st9" d="M284.65,43.85c-0.25,0-0.45-0.2-0.45-0.45v-6.58c0-0.24,0.2-0.44,0.47-0.44c0.24,0,0.44,0.2,0.44,0.44v6.58
		C285.11,43.65,284.91,43.85,284.65,43.85z"/>
	<path class="st9" d="M289.78,40.87h-2.04v2.53c0,0.25-0.2,0.45-0.46,0.45c-0.25,0-0.45-0.2-0.45-0.45v-6.29
		c0-0.36,0.3-0.66,0.66-0.66h2.29c1.47,0,2.3,1.01,2.3,2.21S291.23,40.87,289.78,40.87z M289.67,37.26h-1.92v2.79h1.92
		c0.87,0,1.46-0.57,1.46-1.4S290.53,37.26,289.67,37.26z"/>
	<path class="st9" d="M297.59,38.96l-1.87,4.51c-0.1,0.23-0.33,0.39-0.6,0.39h-0.01c-0.25,0-0.47-0.15-0.57-0.39l-1.87-4.51
		c-0.02-0.04-0.03-0.1-0.03-0.14c0-0.21,0.18-0.41,0.42-0.41c0.17,0,0.32,0.09,0.38,0.25l1.69,4.17l1.68-4.17
		c0.07-0.15,0.22-0.25,0.38-0.25c0.24,0,0.43,0.19,0.43,0.41C297.62,38.86,297.61,38.91,297.59,38.96z"/>
	<path class="st9" d="M301.2,43.92c-2.05,0-2.83-1.79-2.83-3.78s0.92-3.8,2.98-3.8c0.8,0,1.38,0.23,1.87,0.7
		c0.08,0.08,0.11,0.18,0.11,0.28c0,0.22-0.19,0.41-0.41,0.41c-0.1,0-0.2-0.03-0.28-0.1c-0.32-0.29-0.7-0.47-1.3-0.47
		c-1.42,0-2.07,1.44-2.07,2.88c0,0.1,0,0.19,0.01,0.29c0.32-0.51,1.13-1.14,2.08-1.14c1.32,0,2.4,0.78,2.4,2.34
		C303.78,42.8,302.81,43.92,301.2,43.92z M301.16,39.97c-0.73,0-1.43,0.45-1.84,1.1c0.09,0.91,0.57,2.04,1.85,2.04
		c1.13,0,1.68-0.85,1.68-1.55C302.85,40.47,302.11,39.97,301.16,39.97z"/>
</g>
<polyline class="st0" points="5.75,25.84 41.75,25.84 41.75,76.84 5.75,76.84 5.75,25.84 14,5.99 33.5,5.99 41.75,25.84 "/>
<g>
	<line class="st1" x1="5.75" y1="76.84" x2="41.75" y2="76.84"/>
	<line class="st1" x1="5.75" y1="76.84" x2="5.75" y2="25.84"/>
	<line class="st1" x1="41.75" y1="76.84" x2="41.75" y2="25.84"/>
	<line class="st1" x1="5.75" y1="25.84" x2="41.75" y2="25.84"/>
	<line class="st1" x1="5.75" y1="25.84" x2="14" y2="5.99"/>
	<line class="st1" x1="41.75" y1="25.84" x2="33.5" y2="5.99"/>
	<line class="st1" x1="33.5" y1="5.99" x2="14" y2="5.99"/>
</g>
<line class="st11" x1="14.97" y1="37.09" x2="37.26" y2="37.09"/>
<line class="st12" x1="10.53" y1="37.09" x2="10.53" y2="37.09"/>
<line class="st13" x1="10.53" y1="31.09" x2="10.53" y2="31.09"/>
<line class="st14" x1="15.53" y1="31.09" x2="15.53" y2="31.09"/>
<line class="st11" x1="14.97" y1="42.09" x2="37.26" y2="42.09"/>
<line class="st12" x1="10.53" y1="42.09" x2="10.53" y2="42.09"/>
<line class="st11" x1="14.97" y1="47.09" x2="37.26" y2="47.09"/>
<line class="st12" x1="10.53" y1="47.09" x2="10.53" y2="47.09"/>
<line class="st15" x1="28.75" y1="73.9" x2="38.57" y2="73.9"/>
<line class="st15" x1="28.75" y1="71.9" x2="38.57" y2="71.9"/>
<line class="st15" x1="28.75" y1="69.9" x2="38.57" y2="69.9"/>
<line class="st15" x1="28.75" y1="67.9" x2="38.57" y2="67.9"/>
<line class="st15" x1="28.75" y1="65.9" x2="38.57" y2="65.9"/>
<g>
	<rect x="320.86" y="41.78" class="st0" width="36.67" height="14.8"/>
	<polygon class="st0" points="320.86,41.78 357.53,41.78 349.08,23.66 329.31,23.66 	"/>
	<line class="st1" x1="320.86" y1="41.78" x2="357.53" y2="41.78"/>
	<line class="st1" x1="320.86" y1="56.58" x2="357.53" y2="56.58"/>
	<line class="st1" x1="357.53" y1="41.78" x2="357.53" y2="56.58"/>
	<line class="st1" x1="320.86" y1="41.78" x2="320.86" y2="56.58"/>
	<line class="st1" x1="357.53" y1="41.78" x2="349.08" y2="23.66"/>
	<line class="st1" x1="320.86" y1="41.78" x2="329.31" y2="23.66"/>
	<line class="st1" x1="329.31" y1="23.66" x2="349.08" y2="23.66"/>
	<line class="st16" x1="326.15" y1="46.75" x2="326.86" y2="46.75"/>
	<line class="st16" x1="332.15" y1="46.75" x2="332.86" y2="46.75"/>
	<line class="st16" x1="338.15" y1="46.75" x2="338.86" y2="46.75"/>
	<line class="st16" x1="344.15" y1="46.75" x2="344.86" y2="46.75"/>
	<line class="st16" x1="326.15" y1="51.75" x2="326.86" y2="51.75"/>
	<line class="st16" x1="332.15" y1="51.75" x2="332.86" y2="51.75"/>
	<line class="st16" x1="338.15" y1="51.75" x2="338.86" y2="51.75"/>
	<line class="st16" x1="344.15" y1="51.75" x2="344.86" y2="51.75"/>
	<line class="st17" x1="349.86" y1="46.75" x2="349.86" y2="46.75"/>
	<line class="st18" x1="352.99" y1="46.75" x2="352.99" y2="46.75"/>
</g>
</svg>
