<?xml version="1.0" encoding="utf-8"?>
<!-- Generator: Adobe Illustrator 18.1.0, SVG Export Plug-In . SVG Version: 6.00 Build 0)  -->
<svg version="1.1" id="Layer_1" xmlns="http://www.w3.org/2000/svg" xmlns:xlink="http://www.w3.org/1999/xlink" x="0px" y="0px"
	 width="169px" height="169px" viewBox="0 0 169 169" style="enable-background:new 0 0 169 169;" xml:space="preserve">
<style type="text/css">
	.st0{fill:#FFFFFF;}
</style>
<path id="rect3757" class="st0" d="M48.56,28.25c-7.77,0-12.67,1.98-14.72,5.94c-1.03,2.05-1.71,3.89-2,5.5
	c-0.15,1.61-0.22,4.13-0.22,7.5V169h37.63v-38c5.43,6.75,14.16,10.13,26.19,10.13s23.31-5.64,33.88-16.94
	c10.71-11.29,16.06-24.41,16.06-39.38c0-14.96-5.36-28.11-16.06-39.41c-10.71-11.29-22.07-16.94-34.09-16.94
	c-11.88,0-20.61,3.81-26.19,11.44c-0.44-3.81-2.06-6.66-4.84-8.56C61.55,29.29,56.34,28.25,48.56,28.25z M88.63,66.09
	c5.72,0,10.32,1.98,13.84,5.94c3.52,3.81,5.28,8.16,5.28,13s-1.91,9.16-5.72,12.97c-3.67,3.81-8.23,5.72-13.66,5.72
	c-5.28,0-9.67-1.91-13.19-5.72c-3.37-3.96-5.06-8.28-5.06-12.97s1.69-9.04,5.06-13C78.56,68.07,83.05,66.09,88.63,66.09z"/>
</svg>
