<?xml version="1.0" encoding="utf-8"?>
<!-- Generator: Adobe Illustrator 18.1.0, SVG Export Plug-In . SVG Version: 6.00 Build 0)  -->
<svg version="1.1" id="main" xmlns="http://www.w3.org/2000/svg" xmlns:xlink="http://www.w3.org/1999/xlink" x="0px" y="0px"
	 width="807px" height="656px" viewBox="0 0 807 656" style="enable-background:new 0 0 807 656;" xml:space="preserve">
<style type="text/css">
	.st0{opacity:0.1;fill:#CCCCCC;}
	.st1{fill:none;stroke:#FFFFFF;stroke-width:4;stroke-miterlimit:10;}
	.st2{fill:#FF0000;stroke:#FFFFFF;stroke-width:4;stroke-miterlimit:10;}
	.st3{fill:#2E4153;}
	.st4{fill:#293A49;}
	.st5{fill:none;stroke:#000000;stroke-width:4;stroke-miterlimit:10;}
	.st6{fill:#7E8284;}
	.st7{opacity:0.6;fill:none;stroke:#000000;stroke-width:4;stroke-linecap:round;stroke-miterlimit:10;}
	.st8{fill:#54B734;}
	.st9{fill:#64D0FF;}
	.st10{fill:#BF42F4;}
	.st11{opacity:0.5;fill:none;stroke:#000000;stroke-width:2;stroke-linecap:round;stroke-miterlimit:10;}
	.st12{fill:#404040;}
	.st13{fill:#2F2F2F;}
	.st14{fill:#10639B;}
</style>
<polyline class="st0" points="21.6,418.7 406.6,641 406.6,641 791.6,418.7 406.6,196.5 21.6,418.7 "/>
<polyline class="st0" points="406.6,15.3 791.6,237.5 791.6,237.5 791.6,418.7 406.6,196.5 406.6,15.3 "/>
<polyline class="st0" points="21.6,237.5 406.6,15.3 406.6,15.3 406.6,196.5 21.6,418.7 21.6,418.7 21.6,237.5 "/>
<line class="st1" x1="406.6" y1="196.5" x2="406.6" y2="15.3"/>
<line class="st1" x1="791.6" y1="418.7" x2="406.6" y2="196.5"/>
<line class="st2" x1="21.6" y1="418.7" x2="406.6" y2="196.5"/>
<g>
	<g>
		<polygon class="st3" points="311.4,108.4 407.6,164 503.9,108.4 407.6,52.9 		"/>
		<polygon class="st4" points="407.6,275.2 407.6,164 503.9,108.4 503.9,219.6 		"/>
		<polygon class="st3" points="407.6,275.2 407.6,164 311.4,108.5 311.4,219.6 		"/>
		<polyline class="st5" points="311.4,108.4 407.6,164 407.6,275.2 407.6,164 503.9,108.4 		"/>
		<polygon class="st5" points="311.4,108.4 311.4,219.6 407.6,275.2 503.9,219.6 503.9,108.4 407.6,52.9 		"/>
		<g>
			<path class="st6" d="M394.6,229.3c-0.6,1-1.8,1.3-2.7,0.7l-67.8-39.1c-1-0.6-1.3-1.8-0.7-2.7l0.2-0.4c0.6-1,1.8-1.3,2.7-0.7
				l67.8,39.1c1,0.6,1.3,1.8,0.7,2.7L394.6,229.3z"/>
		</g>
		<g>
			<path class="st6" d="M394.6,242.6c-0.6,1-1.8,1.3-2.7,0.7l-67.8-39.1c-1-0.6-1.3-1.8-0.7-2.7l0.2-0.4c0.6-1,1.8-1.3,2.7-0.7
				l67.8,39.1c1,0.6,1.3,1.8,0.7,2.7L394.6,242.6z"/>
		</g>
		<g>
			<path class="st6" d="M394.6,256c-0.6,1-1.8,1.3-2.7,0.7l-67.8-39.1c-1-0.6-1.3-1.8-0.7-2.7l0.2-0.4c0.6-1,1.8-1.3,2.7-0.7
				l67.8,39.1c1,0.6,1.3,1.8,0.7,2.7L394.6,256z"/>
		</g>
		<g>
			<g>
				<line class="st7" x1="396.1" y1="206.2" x2="369.1" y2="190.6"/>
				<circle class="st8" cx="363.5" cy="187.3" r="2.2"/>
			</g>
			<g>
				<line class="st7" x1="396.1" y1="196.2" x2="369.1" y2="180.6"/>
				<circle class="st8" cx="363.5" cy="177.3" r="2.2"/>
			</g>
			<g>
				<line class="st7" x1="396.1" y1="185.1" x2="369.1" y2="169.5"/>
				<circle class="st8" cx="363.5" cy="166.2" r="2.2"/>
			</g>
			<g>
				<line class="st7" x1="353.9" y1="181.8" x2="326.9" y2="166.2"/>
				<circle class="st8" cx="321.3" cy="162.9" r="2.2"/>
			</g>
			<g>
				<line class="st7" x1="396.1" y1="216.3" x2="369.1" y2="200.7"/>
				<circle class="st8" cx="363.5" cy="197.3" r="2.2"/>
			</g>
			<g>
				<line class="st7" x1="353.9" y1="191.8" x2="326.9" y2="176.2"/>
				<circle class="st8" cx="321.3" cy="172.9" r="2.2"/>
			</g>
			<g>
				<line class="st7" x1="353.9" y1="171.8" x2="326.9" y2="156.2"/>
				<circle class="st8" cx="321.3" cy="152.9" r="2.2"/>
			</g>
			<g>
				<line class="st7" x1="353.9" y1="160.7" x2="326.9" y2="145.1"/>
				<circle class="st8" cx="321.3" cy="141.7" r="2.2"/>
			</g>
		</g>
		<circle class="st9" cx="324.2" cy="130.3" r="3.9"/>
		<circle class="st10" cx="334.6" cy="136.5" r="3.9"/>
		<line class="st11" x1="476.1" y1="226.9" x2="495.3" y2="215.8"/>
		<line class="st11" x1="476.1" y1="222.5" x2="495.3" y2="211.4"/>
		<line class="st11" x1="476.1" y1="218" x2="495.3" y2="206.9"/>
		<line class="st11" x1="476.1" y1="213.6" x2="495.3" y2="202.5"/>
		<line class="st11" x1="476.1" y1="209.2" x2="495.3" y2="198"/>
	</g>
	<g>
		<polygon class="st12" points="427,236.7 523.3,292.3 619.5,236.7 523.3,181.1 		"/>
		<polygon class="st13" points="523.3,403.4 523.3,292.3 619.5,236.7 619.5,347.8 		"/>
		<polygon class="st12" points="523.3,403.4 523.3,292.3 427,236.7 427,347.9 		"/>
		<polyline class="st5" points="427,236.7 523.3,292.3 523.3,403.4 523.3,292.3 619.5,236.7 		"/>
		<polygon class="st5" points="427,236.7 427,347.8 523.3,403.4 619.5,347.8 619.5,236.7 523.3,181.1 		"/>
		<g>
			<path class="st14" d="M510.2,357.5c-0.6,1-1.8,1.3-2.7,0.7l-67.8-39.1c-1-0.5-1.3-1.8-0.7-2.7l0.2-0.4c0.6-1,1.8-1.3,2.7-0.7
				l67.8,39.1c1,0.5,1.3,1.8,0.7,2.7L510.2,357.5z"/>
		</g>
		<g>
			<path class="st14" d="M510.2,370.9c-0.6,1-1.8,1.3-2.7,0.7l-67.8-39.1c-1-0.6-1.3-1.8-0.7-2.7l0.2-0.4c0.6-1,1.8-1.3,2.7-0.7
				l67.8,39.1c1,0.5,1.3,1.8,0.7,2.7L510.2,370.9z"/>
		</g>
		<g>
			<path class="st14" d="M510.2,384.2c-0.6,1-1.8,1.3-2.7,0.7l-67.8-39.1c-1-0.6-1.3-1.8-0.7-2.7l0.2-0.4c0.6-1,1.8-1.3,2.7-0.7
				l67.8,39.1c1,0.6,1.3,1.8,0.7,2.7L510.2,384.2z"/>
		</g>
		<g>
			<g>
				<line class="st7" x1="511.8" y1="334.5" x2="484.7" y2="318.9"/>
				<circle class="st8" cx="479.2" cy="315.6" r="2.2"/>
			</g>
			<g>
				<line class="st7" x1="511.8" y1="324.5" x2="484.7" y2="308.9"/>
				<circle class="st8" cx="479.2" cy="305.5" r="2.2"/>
			</g>
			<g>
				<line class="st7" x1="511.8" y1="313.4" x2="484.7" y2="297.8"/>
				<circle class="st8" cx="479.2" cy="294.4" r="2.2"/>
			</g>
			<g>
				<line class="st7" x1="469.5" y1="310" x2="442.5" y2="294.4"/>
				<circle class="st8" cx="436.9" cy="291.1" r="2.2"/>
			</g>
			<g>
				<line class="st7" x1="511.8" y1="344.5" x2="484.7" y2="328.9"/>
				<circle class="st8" cx="479.2" cy="325.6" r="2.2"/>
			</g>
			<g>
				<line class="st7" x1="469.5" y1="320" x2="442.5" y2="304.4"/>
				<circle class="st8" cx="436.9" cy="301.1" r="2.2"/>
			</g>
			<g>
				<line class="st7" x1="469.5" y1="300" x2="442.5" y2="284.4"/>
				<circle class="st8" cx="436.9" cy="281.1" r="2.2"/>
			</g>
			<g>
				<line class="st7" x1="469.5" y1="288.9" x2="442.5" y2="273.3"/>
				<circle class="st8" cx="436.9" cy="270" r="2.2"/>
			</g>
		</g>
		<circle class="st9" cx="439.8" cy="258.6" r="3.9"/>
		<circle class="st10" cx="450.3" cy="264.7" r="3.9"/>
		<line class="st11" x1="591.7" y1="355.2" x2="611" y2="344.1"/>
		<line class="st11" x1="591.7" y1="350.7" x2="611" y2="339.6"/>
		<line class="st11" x1="591.7" y1="346.3" x2="611" y2="335.2"/>
		<line class="st11" x1="591.7" y1="341.8" x2="611" y2="330.7"/>
		<line class="st11" x1="591.7" y1="337.4" x2="611" y2="326.3"/>
	</g>
	<g>
		<polygon class="st12" points="541.6,306.1 637.9,361.7 734.2,306.1 637.9,250.5 		"/>
		<polygon class="st13" points="637.9,472.8 637.9,361.7 734.2,306.1 734.2,417.3 		"/>
		<polygon class="st12" points="637.9,472.8 637.9,361.7 541.6,306.1 541.6,417.3 		"/>
		<polyline class="st5" points="541.6,306.1 637.9,361.7 637.9,472.8 637.9,361.7 734.2,306.1 		"/>
		<polygon class="st5" points="541.6,306.1 541.6,417.3 637.9,472.8 734.2,417.3 734.2,306.1 637.9,250.5 		"/>
		<g>
			<path class="st14" d="M624.9,426.9c-0.6,1-1.8,1.3-2.7,0.7l-67.8-39.1c-1-0.6-1.3-1.8-0.7-2.7l0.2-0.4c0.5-1,1.8-1.3,2.7-0.7
				l67.8,39.1c1,0.6,1.3,1.8,0.7,2.7L624.9,426.9z"/>
		</g>
		<g>
			<path class="st14" d="M624.9,440.3c-0.6,1-1.8,1.3-2.7,0.7l-67.8-39.1c-1-0.5-1.3-1.8-0.7-2.7l0.2-0.4c0.5-1,1.8-1.3,2.7-0.7
				l67.8,39.1c1,0.6,1.3,1.8,0.7,2.7L624.9,440.3z"/>
		</g>
		<g>
			<path class="st14" d="M624.9,453.6c-0.6,1-1.8,1.3-2.7,0.7l-67.8-39.1c-1-0.5-1.3-1.8-0.7-2.7l0.2-0.4c0.5-1,1.8-1.3,2.7-0.7
				l67.8,39.1c1,0.5,1.3,1.8,0.7,2.7L624.9,453.6z"/>
		</g>
		<g>
			<g>
				<line class="st7" x1="626.4" y1="403.9" x2="599.4" y2="388.3"/>
				<circle class="st8" cx="593.8" cy="385" r="2.2"/>
			</g>
			<g>
				<line class="st7" x1="626.4" y1="393.9" x2="599.4" y2="378.3"/>
				<circle class="st8" cx="593.8" cy="375" r="2.2"/>
			</g>
			<g>
				<line class="st7" x1="626.4" y1="382.8" x2="599.4" y2="367.2"/>
				<circle class="st8" cx="593.8" cy="363.8" r="2.2"/>
			</g>
			<g>
				<line class="st7" x1="584.1" y1="379.4" x2="557.1" y2="363.8"/>
				<circle class="st8" cx="551.6" cy="360.5" r="2.2"/>
			</g>
			<g>
				<line class="st7" x1="626.4" y1="413.9" x2="599.4" y2="398.3"/>
				<circle class="st8" cx="593.8" cy="395" r="2.2"/>
			</g>
			<g>
				<line class="st7" x1="584.1" y1="389.4" x2="557.1" y2="373.8"/>
				<circle class="st8" cx="551.6" cy="370.5" r="2.2"/>
			</g>
			<g>
				<line class="st7" x1="584.1" y1="369.4" x2="557.1" y2="353.8"/>
				<circle class="st8" cx="551.6" cy="350.5" r="2.2"/>
			</g>
			<g>
				<line class="st7" x1="584.1" y1="358.3" x2="557.1" y2="342.7"/>
				<circle class="st8" cx="551.6" cy="339.4" r="2.2"/>
			</g>
		</g>
		<circle class="st9" cx="554.4" cy="328" r="3.9"/>
		<circle class="st10" cx="564.9" cy="334.1" r="3.9"/>
		<line class="st11" x1="706.3" y1="424.6" x2="725.6" y2="413.5"/>
		<line class="st11" x1="706.3" y1="420.1" x2="725.6" y2="409"/>
		<line class="st11" x1="706.3" y1="415.7" x2="725.6" y2="404.6"/>
		<line class="st11" x1="706.3" y1="411.2" x2="725.6" y2="400.1"/>
		<line class="st11" x1="706.3" y1="406.8" x2="725.6" y2="395.7"/>
	</g>
	<g>
		<polygon class="st12" points="194.8,238.4 291.1,294 387.3,238.4 291.1,182.9 		"/>
		<polygon class="st13" points="291.1,405.2 291.1,294 387.3,238.4 387.3,349.6 		"/>
		<polygon class="st12" points="291.1,405.2 291.1,294 194.8,238.5 194.8,349.6 		"/>
		<polyline class="st5" points="194.8,238.4 291.1,294 291.1,405.2 291.1,294 387.3,238.4 		"/>
		<polygon class="st5" points="194.8,238.4 194.8,349.6 291.1,405.2 387.3,349.6 387.3,238.4 291.1,182.9 		"/>
		<g>
			<path class="st14" d="M278,359.3c-0.6,1-1.8,1.3-2.7,0.7l-67.8-39.1c-1-0.5-1.3-1.8-0.7-2.7l0.2-0.4c0.6-1,1.8-1.3,2.7-0.7
				l67.8,39.1c1,0.6,1.3,1.8,0.7,2.7L278,359.3z"/>
		</g>
		<g>
			<path class="st14" d="M278,372.6c-0.6,1-1.8,1.3-2.7,0.7l-67.8-39.1c-1-0.5-1.3-1.8-0.7-2.7l0.2-0.4c0.6-1,1.8-1.3,2.7-0.7
				l67.8,39.1c1,0.5,1.3,1.8,0.7,2.7L278,372.6z"/>
		</g>
		<g>
			<path class="st14" d="M278,386c-0.6,1-1.8,1.3-2.7,0.7l-67.8-39.1c-1-0.6-1.3-1.8-0.7-2.7l0.2-0.4c0.6-1,1.8-1.3,2.7-0.7
				l67.8,39.1c1,0.5,1.3,1.8,0.7,2.7L278,386z"/>
		</g>
		<g>
			<g>
				<line class="st7" x1="279.6" y1="336.2" x2="252.5" y2="320.6"/>
				<circle class="st8" cx="247" cy="317.3" r="2.2"/>
			</g>
			<g>
				<line class="st7" x1="279.6" y1="326.2" x2="252.5" y2="310.6"/>
				<circle class="st8" cx="247" cy="307.3" r="2.2"/>
			</g>
			<g>
				<line class="st7" x1="279.6" y1="315.1" x2="252.5" y2="299.5"/>
				<circle class="st8" cx="247" cy="296.2" r="2.2"/>
			</g>
			<g>
				<line class="st7" x1="237.3" y1="311.8" x2="210.3" y2="296.2"/>
				<circle class="st8" cx="204.7" cy="292.9" r="2.2"/>
			</g>
			<g>
				<line class="st7" x1="279.6" y1="346.2" x2="252.5" y2="330.6"/>
				<circle class="st8" cx="247" cy="327.3" r="2.2"/>
			</g>
			<g>
				<line class="st7" x1="237.3" y1="321.8" x2="210.3" y2="306.2"/>
				<circle class="st8" cx="204.7" cy="302.9" r="2.2"/>
			</g>
			<g>
				<line class="st7" x1="237.3" y1="301.8" x2="210.3" y2="286.2"/>
				<circle class="st8" cx="204.7" cy="282.8" r="2.2"/>
			</g>
			<g>
				<line class="st7" x1="237.3" y1="290.7" x2="210.3" y2="275.1"/>
				<circle class="st8" cx="204.7" cy="271.7" r="2.2"/>
			</g>
		</g>
		<circle class="st9" cx="207.6" cy="260.3" r="3.9"/>
		<circle class="st10" cx="218.1" cy="266.5" r="3.9"/>
		<line class="st11" x1="359.5" y1="356.9" x2="378.7" y2="345.8"/>
		<line class="st11" x1="359.5" y1="352.5" x2="378.7" y2="341.4"/>
		<line class="st11" x1="359.5" y1="348" x2="378.7" y2="336.9"/>
		<line class="st11" x1="359.5" y1="343.6" x2="378.7" y2="332.5"/>
		<line class="st11" x1="359.5" y1="339.2" x2="378.7" y2="328"/>
	</g>
	<g>
		<polygon class="st12" points="79.2,306.8 175.5,362.4 271.7,306.8 175.5,251.2 		"/>
		<polygon class="st13" points="175.5,473.6 175.5,362.4 271.7,306.8 271.7,418 		"/>
		<polygon class="st12" points="175.4,473.6 175.4,362.4 79.2,306.8 79.2,418 		"/>
		<polyline class="st5" points="79.2,306.8 175.5,362.4 175.5,473.6 175.5,362.4 271.7,306.8 		"/>
		<polygon class="st5" points="79.2,306.8 79.2,418 175.5,473.6 271.7,418 271.7,306.8 175.5,251.2 		"/>
		<g>
			<path class="st14" d="M162.4,427.7c-0.6,1-1.8,1.3-2.7,0.7l-67.8-39.1c-1-0.6-1.3-1.8-0.7-2.7l0.2-0.4c0.6-1,1.8-1.3,2.7-0.7
				l67.8,39.1c1,0.6,1.3,1.8,0.7,2.7L162.4,427.7z"/>
		</g>
		<g>
			<path class="st14" d="M162.4,441c-0.6,1-1.8,1.3-2.7,0.7l-67.8-39.1c-1-0.5-1.3-1.8-0.7-2.7l0.2-0.4c0.6-1,1.8-1.3,2.7-0.7
				l67.8,39.1c1,0.5,1.3,1.8,0.7,2.7L162.4,441z"/>
		</g>
		<g>
			<path class="st14" d="M162.4,454.4c-0.6,1-1.8,1.3-2.7,0.7L91.9,416c-1-0.5-1.3-1.8-0.7-2.7l0.2-0.4c0.6-1,1.8-1.3,2.7-0.7
				l67.8,39.1c1,0.5,1.3,1.8,0.7,2.7L162.4,454.4z"/>
		</g>
		<g>
			<g>
				<line class="st7" x1="163.9" y1="404.6" x2="136.9" y2="389"/>
				<circle class="st8" cx="131.4" cy="385.7" r="2.2"/>
			</g>
			<g>
				<line class="st7" x1="163.9" y1="394.6" x2="136.9" y2="379"/>
				<circle class="st8" cx="131.4" cy="375.7" r="2.2"/>
			</g>
			<g>
				<line class="st7" x1="163.9" y1="383.5" x2="136.9" y2="367.9"/>
				<circle class="st8" cx="131.4" cy="364.6" r="2.2"/>
			</g>
			<g>
				<line class="st7" x1="121.7" y1="380.2" x2="94.7" y2="364.6"/>
				<circle class="st8" cx="89.1" cy="361.2" r="2.2"/>
			</g>
			<g>
				<line class="st7" x1="163.9" y1="414.6" x2="136.9" y2="399"/>
				<circle class="st8" cx="131.4" cy="395.7" r="2.2"/>
			</g>
			<g>
				<line class="st7" x1="121.7" y1="390.2" x2="94.7" y2="374.6"/>
				<circle class="st8" cx="89.1" cy="371.2" r="2.2"/>
			</g>
			<g>
				<line class="st7" x1="121.7" y1="370.2" x2="94.7" y2="354.6"/>
				<circle class="st8" cx="89.1" cy="351.2" r="2.2"/>
			</g>
			<g>
				<line class="st7" x1="121.7" y1="359" x2="94.7" y2="343.4"/>
				<circle class="st8" cx="89.1" cy="340.1" r="2.2"/>
			</g>
		</g>
		<circle class="st9" cx="92" cy="328.7" r="3.9"/>
		<circle class="st10" cx="102.4" cy="334.8" r="3.9"/>
		<line class="st11" x1="243.9" y1="425.3" x2="263.1" y2="414.2"/>
		<line class="st11" x1="243.9" y1="420.9" x2="263.1" y2="409.7"/>
		<line class="st11" x1="243.9" y1="416.4" x2="263.1" y2="405.3"/>
		<line class="st11" x1="243.9" y1="412" x2="263.1" y2="400.9"/>
		<line class="st11" x1="243.9" y1="407.5" x2="263.1" y2="396.4"/>
	</g>
	<g>
		<polygon class="st12" points="310.4,305.4 406.7,361 503,305.4 406.7,249.9 		"/>
		<polygon class="st13" points="406.7,472.2 406.7,361 503,305.4 503,416.6 		"/>
		<polygon class="st12" points="406.7,472.2 406.7,361 310.4,305.5 310.4,416.6 		"/>
		<polyline class="st5" points="310.4,305.4 406.7,361 406.7,472.2 406.7,361 503,305.4 		"/>
		<polygon class="st5" points="310.4,305.4 310.4,416.6 406.7,472.2 503,416.6 503,305.4 406.7,249.9 		"/>
		<g>
			<path class="st14" d="M393.6,426.3c-0.6,1-1.8,1.3-2.7,0.7l-67.8-39.1c-1-0.6-1.3-1.8-0.7-2.7l0.2-0.4c0.6-1,1.8-1.3,2.7-0.7
				l67.8,39.1c1,0.5,1.3,1.8,0.7,2.7L393.6,426.3z"/>
		</g>
		<g>
			<path class="st14" d="M393.6,439.6c-0.6,1-1.8,1.3-2.7,0.7l-67.8-39.1c-1-0.5-1.3-1.8-0.7-2.7l0.2-0.4c0.6-1,1.8-1.3,2.7-0.7
				l67.8,39.1c1,0.6,1.3,1.8,0.7,2.7L393.6,439.6z"/>
		</g>
		<g>
			<path class="st14" d="M393.6,453c-0.6,1-1.8,1.3-2.7,0.7l-67.8-39.1c-1-0.5-1.3-1.8-0.7-2.7l0.2-0.4c0.6-1,1.8-1.3,2.7-0.7
				l67.8,39.1c1,0.5,1.3,1.8,0.7,2.7L393.6,453z"/>
		</g>
		<g>
			<g>
				<line class="st7" x1="395.2" y1="403.3" x2="368.2" y2="387.7"/>
				<circle class="st8" cx="362.6" cy="384.3" r="2.2"/>
			</g>
			<g>
				<line class="st7" x1="395.2" y1="393.2" x2="368.2" y2="377.6"/>
				<circle class="st8" cx="362.6" cy="374.3" r="2.2"/>
			</g>
			<g>
				<line class="st7" x1="395.2" y1="382.1" x2="368.2" y2="366.5"/>
				<circle class="st8" cx="362.6" cy="363.2" r="2.2"/>
			</g>
			<g>
				<line class="st7" x1="352.9" y1="378.8" x2="325.9" y2="363.2"/>
				<circle class="st8" cx="320.3" cy="359.9" r="2.2"/>
			</g>
			<g>
				<line class="st7" x1="395.2" y1="413.3" x2="368.2" y2="397.7"/>
				<circle class="st8" cx="362.6" cy="394.3" r="2.2"/>
			</g>
			<g>
				<line class="st7" x1="352.9" y1="388.8" x2="325.9" y2="373.2"/>
				<circle class="st8" cx="320.3" cy="369.9" r="2.2"/>
			</g>
			<g>
				<line class="st7" x1="352.9" y1="368.8" x2="325.9" y2="353.2"/>
				<circle class="st8" cx="320.3" cy="349.9" r="2.2"/>
			</g>
			<g>
				<line class="st7" x1="352.9" y1="357.7" x2="325.9" y2="342.1"/>
				<circle class="st8" cx="320.3" cy="338.7" r="2.2"/>
			</g>
		</g>
		<circle class="st9" cx="323.2" cy="327.3" r="3.9"/>
		<circle class="st10" cx="333.7" cy="333.5" r="3.9"/>
		<line class="st11" x1="475.1" y1="423.9" x2="494.4" y2="412.8"/>
		<line class="st11" x1="475.1" y1="419.5" x2="494.4" y2="408.4"/>
		<line class="st11" x1="475.1" y1="415.1" x2="494.4" y2="403.9"/>
		<line class="st11" x1="475.1" y1="410.6" x2="494.4" y2="399.5"/>
		<line class="st11" x1="475.1" y1="406.2" x2="494.4" y2="395"/>
	</g>
	<g>
		<polygon class="st12" points="194.8,373.8 291.1,429.4 387.3,373.8 291.1,318.2 		"/>
		<polygon class="st13" points="291.1,540.6 291.1,429.4 387.3,373.8 387.3,485 		"/>
		<polygon class="st12" points="291.1,540.6 291.1,429.4 194.8,373.8 194.8,485 		"/>
		<polyline class="st5" points="194.8,373.8 291.1,429.4 291.1,540.6 291.1,429.4 387.3,373.8 		"/>
		<polygon class="st5" points="194.8,373.8 194.8,485 291.1,540.6 387.3,485 387.3,373.8 291.1,318.2 		"/>
		<g>
			<path class="st14" d="M278,494.7c-0.6,1-1.8,1.3-2.7,0.7l-67.8-39.1c-1-0.5-1.3-1.8-0.7-2.7l0.2-0.4c0.6-1,1.8-1.3,2.7-0.7
				l67.8,39.1c1,0.5,1.3,1.8,0.7,2.7L278,494.7z"/>
		</g>
		<g>
			<path class="st14" d="M278,508c-0.6,1-1.8,1.3-2.7,0.7l-67.8-39.1c-1-0.6-1.3-1.8-0.7-2.7l0.2-0.4c0.6-1,1.8-1.3,2.7-0.7
				l67.8,39.1c1,0.6,1.3,1.8,0.7,2.7L278,508z"/>
		</g>
		<g>
			<path class="st14" d="M278,521.4c-0.6,1-1.8,1.3-2.7,0.7L207.5,483c-1-0.5-1.3-1.8-0.7-2.7l0.2-0.4c0.6-1,1.8-1.3,2.7-0.7
				l67.8,39.1c1,0.5,1.3,1.8,0.7,2.7L278,521.4z"/>
		</g>
		<g>
			<g>
				<line class="st7" x1="279.6" y1="471.6" x2="252.5" y2="456"/>
				<circle class="st8" cx="247" cy="452.7" r="2.2"/>
			</g>
			<g>
				<line class="st7" x1="279.6" y1="461.6" x2="252.5" y2="446"/>
				<circle class="st8" cx="247" cy="442.7" r="2.2"/>
			</g>
			<g>
				<line class="st7" x1="279.6" y1="450.5" x2="252.5" y2="434.9"/>
				<circle class="st8" cx="247" cy="431.6" r="2.2"/>
			</g>
			<g>
				<line class="st7" x1="237.3" y1="447.2" x2="210.3" y2="431.6"/>
				<circle class="st8" cx="204.7" cy="428.2" r="2.2"/>
			</g>
			<g>
				<line class="st7" x1="279.6" y1="481.6" x2="252.5" y2="466"/>
				<circle class="st8" cx="247" cy="462.7" r="2.2"/>
			</g>
			<g>
				<line class="st7" x1="237.3" y1="457.2" x2="210.3" y2="441.6"/>
				<circle class="st8" cx="204.7" cy="438.2" r="2.2"/>
			</g>
			<g>
				<line class="st7" x1="237.3" y1="437.2" x2="210.3" y2="421.6"/>
				<circle class="st8" cx="204.7" cy="418.2" r="2.2"/>
			</g>
			<g>
				<line class="st7" x1="237.3" y1="426.1" x2="210.3" y2="410.5"/>
				<circle class="st8" cx="204.7" cy="407.1" r="2.2"/>
			</g>
		</g>
		<circle class="st9" cx="207.6" cy="395.7" r="3.9"/>
		<circle class="st10" cx="218.1" cy="401.8" r="3.9"/>
		<line class="st11" x1="359.5" y1="492.3" x2="378.8" y2="481.2"/>
		<line class="st11" x1="359.5" y1="487.9" x2="378.8" y2="476.8"/>
		<line class="st11" x1="359.5" y1="483.4" x2="378.8" y2="472.3"/>
		<line class="st11" x1="359.5" y1="479" x2="378.8" y2="467.9"/>
		<line class="st11" x1="359.5" y1="474.5" x2="378.8" y2="463.4"/>
	</g>
	<g>
		<polygon class="st12" points="426,372.5 522.3,428 618.6,372.5 522.3,316.9 		"/>
		<polygon class="st13" points="522.3,539.2 522.3,428 618.6,372.5 618.6,483.6 		"/>
		<polygon class="st12" points="522.3,539.2 522.3,428.1 426,372.5 426,483.6 		"/>
		<polyline class="st5" points="426,372.5 522.3,428 522.3,539.2 522.3,428 618.6,372.5 		"/>
		<polygon class="st5" points="426,372.5 426,483.6 522.3,539.2 618.6,483.6 618.6,372.5 522.3,316.9 		"/>
		<g>
			<path class="st14" d="M509.2,493.3c-0.6,1-1.8,1.3-2.7,0.7l-67.8-39.1c-1-0.5-1.3-1.8-0.7-2.7l0.2-0.4c0.6-1,1.8-1.3,2.7-0.7
				l67.8,39.1c1,0.5,1.3,1.8,0.7,2.7L509.2,493.3z"/>
		</g>
		<g>
			<path class="st14" d="M509.2,506.7c-0.6,1-1.8,1.3-2.7,0.7l-67.8-39.1c-1-0.6-1.3-1.8-0.7-2.7l0.2-0.4c0.6-1,1.8-1.3,2.7-0.7
				l67.8,39.1c1,0.6,1.3,1.8,0.7,2.7L509.2,506.7z"/>
		</g>
		<g>
			<path class="st14" d="M509.2,520c-0.6,1-1.8,1.3-2.7,0.7l-67.8-39.1c-1-0.5-1.3-1.8-0.7-2.7l0.2-0.4c0.6-1,1.8-1.3,2.7-0.7
				l67.8,39.1c1,0.5,1.3,1.8,0.7,2.7L509.2,520z"/>
		</g>
		<g>
			<g>
				<line class="st7" x1="510.8" y1="470.3" x2="483.8" y2="454.7"/>
				<circle class="st8" cx="478.2" cy="451.3" r="2.2"/>
			</g>
			<g>
				<line class="st7" x1="510.8" y1="460.3" x2="483.8" y2="444.7"/>
				<circle class="st8" cx="478.2" cy="441.3" r="2.2"/>
			</g>
			<g>
				<line class="st7" x1="510.8" y1="449.1" x2="483.8" y2="433.5"/>
				<circle class="st8" cx="478.2" cy="430.2" r="2.2"/>
			</g>
			<g>
				<line class="st7" x1="468.5" y1="445.8" x2="441.5" y2="430.2"/>
				<circle class="st8" cx="436" cy="426.9" r="2.2"/>
			</g>
			<g>
				<line class="st7" x1="510.8" y1="480.3" x2="483.8" y2="464.7"/>
				<circle class="st8" cx="478.2" cy="461.3" r="2.2"/>
			</g>
			<g>
				<line class="st7" x1="468.5" y1="455.8" x2="441.5" y2="440.2"/>
				<circle class="st8" cx="436" cy="436.9" r="2.2"/>
			</g>
			<g>
				<line class="st7" x1="468.5" y1="435.8" x2="441.5" y2="420.2"/>
				<circle class="st8" cx="436" cy="416.9" r="2.2"/>
			</g>
			<g>
				<line class="st7" x1="468.5" y1="424.7" x2="441.5" y2="409.1"/>
				<circle class="st8" cx="436" cy="405.8" r="2.2"/>
			</g>
		</g>
		<circle class="st9" cx="438.8" cy="394.3" r="3.9"/>
		<circle class="st10" cx="449.3" cy="400.5" r="3.9"/>
		<line class="st11" x1="590.7" y1="491" x2="610" y2="479.8"/>
		<line class="st11" x1="590.7" y1="486.5" x2="610" y2="475.4"/>
		<line class="st11" x1="590.7" y1="482.1" x2="610" y2="470.9"/>
		<line class="st11" x1="590.7" y1="477.6" x2="610" y2="466.5"/>
		<line class="st11" x1="590.7" y1="473.2" x2="610" y2="462.1"/>
	</g>
	<g>
		<polygon class="st12" points="310.4,440.8 406.7,496.4 503,440.8 406.7,385.2 		"/>
		<polygon class="st13" points="406.7,607.6 406.7,496.4 503,440.8 503,552 		"/>
		<polygon class="st12" points="406.7,607.6 406.7,496.4 310.4,440.8 310.4,552 		"/>
		<polyline class="st5" points="310.4,440.8 406.7,496.4 406.7,607.6 406.7,496.4 503,440.8 		"/>
		<polygon class="st5" points="310.4,440.8 310.4,552 406.7,607.6 503,552 503,440.8 406.7,385.2 		"/>
		<g>
			<path class="st14" d="M393.6,561.7c-0.6,1-1.8,1.3-2.7,0.7l-67.8-39.1c-1-0.6-1.3-1.8-0.7-2.7l0.2-0.4c0.6-1,1.8-1.3,2.7-0.7
				l67.8,39.1c1,0.5,1.3,1.8,0.7,2.7L393.6,561.7z"/>
		</g>
		<g>
			<path class="st14" d="M393.6,575c-0.6,1-1.8,1.3-2.7,0.7l-67.8-39.1c-1-0.5-1.3-1.8-0.7-2.7l0.2-0.4c0.6-1,1.8-1.3,2.7-0.7
				l67.8,39.1c1,0.5,1.3,1.8,0.7,2.7L393.6,575z"/>
		</g>
		<g>
			<path class="st14" d="M393.6,588.4c-0.6,1-1.8,1.3-2.7,0.7L323.1,550c-1-0.5-1.3-1.8-0.7-2.7l0.2-0.4c0.6-1,1.8-1.3,2.7-0.7
				l67.8,39.1c1,0.5,1.3,1.8,0.7,2.7L393.6,588.4z"/>
		</g>
		<g>
			<g>
				<line class="st7" x1="395.2" y1="538.6" x2="368.2" y2="523"/>
				<circle class="st8" cx="362.6" cy="519.7" r="2.2"/>
			</g>
			<g>
				<line class="st7" x1="395.2" y1="528.6" x2="368.2" y2="513"/>
				<circle class="st8" cx="362.6" cy="509.7" r="2.2"/>
			</g>
			<g>
				<line class="st7" x1="395.2" y1="517.5" x2="368.2" y2="501.9"/>
				<circle class="st8" cx="362.6" cy="498.6" r="2.2"/>
			</g>
			<g>
				<line class="st7" x1="352.9" y1="514.2" x2="325.9" y2="498.6"/>
				<circle class="st8" cx="320.3" cy="495.2" r="2.2"/>
			</g>
			<g>
				<line class="st7" x1="395.2" y1="548.6" x2="368.2" y2="533"/>
				<circle class="st8" cx="362.6" cy="529.7" r="2.2"/>
			</g>
			<g>
				<line class="st7" x1="352.9" y1="524.2" x2="325.9" y2="508.6"/>
				<circle class="st8" cx="320.3" cy="505.3" r="2.2"/>
			</g>
			<g>
				<line class="st7" x1="352.9" y1="504.2" x2="325.9" y2="488.6"/>
				<circle class="st8" cx="320.3" cy="485.2" r="2.2"/>
			</g>
			<g>
				<line class="st7" x1="352.9" y1="493.1" x2="325.9" y2="477.5"/>
				<circle class="st8" cx="320.3" cy="474.1" r="2.2"/>
			</g>
		</g>
		<circle class="st9" cx="323.2" cy="462.7" r="3.9"/>
		<circle class="st10" cx="333.7" cy="468.8" r="3.9"/>
		<line class="st11" x1="475.1" y1="559.3" x2="494.4" y2="548.2"/>
		<line class="st11" x1="475.1" y1="554.9" x2="494.4" y2="543.8"/>
		<line class="st11" x1="475.1" y1="550.4" x2="494.4" y2="539.3"/>
		<line class="st11" x1="475.1" y1="546" x2="494.4" y2="534.9"/>
		<line class="st11" x1="475.1" y1="541.5" x2="494.4" y2="530.4"/>
	</g>
</g>
<line class="st2" x1="406.6" y1="641" x2="791.6" y2="418.7"/>
<line class="st1" x1="406.6" y1="641" x2="21.6" y2="418.7"/>
<line class="st1" x1="791.6" y1="237.5" x2="406.6" y2="15.3"/>
<line class="st2" x1="21.6" y1="237.5" x2="406.6" y2="15.3"/>
<line class="st1" x1="791.6" y1="418.7" x2="791.6" y2="237.5"/>
<line class="st1" x1="21.6" y1="418.7" x2="21.6" y2="237.5"/>
<line class="st1" x1="406.6" y1="641" x2="406.6" y2="459.8"/>
<line class="st2" x1="406.6" y1="459.8" x2="791.6" y2="237.5"/>
<line class="st1" x1="406.6" y1="459.8" x2="21.6" y2="237.6"/>
<polyline class="st0" points="21.6,237.6 406.6,459.8 406.6,459.8 791.6,237.5 406.6,15.3 21.6,237.5 "/>
<polyline class="st0" points="406.6,641 791.6,418.7 791.6,237.5 791.6,237.5 406.6,459.8 406.6,459.8 406.6,641 "/>
<polyline class="st0" points="21.6,237.5 21.6,418.7 21.6,418.7 406.6,641 406.6,459.8 406.6,459.8 21.6,237.6 "/>
</svg>
