<?xml version="1.0" encoding="utf-8"?>
<!-- Generator: Adobe Illustrator 18.1.0, SVG Export Plug-In . SVG Version: 6.00 Build 0)  -->
<svg version="1.1" id="main" xmlns="http://www.w3.org/2000/svg" xmlns:xlink="http://www.w3.org/1999/xlink" x="0px" y="0px"
	 width="1998.6px" height="1429.4px" viewBox="0 0 1998.6 1429.4" style="enable-background:new 0 0 1998.6 1429.4;"
	 xml:space="preserve">
<style type="text/css">
	.st0{opacity:0.49;fill:#9F71DB;}
	.st1{opacity:0.51;fill:#CE7BFF;}
	.st2{opacity:0.37;fill:#9B52E8;}
	.st3{opacity:0.62;fill:#AE87F9;}
	.st4{opacity:0.43;fill:#BD8BFC;}
	.st5{opacity:0.58;fill:#4CC7F2;}
	.st6{opacity:0.53;fill:#70AFF9;}
	.st7{opacity:0.5;fill:#3E78CC;}
	.st8{opacity:0.43;fill:#8CB9F9;}
	.st9{opacity:0.21;fill:#CE7BFF;}
</style>
<path class="st0" d="M1236,434.2c0,0.1,560.4,893.8,560.4,893.9c125.4,204.5-645.1,658.5-771.5,454.5c0-0.1-529.5-891.7-529.5-891.8
	c-126.1-204.5-62.5-472.5,142-598.6S1109.9,229.7,1236,434.2z"/>
<circle class="st1" cx="225.6" cy="1257.5" r="491"/>
<circle class="st2" cx="166.6" cy="318.1" r="626"/>
<circle class="st3" cx="1120.4" cy="-90.7" r="562"/>
<path class="st4" d="M2409.3,807.7c0,0.1,123.3,524.7,123.3,524.7c58.9,249.2-820.5,606.7-880.1,357.8
	c0-0.2-145.9-667.2-145.9-667.4c-59.4-249.3,94.5-499.5,343.8-558.9S2349.9,558.4,2409.3,807.7z"/>
<circle class="st5" cx="1692.4" cy="372.1" r="572"/>
<circle class="st6" cx="1493.9" cy="1427.1" r="597.7"/>
<path class="st7" d="M1192.3,1043.7c118.1,297.1-27.1,633.7-324.2,751.8c-0.2,0.1-622.7,248.4-622.9,248.5
	c-297,117.6-764.7-942.8-468.5-1061.3c0.5-0.2,663.4-263,663.8-263.2C737.6,601.4,1074.2,746.5,1192.3,1043.7z"/>
<path class="st8" d="M479,776.4c-0.1,0-1009.3-490.4-1009.4-490.5c-265-128.4,788.2-810.2,1053.5-682.7
	c0.2,0.1,419.1,211.7,419.3,211.8c265.5,128,376.9,446.9,249,712.4S744.5,904.3,479,776.4z"/>
<circle class="st9" cx="2091.6" cy="-19.8" r="491"/>
</svg>
