<?xml version="1.0" encoding="utf-8"?>
<!-- Generator: Adobe Illustrator 18.1.0, SVG Export Plug-In . SVG Version: 6.00 Build 0)  -->
<svg version="1.1" id="main" xmlns="http://www.w3.org/2000/svg" xmlns:xlink="http://www.w3.org/1999/xlink" x="0px" y="0px"
	 width="1998.6px" height="1429.4px" viewBox="0 0 1998.6 1429.4" style="enable-background:new 0 0 1998.6 1429.4;"
	 xml:space="preserve">
<style type="text/css">
	.st0{opacity:0.5;}
	.st1{fill:#E4F5FF;}
	.st2{fill:#CEE3ED;}
	.st3{fill:#E2F0F7;}
	.st4{fill:#EEF9FF;}
	.st5{fill:#E1F7FF;}
	.st6{fill:#F5FCFF;}
	.st7{fill:#E8F4F9;}
	.st8{fill:#CBE9F4;}
</style>
<g class="st0">
	<path class="st1" d="M0,0v863.7C79.7,571,169.9,241.2,235.9,0H0z"/>
	<path class="st2" d="M235.9,0C169.9,241.2,79.7,571,0,863.7v453.8C179,962.5,478.8,373.4,669.1,0H235.9z"/>
	<path class="st3" d="M669.1,0C478.8,373.4,179,962.5,0,1317.5v111.9h358.9L830.6,0H669.1z"/>
	<path class="st4" d="M830.6,0L358.9,1429.4h539.3c39.7-299,135.3-987.4,196.9-1429.4H830.6z"/>
	<path class="st5" d="M1450.2,0h-355.1c-61.6,441.9-157.2,1130.4-196.9,1429.4h134.4C1112.5,1155.4,1318.1,450.5,1450.2,0z"/>
	<path class="st6" d="M1317.6,1429.4L1680.6,0h-230.4c-132.1,450.5-337.6,1155.4-417.5,1429.4H1317.6z"/>
	<path class="st7" d="M1640.7,1429.4c63.9-332,190.9-991.7,275.2-1429.4h-235.2l-363,1429.4H1640.7z"/>
	<path class="st8" d="M1998.6,1429.4V0h-82.8c-84.2,437.6-211.3,1097.4-275.2,1429.4H1998.6z"/>
</g>
</svg>
