<?xml version="1.0" encoding="utf-8"?>
<!-- Generator: Adobe Illustrator 18.1.0, SVG Export Plug-In . SVG Version: 6.00 Build 0)  -->
<svg version="1.1" xmlns="http://www.w3.org/2000/svg" xmlns:xlink="http://www.w3.org/1999/xlink" x="0px" y="0px"
	 width="1998.6px" height="1429.4px" viewBox="0 0 1998.6 1429.4" style="enable-background:new 0 0 1998.6 1429.4;"
	 xml:space="preserve">
<style type="text/css">
	.st0{display:none;}
	.st1{display:inline;fill:#4B28A2;}
	.st2{opacity:0.1;}
	.st3{fill:#8E8E8E;}
	.st4{fill:#B5B5B5;}
</style>
<g id="Layer_2" class="st0">
	<rect y="0" class="st1" width="1998.6" height="1429.4"/>
</g>
<g id="main">
	<g class="st2">
		<polygon class="st3" points="1250.5,734.5 396.5,-15.5 64.5,-15.5 		"/>
		<polygon class="st3" points="1250.5,734.5 -15.5,344.5 -15.5,614.5 		"/>
		<polygon class="st3" points="1250.5,734.5 -15.5,998.5 -15.5,1444.5 120.5,1444.5 		"/>
		<polygon class="st3" points="1250.5,734.5 720.5,1444.5 1182.5,1444.5 		"/>
		<polygon class="st3" points="1250.5,734.5 1484.5,1444.5 2010.5,1444.5 2010.5,1122.5 		"/>
		<polygon class="st3" points="1250.5,734.5 2010.5,766.5 2010.5,359.5 		"/>
		<polygon class="st3" points="1250.5,734.5 1860.5,-15.5 1502.5,-15.5 		"/>
		<polygon class="st3" points="1250.5,734.5 1156.5,-15.5 822.5,-15.5 		"/>
	</g>
	<g class="st2">
		<polygon class="st4" points="1250.5,734.5 64.5,-15.5 -15.5,-15.5 -15.5,344.5 		"/>
		<polygon class="st4" points="1250.5,734.5 -15.5,614.5 -15.5,998.5 		"/>
		<polygon class="st4" points="1250.5,734.5 120.5,1444.5 720.5,1444.5 		"/>
		<polygon class="st4" points="1250.5,734.5 1182.5,1444.5 1484.5,1444.5 		"/>
		<polygon class="st4" points="1250.5,734.5 2010.5,1122.5 2010.5,766.5 		"/>
		<polygon class="st4" points="1250.5,734.5 2010.5,359.5 2010.5,-15.5 1860.5,-15.5 		"/>
		<polygon class="st4" points="1250.5,734.5 1502.5,-15.5 1156.5,-15.5 		"/>
		<polygon class="st4" points="1250.5,734.5 822.5,-15.5 396.5,-15.5 		"/>
	</g>
</g>
</svg>
