<?xml version="1.0" encoding="utf-8"?>
<!-- Generator: Adobe Illustrator 18.1.0, SVG Export Plug-In . SVG Version: 6.00 Build 0)  -->
<svg version="1.1" id="main" xmlns="http://www.w3.org/2000/svg" xmlns:xlink="http://www.w3.org/1999/xlink" x="0px" y="0px"
	 width="1511.5px" height="1047.1px" viewBox="0 0 1511.5 1047.1" style="enable-background:new 0 0 1511.5 1047.1;"
	 xml:space="preserve">
<style type="text/css">
	.st0{fill:#543636;}
	.st1{fill:#422626;}
	.st2{fill:none;stroke:#000000;stroke-width:4;stroke-miterlimit:10;}
	.st3{fill:#10639B;}
	.st4{opacity:0.6;fill:none;stroke:#000000;stroke-width:4;stroke-linecap:round;stroke-miterlimit:10;}
	.st5{fill:#54B734;}
	.st6{fill:#64D0FF;}
	.st7{fill:#BF42F4;}
	.st8{opacity:0.5;fill:none;stroke:#000000;stroke-width:2;stroke-linecap:round;stroke-miterlimit:10;}
	.st9{fill:#514534;}
	.st10{fill:#382F20;}
	.st11{fill:#3B5139;}
	.st12{fill:#283D25;}
	.st13{fill:#4D3B52;}
	.st14{fill:#3C2742;}
</style>
<g>
	<g>
		<g>
			<polygon class="st0" points="671.4,150.5 758,200.5 844.6,150.5 758,100.5 			"/>
			<polygon class="st1" points="758,300.5 758,200.5 844.6,150.5 844.6,250.5 			"/>
			<polygon class="st0" points="758,300.5 758,200.5 671.4,150.5 671.4,250.5 			"/>
			<polyline class="st2" points="671.4,150.5 758,200.5 758,300.5 758,200.5 844.6,150.5 			"/>
			<polygon class="st2" points="671.4,150.5 671.4,250.5 758,300.5 844.6,250.5 844.6,150.5 758,100.5 			"/>
			<g>
				<path class="st3" d="M746.4,259c-0.5,1-1.8,1.3-2.7,0.7l-60.6-35c-1-0.6-1.3-1.8-0.7-2.7s1.8-1.3,2.7-0.7l60.6,35
					C746.6,256.8,746.9,258.1,746.4,259z"/>
			</g>
			<g>
				<path class="st3" d="M746.4,271c-0.5,1-1.8,1.3-2.7,0.7l-60.6-35c-1-0.6-1.3-1.8-0.7-2.7s1.8-1.3,2.7-0.7l60.6,35
					C746.6,268.8,746.9,270.1,746.4,271z"/>
			</g>
			<g>
				<path class="st3" d="M746.4,283c-0.5,1-1.8,1.3-2.7,0.7l-60.6-35c-1-0.6-1.3-1.8-0.7-2.7s1.8-1.3,2.7-0.7l60.6,35
					C746.6,280.8,746.9,282.1,746.4,283z"/>
			</g>
			<g>
				<g>
					<line class="st4" x1="747.6" y1="238.4" x2="723.3" y2="224.4"/>
					<circle class="st5" cx="718.3" cy="221.4" r="2"/>
				</g>
				<g>
					<line class="st4" x1="747.6" y1="229.4" x2="723.3" y2="215.4"/>
					<circle class="st5" cx="718.3" cy="212.4" r="2"/>
				</g>
				<g>
					<line class="st4" x1="747.6" y1="219.4" x2="723.3" y2="205.4"/>
					<circle class="st5" cx="718.3" cy="202.4" r="2"/>
				</g>
				<g>
					<line class="st4" x1="709.6" y1="216.4" x2="685.3" y2="202.4"/>
					<circle class="st5" cx="680.3" cy="199.4" r="2"/>
				</g>
				<g>
					<line class="st4" x1="747.6" y1="247.4" x2="723.3" y2="233.4"/>
					<circle class="st5" cx="718.3" cy="230.4" r="2"/>
				</g>
				<g>
					<line class="st4" x1="709.6" y1="225.4" x2="685.3" y2="211.4"/>
					<circle class="st5" cx="680.3" cy="208.4" r="2"/>
				</g>
				<g>
					<line class="st4" x1="709.6" y1="207.4" x2="685.3" y2="193.4"/>
					<circle class="st5" cx="680.3" cy="190.4" r="2"/>
				</g>
				<g>
					<line class="st4" x1="709.6" y1="197.4" x2="685.3" y2="183.4"/>
					<circle class="st5" cx="680.3" cy="180.4" r="2"/>
				</g>
			</g>
			<circle class="st6" cx="682.9" cy="170.1" r="3.5"/>
			<circle class="st7" cx="692.3" cy="175.7" r="3.5"/>
			<line class="st8" x1="819.5" y1="257.1" x2="836.9" y2="247.1"/>
			<line class="st8" x1="819.5" y1="253.1" x2="836.9" y2="243.1"/>
			<line class="st8" x1="819.5" y1="249.1" x2="836.9" y2="239.1"/>
			<line class="st8" x1="819.5" y1="245.1" x2="836.9" y2="235.1"/>
			<line class="st8" x1="819.5" y1="241.1" x2="836.9" y2="231.1"/>
		</g>
		<g>
			<polygon class="st0" points="775.4,210.7 862,260.7 948.6,210.7 862,160.7 			"/>
			<polygon class="st1" points="862,360.7 862,260.7 948.6,210.7 948.6,310.7 			"/>
			<polygon class="st0" points="862,360.7 862,260.7 775.4,210.7 775.4,310.7 			"/>
			<polyline class="st2" points="775.4,210.7 862,260.7 862,360.7 862,260.7 948.6,210.7 			"/>
			<polygon class="st2" points="775.4,210.7 775.4,310.7 862,360.7 948.6,310.7 948.6,210.7 862,160.7 			"/>
			<g>
				<path class="st3" d="M850.4,319.3c-0.5,1-1.8,1.3-2.7,0.7L787,285c-1-0.5-1.3-1.8-0.7-2.7s1.8-1.3,2.7-0.7l60.6,35
					C850.6,317.1,850.9,318.3,850.4,319.3z"/>
			</g>
			<g>
				<path class="st3" d="M850.4,331.3c-0.5,1-1.8,1.3-2.7,0.7L787,297c-1-0.5-1.3-1.8-0.7-2.7s1.8-1.3,2.7-0.7l60.6,35
					C850.6,329.1,850.9,330.3,850.4,331.3z"/>
			</g>
			<g>
				<path class="st3" d="M850.4,343.3c-0.5,1-1.8,1.3-2.7,0.7L787,309c-1-0.5-1.3-1.8-0.7-2.7s1.8-1.3,2.7-0.7l60.6,35
					C850.6,341.1,850.9,342.3,850.4,343.3z"/>
			</g>
			<g>
				<g>
					<line class="st4" x1="851.6" y1="298.7" x2="827.3" y2="284.7"/>
					<circle class="st5" cx="822.3" cy="281.7" r="2"/>
				</g>
				<g>
					<line class="st4" x1="851.6" y1="289.7" x2="827.3" y2="275.7"/>
					<circle class="st5" cx="822.3" cy="272.7" r="2"/>
				</g>
				<g>
					<line class="st4" x1="851.6" y1="279.7" x2="827.3" y2="265.7"/>
					<circle class="st5" cx="822.3" cy="262.7" r="2"/>
				</g>
				<g>
					<line class="st4" x1="813.6" y1="276.7" x2="789.3" y2="262.7"/>
					<circle class="st5" cx="784.3" cy="259.7" r="2"/>
				</g>
				<g>
					<line class="st4" x1="851.6" y1="307.7" x2="827.3" y2="293.7"/>
					<circle class="st5" cx="822.3" cy="290.7" r="2"/>
				</g>
				<g>
					<line class="st4" x1="813.6" y1="285.7" x2="789.3" y2="271.7"/>
					<circle class="st5" cx="784.3" cy="268.7" r="2"/>
				</g>
				<g>
					<line class="st4" x1="813.6" y1="267.7" x2="789.3" y2="253.7"/>
					<circle class="st5" cx="784.3" cy="250.7" r="2"/>
				</g>
				<g>
					<line class="st4" x1="813.6" y1="257.7" x2="789.3" y2="243.7"/>
					<circle class="st5" cx="784.3" cy="240.7" r="2"/>
				</g>
			</g>
			<circle class="st6" cx="786.9" cy="230.4" r="3.5"/>
			<circle class="st7" cx="796.3" cy="235.9" r="3.5"/>
			<line class="st8" x1="923.5" y1="317.3" x2="940.9" y2="307.3"/>
			<line class="st8" x1="923.5" y1="313.3" x2="940.9" y2="303.3"/>
			<line class="st8" x1="923.5" y1="309.3" x2="940.9" y2="299.3"/>
			<line class="st8" x1="923.5" y1="305.3" x2="940.9" y2="295.3"/>
			<line class="st8" x1="923.5" y1="301.3" x2="940.9" y2="291.3"/>
		</g>
		<g>
			<polygon class="st0" points="878.5,273.1 965.1,323.1 1051.7,273.1 965.1,223.1 			"/>
			<polygon class="st1" points="965.1,423.1 965.1,323.1 1051.7,273.1 1051.7,373.1 			"/>
			<polygon class="st0" points="965.1,423.2 965.1,323.2 878.5,273.2 878.5,373.2 			"/>
			<polyline class="st2" points="878.5,273.1 965.1,323.1 965.1,423.1 965.1,323.1 1051.7,273.1 			"/>
			<polygon class="st2" points="878.5,273.1 878.5,373.1 965.1,423.1 1051.7,373.1 1051.7,273.1 965.1,223.1 			"/>
			<g>
				<path class="st3" d="M953.5,381.7c-0.5,1-1.8,1.3-2.7,0.7l-60.6-35c-1-0.5-1.3-1.8-0.7-2.7s1.8-1.3,2.7-0.7l60.6,35
					C953.7,379.5,954,380.7,953.5,381.7z"/>
			</g>
			<g>
				<path class="st3" d="M953.5,393.7c-0.5,1-1.8,1.3-2.7,0.7l-60.6-35c-1-0.5-1.3-1.8-0.7-2.7s1.8-1.3,2.7-0.7l60.6,35
					C953.7,391.5,954,392.7,953.5,393.7z"/>
			</g>
			<g>
				<path class="st3" d="M953.5,405.7c-0.5,1-1.8,1.3-2.7,0.7l-60.6-35c-1-0.5-1.3-1.8-0.7-2.7s1.8-1.3,2.7-0.7l60.6,35
					C953.7,403.5,954,404.7,953.5,405.7z"/>
			</g>
			<g>
				<g>
					<line class="st4" x1="954.8" y1="361.1" x2="930.4" y2="347.1"/>
					<circle class="st5" cx="925.4" cy="344.1" r="2"/>
				</g>
				<g>
					<line class="st4" x1="954.8" y1="352.1" x2="930.4" y2="338.1"/>
					<circle class="st5" cx="925.4" cy="335.1" r="2"/>
				</g>
				<g>
					<line class="st4" x1="954.8" y1="342.1" x2="930.4" y2="328.1"/>
					<circle class="st5" cx="925.4" cy="325.1" r="2"/>
				</g>
				<g>
					<line class="st4" x1="916.8" y1="339.1" x2="892.4" y2="325.1"/>
					<circle class="st5" cx="887.4" cy="322.1" r="2"/>
				</g>
				<g>
					<line class="st4" x1="954.8" y1="370.1" x2="930.4" y2="356.1"/>
					<circle class="st5" cx="925.4" cy="353.1" r="2"/>
				</g>
				<g>
					<line class="st4" x1="916.8" y1="348.1" x2="892.4" y2="334.1"/>
					<circle class="st5" cx="887.4" cy="331.1" r="2"/>
				</g>
				<g>
					<line class="st4" x1="916.8" y1="330.1" x2="892.4" y2="316.1"/>
					<circle class="st5" cx="887.4" cy="313.1" r="2"/>
				</g>
				<g>
					<line class="st4" x1="916.8" y1="320.1" x2="892.4" y2="306.1"/>
					<circle class="st5" cx="887.4" cy="303.1" r="2"/>
				</g>
			</g>
			<circle class="st6" cx="890" cy="292.8" r="3.5"/>
			<circle class="st7" cx="899.4" cy="298.3" r="3.5"/>
			<line class="st8" x1="1026.7" y1="379.7" x2="1044" y2="369.7"/>
			<line class="st8" x1="1026.7" y1="375.7" x2="1044" y2="365.7"/>
			<line class="st8" x1="1026.7" y1="371.7" x2="1044" y2="361.7"/>
			<line class="st8" x1="1026.7" y1="367.7" x2="1044" y2="357.7"/>
			<line class="st8" x1="1026.7" y1="363.7" x2="1044" y2="353.7"/>
		</g>
		<g>
			<polygon class="st0" points="566.5,212.3 653.1,262.3 739.7,212.3 653.1,162.3 			"/>
			<polygon class="st1" points="653.1,362.3 653.1,262.3 739.7,212.3 739.7,312.3 			"/>
			<polygon class="st0" points="653.1,362.3 653.1,262.3 566.5,212.3 566.5,312.3 			"/>
			<polyline class="st2" points="566.5,212.3 653.1,262.3 653.1,362.3 653.1,262.3 739.7,212.3 			"/>
			<polygon class="st2" points="566.5,212.3 566.5,312.3 653.1,362.3 739.7,312.3 739.7,212.3 653.1,162.3 			"/>
			<g>
				<path class="st3" d="M641.5,320.8c-0.5,1-1.8,1.3-2.7,0.7l-60.6-35c-1-0.5-1.3-1.8-0.7-2.7c0.5-1,1.8-1.3,2.7-0.7l60.6,35
					C641.7,318.7,642,319.9,641.5,320.8z"/>
			</g>
			<g>
				<path class="st3" d="M641.5,332.8c-0.5,1-1.8,1.3-2.7,0.7l-60.6-35c-1-0.5-1.3-1.8-0.7-2.7c0.5-1,1.8-1.3,2.7-0.7l60.6,35
					C641.7,330.7,642,331.9,641.5,332.8z"/>
			</g>
			<g>
				<path class="st3" d="M641.5,344.8c-0.5,1-1.8,1.3-2.7,0.7l-60.6-35c-1-0.5-1.3-1.8-0.7-2.7c0.5-1,1.8-1.3,2.7-0.7l60.6,35
					C641.7,342.7,642,343.9,641.5,344.8z"/>
			</g>
			<g>
				<g>
					<line class="st4" x1="642.7" y1="300.3" x2="618.4" y2="286.2"/>
					<circle class="st5" cx="613.4" cy="283.2" r="2"/>
				</g>
				<g>
					<line class="st4" x1="642.7" y1="291.3" x2="618.4" y2="277.2"/>
					<circle class="st5" cx="613.4" cy="274.2" r="2"/>
				</g>
				<g>
					<line class="st4" x1="642.7" y1="281.3" x2="618.4" y2="267.2"/>
					<circle class="st5" cx="613.4" cy="264.2" r="2"/>
				</g>
				<g>
					<line class="st4" x1="604.7" y1="278.3" x2="580.4" y2="264.2"/>
					<circle class="st5" cx="575.4" cy="261.2" r="2"/>
				</g>
				<g>
					<line class="st4" x1="642.7" y1="309.3" x2="618.4" y2="295.2"/>
					<circle class="st5" cx="613.4" cy="292.2" r="2"/>
				</g>
				<g>
					<line class="st4" x1="604.7" y1="287.3" x2="580.4" y2="273.2"/>
					<circle class="st5" cx="575.4" cy="270.2" r="2"/>
				</g>
				<g>
					<line class="st4" x1="604.7" y1="269.3" x2="580.4" y2="255.2"/>
					<circle class="st5" cx="575.4" cy="252.2" r="2"/>
				</g>
				<g>
					<line class="st4" x1="604.7" y1="259.3" x2="580.4" y2="245.2"/>
					<circle class="st5" cx="575.4" cy="242.2" r="2"/>
				</g>
			</g>
			<circle class="st6" cx="578" cy="232" r="3.5"/>
			<circle class="st7" cx="587.4" cy="237.5" r="3.5"/>
			<line class="st8" x1="714.7" y1="318.9" x2="732" y2="308.9"/>
			<line class="st8" x1="714.7" y1="314.9" x2="732" y2="304.9"/>
			<line class="st8" x1="714.7" y1="310.9" x2="732" y2="300.9"/>
			<line class="st8" x1="714.7" y1="306.9" x2="732" y2="296.9"/>
			<line class="st8" x1="714.7" y1="302.9" x2="732" y2="292.9"/>
		</g>
		<g>
			<polygon class="st0" points="462.5,273.8 549.1,323.8 635.7,273.8 549.1,223.8 			"/>
			<polygon class="st1" points="549.1,423.8 549.1,323.8 635.7,273.8 635.7,373.8 			"/>
			<polygon class="st0" points="549.1,423.8 549.1,323.8 462.5,273.8 462.5,373.8 			"/>
			<polyline class="st2" points="462.5,273.8 549.1,323.8 549.1,423.8 549.1,323.8 635.7,273.8 			"/>
			<polygon class="st2" points="462.5,273.8 462.5,373.8 549.1,423.8 635.7,373.8 635.7,273.8 549.1,223.8 			"/>
			<g>
				<path class="st3" d="M537.5,382.3c-0.5,1-1.8,1.3-2.7,0.7l-60.6-35c-1-0.5-1.3-1.8-0.7-2.7c0.6-1,1.8-1.3,2.7-0.7l60.6,35
					C537.7,380.2,538,381.4,537.5,382.3z"/>
			</g>
			<g>
				<path class="st3" d="M537.5,394.3c-0.5,1-1.8,1.3-2.7,0.7l-60.6-35c-1-0.5-1.3-1.8-0.7-2.7c0.6-1,1.8-1.3,2.7-0.7l60.6,35
					C537.7,392.2,538,393.4,537.5,394.3z"/>
			</g>
			<g>
				<path class="st3" d="M537.5,406.3c-0.5,1-1.8,1.3-2.7,0.7l-60.6-35c-1-0.5-1.3-1.8-0.7-2.7c0.6-1,1.8-1.3,2.7-0.7l60.6,35
					C537.7,404.2,538,405.4,537.5,406.3z"/>
			</g>
			<g>
				<g>
					<line class="st4" x1="538.7" y1="361.8" x2="514.4" y2="347.7"/>
					<circle class="st5" cx="509.4" cy="344.7" r="2"/>
				</g>
				<g>
					<line class="st4" x1="538.7" y1="352.8" x2="514.4" y2="338.7"/>
					<circle class="st5" cx="509.4" cy="335.7" r="2"/>
				</g>
				<g>
					<line class="st4" x1="538.7" y1="342.8" x2="514.4" y2="328.7"/>
					<circle class="st5" cx="509.4" cy="325.7" r="2"/>
				</g>
				<g>
					<line class="st4" x1="500.7" y1="339.8" x2="476.4" y2="325.7"/>
					<circle class="st5" cx="471.4" cy="322.7" r="2"/>
				</g>
				<g>
					<line class="st4" x1="538.7" y1="370.8" x2="514.4" y2="356.7"/>
					<circle class="st5" cx="509.4" cy="353.7" r="2"/>
				</g>
				<g>
					<line class="st4" x1="500.7" y1="348.8" x2="476.4" y2="334.7"/>
					<circle class="st5" cx="471.4" cy="331.7" r="2"/>
				</g>
				<g>
					<line class="st4" x1="500.7" y1="330.8" x2="476.4" y2="316.7"/>
					<circle class="st5" cx="471.4" cy="313.7" r="2"/>
				</g>
				<g>
					<line class="st4" x1="500.7" y1="320.8" x2="476.4" y2="306.7"/>
					<circle class="st5" cx="471.4" cy="303.7" r="2"/>
				</g>
			</g>
			<circle class="st6" cx="474" cy="293.5" r="3.5"/>
			<circle class="st7" cx="483.4" cy="299" r="3.5"/>
			<line class="st8" x1="610.7" y1="380.4" x2="628" y2="370.4"/>
			<line class="st8" x1="610.7" y1="376.4" x2="628" y2="366.4"/>
			<line class="st8" x1="610.7" y1="372.4" x2="628" y2="362.4"/>
			<line class="st8" x1="610.7" y1="368.4" x2="628" y2="358.4"/>
			<line class="st8" x1="610.7" y1="364.4" x2="628" y2="354.4"/>
		</g>
		<g>
			<polygon class="st0" points="670.5,272.6 757.1,322.6 843.7,272.6 757.1,222.6 			"/>
			<polygon class="st1" points="757.1,422.6 757.1,322.6 843.7,272.6 843.7,372.6 			"/>
			<polygon class="st0" points="757.1,422.6 757.1,322.6 670.5,272.6 670.5,372.6 			"/>
			<polyline class="st2" points="670.5,272.6 757.1,322.6 757.1,422.6 757.1,322.6 843.7,272.6 			"/>
			<polygon class="st2" points="670.5,272.6 670.5,372.6 757.1,422.6 843.7,372.6 843.7,272.6 757.1,222.6 			"/>
			<g>
				<path class="st3" d="M745.5,381.1c-0.5,1-1.8,1.3-2.7,0.7l-60.6-35c-1-0.5-1.3-1.8-0.7-2.7c0.5-1,1.8-1.3,2.7-0.7l60.6,35
					C745.7,378.9,746,380.2,745.5,381.1z"/>
			</g>
			<g>
				<path class="st3" d="M745.5,393.1c-0.5,1-1.8,1.3-2.7,0.7l-60.6-35c-1-0.5-1.3-1.8-0.7-2.7c0.5-1,1.8-1.3,2.7-0.7l60.6,35
					C745.7,390.9,746,392.2,745.5,393.1z"/>
			</g>
			<g>
				<path class="st3" d="M745.5,405.1c-0.5,1-1.8,1.3-2.7,0.7l-60.6-35c-1-0.5-1.3-1.8-0.7-2.7c0.5-1,1.8-1.3,2.7-0.7l60.6,35
					C745.7,402.9,746,404.2,745.5,405.1z"/>
			</g>
			<g>
				<g>
					<line class="st4" x1="746.8" y1="360.6" x2="722.4" y2="346.5"/>
					<circle class="st5" cx="717.4" cy="343.5" r="2"/>
				</g>
				<g>
					<line class="st4" x1="746.8" y1="351.6" x2="722.4" y2="337.5"/>
					<circle class="st5" cx="717.4" cy="334.5" r="2"/>
				</g>
				<g>
					<line class="st4" x1="746.8" y1="341.6" x2="722.4" y2="327.5"/>
					<circle class="st5" cx="717.4" cy="324.5" r="2"/>
				</g>
				<g>
					<line class="st4" x1="708.8" y1="338.6" x2="684.4" y2="324.5"/>
					<circle class="st5" cx="679.4" cy="321.5" r="2"/>
				</g>
				<g>
					<line class="st4" x1="746.8" y1="369.6" x2="722.4" y2="355.5"/>
					<circle class="st5" cx="717.4" cy="352.5" r="2"/>
				</g>
				<g>
					<line class="st4" x1="708.8" y1="347.6" x2="684.4" y2="333.5"/>
					<circle class="st5" cx="679.4" cy="330.5" r="2"/>
				</g>
				<g>
					<line class="st4" x1="708.8" y1="329.6" x2="684.4" y2="315.5"/>
					<circle class="st5" cx="679.4" cy="312.5" r="2"/>
				</g>
				<g>
					<line class="st4" x1="708.8" y1="319.6" x2="684.4" y2="305.5"/>
					<circle class="st5" cx="679.4" cy="302.5" r="2"/>
				</g>
			</g>
			<circle class="st6" cx="682" cy="292.3" r="3.5"/>
			<circle class="st7" cx="691.4" cy="297.8" r="3.5"/>
			<line class="st8" x1="818.7" y1="379.2" x2="836" y2="369.2"/>
			<line class="st8" x1="818.7" y1="375.2" x2="836" y2="365.2"/>
			<line class="st8" x1="818.7" y1="371.2" x2="836" y2="361.2"/>
			<line class="st8" x1="818.7" y1="367.2" x2="836" y2="357.2"/>
			<line class="st8" x1="818.7" y1="363.2" x2="836" y2="353.2"/>
		</g>
		<g>
			<polygon class="st0" points="566.5,334.1 653.1,384.1 739.7,334.1 653.1,284.1 			"/>
			<polygon class="st1" points="653.1,484.1 653.1,384.1 739.7,334.1 739.7,434.1 			"/>
			<polygon class="st0" points="653.1,484.1 653.1,384.1 566.5,334.1 566.5,434.1 			"/>
			<polyline class="st2" points="566.5,334.1 653.1,384.1 653.1,484.1 653.1,384.1 739.7,334.1 			"/>
			<polygon class="st2" points="566.5,334.1 566.5,434.1 653.1,484.1 739.7,434.1 739.7,334.1 653.1,284.1 			"/>
			<g>
				<path class="st3" d="M641.5,442.6c-0.6,1-1.8,1.3-2.7,0.7l-60.6-35c-1-0.5-1.3-1.8-0.7-2.7c0.5-1,1.8-1.3,2.7-0.7l60.6,35
					C641.7,440.4,642,441.7,641.5,442.6z"/>
			</g>
			<g>
				<path class="st3" d="M641.5,454.6c-0.6,1-1.8,1.3-2.7,0.7l-60.6-35c-1-0.5-1.3-1.8-0.7-2.7c0.5-1,1.8-1.3,2.7-0.7l60.6,35
					C641.7,452.4,642,453.7,641.5,454.6z"/>
			</g>
			<g>
				<path class="st3" d="M641.5,466.6c-0.6,1-1.8,1.3-2.7,0.7l-60.6-35c-1-0.5-1.3-1.8-0.7-2.7c0.5-1,1.8-1.3,2.7-0.7l60.6,35
					C641.7,464.4,642,465.7,641.5,466.6z"/>
			</g>
			<g>
				<g>
					<line class="st4" x1="642.8" y1="422.1" x2="618.5" y2="408"/>
					<circle class="st5" cx="613.5" cy="405" r="2"/>
				</g>
				<g>
					<line class="st4" x1="642.8" y1="413.1" x2="618.5" y2="399"/>
					<circle class="st5" cx="613.5" cy="396" r="2"/>
				</g>
				<g>
					<line class="st4" x1="642.8" y1="403.1" x2="618.5" y2="389"/>
					<circle class="st5" cx="613.5" cy="386" r="2"/>
				</g>
				<g>
					<line class="st4" x1="604.8" y1="400.1" x2="580.5" y2="386"/>
					<circle class="st5" cx="575.5" cy="383" r="2"/>
				</g>
				<g>
					<line class="st4" x1="642.8" y1="431.1" x2="618.5" y2="417"/>
					<circle class="st5" cx="613.5" cy="414" r="2"/>
				</g>
				<g>
					<line class="st4" x1="604.8" y1="409.1" x2="580.5" y2="395"/>
					<circle class="st5" cx="575.5" cy="392" r="2"/>
				</g>
				<g>
					<line class="st4" x1="604.8" y1="391.1" x2="580.5" y2="377"/>
					<circle class="st5" cx="575.5" cy="374" r="2"/>
				</g>
				<g>
					<line class="st4" x1="604.8" y1="381.1" x2="580.5" y2="367"/>
					<circle class="st5" cx="575.5" cy="364" r="2"/>
				</g>
			</g>
			<circle class="st6" cx="578" cy="353.8" r="3.5"/>
			<circle class="st7" cx="587.4" cy="359.3" r="3.5"/>
			<line class="st8" x1="714.7" y1="440.7" x2="732" y2="430.7"/>
			<line class="st8" x1="714.7" y1="436.7" x2="732" y2="426.7"/>
			<line class="st8" x1="714.7" y1="432.7" x2="732" y2="422.7"/>
			<line class="st8" x1="714.7" y1="428.7" x2="732" y2="418.7"/>
			<line class="st8" x1="714.7" y1="424.7" x2="732" y2="414.7"/>
		</g>
		<g>
			<polygon class="st0" points="774.5,332.9 861.1,382.9 947.7,332.9 861.1,282.9 			"/>
			<polygon class="st1" points="861.1,482.9 861.1,382.9 947.7,332.9 947.7,432.9 			"/>
			<polygon class="st0" points="861.1,482.9 861.1,382.9 774.5,332.9 774.5,432.9 			"/>
			<polyline class="st2" points="774.5,332.9 861.1,382.9 861.1,482.9 861.1,382.9 947.7,332.9 			"/>
			<polygon class="st2" points="774.5,332.9 774.5,432.9 861.1,482.9 947.7,432.9 947.7,332.9 861.1,282.9 			"/>
			<g>
				<path class="st3" d="M849.5,441.4c-0.5,1-1.8,1.3-2.7,0.7l-60.6-35c-1-0.5-1.3-1.8-0.7-2.7c0.5-1,1.8-1.3,2.7-0.7l60.6,35
					C849.7,439.2,850,440.4,849.5,441.4z"/>
			</g>
			<g>
				<path class="st3" d="M849.5,453.4c-0.5,1-1.8,1.3-2.7,0.7l-60.6-35c-1-0.5-1.3-1.8-0.7-2.7c0.5-1,1.8-1.3,2.7-0.7l60.6,35
					C849.7,451.2,850,452.4,849.5,453.4z"/>
			</g>
			<g>
				<path class="st3" d="M849.5,465.4c-0.5,1-1.8,1.3-2.7,0.7l-60.6-35c-1-0.5-1.3-1.8-0.7-2.7c0.5-1,1.8-1.3,2.7-0.7l60.6,35
					C849.7,463.2,850,464.4,849.5,465.4z"/>
			</g>
			<g>
				<g>
					<line class="st4" x1="850.8" y1="420.8" x2="826.4" y2="406.8"/>
					<circle class="st5" cx="821.4" cy="403.8" r="2"/>
				</g>
				<g>
					<line class="st4" x1="850.8" y1="411.8" x2="826.4" y2="397.8"/>
					<circle class="st5" cx="821.4" cy="394.8" r="2"/>
				</g>
				<g>
					<line class="st4" x1="850.8" y1="401.8" x2="826.4" y2="387.8"/>
					<circle class="st5" cx="821.4" cy="384.8" r="2"/>
				</g>
				<g>
					<line class="st4" x1="812.8" y1="398.8" x2="788.4" y2="384.8"/>
					<circle class="st5" cx="783.4" cy="381.8" r="2"/>
				</g>
				<g>
					<line class="st4" x1="850.8" y1="429.8" x2="826.4" y2="415.8"/>
					<circle class="st5" cx="821.4" cy="412.8" r="2"/>
				</g>
				<g>
					<line class="st4" x1="812.8" y1="407.8" x2="788.4" y2="393.8"/>
					<circle class="st5" cx="783.4" cy="390.8" r="2"/>
				</g>
				<g>
					<line class="st4" x1="812.8" y1="389.8" x2="788.4" y2="375.8"/>
					<circle class="st5" cx="783.4" cy="372.8" r="2"/>
				</g>
				<g>
					<line class="st4" x1="812.8" y1="379.8" x2="788.4" y2="365.8"/>
					<circle class="st5" cx="783.4" cy="362.8" r="2"/>
				</g>
			</g>
			<circle class="st6" cx="786" cy="352.5" r="3.5"/>
			<circle class="st7" cx="795.4" cy="358.1" r="3.5"/>
			<line class="st8" x1="922.7" y1="439.5" x2="940" y2="429.5"/>
			<line class="st8" x1="922.7" y1="435.5" x2="940" y2="425.5"/>
			<line class="st8" x1="922.7" y1="431.5" x2="940" y2="421.5"/>
			<line class="st8" x1="922.7" y1="427.5" x2="940" y2="417.5"/>
			<line class="st8" x1="922.7" y1="423.5" x2="940" y2="413.5"/>
		</g>
		<g>
			<polygon class="st0" points="670.5,394.4 757.1,444.4 843.7,394.4 757.1,344.4 			"/>
			<polygon class="st1" points="757.1,544.4 757.1,444.4 843.7,394.4 843.7,494.4 			"/>
			<polygon class="st0" points="757.1,544.4 757.1,444.4 670.5,394.4 670.5,494.4 			"/>
			<polyline class="st2" points="670.5,394.4 757.1,444.4 757.1,544.4 757.1,444.4 843.7,394.4 			"/>
			<polygon class="st2" points="670.5,394.4 670.5,494.4 757.1,544.4 843.7,494.4 843.7,394.4 757.1,344.4 			"/>
			<g>
				<path class="st3" d="M745.5,502.9c-0.5,1-1.8,1.3-2.7,0.7l-60.6-35c-1-0.5-1.3-1.8-0.7-2.7s1.8-1.3,2.7-0.7l60.6,35
					C745.7,500.7,746,502,745.5,502.9z"/>
			</g>
			<g>
				<path class="st3" d="M745.5,514.9c-0.5,1-1.8,1.3-2.7,0.7l-60.6-35c-1-0.5-1.3-1.8-0.7-2.7s1.8-1.3,2.7-0.7l60.6,35
					C745.7,512.7,746,514,745.5,514.9z"/>
			</g>
			<g>
				<path class="st3" d="M745.5,526.9c-0.5,1-1.8,1.3-2.7,0.7l-60.6-35c-1-0.5-1.3-1.8-0.7-2.7s1.8-1.3,2.7-0.7l60.6,35
					C745.7,524.7,746,526,745.5,526.9z"/>
			</g>
			<g>
				<g>
					<line class="st4" x1="746.8" y1="482.3" x2="722.4" y2="468.3"/>
					<circle class="st5" cx="717.4" cy="465.3" r="2"/>
				</g>
				<g>
					<line class="st4" x1="746.8" y1="473.3" x2="722.4" y2="459.3"/>
					<circle class="st5" cx="717.4" cy="456.3" r="2"/>
				</g>
				<g>
					<line class="st4" x1="746.8" y1="463.3" x2="722.4" y2="449.3"/>
					<circle class="st5" cx="717.4" cy="446.3" r="2"/>
				</g>
				<g>
					<line class="st4" x1="708.8" y1="460.3" x2="684.4" y2="446.3"/>
					<circle class="st5" cx="679.4" cy="443.3" r="2"/>
				</g>
				<g>
					<line class="st4" x1="746.8" y1="491.3" x2="722.4" y2="477.3"/>
					<circle class="st5" cx="717.4" cy="474.3" r="2"/>
				</g>
				<g>
					<line class="st4" x1="708.8" y1="469.3" x2="684.4" y2="455.3"/>
					<circle class="st5" cx="679.4" cy="452.3" r="2"/>
				</g>
				<g>
					<line class="st4" x1="708.8" y1="451.3" x2="684.4" y2="437.3"/>
					<circle class="st5" cx="679.4" cy="434.3" r="2"/>
				</g>
				<g>
					<line class="st4" x1="708.8" y1="441.3" x2="684.4" y2="427.3"/>
					<circle class="st5" cx="679.4" cy="424.3" r="2"/>
				</g>
			</g>
			<circle class="st6" cx="682" cy="414" r="3.5"/>
			<circle class="st7" cx="691.4" cy="419.6" r="3.5"/>
			<line class="st8" x1="818.7" y1="501" x2="836" y2="491"/>
			<line class="st8" x1="818.7" y1="497" x2="836" y2="487"/>
			<line class="st8" x1="818.7" y1="493" x2="836" y2="483"/>
			<line class="st8" x1="818.7" y1="489" x2="836" y2="479"/>
			<line class="st8" x1="818.7" y1="485" x2="836" y2="475"/>
		</g>
	</g>
	<g>
		<g>
			<polygon class="st9" points="671.4,612.5 758,662.5 844.6,612.5 758,562.5 			"/>
			<polygon class="st10" points="758,762.5 758,662.5 844.6,612.5 844.6,712.5 			"/>
			<polygon class="st9" points="758,762.5 758,662.5 671.4,612.5 671.4,712.5 			"/>
			<polyline class="st2" points="671.4,612.5 758,662.5 758,762.5 758,662.5 844.6,612.5 			"/>
			<polygon class="st2" points="671.4,612.5 671.4,712.5 758,762.5 844.6,712.5 844.6,612.5 758,562.5 			"/>
			<g>
				<path class="st3" d="M746.4,721c-0.5,1-1.8,1.3-2.7,0.7l-60.6-35c-1-0.5-1.3-1.8-0.7-2.7s1.8-1.3,2.7-0.7l60.6,35
					C746.6,718.8,746.9,720.1,746.4,721z"/>
			</g>
			<g>
				<path class="st3" d="M746.4,733c-0.5,1-1.8,1.3-2.7,0.7l-60.6-35c-1-0.5-1.3-1.8-0.7-2.7s1.8-1.3,2.7-0.7l60.6,35
					C746.6,730.8,746.9,732.1,746.4,733z"/>
			</g>
			<g>
				<path class="st3" d="M746.4,745c-0.5,1-1.8,1.3-2.7,0.7l-60.6-35c-1-0.5-1.3-1.8-0.7-2.7s1.8-1.3,2.7-0.7l60.6,35
					C746.6,742.8,746.9,744.1,746.4,745z"/>
			</g>
			<g>
				<g>
					<line class="st4" x1="747.6" y1="700.4" x2="723.3" y2="686.4"/>
					<circle class="st5" cx="718.3" cy="683.4" r="2"/>
				</g>
				<g>
					<line class="st4" x1="747.6" y1="691.4" x2="723.3" y2="677.4"/>
					<circle class="st5" cx="718.3" cy="674.4" r="2"/>
				</g>
				<g>
					<line class="st4" x1="747.6" y1="681.4" x2="723.3" y2="667.4"/>
					<circle class="st5" cx="718.3" cy="664.4" r="2"/>
				</g>
				<g>
					<line class="st4" x1="709.6" y1="678.4" x2="685.3" y2="664.4"/>
					<circle class="st5" cx="680.3" cy="661.4" r="2"/>
				</g>
				<g>
					<line class="st4" x1="747.6" y1="709.4" x2="723.3" y2="695.4"/>
					<circle class="st5" cx="718.3" cy="692.4" r="2"/>
				</g>
				<g>
					<line class="st4" x1="709.6" y1="687.4" x2="685.3" y2="673.4"/>
					<circle class="st5" cx="680.3" cy="670.4" r="2"/>
				</g>
				<g>
					<line class="st4" x1="709.6" y1="669.4" x2="685.3" y2="655.4"/>
					<circle class="st5" cx="680.3" cy="652.4" r="2"/>
				</g>
				<g>
					<line class="st4" x1="709.6" y1="659.4" x2="685.3" y2="645.4"/>
					<circle class="st5" cx="680.3" cy="642.4" r="2"/>
				</g>
			</g>
			<circle class="st6" cx="682.9" cy="632.1" r="3.5"/>
			<circle class="st7" cx="692.3" cy="637.7" r="3.5"/>
			<line class="st8" x1="819.6" y1="719.1" x2="836.9" y2="709.1"/>
			<line class="st8" x1="819.6" y1="715.1" x2="836.9" y2="705.1"/>
			<line class="st8" x1="819.6" y1="711.1" x2="836.9" y2="701.1"/>
			<line class="st8" x1="819.6" y1="707.1" x2="836.9" y2="697.1"/>
			<line class="st8" x1="819.6" y1="703.1" x2="836.9" y2="693.1"/>
		</g>
		<g>
			<polygon class="st9" points="775.4,672.7 862,722.7 948.6,672.7 862,622.7 			"/>
			<polygon class="st10" points="862,822.7 862,722.7 948.6,672.7 948.6,772.7 			"/>
			<polygon class="st9" points="862,822.7 862,722.7 775.4,672.7 775.4,772.7 			"/>
			<polyline class="st2" points="775.4,672.7 862,722.7 862,822.7 862,722.7 948.6,672.7 			"/>
			<polygon class="st2" points="775.4,672.7 775.4,772.7 862,822.7 948.6,772.7 948.6,672.7 862,622.7 			"/>
			<g>
				<path class="st3" d="M850.4,781.3c-0.5,1-1.8,1.3-2.7,0.7L787,747c-1-0.5-1.3-1.8-0.7-2.7s1.8-1.3,2.7-0.7l60.6,35
					C850.6,779.1,850.9,780.3,850.4,781.3z"/>
			</g>
			<g>
				<path class="st3" d="M850.4,793.3c-0.5,1-1.8,1.3-2.7,0.7L787,759c-1-0.5-1.3-1.8-0.7-2.7s1.8-1.3,2.7-0.7l60.6,35
					C850.6,791.1,850.9,792.3,850.4,793.3z"/>
			</g>
			<g>
				<path class="st3" d="M850.4,805.3c-0.5,1-1.8,1.3-2.7,0.7L787,771c-1-0.5-1.3-1.8-0.7-2.7s1.8-1.3,2.7-0.7l60.6,35
					C850.6,803.1,850.9,804.3,850.4,805.3z"/>
			</g>
			<g>
				<g>
					<line class="st4" x1="851.6" y1="760.7" x2="827.3" y2="746.7"/>
					<circle class="st5" cx="822.3" cy="743.7" r="2"/>
				</g>
				<g>
					<line class="st4" x1="851.6" y1="751.7" x2="827.3" y2="737.7"/>
					<circle class="st5" cx="822.3" cy="734.7" r="2"/>
				</g>
				<g>
					<line class="st4" x1="851.6" y1="741.7" x2="827.3" y2="727.7"/>
					<circle class="st5" cx="822.3" cy="724.7" r="2"/>
				</g>
				<g>
					<line class="st4" x1="813.6" y1="738.7" x2="789.3" y2="724.7"/>
					<circle class="st5" cx="784.3" cy="721.7" r="2"/>
				</g>
				<g>
					<line class="st4" x1="851.6" y1="769.7" x2="827.3" y2="755.7"/>
					<circle class="st5" cx="822.3" cy="752.7" r="2"/>
				</g>
				<g>
					<line class="st4" x1="813.6" y1="747.7" x2="789.3" y2="733.7"/>
					<circle class="st5" cx="784.3" cy="730.7" r="2"/>
				</g>
				<g>
					<line class="st4" x1="813.6" y1="729.7" x2="789.3" y2="715.7"/>
					<circle class="st5" cx="784.3" cy="712.7" r="2"/>
				</g>
				<g>
					<line class="st4" x1="813.6" y1="719.7" x2="789.3" y2="705.7"/>
					<circle class="st5" cx="784.3" cy="702.7" r="2"/>
				</g>
			</g>
			<circle class="st6" cx="786.9" cy="692.4" r="3.5"/>
			<circle class="st7" cx="796.3" cy="697.9" r="3.5"/>
			<line class="st8" x1="923.6" y1="779.3" x2="940.9" y2="769.3"/>
			<line class="st8" x1="923.6" y1="775.3" x2="940.9" y2="765.3"/>
			<line class="st8" x1="923.6" y1="771.3" x2="940.9" y2="761.3"/>
			<line class="st8" x1="923.6" y1="767.3" x2="940.9" y2="757.3"/>
			<line class="st8" x1="923.6" y1="763.3" x2="940.9" y2="753.3"/>
		</g>
		<g>
			<polygon class="st9" points="878.5,735.1 965.1,785.1 1051.7,735.1 965.1,685.1 			"/>
			<polygon class="st10" points="965.1,885.1 965.1,785.1 1051.7,735.1 1051.7,835.1 			"/>
			<polygon class="st9" points="965.1,885.2 965.1,785.2 878.5,735.2 878.5,835.2 			"/>
			<polyline class="st2" points="878.5,735.1 965.1,785.1 965.1,885.1 965.1,785.1 1051.7,735.1 			"/>
			<polygon class="st2" points="878.5,735.1 878.5,835.1 965.1,885.1 1051.7,835.1 1051.7,735.1 965.1,685.1 			"/>
			<g>
				<path class="st3" d="M953.5,843.7c-0.6,1-1.8,1.3-2.7,0.7l-60.6-35c-1-0.5-1.3-1.8-0.7-2.7c0.5-1,1.8-1.3,2.7-0.7l60.6,35
					C953.7,841.5,954,842.7,953.5,843.7z"/>
			</g>
			<g>
				<path class="st3" d="M953.5,855.7c-0.6,1-1.8,1.3-2.7,0.7l-60.6-35c-1-0.5-1.3-1.8-0.7-2.7c0.5-1,1.8-1.3,2.7-0.7l60.6,35
					C953.7,853.5,954,854.7,953.5,855.7z"/>
			</g>
			<g>
				<path class="st3" d="M953.5,867.7c-0.6,1-1.8,1.3-2.7,0.7l-60.6-35c-1-0.5-1.3-1.8-0.7-2.7c0.5-1,1.8-1.3,2.7-0.7l60.6,35
					C953.7,865.5,954,866.7,953.5,867.7z"/>
			</g>
			<g>
				<g>
					<line class="st4" x1="954.8" y1="823.1" x2="930.5" y2="809.1"/>
					<circle class="st5" cx="925.5" cy="806.1" r="2"/>
				</g>
				<g>
					<line class="st4" x1="954.8" y1="814.1" x2="930.5" y2="800.1"/>
					<circle class="st5" cx="925.5" cy="797.1" r="2"/>
				</g>
				<g>
					<line class="st4" x1="954.8" y1="804.1" x2="930.5" y2="790.1"/>
					<circle class="st5" cx="925.5" cy="787.1" r="2"/>
				</g>
				<g>
					<line class="st4" x1="916.8" y1="801.1" x2="892.5" y2="787.1"/>
					<circle class="st5" cx="887.5" cy="784.1" r="2"/>
				</g>
				<g>
					<line class="st4" x1="954.8" y1="832.1" x2="930.5" y2="818.1"/>
					<circle class="st5" cx="925.5" cy="815.1" r="2"/>
				</g>
				<g>
					<line class="st4" x1="916.8" y1="810.1" x2="892.5" y2="796.1"/>
					<circle class="st5" cx="887.5" cy="793.1" r="2"/>
				</g>
				<g>
					<line class="st4" x1="916.8" y1="792.1" x2="892.5" y2="778.1"/>
					<circle class="st5" cx="887.5" cy="775.1" r="2"/>
				</g>
				<g>
					<line class="st4" x1="916.8" y1="782.1" x2="892.5" y2="768.1"/>
					<circle class="st5" cx="887.5" cy="765.1" r="2"/>
				</g>
			</g>
			<circle class="st6" cx="890" cy="754.8" r="3.5"/>
			<circle class="st7" cx="899.4" cy="760.3" r="3.5"/>
			<line class="st8" x1="1026.7" y1="841.7" x2="1044" y2="831.7"/>
			<line class="st8" x1="1026.7" y1="837.7" x2="1044" y2="827.7"/>
			<line class="st8" x1="1026.7" y1="833.7" x2="1044" y2="823.7"/>
			<line class="st8" x1="1026.7" y1="829.7" x2="1044" y2="819.7"/>
			<line class="st8" x1="1026.7" y1="825.7" x2="1044" y2="815.7"/>
		</g>
		<g>
			<polygon class="st9" points="566.5,674.3 653.1,724.3 739.7,674.3 653.1,624.3 			"/>
			<polygon class="st10" points="653.1,824.3 653.1,724.3 739.7,674.3 739.7,774.3 			"/>
			<polygon class="st9" points="653.1,824.3 653.1,724.3 566.5,674.3 566.5,774.3 			"/>
			<polyline class="st2" points="566.5,674.3 653.1,724.3 653.1,824.3 653.1,724.3 739.7,674.3 			"/>
			<polygon class="st2" points="566.5,674.3 566.5,774.3 653.1,824.3 739.7,774.3 739.7,674.3 653.1,624.3 			"/>
			<g>
				<path class="st3" d="M641.5,782.8c-0.5,1-1.8,1.3-2.7,0.7l-60.6-35c-1-0.5-1.3-1.8-0.7-2.7s1.8-1.3,2.7-0.7l60.6,35
					C641.7,780.7,642,781.9,641.5,782.8z"/>
			</g>
			<g>
				<path class="st3" d="M641.5,794.8c-0.5,1-1.8,1.3-2.7,0.7l-60.6-35c-1-0.5-1.3-1.8-0.7-2.7s1.8-1.3,2.7-0.7l60.6,35
					C641.7,792.7,642,793.9,641.5,794.8z"/>
			</g>
			<g>
				<path class="st3" d="M641.5,806.8c-0.5,1-1.8,1.3-2.7,0.7l-60.6-35c-1-0.5-1.3-1.8-0.7-2.7s1.8-1.3,2.7-0.7l60.6,35
					C641.7,804.7,642,805.9,641.5,806.8z"/>
			</g>
			<g>
				<g>
					<line class="st4" x1="642.8" y1="762.3" x2="618.5" y2="748.2"/>
					<circle class="st5" cx="613.5" cy="745.2" r="2"/>
				</g>
				<g>
					<line class="st4" x1="642.8" y1="753.3" x2="618.5" y2="739.2"/>
					<circle class="st5" cx="613.5" cy="736.2" r="2"/>
				</g>
				<g>
					<line class="st4" x1="642.8" y1="743.3" x2="618.5" y2="729.2"/>
					<circle class="st5" cx="613.5" cy="726.2" r="2"/>
				</g>
				<g>
					<line class="st4" x1="604.8" y1="740.3" x2="580.5" y2="726.2"/>
					<circle class="st5" cx="575.5" cy="723.2" r="2"/>
				</g>
				<g>
					<line class="st4" x1="642.8" y1="771.3" x2="618.5" y2="757.2"/>
					<circle class="st5" cx="613.5" cy="754.2" r="2"/>
				</g>
				<g>
					<line class="st4" x1="604.8" y1="749.3" x2="580.5" y2="735.2"/>
					<circle class="st5" cx="575.5" cy="732.2" r="2"/>
				</g>
				<g>
					<line class="st4" x1="604.8" y1="731.3" x2="580.5" y2="717.2"/>
					<circle class="st5" cx="575.5" cy="714.2" r="2"/>
				</g>
				<g>
					<line class="st4" x1="604.8" y1="721.3" x2="580.5" y2="707.2"/>
					<circle class="st5" cx="575.5" cy="704.2" r="2"/>
				</g>
			</g>
			<circle class="st6" cx="578" cy="694" r="3.5"/>
			<circle class="st7" cx="587.4" cy="699.5" r="3.5"/>
			<line class="st8" x1="714.7" y1="780.9" x2="732" y2="770.9"/>
			<line class="st8" x1="714.7" y1="776.9" x2="732" y2="766.9"/>
			<line class="st8" x1="714.7" y1="772.9" x2="732" y2="762.9"/>
			<line class="st8" x1="714.7" y1="768.9" x2="732" y2="758.9"/>
			<line class="st8" x1="714.7" y1="764.9" x2="732" y2="754.9"/>
		</g>
		<g>
			<polygon class="st9" points="462.5,735.8 549.1,785.8 635.7,735.8 549.1,685.8 			"/>
			<polygon class="st10" points="549.1,885.8 549.1,785.8 635.7,735.8 635.7,835.8 			"/>
			<polygon class="st9" points="549.1,885.8 549.1,785.8 462.5,735.8 462.5,835.8 			"/>
			<polyline class="st2" points="462.5,735.8 549.1,785.8 549.1,885.8 549.1,785.8 635.7,735.8 			"/>
			<polygon class="st2" points="462.5,735.8 462.5,835.8 549.1,885.8 635.7,835.8 635.7,735.8 549.1,685.8 			"/>
			<g>
				<path class="st3" d="M537.5,844.3c-0.5,1-1.8,1.3-2.7,0.7l-60.6-35c-1-0.5-1.3-1.8-0.7-2.7c0.5-1,1.8-1.3,2.7-0.7l60.6,35
					C537.7,842.2,538,843.4,537.5,844.3z"/>
			</g>
			<g>
				<path class="st3" d="M537.5,856.3c-0.5,1-1.8,1.3-2.7,0.7l-60.6-35c-1-0.5-1.3-1.8-0.7-2.7c0.5-1,1.8-1.3,2.7-0.7l60.6,35
					C537.7,854.2,538,855.4,537.5,856.3z"/>
			</g>
			<g>
				<path class="st3" d="M537.5,868.3c-0.5,1-1.8,1.3-2.7,0.7l-60.6-35c-1-0.5-1.3-1.8-0.7-2.7c0.5-1,1.8-1.3,2.7-0.7l60.6,35
					C537.7,866.2,538,867.4,537.5,868.3z"/>
			</g>
			<g>
				<g>
					<line class="st4" x1="538.8" y1="823.8" x2="514.5" y2="809.8"/>
					<circle class="st5" cx="509.5" cy="806.8" r="2"/>
				</g>
				<g>
					<line class="st4" x1="538.8" y1="814.8" x2="514.5" y2="800.8"/>
					<circle class="st5" cx="509.5" cy="797.8" r="2"/>
				</g>
				<g>
					<line class="st4" x1="538.8" y1="804.8" x2="514.5" y2="790.8"/>
					<circle class="st5" cx="509.5" cy="787.8" r="2"/>
				</g>
				<g>
					<line class="st4" x1="500.8" y1="801.8" x2="476.5" y2="787.8"/>
					<circle class="st5" cx="471.5" cy="784.8" r="2"/>
				</g>
				<g>
					<line class="st4" x1="538.8" y1="832.8" x2="514.5" y2="818.8"/>
					<circle class="st5" cx="509.5" cy="815.8" r="2"/>
				</g>
				<g>
					<line class="st4" x1="500.8" y1="810.8" x2="476.5" y2="796.8"/>
					<circle class="st5" cx="471.5" cy="793.8" r="2"/>
				</g>
				<g>
					<line class="st4" x1="500.8" y1="792.8" x2="476.5" y2="778.8"/>
					<circle class="st5" cx="471.5" cy="775.8" r="2"/>
				</g>
				<g>
					<line class="st4" x1="500.8" y1="782.8" x2="476.5" y2="768.8"/>
					<circle class="st5" cx="471.5" cy="765.8" r="2"/>
				</g>
			</g>
			<circle class="st6" cx="474" cy="755.5" r="3.5"/>
			<circle class="st7" cx="483.4" cy="761" r="3.5"/>
			<line class="st8" x1="610.7" y1="842.4" x2="628" y2="832.4"/>
			<line class="st8" x1="610.7" y1="838.4" x2="628" y2="828.4"/>
			<line class="st8" x1="610.7" y1="834.4" x2="628" y2="824.4"/>
			<line class="st8" x1="610.7" y1="830.4" x2="628" y2="820.4"/>
			<line class="st8" x1="610.7" y1="826.4" x2="628" y2="816.4"/>
		</g>
		<g>
			<polygon class="st9" points="670.5,734.6 757.1,784.6 843.7,734.6 757.1,684.6 			"/>
			<polygon class="st10" points="757.1,884.6 757.1,784.6 843.7,734.6 843.7,834.6 			"/>
			<polygon class="st9" points="757.1,884.6 757.1,784.6 670.5,734.6 670.5,834.6 			"/>
			<polyline class="st2" points="670.5,734.6 757.1,784.6 757.1,884.6 757.1,784.6 843.7,734.6 			"/>
			<polygon class="st2" points="670.5,734.6 670.5,834.6 757.1,884.6 843.7,834.6 843.7,734.6 757.1,684.6 			"/>
			<g>
				<path class="st3" d="M745.5,843.1c-0.6,1-1.8,1.3-2.7,0.7l-60.6-35c-1-0.5-1.3-1.8-0.7-2.7c0.5-1,1.8-1.3,2.7-0.7l60.6,35
					C745.7,840.9,746,842.2,745.5,843.1z"/>
			</g>
			<g>
				<path class="st3" d="M745.5,855.1c-0.6,1-1.8,1.3-2.7,0.7l-60.6-35c-1-0.5-1.3-1.8-0.7-2.7c0.5-1,1.8-1.3,2.7-0.7l60.6,35
					C745.7,852.9,746,854.2,745.5,855.1z"/>
			</g>
			<g>
				<path class="st3" d="M745.5,867.1c-0.6,1-1.8,1.3-2.7,0.7l-60.6-35c-1-0.5-1.3-1.8-0.7-2.7c0.5-1,1.8-1.3,2.7-0.7l60.6,35
					C745.7,864.9,746,866.2,745.5,867.1z"/>
			</g>
			<g>
				<g>
					<line class="st4" x1="746.8" y1="822.6" x2="722.5" y2="808.5"/>
					<circle class="st5" cx="717.5" cy="805.5" r="2"/>
				</g>
				<g>
					<line class="st4" x1="746.8" y1="813.6" x2="722.5" y2="799.5"/>
					<circle class="st5" cx="717.5" cy="796.5" r="2"/>
				</g>
				<g>
					<line class="st4" x1="746.8" y1="803.6" x2="722.5" y2="789.5"/>
					<circle class="st5" cx="717.5" cy="786.5" r="2"/>
				</g>
				<g>
					<line class="st4" x1="708.8" y1="800.6" x2="684.5" y2="786.5"/>
					<circle class="st5" cx="679.5" cy="783.5" r="2"/>
				</g>
				<g>
					<line class="st4" x1="746.8" y1="831.6" x2="722.5" y2="817.5"/>
					<circle class="st5" cx="717.5" cy="814.5" r="2"/>
				</g>
				<g>
					<line class="st4" x1="708.8" y1="809.6" x2="684.5" y2="795.5"/>
					<circle class="st5" cx="679.5" cy="792.5" r="2"/>
				</g>
				<g>
					<line class="st4" x1="708.8" y1="791.6" x2="684.5" y2="777.5"/>
					<circle class="st5" cx="679.5" cy="774.5" r="2"/>
				</g>
				<g>
					<line class="st4" x1="708.8" y1="781.6" x2="684.5" y2="767.5"/>
					<circle class="st5" cx="679.5" cy="764.5" r="2"/>
				</g>
			</g>
			<circle class="st6" cx="682" cy="754.3" r="3.5"/>
			<circle class="st7" cx="691.4" cy="759.8" r="3.5"/>
			<line class="st8" x1="818.7" y1="841.2" x2="836" y2="831.2"/>
			<line class="st8" x1="818.7" y1="837.2" x2="836" y2="827.2"/>
			<line class="st8" x1="818.7" y1="833.2" x2="836" y2="823.2"/>
			<line class="st8" x1="818.7" y1="829.2" x2="836" y2="819.2"/>
			<line class="st8" x1="818.7" y1="825.2" x2="836" y2="815.2"/>
		</g>
		<g>
			<polygon class="st9" points="566.5,796.1 653.1,846.1 739.7,796.1 653.1,746.1 			"/>
			<polygon class="st10" points="653.1,946.1 653.1,846.1 739.7,796.1 739.7,896.1 			"/>
			<polygon class="st9" points="653.1,946.1 653.1,846.1 566.5,796.1 566.5,896.1 			"/>
			<polyline class="st2" points="566.5,796.1 653.1,846.1 653.1,946.1 653.1,846.1 739.7,796.1 			"/>
			<polygon class="st2" points="566.5,796.1 566.5,896.1 653.1,946.1 739.7,896.1 739.7,796.1 653.1,746.1 			"/>
			<g>
				<path class="st3" d="M641.5,904.6c-0.5,1-1.8,1.3-2.7,0.7l-60.6-35c-1-0.5-1.3-1.8-0.7-2.7s1.8-1.3,2.7-0.7l60.6,35
					C641.7,902.4,642,903.7,641.5,904.6z"/>
			</g>
			<g>
				<path class="st3" d="M641.5,916.6c-0.5,1-1.8,1.3-2.7,0.7l-60.6-35c-1-0.5-1.3-1.8-0.7-2.7s1.8-1.3,2.7-0.7l60.6,35
					C641.7,914.4,642,915.7,641.5,916.6z"/>
			</g>
			<g>
				<path class="st3" d="M641.5,928.6c-0.5,1-1.8,1.3-2.7,0.7l-60.6-35c-1-0.5-1.3-1.8-0.7-2.7s1.8-1.3,2.7-0.7l60.6,35
					C641.7,926.4,642,927.7,641.5,928.6z"/>
			</g>
			<g>
				<g>
					<line class="st4" x1="642.8" y1="884.1" x2="618.5" y2="870"/>
					<circle class="st5" cx="613.5" cy="867" r="2"/>
				</g>
				<g>
					<line class="st4" x1="642.8" y1="875.1" x2="618.5" y2="861"/>
					<circle class="st5" cx="613.5" cy="858" r="2"/>
				</g>
				<g>
					<line class="st4" x1="642.8" y1="865.1" x2="618.5" y2="851"/>
					<circle class="st5" cx="613.5" cy="848" r="2"/>
				</g>
				<g>
					<line class="st4" x1="604.8" y1="862.1" x2="580.5" y2="848"/>
					<circle class="st5" cx="575.5" cy="845" r="2"/>
				</g>
				<g>
					<line class="st4" x1="642.8" y1="893.1" x2="618.5" y2="879"/>
					<circle class="st5" cx="613.5" cy="876" r="2"/>
				</g>
				<g>
					<line class="st4" x1="604.8" y1="871.1" x2="580.5" y2="857"/>
					<circle class="st5" cx="575.5" cy="854" r="2"/>
				</g>
				<g>
					<line class="st4" x1="604.8" y1="853.1" x2="580.5" y2="839"/>
					<circle class="st5" cx="575.5" cy="836" r="2"/>
				</g>
				<g>
					<line class="st4" x1="604.8" y1="843.1" x2="580.5" y2="829"/>
					<circle class="st5" cx="575.5" cy="826" r="2"/>
				</g>
			</g>
			<circle class="st6" cx="578" cy="815.8" r="3.5"/>
			<circle class="st7" cx="587.4" cy="821.3" r="3.5"/>
			<line class="st8" x1="714.7" y1="902.7" x2="732" y2="892.7"/>
			<line class="st8" x1="714.7" y1="898.7" x2="732" y2="888.7"/>
			<line class="st8" x1="714.7" y1="894.7" x2="732" y2="884.7"/>
			<line class="st8" x1="714.7" y1="890.7" x2="732" y2="880.7"/>
			<line class="st8" x1="714.7" y1="886.7" x2="732" y2="876.7"/>
		</g>
		<g>
			<polygon class="st9" points="774.5,794.9 861.1,844.9 947.7,794.9 861.1,744.9 			"/>
			<polygon class="st10" points="861.1,944.9 861.1,844.9 947.7,794.9 947.7,894.9 			"/>
			<polygon class="st9" points="861.1,944.9 861.1,844.9 774.5,794.9 774.5,894.9 			"/>
			<polyline class="st2" points="774.5,794.9 861.1,844.9 861.1,944.9 861.1,844.9 947.7,794.9 			"/>
			<polygon class="st2" points="774.5,794.9 774.5,894.9 861.1,944.9 947.7,894.9 947.7,794.9 861.1,744.9 			"/>
			<g>
				<path class="st3" d="M849.5,903.4c-0.6,1-1.8,1.3-2.7,0.7l-60.6-35c-1-0.5-1.3-1.8-0.7-2.7c0.5-1,1.8-1.3,2.7-0.7l60.6,35
					C849.7,901.2,850,902.5,849.5,903.4z"/>
			</g>
			<g>
				<path class="st3" d="M849.5,915.4c-0.6,1-1.8,1.3-2.7,0.7l-60.6-35c-1-0.5-1.3-1.8-0.7-2.7c0.5-1,1.8-1.3,2.7-0.7l60.6,35
					C849.7,913.2,850,914.5,849.5,915.4z"/>
			</g>
			<g>
				<path class="st3" d="M849.5,927.4c-0.6,1-1.8,1.3-2.7,0.7l-60.6-35c-1-0.5-1.3-1.8-0.7-2.7c0.5-1,1.8-1.3,2.7-0.7l60.6,35
					C849.7,925.2,850,926.5,849.5,927.4z"/>
			</g>
			<g>
				<g>
					<line class="st4" x1="850.8" y1="882.8" x2="826.5" y2="868.8"/>
					<circle class="st5" cx="821.5" cy="865.8" r="2"/>
				</g>
				<g>
					<line class="st4" x1="850.8" y1="873.8" x2="826.5" y2="859.8"/>
					<circle class="st5" cx="821.5" cy="856.8" r="2"/>
				</g>
				<g>
					<line class="st4" x1="850.8" y1="863.8" x2="826.5" y2="849.8"/>
					<circle class="st5" cx="821.5" cy="846.8" r="2"/>
				</g>
				<g>
					<line class="st4" x1="812.8" y1="860.8" x2="788.5" y2="846.8"/>
					<circle class="st5" cx="783.5" cy="843.8" r="2"/>
				</g>
				<g>
					<line class="st4" x1="850.8" y1="891.8" x2="826.5" y2="877.8"/>
					<circle class="st5" cx="821.5" cy="874.8" r="2"/>
				</g>
				<g>
					<line class="st4" x1="812.8" y1="869.8" x2="788.5" y2="855.8"/>
					<circle class="st5" cx="783.5" cy="852.8" r="2"/>
				</g>
				<g>
					<line class="st4" x1="812.8" y1="851.8" x2="788.5" y2="837.8"/>
					<circle class="st5" cx="783.5" cy="834.8" r="2"/>
				</g>
				<g>
					<line class="st4" x1="812.8" y1="841.8" x2="788.5" y2="827.8"/>
					<circle class="st5" cx="783.5" cy="824.8" r="2"/>
				</g>
			</g>
			<circle class="st6" cx="786" cy="814.5" r="3.5"/>
			<circle class="st7" cx="795.4" cy="820.1" r="3.5"/>
			<line class="st8" x1="922.7" y1="901.5" x2="940" y2="891.5"/>
			<line class="st8" x1="922.7" y1="897.5" x2="940" y2="887.5"/>
			<line class="st8" x1="922.7" y1="893.5" x2="940" y2="883.5"/>
			<line class="st8" x1="922.7" y1="889.5" x2="940" y2="879.5"/>
			<line class="st8" x1="922.7" y1="885.5" x2="940" y2="875.5"/>
		</g>
		<g>
			<polygon class="st9" points="670.5,856.4 757.1,906.4 843.7,856.4 757.1,806.4 			"/>
			<polygon class="st10" points="757.1,1006.4 757.1,906.4 843.7,856.4 843.7,956.4 			"/>
			<polygon class="st9" points="757.1,1006.4 757.1,906.4 670.5,856.4 670.5,956.4 			"/>
			<polyline class="st2" points="670.5,856.4 757.1,906.4 757.1,1006.4 757.1,906.4 843.7,856.4 			"/>
			<polygon class="st2" points="670.5,856.4 670.5,956.4 757.1,1006.4 843.7,956.4 843.7,856.4 757.1,806.4 			"/>
			<g>
				<path class="st3" d="M745.5,964.9c-0.6,1-1.8,1.3-2.7,0.7l-60.6-35c-1-0.5-1.3-1.8-0.7-2.7c0.5-1,1.8-1.3,2.7-0.7l60.6,35
					C745.7,962.7,746,964,745.5,964.9z"/>
			</g>
			<g>
				<path class="st3" d="M745.5,976.9c-0.6,1-1.8,1.3-2.7,0.7l-60.6-35c-1-0.5-1.3-1.8-0.7-2.7c0.5-1,1.8-1.3,2.7-0.7l60.6,35
					C745.7,974.7,746,976,745.5,976.9z"/>
			</g>
			<g>
				<path class="st3" d="M745.5,988.9c-0.6,1-1.8,1.3-2.7,0.7l-60.6-35c-1-0.5-1.3-1.8-0.7-2.7c0.5-1,1.8-1.3,2.7-0.7l60.6,35
					C745.7,986.7,746,988,745.5,988.9z"/>
			</g>
			<g>
				<g>
					<line class="st4" x1="746.8" y1="944.3" x2="722.5" y2="930.3"/>
					<circle class="st5" cx="717.5" cy="927.3" r="2"/>
				</g>
				<g>
					<line class="st4" x1="746.8" y1="935.3" x2="722.5" y2="921.3"/>
					<circle class="st5" cx="717.5" cy="918.3" r="2"/>
				</g>
				<g>
					<line class="st4" x1="746.8" y1="925.3" x2="722.5" y2="911.3"/>
					<circle class="st5" cx="717.5" cy="908.3" r="2"/>
				</g>
				<g>
					<line class="st4" x1="708.8" y1="922.3" x2="684.5" y2="908.3"/>
					<circle class="st5" cx="679.5" cy="905.3" r="2"/>
				</g>
				<g>
					<line class="st4" x1="746.8" y1="953.3" x2="722.5" y2="939.3"/>
					<circle class="st5" cx="717.5" cy="936.3" r="2"/>
				</g>
				<g>
					<line class="st4" x1="708.8" y1="931.3" x2="684.5" y2="917.3"/>
					<circle class="st5" cx="679.5" cy="914.3" r="2"/>
				</g>
				<g>
					<line class="st4" x1="708.8" y1="913.3" x2="684.5" y2="899.3"/>
					<circle class="st5" cx="679.5" cy="896.3" r="2"/>
				</g>
				<g>
					<line class="st4" x1="708.8" y1="903.3" x2="684.5" y2="889.3"/>
					<circle class="st5" cx="679.5" cy="886.3" r="2"/>
				</g>
			</g>
			<circle class="st6" cx="682" cy="876" r="3.5"/>
			<circle class="st7" cx="691.4" cy="881.6" r="3.5"/>
			<line class="st8" x1="818.7" y1="963" x2="836" y2="953"/>
			<line class="st8" x1="818.7" y1="959" x2="836" y2="949"/>
			<line class="st8" x1="818.7" y1="955" x2="836" y2="945"/>
			<line class="st8" x1="818.7" y1="951" x2="836" y2="941"/>
			<line class="st8" x1="818.7" y1="947" x2="836" y2="937"/>
		</g>
	</g>
	<g>
		<g>
			<polygon class="st11" points="1073.4,380.5 1160,430.5 1246.6,380.5 1160,330.5 			"/>
			<polygon class="st12" points="1160,530.5 1160,430.5 1246.6,380.5 1246.6,480.5 			"/>
			<polygon class="st11" points="1160,530.5 1160,430.5 1073.4,380.5 1073.4,480.5 			"/>
			<polyline class="st2" points="1073.4,380.5 1160,430.5 1160,530.5 1160,430.5 1246.6,380.5 			"/>
			<polygon class="st2" points="1073.4,380.5 1073.4,480.5 1160,530.5 1246.6,480.5 1246.6,380.5 1160,330.5 			"/>
			<g>
				<path class="st3" d="M1148.4,489c-0.6,1-1.8,1.3-2.7,0.7l-60.6-35c-1-0.6-1.3-1.8-0.7-2.7c0.6-1,1.8-1.3,2.7-0.7l60.6,35
					C1148.6,486.8,1148.9,488.1,1148.4,489z"/>
			</g>
			<g>
				<path class="st3" d="M1148.4,501c-0.6,1-1.8,1.3-2.7,0.7l-60.6-35c-1-0.6-1.3-1.8-0.7-2.7c0.6-1,1.8-1.3,2.7-0.7l60.6,35
					C1148.6,498.8,1148.9,500.1,1148.4,501z"/>
			</g>
			<g>
				<path class="st3" d="M1148.4,513c-0.6,1-1.8,1.3-2.7,0.7l-60.6-35c-1-0.6-1.3-1.8-0.7-2.7c0.6-1,1.8-1.3,2.7-0.7l60.6,35
					C1148.6,510.8,1148.9,512.1,1148.4,513z"/>
			</g>
			<g>
				<g>
					<line class="st4" x1="1149.6" y1="468.5" x2="1125.3" y2="454.4"/>
					<circle class="st5" cx="1120.3" cy="451.4" r="2"/>
				</g>
				<g>
					<line class="st4" x1="1149.6" y1="459.5" x2="1125.3" y2="445.4"/>
					<circle class="st5" cx="1120.3" cy="442.4" r="2"/>
				</g>
				<g>
					<line class="st4" x1="1149.6" y1="449.5" x2="1125.3" y2="435.4"/>
					<circle class="st5" cx="1120.3" cy="432.4" r="2"/>
				</g>
				<g>
					<line class="st4" x1="1111.6" y1="446.5" x2="1087.3" y2="432.4"/>
					<circle class="st5" cx="1082.3" cy="429.4" r="2"/>
				</g>
				<g>
					<line class="st4" x1="1149.6" y1="477.5" x2="1125.3" y2="463.4"/>
					<circle class="st5" cx="1120.3" cy="460.4" r="2"/>
				</g>
				<g>
					<line class="st4" x1="1111.6" y1="455.5" x2="1087.3" y2="441.4"/>
					<circle class="st5" cx="1082.3" cy="438.4" r="2"/>
				</g>
				<g>
					<line class="st4" x1="1111.6" y1="437.5" x2="1087.3" y2="423.4"/>
					<circle class="st5" cx="1082.3" cy="420.4" r="2"/>
				</g>
				<g>
					<line class="st4" x1="1111.6" y1="427.5" x2="1087.3" y2="413.4"/>
					<circle class="st5" cx="1082.3" cy="410.4" r="2"/>
				</g>
			</g>
			<circle class="st6" cx="1084.9" cy="400.2" r="3.5"/>
			<circle class="st7" cx="1094.3" cy="405.7" r="3.5"/>
			<line class="st8" x1="1221.5" y1="487.1" x2="1238.9" y2="477.1"/>
			<line class="st8" x1="1221.5" y1="483.1" x2="1238.9" y2="473.1"/>
			<line class="st8" x1="1221.5" y1="479.1" x2="1238.9" y2="469.1"/>
			<line class="st8" x1="1221.5" y1="475.1" x2="1238.9" y2="465.1"/>
			<line class="st8" x1="1221.5" y1="471.1" x2="1238.9" y2="461.1"/>
		</g>
		<g>
			<polygon class="st11" points="1177.4,440.7 1264,490.7 1350.6,440.7 1264,390.7 			"/>
			<polygon class="st12" points="1264,590.7 1264,490.7 1350.6,440.7 1350.6,540.7 			"/>
			<polygon class="st11" points="1264,590.7 1264,490.7 1177.4,440.7 1177.4,540.7 			"/>
			<polyline class="st2" points="1177.4,440.7 1264,490.7 1264,590.7 1264,490.7 1350.6,440.7 			"/>
			<polygon class="st2" points="1177.4,440.7 1177.4,540.7 1264,590.7 1350.6,540.7 1350.6,440.7 1264,390.7 			"/>
			<g>
				<path class="st3" d="M1252.4,549.3c-0.6,1-1.8,1.3-2.7,0.7l-60.6-35c-1-0.5-1.3-1.8-0.7-2.7s1.8-1.3,2.7-0.7l60.6,35
					C1252.6,547.1,1252.9,548.3,1252.4,549.3z"/>
			</g>
			<g>
				<path class="st3" d="M1252.4,561.3c-0.6,1-1.8,1.3-2.7,0.7l-60.6-35c-1-0.5-1.3-1.8-0.7-2.7s1.8-1.3,2.7-0.7l60.6,35
					C1252.6,559.1,1252.9,560.3,1252.4,561.3z"/>
			</g>
			<g>
				<path class="st3" d="M1252.4,573.3c-0.6,1-1.8,1.3-2.7,0.7l-60.6-35c-1-0.5-1.3-1.8-0.7-2.7s1.8-1.3,2.7-0.7l60.6,35
					C1252.6,571.1,1252.9,572.3,1252.4,573.3z"/>
			</g>
			<g>
				<g>
					<line class="st4" x1="1253.6" y1="528.7" x2="1229.3" y2="514.7"/>
					<circle class="st5" cx="1224.3" cy="511.7" r="2"/>
				</g>
				<g>
					<line class="st4" x1="1253.6" y1="519.7" x2="1229.3" y2="505.7"/>
					<circle class="st5" cx="1224.3" cy="502.7" r="2"/>
				</g>
				<g>
					<line class="st4" x1="1253.6" y1="509.7" x2="1229.3" y2="495.7"/>
					<circle class="st5" cx="1224.3" cy="492.7" r="2"/>
				</g>
				<g>
					<line class="st4" x1="1215.6" y1="506.7" x2="1191.3" y2="492.7"/>
					<circle class="st5" cx="1186.3" cy="489.7" r="2"/>
				</g>
				<g>
					<line class="st4" x1="1253.6" y1="537.7" x2="1229.3" y2="523.7"/>
					<circle class="st5" cx="1224.3" cy="520.7" r="2"/>
				</g>
				<g>
					<line class="st4" x1="1215.6" y1="515.7" x2="1191.3" y2="501.7"/>
					<circle class="st5" cx="1186.3" cy="498.7" r="2"/>
				</g>
				<g>
					<line class="st4" x1="1215.6" y1="497.7" x2="1191.3" y2="483.7"/>
					<circle class="st5" cx="1186.3" cy="480.7" r="2"/>
				</g>
				<g>
					<line class="st4" x1="1215.6" y1="487.7" x2="1191.3" y2="473.7"/>
					<circle class="st5" cx="1186.3" cy="470.7" r="2"/>
				</g>
			</g>
			<circle class="st6" cx="1188.9" cy="460.4" r="3.5"/>
			<circle class="st7" cx="1198.3" cy="465.9" r="3.5"/>
			<line class="st8" x1="1325.5" y1="547.3" x2="1342.9" y2="537.3"/>
			<line class="st8" x1="1325.5" y1="543.3" x2="1342.9" y2="533.3"/>
			<line class="st8" x1="1325.5" y1="539.3" x2="1342.9" y2="529.3"/>
			<line class="st8" x1="1325.5" y1="535.3" x2="1342.9" y2="525.3"/>
			<line class="st8" x1="1325.5" y1="531.3" x2="1342.9" y2="521.3"/>
		</g>
		<g>
			<polygon class="st11" points="1280.5,503.2 1367.1,553.2 1453.7,503.2 1367.1,453.2 			"/>
			<polygon class="st12" points="1367.1,653.2 1367.1,553.2 1453.7,503.2 1453.7,603.2 			"/>
			<polygon class="st11" points="1367.1,653.2 1367.1,553.2 1280.5,503.2 1280.5,603.2 			"/>
			<polyline class="st2" points="1280.5,503.2 1367.1,553.2 1367.1,653.2 1367.1,553.2 1453.7,503.2 			"/>
			<polygon class="st2" points="1280.5,503.2 1280.5,603.2 1367.1,653.2 1453.7,603.2 1453.7,503.2 1367.1,453.2 			"/>
			<g>
				<path class="st3" d="M1355.5,611.7c-0.5,1-1.8,1.3-2.7,0.7l-60.6-35c-1-0.5-1.3-1.8-0.7-2.7c0.6-1,1.8-1.3,2.7-0.7l60.6,35
					C1355.7,609.5,1356,610.8,1355.5,611.7z"/>
			</g>
			<g>
				<path class="st3" d="M1355.5,623.7c-0.5,1-1.8,1.3-2.7,0.7l-60.6-35c-1-0.5-1.3-1.8-0.7-2.7c0.6-1,1.8-1.3,2.7-0.7l60.6,35
					C1355.7,621.5,1356,622.8,1355.5,623.7z"/>
			</g>
			<g>
				<path class="st3" d="M1355.5,635.7c-0.5,1-1.8,1.3-2.7,0.7l-60.6-35c-1-0.5-1.3-1.8-0.7-2.7c0.6-1,1.8-1.3,2.7-0.7l60.6,35
					C1355.7,633.5,1356,634.8,1355.5,635.7z"/>
			</g>
			<g>
				<g>
					<line class="st4" x1="1356.8" y1="591.1" x2="1332.5" y2="577.1"/>
					<circle class="st5" cx="1327.5" cy="574.1" r="2"/>
				</g>
				<g>
					<line class="st4" x1="1356.8" y1="582.1" x2="1332.5" y2="568.1"/>
					<circle class="st5" cx="1327.5" cy="565.1" r="2"/>
				</g>
				<g>
					<line class="st4" x1="1356.8" y1="572.1" x2="1332.5" y2="558.1"/>
					<circle class="st5" cx="1327.5" cy="555.1" r="2"/>
				</g>
				<g>
					<line class="st4" x1="1318.8" y1="569.1" x2="1294.5" y2="555.1"/>
					<circle class="st5" cx="1289.5" cy="552.1" r="2"/>
				</g>
				<g>
					<line class="st4" x1="1356.8" y1="600.1" x2="1332.5" y2="586.1"/>
					<circle class="st5" cx="1327.5" cy="583.1" r="2"/>
				</g>
				<g>
					<line class="st4" x1="1318.8" y1="578.1" x2="1294.5" y2="564.1"/>
					<circle class="st5" cx="1289.5" cy="561.1" r="2"/>
				</g>
				<g>
					<line class="st4" x1="1318.8" y1="560.1" x2="1294.5" y2="546.1"/>
					<circle class="st5" cx="1289.5" cy="543.1" r="2"/>
				</g>
				<g>
					<line class="st4" x1="1318.8" y1="550.1" x2="1294.5" y2="536.1"/>
					<circle class="st5" cx="1289.5" cy="533.1" r="2"/>
				</g>
			</g>
			<circle class="st6" cx="1292" cy="522.8" r="3.5"/>
			<circle class="st7" cx="1301.4" cy="528.4" r="3.5"/>
			<line class="st8" x1="1428.7" y1="609.8" x2="1446" y2="599.8"/>
			<line class="st8" x1="1428.7" y1="605.8" x2="1446" y2="595.8"/>
			<line class="st8" x1="1428.7" y1="601.8" x2="1446" y2="591.8"/>
			<line class="st8" x1="1428.7" y1="597.8" x2="1446" y2="587.8"/>
			<line class="st8" x1="1428.7" y1="593.8" x2="1446" y2="583.8"/>
		</g>
		<g>
			<polygon class="st11" points="968.5,442.3 1055.1,492.3 1141.7,442.3 1055.1,392.3 			"/>
			<polygon class="st12" points="1055.1,592.3 1055.1,492.3 1141.7,442.3 1141.7,542.3 			"/>
			<polygon class="st11" points="1055.1,592.3 1055.1,492.3 968.5,442.3 968.5,542.3 			"/>
			<polyline class="st2" points="968.5,442.3 1055.1,492.3 1055.1,592.3 1055.1,492.3 1141.7,442.3 			"/>
			<polygon class="st2" points="968.5,442.3 968.5,542.3 1055.1,592.3 1141.7,542.3 1141.7,442.3 1055.1,392.3 			"/>
			<g>
				<path class="st3" d="M1043.5,550.9c-0.6,1-1.8,1.3-2.7,0.7l-60.6-35c-1-0.5-1.3-1.8-0.7-2.7s1.8-1.3,2.7-0.7l60.6,35
					C1043.7,548.7,1044,549.9,1043.5,550.9z"/>
			</g>
			<g>
				<path class="st3" d="M1043.5,562.9c-0.6,1-1.8,1.3-2.7,0.7l-60.6-35c-1-0.5-1.3-1.8-0.7-2.7s1.8-1.3,2.7-0.7l60.6,35
					C1043.7,560.7,1044,561.9,1043.5,562.9z"/>
			</g>
			<g>
				<path class="st3" d="M1043.5,574.9c-0.6,1-1.8,1.3-2.7,0.7l-60.6-35c-1-0.5-1.3-1.8-0.7-2.7s1.8-1.3,2.7-0.7l60.6,35
					C1043.7,572.7,1044,573.9,1043.5,574.9z"/>
			</g>
			<g>
				<g>
					<line class="st4" x1="1044.8" y1="530.3" x2="1020.4" y2="516.3"/>
					<circle class="st5" cx="1015.4" cy="513.3" r="2"/>
				</g>
				<g>
					<line class="st4" x1="1044.8" y1="521.3" x2="1020.4" y2="507.3"/>
					<circle class="st5" cx="1015.4" cy="504.3" r="2"/>
				</g>
				<g>
					<line class="st4" x1="1044.8" y1="511.3" x2="1020.4" y2="497.3"/>
					<circle class="st5" cx="1015.4" cy="494.3" r="2"/>
				</g>
				<g>
					<line class="st4" x1="1006.8" y1="508.3" x2="982.4" y2="494.3"/>
					<circle class="st5" cx="977.4" cy="491.3" r="2"/>
				</g>
				<g>
					<line class="st4" x1="1044.8" y1="539.3" x2="1020.4" y2="525.3"/>
					<circle class="st5" cx="1015.4" cy="522.3" r="2"/>
				</g>
				<g>
					<line class="st4" x1="1006.8" y1="517.3" x2="982.4" y2="503.3"/>
					<circle class="st5" cx="977.4" cy="500.3" r="2"/>
				</g>
				<g>
					<line class="st4" x1="1006.8" y1="499.3" x2="982.4" y2="485.3"/>
					<circle class="st5" cx="977.4" cy="482.3" r="2"/>
				</g>
				<g>
					<line class="st4" x1="1006.8" y1="489.3" x2="982.4" y2="475.3"/>
					<circle class="st5" cx="977.4" cy="472.3" r="2"/>
				</g>
			</g>
			<circle class="st6" cx="980" cy="462" r="3.5"/>
			<circle class="st7" cx="989.4" cy="467.5" r="3.5"/>
			<line class="st8" x1="1116.7" y1="548.9" x2="1134" y2="538.9"/>
			<line class="st8" x1="1116.7" y1="544.9" x2="1134" y2="534.9"/>
			<line class="st8" x1="1116.7" y1="540.9" x2="1134" y2="530.9"/>
			<line class="st8" x1="1116.7" y1="536.9" x2="1134" y2="526.9"/>
			<line class="st8" x1="1116.7" y1="532.9" x2="1134" y2="522.9"/>
		</g>
		<g>
			<polygon class="st11" points="864.5,503.8 951.1,553.8 1037.7,503.8 951.1,453.8 			"/>
			<polygon class="st12" points="951.1,653.8 951.1,553.8 1037.7,503.8 1037.7,603.8 			"/>
			<polygon class="st11" points="951.1,653.8 951.1,553.8 864.5,503.8 864.5,603.8 			"/>
			<polyline class="st2" points="864.5,503.8 951.1,553.8 951.1,653.8 951.1,553.8 1037.7,503.8 			"/>
			<polygon class="st2" points="864.5,503.8 864.5,603.8 951.1,653.8 1037.7,603.8 1037.7,503.8 951.1,453.8 			"/>
			<g>
				<path class="st3" d="M939.5,612.4c-0.5,1-1.8,1.3-2.7,0.7l-60.6-35c-1-0.5-1.3-1.8-0.7-2.7s1.8-1.3,2.7-0.7l60.6,35
					C939.7,610.2,940,611.4,939.5,612.4z"/>
			</g>
			<g>
				<path class="st3" d="M939.5,624.4c-0.5,1-1.8,1.3-2.7,0.7l-60.6-35c-1-0.5-1.3-1.8-0.7-2.7s1.8-1.3,2.7-0.7l60.6,35
					C939.7,622.2,940,623.4,939.5,624.4z"/>
			</g>
			<g>
				<path class="st3" d="M939.5,636.4c-0.5,1-1.8,1.3-2.7,0.7l-60.6-35c-1-0.5-1.3-1.8-0.7-2.7s1.8-1.3,2.7-0.7l60.6,35
					C939.7,634.2,940,635.4,939.5,636.4z"/>
			</g>
			<g>
				<g>
					<line class="st4" x1="940.8" y1="591.8" x2="916.4" y2="577.8"/>
					<circle class="st5" cx="911.4" cy="574.8" r="2"/>
				</g>
				<g>
					<line class="st4" x1="940.8" y1="582.8" x2="916.4" y2="568.8"/>
					<circle class="st5" cx="911.4" cy="565.8" r="2"/>
				</g>
				<g>
					<line class="st4" x1="940.8" y1="572.8" x2="916.4" y2="558.8"/>
					<circle class="st5" cx="911.4" cy="555.8" r="2"/>
				</g>
				<g>
					<line class="st4" x1="902.8" y1="569.8" x2="878.4" y2="555.8"/>
					<circle class="st5" cx="873.4" cy="552.8" r="2"/>
				</g>
				<g>
					<line class="st4" x1="940.8" y1="600.8" x2="916.4" y2="586.8"/>
					<circle class="st5" cx="911.4" cy="583.8" r="2"/>
				</g>
				<g>
					<line class="st4" x1="902.8" y1="578.8" x2="878.4" y2="564.8"/>
					<circle class="st5" cx="873.4" cy="561.8" r="2"/>
				</g>
				<g>
					<line class="st4" x1="902.8" y1="560.8" x2="878.4" y2="546.8"/>
					<circle class="st5" cx="873.4" cy="543.8" r="2"/>
				</g>
				<g>
					<line class="st4" x1="902.8" y1="550.8" x2="878.4" y2="536.8"/>
					<circle class="st5" cx="873.4" cy="533.8" r="2"/>
				</g>
			</g>
			<circle class="st6" cx="876" cy="523.5" r="3.5"/>
			<circle class="st7" cx="885.4" cy="529" r="3.5"/>
			<line class="st8" x1="1012.7" y1="610.4" x2="1030" y2="600.4"/>
			<line class="st8" x1="1012.7" y1="606.4" x2="1030" y2="596.4"/>
			<line class="st8" x1="1012.7" y1="602.4" x2="1030" y2="592.4"/>
			<line class="st8" x1="1012.7" y1="598.4" x2="1030" y2="588.4"/>
			<line class="st8" x1="1012.7" y1="594.4" x2="1030" y2="584.4"/>
		</g>
		<g>
			<polygon class="st11" points="1072.5,502.6 1159.1,552.6 1245.7,502.6 1159.1,452.6 			"/>
			<polygon class="st12" points="1159.1,652.6 1159.1,552.6 1245.7,502.6 1245.7,602.6 			"/>
			<polygon class="st11" points="1159.1,652.6 1159.1,552.6 1072.5,502.6 1072.5,602.6 			"/>
			<polyline class="st2" points="1072.5,502.6 1159.1,552.6 1159.1,652.6 1159.1,552.6 1245.7,502.6 			"/>
			<polygon class="st2" points="1072.5,502.6 1072.5,602.6 1159.1,652.6 1245.7,602.6 1245.7,502.6 1159.1,452.6 			"/>
			<g>
				<path class="st3" d="M1147.5,611.1c-0.5,1-1.8,1.3-2.7,0.7l-60.6-35c-1-0.5-1.3-1.8-0.7-2.7c0.6-1,1.8-1.3,2.7-0.7l60.6,35
					C1147.7,609,1148,610.2,1147.5,611.1z"/>
			</g>
			<g>
				<path class="st3" d="M1147.5,623.1c-0.5,1-1.8,1.3-2.7,0.7l-60.6-35c-1-0.5-1.3-1.8-0.7-2.7c0.6-1,1.8-1.3,2.7-0.7l60.6,35
					C1147.7,621,1148,622.2,1147.5,623.1z"/>
			</g>
			<g>
				<path class="st3" d="M1147.5,635.1c-0.5,1-1.8,1.3-2.7,0.7l-60.6-35c-1-0.5-1.3-1.8-0.7-2.7c0.6-1,1.8-1.3,2.7-0.7l60.6,35
					C1147.7,633,1148,634.2,1147.5,635.1z"/>
			</g>
			<g>
				<g>
					<line class="st4" x1="1148.8" y1="590.6" x2="1124.5" y2="576.5"/>
					<circle class="st5" cx="1119.5" cy="573.5" r="2"/>
				</g>
				<g>
					<line class="st4" x1="1148.8" y1="581.6" x2="1124.5" y2="567.5"/>
					<circle class="st5" cx="1119.5" cy="564.5" r="2"/>
				</g>
				<g>
					<line class="st4" x1="1148.8" y1="571.6" x2="1124.5" y2="557.5"/>
					<circle class="st5" cx="1119.5" cy="554.5" r="2"/>
				</g>
				<g>
					<line class="st4" x1="1110.8" y1="568.6" x2="1086.5" y2="554.5"/>
					<circle class="st5" cx="1081.5" cy="551.5" r="2"/>
				</g>
				<g>
					<line class="st4" x1="1148.8" y1="599.6" x2="1124.5" y2="585.5"/>
					<circle class="st5" cx="1119.5" cy="582.5" r="2"/>
				</g>
				<g>
					<line class="st4" x1="1110.8" y1="577.6" x2="1086.5" y2="563.5"/>
					<circle class="st5" cx="1081.5" cy="560.5" r="2"/>
				</g>
				<g>
					<line class="st4" x1="1110.8" y1="559.6" x2="1086.5" y2="545.5"/>
					<circle class="st5" cx="1081.5" cy="542.5" r="2"/>
				</g>
				<g>
					<line class="st4" x1="1110.8" y1="549.6" x2="1086.5" y2="535.5"/>
					<circle class="st5" cx="1081.5" cy="532.5" r="2"/>
				</g>
			</g>
			<circle class="st6" cx="1084" cy="522.3" r="3.5"/>
			<circle class="st7" cx="1093.4" cy="527.8" r="3.5"/>
			<line class="st8" x1="1220.7" y1="609.2" x2="1238" y2="599.2"/>
			<line class="st8" x1="1220.7" y1="605.2" x2="1238" y2="595.2"/>
			<line class="st8" x1="1220.7" y1="601.2" x2="1238" y2="591.2"/>
			<line class="st8" x1="1220.7" y1="597.2" x2="1238" y2="587.2"/>
			<line class="st8" x1="1220.7" y1="593.2" x2="1238" y2="583.2"/>
		</g>
		<g>
			<polygon class="st11" points="968.5,564.1 1055.1,614.1 1141.7,564.1 1055.1,514.1 			"/>
			<polygon class="st12" points="1055.1,714.1 1055.1,614.1 1141.7,564.1 1141.7,664.1 			"/>
			<polygon class="st11" points="1055.1,714.1 1055.1,614.1 968.5,564.1 968.5,664.1 			"/>
			<polyline class="st2" points="968.5,564.1 1055.1,614.1 1055.1,714.1 1055.1,614.1 1141.7,564.1 			"/>
			<polygon class="st2" points="968.5,564.1 968.5,664.1 1055.1,714.1 1141.7,664.1 1141.7,564.1 1055.1,514.1 			"/>
			<g>
				<path class="st3" d="M1043.5,672.6c-0.6,1-1.8,1.3-2.7,0.7l-60.6-35c-1-0.5-1.3-1.8-0.7-2.7c0.6-1,1.8-1.3,2.7-0.7l60.6,35
					C1043.7,670.5,1044,671.7,1043.5,672.6z"/>
			</g>
			<g>
				<path class="st3" d="M1043.5,684.6c-0.6,1-1.8,1.3-2.7,0.7l-60.6-35c-1-0.5-1.3-1.8-0.7-2.7c0.6-1,1.8-1.3,2.7-0.7l60.6,35
					C1043.7,682.5,1044,683.7,1043.5,684.6z"/>
			</g>
			<g>
				<path class="st3" d="M1043.5,696.6c-0.6,1-1.8,1.3-2.7,0.7l-60.6-35c-1-0.5-1.3-1.8-0.7-2.7c0.6-1,1.8-1.3,2.7-0.7l60.6,35
					C1043.7,694.5,1044,695.7,1043.5,696.6z"/>
			</g>
			<g>
				<g>
					<line class="st4" x1="1044.8" y1="652.1" x2="1020.5" y2="638"/>
					<circle class="st5" cx="1015.5" cy="635" r="2"/>
				</g>
				<g>
					<line class="st4" x1="1044.8" y1="643.1" x2="1020.5" y2="629"/>
					<circle class="st5" cx="1015.5" cy="626" r="2"/>
				</g>
				<g>
					<line class="st4" x1="1044.8" y1="633.1" x2="1020.5" y2="619"/>
					<circle class="st5" cx="1015.5" cy="616" r="2"/>
				</g>
				<g>
					<line class="st4" x1="1006.8" y1="630.1" x2="982.5" y2="616"/>
					<circle class="st5" cx="977.5" cy="613" r="2"/>
				</g>
				<g>
					<line class="st4" x1="1044.8" y1="661.1" x2="1020.5" y2="647"/>
					<circle class="st5" cx="1015.5" cy="644" r="2"/>
				</g>
				<g>
					<line class="st4" x1="1006.8" y1="639.1" x2="982.5" y2="625"/>
					<circle class="st5" cx="977.5" cy="622" r="2"/>
				</g>
				<g>
					<line class="st4" x1="1006.8" y1="621.1" x2="982.5" y2="607"/>
					<circle class="st5" cx="977.5" cy="604" r="2"/>
				</g>
				<g>
					<line class="st4" x1="1006.8" y1="611.1" x2="982.5" y2="597"/>
					<circle class="st5" cx="977.5" cy="594" r="2"/>
				</g>
			</g>
			<circle class="st6" cx="980" cy="583.8" r="3.5"/>
			<circle class="st7" cx="989.4" cy="589.3" r="3.5"/>
			<line class="st8" x1="1116.7" y1="670.7" x2="1134" y2="660.7"/>
			<line class="st8" x1="1116.7" y1="666.7" x2="1134" y2="656.7"/>
			<line class="st8" x1="1116.7" y1="662.7" x2="1134" y2="652.7"/>
			<line class="st8" x1="1116.7" y1="658.7" x2="1134" y2="648.7"/>
			<line class="st8" x1="1116.7" y1="654.7" x2="1134" y2="644.7"/>
		</g>
		<g>
			<polygon class="st11" points="1176.5,562.9 1263.1,612.9 1349.7,562.9 1263.1,512.9 			"/>
			<polygon class="st12" points="1263.1,712.9 1263.1,612.9 1349.7,562.9 1349.7,662.9 			"/>
			<polygon class="st11" points="1263.1,712.9 1263.1,612.9 1176.5,562.9 1176.5,662.9 			"/>
			<polyline class="st2" points="1176.5,562.9 1263.1,612.9 1263.1,712.9 1263.1,612.9 1349.7,562.9 			"/>
			<polygon class="st2" points="1176.5,562.9 1176.5,662.9 1263.1,712.9 1349.7,662.9 1349.7,562.9 1263.1,512.9 			"/>
			<g>
				<path class="st3" d="M1251.5,671.4c-0.5,1-1.8,1.3-2.7,0.7l-60.6-35c-1-0.5-1.3-1.8-0.7-2.7c0.6-1,1.8-1.3,2.7-0.7l60.6,35
					C1251.7,669.2,1252,670.5,1251.5,671.4z"/>
			</g>
			<g>
				<path class="st3" d="M1251.5,683.4c-0.5,1-1.8,1.3-2.7,0.7l-60.6-35c-1-0.5-1.3-1.8-0.7-2.7c0.6-1,1.8-1.3,2.7-0.7l60.6,35
					C1251.7,681.2,1252,682.5,1251.5,683.4z"/>
			</g>
			<g>
				<path class="st3" d="M1251.5,695.4c-0.5,1-1.8,1.3-2.7,0.7l-60.6-35c-1-0.5-1.3-1.8-0.7-2.7c0.6-1,1.8-1.3,2.7-0.7l60.6,35
					C1251.7,693.2,1252,694.5,1251.5,695.4z"/>
			</g>
			<g>
				<g>
					<line class="st4" x1="1252.8" y1="650.9" x2="1228.5" y2="636.8"/>
					<circle class="st5" cx="1223.5" cy="633.8" r="2"/>
				</g>
				<g>
					<line class="st4" x1="1252.8" y1="641.9" x2="1228.5" y2="627.8"/>
					<circle class="st5" cx="1223.5" cy="624.8" r="2"/>
				</g>
				<g>
					<line class="st4" x1="1252.8" y1="631.9" x2="1228.5" y2="617.8"/>
					<circle class="st5" cx="1223.5" cy="614.8" r="2"/>
				</g>
				<g>
					<line class="st4" x1="1214.8" y1="628.9" x2="1190.5" y2="614.8"/>
					<circle class="st5" cx="1185.5" cy="611.8" r="2"/>
				</g>
				<g>
					<line class="st4" x1="1252.8" y1="659.9" x2="1228.5" y2="645.8"/>
					<circle class="st5" cx="1223.5" cy="642.8" r="2"/>
				</g>
				<g>
					<line class="st4" x1="1214.8" y1="637.9" x2="1190.5" y2="623.8"/>
					<circle class="st5" cx="1185.5" cy="620.8" r="2"/>
				</g>
				<g>
					<line class="st4" x1="1214.8" y1="619.9" x2="1190.5" y2="605.8"/>
					<circle class="st5" cx="1185.5" cy="602.8" r="2"/>
				</g>
				<g>
					<line class="st4" x1="1214.8" y1="609.9" x2="1190.5" y2="595.8"/>
					<circle class="st5" cx="1185.5" cy="592.8" r="2"/>
				</g>
			</g>
			<circle class="st6" cx="1188" cy="582.6" r="3.5"/>
			<circle class="st7" cx="1197.4" cy="588.1" r="3.5"/>
			<line class="st8" x1="1324.7" y1="669.5" x2="1342" y2="659.5"/>
			<line class="st8" x1="1324.7" y1="665.5" x2="1342" y2="655.5"/>
			<line class="st8" x1="1324.7" y1="661.5" x2="1342" y2="651.5"/>
			<line class="st8" x1="1324.7" y1="657.5" x2="1342" y2="647.5"/>
			<line class="st8" x1="1324.7" y1="653.5" x2="1342" y2="643.5"/>
		</g>
		<g>
			<polygon class="st11" points="1072.5,624.4 1159.1,674.4 1245.7,624.4 1159.1,574.4 			"/>
			<polygon class="st12" points="1159.1,774.4 1159.1,674.4 1245.7,624.4 1245.7,724.4 			"/>
			<polygon class="st11" points="1159.1,774.4 1159.1,674.4 1072.5,624.4 1072.5,724.4 			"/>
			<polyline class="st2" points="1072.5,624.4 1159.1,674.4 1159.1,774.4 1159.1,674.4 1245.7,624.4 			"/>
			<polygon class="st2" points="1072.5,624.4 1072.5,724.4 1159.1,774.4 1245.7,724.4 1245.7,624.4 1159.1,574.4 			"/>
			<g>
				<path class="st3" d="M1147.5,732.9c-0.5,1-1.8,1.3-2.7,0.7l-60.6-35c-1-0.5-1.3-1.8-0.7-2.7c0.6-1,1.8-1.3,2.7-0.7l60.6,35
					C1147.7,730.7,1148,732,1147.5,732.9z"/>
			</g>
			<g>
				<path class="st3" d="M1147.5,744.9c-0.5,1-1.8,1.3-2.7,0.7l-60.6-35c-1-0.5-1.3-1.8-0.7-2.7c0.6-1,1.8-1.3,2.7-0.7l60.6,35
					C1147.7,742.7,1148,744,1147.5,744.9z"/>
			</g>
			<g>
				<path class="st3" d="M1147.5,756.9c-0.5,1-1.8,1.3-2.7,0.7l-60.6-35c-1-0.5-1.3-1.8-0.7-2.7c0.6-1,1.8-1.3,2.7-0.7l60.6,35
					C1147.7,754.7,1148,756,1147.5,756.9z"/>
			</g>
			<g>
				<g>
					<line class="st4" x1="1148.8" y1="712.4" x2="1124.5" y2="698.3"/>
					<circle class="st5" cx="1119.5" cy="695.3" r="2"/>
				</g>
				<g>
					<line class="st4" x1="1148.8" y1="703.4" x2="1124.5" y2="689.3"/>
					<circle class="st5" cx="1119.5" cy="686.3" r="2"/>
				</g>
				<g>
					<line class="st4" x1="1148.8" y1="693.4" x2="1124.5" y2="679.3"/>
					<circle class="st5" cx="1119.5" cy="676.3" r="2"/>
				</g>
				<g>
					<line class="st4" x1="1110.8" y1="690.4" x2="1086.5" y2="676.3"/>
					<circle class="st5" cx="1081.5" cy="673.3" r="2"/>
				</g>
				<g>
					<line class="st4" x1="1148.8" y1="721.4" x2="1124.5" y2="707.3"/>
					<circle class="st5" cx="1119.5" cy="704.3" r="2"/>
				</g>
				<g>
					<line class="st4" x1="1110.8" y1="699.4" x2="1086.5" y2="685.3"/>
					<circle class="st5" cx="1081.5" cy="682.3" r="2"/>
				</g>
				<g>
					<line class="st4" x1="1110.8" y1="681.4" x2="1086.5" y2="667.3"/>
					<circle class="st5" cx="1081.5" cy="664.3" r="2"/>
				</g>
				<g>
					<line class="st4" x1="1110.8" y1="671.4" x2="1086.5" y2="657.3"/>
					<circle class="st5" cx="1081.5" cy="654.3" r="2"/>
				</g>
			</g>
			<circle class="st6" cx="1084" cy="644.1" r="3.5"/>
			<circle class="st7" cx="1093.4" cy="649.6" r="3.5"/>
			<line class="st8" x1="1220.7" y1="731" x2="1238" y2="721"/>
			<line class="st8" x1="1220.7" y1="727" x2="1238" y2="717"/>
			<line class="st8" x1="1220.7" y1="723" x2="1238" y2="713"/>
			<line class="st8" x1="1220.7" y1="719" x2="1238" y2="709"/>
			<line class="st8" x1="1220.7" y1="715" x2="1238" y2="705"/>
		</g>
	</g>
	<g>
		<g>
			<polygon class="st13" points="275.4,383.5 362,433.5 448.6,383.5 362,333.5 			"/>
			<polygon class="st14" points="362,533.5 362,433.5 448.6,383.5 448.6,483.5 			"/>
			<polygon class="st13" points="362,533.5 362,433.5 275.4,383.5 275.4,483.5 			"/>
			<polyline class="st2" points="275.4,383.5 362,433.5 362,533.5 362,433.5 448.6,383.5 			"/>
			<polygon class="st2" points="275.4,383.5 275.4,483.5 362,533.5 448.6,483.5 448.6,383.5 362,333.5 			"/>
			<g>
				<path class="st3" d="M350.3,492c-0.5,1-1.8,1.3-2.7,0.7l-60.6-35c-1-0.5-1.3-1.8-0.7-2.7c0.5-1,1.8-1.3,2.7-0.7l60.6,35
					C350.6,489.8,350.9,491.1,350.3,492z"/>
			</g>
			<g>
				<path class="st3" d="M350.3,504c-0.5,1-1.8,1.3-2.7,0.7l-60.6-35c-1-0.5-1.3-1.8-0.7-2.7c0.5-1,1.8-1.3,2.7-0.7l60.6,35
					C350.6,501.8,350.9,503.1,350.3,504z"/>
			</g>
			<g>
				<path class="st3" d="M350.3,516c-0.5,1-1.8,1.3-2.7,0.7l-60.6-35c-1-0.5-1.3-1.8-0.7-2.7c0.5-1,1.8-1.3,2.7-0.7l60.6,35
					C350.6,513.8,350.9,515.1,350.3,516z"/>
			</g>
			<g>
				<g>
					<line class="st4" x1="351.6" y1="471.5" x2="327.3" y2="457.4"/>
					<circle class="st5" cx="322.3" cy="454.4" r="2"/>
				</g>
				<g>
					<line class="st4" x1="351.6" y1="462.5" x2="327.3" y2="448.4"/>
					<circle class="st5" cx="322.3" cy="445.4" r="2"/>
				</g>
				<g>
					<line class="st4" x1="351.6" y1="452.5" x2="327.3" y2="438.4"/>
					<circle class="st5" cx="322.3" cy="435.4" r="2"/>
				</g>
				<g>
					<line class="st4" x1="313.6" y1="449.5" x2="289.3" y2="435.4"/>
					<circle class="st5" cx="284.3" cy="432.4" r="2"/>
				</g>
				<g>
					<line class="st4" x1="351.6" y1="480.5" x2="327.3" y2="466.4"/>
					<circle class="st5" cx="322.3" cy="463.4" r="2"/>
				</g>
				<g>
					<line class="st4" x1="313.6" y1="458.5" x2="289.3" y2="444.4"/>
					<circle class="st5" cx="284.3" cy="441.4" r="2"/>
				</g>
				<g>
					<line class="st4" x1="313.6" y1="440.5" x2="289.3" y2="426.4"/>
					<circle class="st5" cx="284.3" cy="423.4" r="2"/>
				</g>
				<g>
					<line class="st4" x1="313.6" y1="430.5" x2="289.3" y2="416.4"/>
					<circle class="st5" cx="284.3" cy="413.4" r="2"/>
				</g>
			</g>
			<circle class="st6" cx="286.9" cy="403.2" r="3.5"/>
			<circle class="st7" cx="296.3" cy="408.7" r="3.5"/>
			<line class="st8" x1="423.5" y1="490.1" x2="440.8" y2="480.1"/>
			<line class="st8" x1="423.5" y1="486.1" x2="440.8" y2="476.1"/>
			<line class="st8" x1="423.5" y1="482.1" x2="440.8" y2="472.1"/>
			<line class="st8" x1="423.5" y1="478.1" x2="440.8" y2="468.1"/>
			<line class="st8" x1="423.5" y1="474.1" x2="440.8" y2="464.1"/>
		</g>
		<g>
			<polygon class="st13" points="379.4,443.7 466,493.7 552.6,443.7 466,393.7 			"/>
			<polygon class="st14" points="466,593.7 466,493.7 552.6,443.7 552.6,543.7 			"/>
			<polygon class="st13" points="466,593.7 466,493.7 379.4,443.7 379.4,543.7 			"/>
			<polyline class="st2" points="379.4,443.7 466,493.7 466,593.7 466,493.7 552.6,443.7 			"/>
			<polygon class="st2" points="379.4,443.7 379.4,543.7 466,593.7 552.6,543.7 552.6,443.7 466,393.7 			"/>
			<g>
				<path class="st3" d="M454.3,552.3c-0.5,1-1.8,1.3-2.7,0.7L391,518c-1-0.5-1.3-1.8-0.7-2.7s1.8-1.3,2.7-0.7l60.6,35
					C454.6,550.1,454.9,551.3,454.3,552.3z"/>
			</g>
			<g>
				<path class="st3" d="M454.3,564.3c-0.5,1-1.8,1.3-2.7,0.7L391,530c-1-0.5-1.3-1.8-0.7-2.7s1.8-1.3,2.7-0.7l60.6,35
					C454.6,562.1,454.9,563.3,454.3,564.3z"/>
			</g>
			<g>
				<path class="st3" d="M454.3,576.3c-0.5,1-1.8,1.3-2.7,0.7L391,542c-1-0.5-1.3-1.8-0.7-2.7s1.8-1.3,2.7-0.7l60.6,35
					C454.6,574.1,454.9,575.3,454.3,576.3z"/>
			</g>
			<g>
				<g>
					<line class="st4" x1="455.6" y1="531.7" x2="431.3" y2="517.7"/>
					<circle class="st5" cx="426.3" cy="514.7" r="2"/>
				</g>
				<g>
					<line class="st4" x1="455.6" y1="522.7" x2="431.3" y2="508.7"/>
					<circle class="st5" cx="426.3" cy="505.7" r="2"/>
				</g>
				<g>
					<line class="st4" x1="455.6" y1="512.7" x2="431.3" y2="498.7"/>
					<circle class="st5" cx="426.3" cy="495.7" r="2"/>
				</g>
				<g>
					<line class="st4" x1="417.6" y1="509.7" x2="393.3" y2="495.7"/>
					<circle class="st5" cx="388.3" cy="492.7" r="2"/>
				</g>
				<g>
					<line class="st4" x1="455.6" y1="540.7" x2="431.3" y2="526.7"/>
					<circle class="st5" cx="426.3" cy="523.7" r="2"/>
				</g>
				<g>
					<line class="st4" x1="417.6" y1="518.7" x2="393.3" y2="504.7"/>
					<circle class="st5" cx="388.3" cy="501.7" r="2"/>
				</g>
				<g>
					<line class="st4" x1="417.6" y1="500.7" x2="393.3" y2="486.7"/>
					<circle class="st5" cx="388.3" cy="483.7" r="2"/>
				</g>
				<g>
					<line class="st4" x1="417.6" y1="490.7" x2="393.3" y2="476.7"/>
					<circle class="st5" cx="388.3" cy="473.7" r="2"/>
				</g>
			</g>
			<circle class="st6" cx="390.9" cy="463.4" r="3.5"/>
			<circle class="st7" cx="400.3" cy="468.9" r="3.5"/>
			<line class="st8" x1="527.5" y1="550.3" x2="544.8" y2="540.3"/>
			<line class="st8" x1="527.5" y1="546.3" x2="544.8" y2="536.3"/>
			<line class="st8" x1="527.5" y1="542.3" x2="544.8" y2="532.3"/>
			<line class="st8" x1="527.5" y1="538.3" x2="544.8" y2="528.3"/>
			<line class="st8" x1="527.5" y1="534.3" x2="544.8" y2="524.3"/>
		</g>
		<g>
			<polygon class="st13" points="482.5,506.2 569.1,556.2 655.7,506.2 569.1,456.2 			"/>
			<polygon class="st14" points="569.1,656.2 569.1,556.2 655.7,506.2 655.7,606.2 			"/>
			<polygon class="st13" points="569.1,656.2 569.1,556.2 482.5,506.2 482.5,606.2 			"/>
			<polyline class="st2" points="482.5,506.2 569.1,556.2 569.1,656.2 569.1,556.2 655.7,506.2 			"/>
			<polygon class="st2" points="482.5,506.2 482.5,606.2 569.1,656.2 655.7,606.2 655.7,506.2 569.1,456.2 			"/>
			<g>
				<path class="st3" d="M557.5,614.7c-0.5,1-1.8,1.3-2.7,0.7l-60.6-35c-1-0.5-1.3-1.8-0.7-2.7c0.6-1,1.8-1.3,2.7-0.7l60.6,35
					C557.7,612.5,558,613.8,557.5,614.7z"/>
			</g>
			<g>
				<path class="st3" d="M557.5,626.7c-0.5,1-1.8,1.3-2.7,0.7l-60.6-35c-1-0.5-1.3-1.8-0.7-2.7c0.6-1,1.8-1.3,2.7-0.7l60.6,35
					C557.7,624.5,558,625.8,557.5,626.7z"/>
			</g>
			<g>
				<path class="st3" d="M557.5,638.7c-0.5,1-1.8,1.3-2.7,0.7l-60.6-35c-1-0.5-1.3-1.8-0.7-2.7c0.6-1,1.8-1.3,2.7-0.7l60.6,35
					C557.7,636.5,558,637.8,557.5,638.7z"/>
			</g>
			<g>
				<g>
					<line class="st4" x1="558.7" y1="594.1" x2="534.4" y2="580.1"/>
					<circle class="st5" cx="529.4" cy="577.1" r="2"/>
				</g>
				<g>
					<line class="st4" x1="558.7" y1="585.1" x2="534.4" y2="571.1"/>
					<circle class="st5" cx="529.4" cy="568.1" r="2"/>
				</g>
				<g>
					<line class="st4" x1="558.7" y1="575.1" x2="534.4" y2="561.1"/>
					<circle class="st5" cx="529.4" cy="558.1" r="2"/>
				</g>
				<g>
					<line class="st4" x1="520.7" y1="572.1" x2="496.4" y2="558.1"/>
					<circle class="st5" cx="491.4" cy="555.1" r="2"/>
				</g>
				<g>
					<line class="st4" x1="558.7" y1="603.1" x2="534.4" y2="589.1"/>
					<circle class="st5" cx="529.4" cy="586.1" r="2"/>
				</g>
				<g>
					<line class="st4" x1="520.7" y1="581.1" x2="496.4" y2="567.1"/>
					<circle class="st5" cx="491.4" cy="564.1" r="2"/>
				</g>
				<g>
					<line class="st4" x1="520.7" y1="563.1" x2="496.4" y2="549.1"/>
					<circle class="st5" cx="491.4" cy="546.1" r="2"/>
				</g>
				<g>
					<line class="st4" x1="520.7" y1="553.1" x2="496.4" y2="539.1"/>
					<circle class="st5" cx="491.4" cy="536.1" r="2"/>
				</g>
			</g>
			<circle class="st6" cx="494" cy="525.8" r="3.5"/>
			<circle class="st7" cx="503.4" cy="531.4" r="3.5"/>
			<line class="st8" x1="630.7" y1="612.8" x2="648" y2="602.8"/>
			<line class="st8" x1="630.7" y1="608.8" x2="648" y2="598.8"/>
			<line class="st8" x1="630.7" y1="604.8" x2="648" y2="594.8"/>
			<line class="st8" x1="630.7" y1="600.8" x2="648" y2="590.8"/>
			<line class="st8" x1="630.7" y1="596.8" x2="648" y2="586.8"/>
		</g>
		<g>
			<polygon class="st13" points="170.5,445.3 257.1,495.3 343.7,445.3 257.1,395.3 			"/>
			<polygon class="st14" points="257.1,595.3 257.1,495.3 343.7,445.3 343.7,545.3 			"/>
			<polygon class="st13" points="257.1,595.3 257.1,495.3 170.5,445.3 170.5,545.3 			"/>
			<polyline class="st2" points="170.5,445.3 257.1,495.3 257.1,595.3 257.1,495.3 343.7,445.3 			"/>
			<polygon class="st2" points="170.5,445.3 170.5,545.3 257.1,595.3 343.7,545.3 343.7,445.3 257.1,395.3 			"/>
			<g>
				<path class="st3" d="M245.5,553.8c-0.6,1-1.8,1.3-2.7,0.7l-60.6-35c-1-0.5-1.3-1.8-0.7-2.7s1.8-1.3,2.7-0.7l60.6,35
					C245.7,551.7,246,552.9,245.5,553.8z"/>
			</g>
			<g>
				<path class="st3" d="M245.5,565.8c-0.6,1-1.8,1.3-2.7,0.7l-60.6-35c-1-0.5-1.3-1.8-0.7-2.7s1.8-1.3,2.7-0.7l60.6,35
					C245.7,563.7,246,564.9,245.5,565.8z"/>
			</g>
			<g>
				<path class="st3" d="M245.5,577.8c-0.6,1-1.8,1.3-2.7,0.7l-60.6-35c-1-0.5-1.3-1.8-0.7-2.7s1.8-1.3,2.7-0.7l60.6,35
					C245.7,575.7,246,576.9,245.5,577.8z"/>
			</g>
			<g>
				<g>
					<line class="st4" x1="246.7" y1="533.3" x2="222.4" y2="519.3"/>
					<circle class="st5" cx="217.4" cy="516.3" r="2"/>
				</g>
				<g>
					<line class="st4" x1="246.7" y1="524.3" x2="222.4" y2="510.3"/>
					<circle class="st5" cx="217.4" cy="507.3" r="2"/>
				</g>
				<g>
					<line class="st4" x1="246.7" y1="514.3" x2="222.4" y2="500.3"/>
					<circle class="st5" cx="217.4" cy="497.3" r="2"/>
				</g>
				<g>
					<line class="st4" x1="208.7" y1="511.3" x2="184.4" y2="497.3"/>
					<circle class="st5" cx="179.4" cy="494.3" r="2"/>
				</g>
				<g>
					<line class="st4" x1="246.7" y1="542.3" x2="222.4" y2="528.3"/>
					<circle class="st5" cx="217.4" cy="525.3" r="2"/>
				</g>
				<g>
					<line class="st4" x1="208.7" y1="520.3" x2="184.4" y2="506.3"/>
					<circle class="st5" cx="179.4" cy="503.3" r="2"/>
				</g>
				<g>
					<line class="st4" x1="208.7" y1="502.3" x2="184.4" y2="488.3"/>
					<circle class="st5" cx="179.4" cy="485.3" r="2"/>
				</g>
				<g>
					<line class="st4" x1="208.7" y1="492.3" x2="184.4" y2="478.3"/>
					<circle class="st5" cx="179.4" cy="475.3" r="2"/>
				</g>
			</g>
			<circle class="st6" cx="182" cy="465" r="3.5"/>
			<circle class="st7" cx="191.4" cy="470.5" r="3.5"/>
			<line class="st8" x1="318.6" y1="551.9" x2="336" y2="541.9"/>
			<line class="st8" x1="318.6" y1="547.9" x2="336" y2="537.9"/>
			<line class="st8" x1="318.6" y1="543.9" x2="336" y2="533.9"/>
			<line class="st8" x1="318.6" y1="539.9" x2="336" y2="529.9"/>
			<line class="st8" x1="318.6" y1="535.9" x2="336" y2="525.9"/>
		</g>
		<g>
			<polygon class="st13" points="66.5,506.8 153.1,556.8 239.7,506.8 153.1,456.8 			"/>
			<polygon class="st14" points="153.1,656.8 153.1,556.8 239.7,506.8 239.7,606.8 			"/>
			<polygon class="st13" points="153.1,656.8 153.1,556.8 66.5,506.8 66.5,606.8 			"/>
			<polyline class="st2" points="66.5,506.8 153.1,556.8 153.1,656.8 153.1,556.8 239.7,506.8 			"/>
			<polygon class="st2" points="66.5,506.8 66.5,606.8 153.1,656.8 239.7,606.8 239.7,506.8 153.1,456.8 			"/>
			<g>
				<path class="st3" d="M141.5,615.4c-0.6,1-1.8,1.3-2.7,0.7l-60.6-35c-1-0.5-1.3-1.8-0.7-2.7s1.8-1.3,2.7-0.7l60.6,35
					C141.7,613.2,142,614.4,141.5,615.4z"/>
			</g>
			<g>
				<path class="st3" d="M141.5,627.4c-0.6,1-1.8,1.3-2.7,0.7l-60.6-35c-1-0.5-1.3-1.8-0.7-2.7s1.8-1.3,2.7-0.7l60.6,35
					C141.7,625.2,142,626.4,141.5,627.4z"/>
			</g>
			<g>
				<path class="st3" d="M141.5,639.4c-0.6,1-1.8,1.3-2.7,0.7l-60.6-35c-1-0.5-1.3-1.8-0.7-2.7s1.8-1.3,2.7-0.7l60.6,35
					C141.7,637.2,142,638.4,141.5,639.4z"/>
			</g>
			<g>
				<g>
					<line class="st4" x1="142.7" y1="594.8" x2="118.4" y2="580.8"/>
					<circle class="st5" cx="113.4" cy="577.8" r="2"/>
				</g>
				<g>
					<line class="st4" x1="142.7" y1="585.8" x2="118.4" y2="571.8"/>
					<circle class="st5" cx="113.4" cy="568.8" r="2"/>
				</g>
				<g>
					<line class="st4" x1="142.7" y1="575.8" x2="118.4" y2="561.8"/>
					<circle class="st5" cx="113.4" cy="558.8" r="2"/>
				</g>
				<g>
					<line class="st4" x1="104.7" y1="572.8" x2="80.4" y2="558.8"/>
					<circle class="st5" cx="75.4" cy="555.8" r="2"/>
				</g>
				<g>
					<line class="st4" x1="142.7" y1="603.8" x2="118.4" y2="589.8"/>
					<circle class="st5" cx="113.4" cy="586.8" r="2"/>
				</g>
				<g>
					<line class="st4" x1="104.7" y1="581.8" x2="80.4" y2="567.8"/>
					<circle class="st5" cx="75.4" cy="564.8" r="2"/>
				</g>
				<g>
					<line class="st4" x1="104.7" y1="563.8" x2="80.4" y2="549.8"/>
					<circle class="st5" cx="75.4" cy="546.8" r="2"/>
				</g>
				<g>
					<line class="st4" x1="104.7" y1="553.8" x2="80.4" y2="539.8"/>
					<circle class="st5" cx="75.4" cy="536.8" r="2"/>
				</g>
			</g>
			<circle class="st6" cx="78" cy="526.5" r="3.5"/>
			<circle class="st7" cx="87.4" cy="532" r="3.5"/>
			<line class="st8" x1="214.6" y1="613.4" x2="232" y2="603.4"/>
			<line class="st8" x1="214.6" y1="609.4" x2="232" y2="599.4"/>
			<line class="st8" x1="214.6" y1="605.4" x2="232" y2="595.4"/>
			<line class="st8" x1="214.6" y1="601.4" x2="232" y2="591.4"/>
			<line class="st8" x1="214.6" y1="597.4" x2="232" y2="587.4"/>
		</g>
		<g>
			<polygon class="st13" points="274.5,505.6 361.1,555.6 447.7,505.6 361.1,455.6 			"/>
			<polygon class="st14" points="361.1,655.6 361.1,555.6 447.7,505.6 447.7,605.6 			"/>
			<polygon class="st13" points="361.1,655.6 361.1,555.6 274.5,505.6 274.5,605.6 			"/>
			<polyline class="st2" points="274.5,505.6 361.1,555.6 361.1,655.6 361.1,555.6 447.7,505.6 			"/>
			<polygon class="st2" points="274.5,505.6 274.5,605.6 361.1,655.6 447.7,605.6 447.7,505.6 361.1,455.6 			"/>
			<g>
				<path class="st3" d="M349.5,614.1c-0.5,1-1.8,1.3-2.7,0.7l-60.6-35c-1-0.5-1.3-1.8-0.7-2.7c0.6-1,1.8-1.3,2.7-0.7l60.6,35
					C349.7,611.9,350,613.2,349.5,614.1z"/>
			</g>
			<g>
				<path class="st3" d="M349.5,626.1c-0.5,1-1.8,1.3-2.7,0.7l-60.6-35c-1-0.5-1.3-1.8-0.7-2.7c0.6-1,1.8-1.3,2.7-0.7l60.6,35
					C349.7,623.9,350,625.2,349.5,626.1z"/>
			</g>
			<g>
				<path class="st3" d="M349.5,638.1c-0.5,1-1.8,1.3-2.7,0.7l-60.6-35c-1-0.5-1.3-1.8-0.7-2.7c0.6-1,1.8-1.3,2.7-0.7l60.6,35
					C349.7,635.9,350,637.2,349.5,638.1z"/>
			</g>
			<g>
				<g>
					<line class="st4" x1="350.7" y1="593.6" x2="326.4" y2="579.5"/>
					<circle class="st5" cx="321.4" cy="576.5" r="2"/>
				</g>
				<g>
					<line class="st4" x1="350.7" y1="584.6" x2="326.4" y2="570.5"/>
					<circle class="st5" cx="321.4" cy="567.5" r="2"/>
				</g>
				<g>
					<line class="st4" x1="350.7" y1="574.6" x2="326.4" y2="560.5"/>
					<circle class="st5" cx="321.4" cy="557.5" r="2"/>
				</g>
				<g>
					<line class="st4" x1="312.7" y1="571.6" x2="288.4" y2="557.5"/>
					<circle class="st5" cx="283.4" cy="554.5" r="2"/>
				</g>
				<g>
					<line class="st4" x1="350.7" y1="602.6" x2="326.4" y2="588.5"/>
					<circle class="st5" cx="321.4" cy="585.5" r="2"/>
				</g>
				<g>
					<line class="st4" x1="312.7" y1="580.6" x2="288.4" y2="566.5"/>
					<circle class="st5" cx="283.4" cy="563.5" r="2"/>
				</g>
				<g>
					<line class="st4" x1="312.7" y1="562.6" x2="288.4" y2="548.5"/>
					<circle class="st5" cx="283.4" cy="545.5" r="2"/>
				</g>
				<g>
					<line class="st4" x1="312.7" y1="552.6" x2="288.4" y2="538.5"/>
					<circle class="st5" cx="283.4" cy="535.5" r="2"/>
				</g>
			</g>
			<circle class="st6" cx="286" cy="525.3" r="3.5"/>
			<circle class="st7" cx="295.4" cy="530.8" r="3.5"/>
			<line class="st8" x1="422.7" y1="612.2" x2="440" y2="602.2"/>
			<line class="st8" x1="422.7" y1="608.2" x2="440" y2="598.2"/>
			<line class="st8" x1="422.7" y1="604.2" x2="440" y2="594.2"/>
			<line class="st8" x1="422.7" y1="600.2" x2="440" y2="590.2"/>
			<line class="st8" x1="422.7" y1="596.2" x2="440" y2="586.2"/>
		</g>
		<g>
			<polygon class="st13" points="170.5,567.1 257.1,617.1 343.7,567.1 257.1,517.1 			"/>
			<polygon class="st14" points="257.1,717.1 257.1,617.1 343.7,567.1 343.7,667.1 			"/>
			<polygon class="st13" points="257.1,717.1 257.1,617.1 170.5,567.1 170.5,667.1 			"/>
			<polyline class="st2" points="170.5,567.1 257.1,617.1 257.1,717.1 257.1,617.1 343.7,567.1 			"/>
			<polygon class="st2" points="170.5,567.1 170.5,667.1 257.1,717.1 343.7,667.1 343.7,567.1 257.1,517.1 			"/>
			<g>
				<path class="st3" d="M245.5,675.6c-0.6,1-1.8,1.3-2.7,0.7l-60.6-35c-1-0.5-1.3-1.8-0.7-2.7s1.8-1.3,2.7-0.7l60.6,35
					C245.7,673.5,246,674.7,245.5,675.6z"/>
			</g>
			<g>
				<path class="st3" d="M245.5,687.6c-0.6,1-1.8,1.3-2.7,0.7l-60.6-35c-1-0.5-1.3-1.8-0.7-2.7s1.8-1.3,2.7-0.7l60.6,35
					C245.7,685.5,246,686.7,245.5,687.6z"/>
			</g>
			<g>
				<path class="st3" d="M245.5,699.6c-0.6,1-1.8,1.3-2.7,0.7l-60.6-35c-1-0.5-1.3-1.8-0.7-2.7s1.8-1.3,2.7-0.7l60.6,35
					C245.7,697.5,246,698.7,245.5,699.6z"/>
			</g>
			<g>
				<g>
					<line class="st4" x1="246.7" y1="655.1" x2="222.4" y2="641"/>
					<circle class="st5" cx="217.4" cy="638" r="2"/>
				</g>
				<g>
					<line class="st4" x1="246.7" y1="646.1" x2="222.4" y2="632"/>
					<circle class="st5" cx="217.4" cy="629" r="2"/>
				</g>
				<g>
					<line class="st4" x1="246.7" y1="636.1" x2="222.4" y2="622"/>
					<circle class="st5" cx="217.4" cy="619" r="2"/>
				</g>
				<g>
					<line class="st4" x1="208.7" y1="633.1" x2="184.4" y2="619"/>
					<circle class="st5" cx="179.4" cy="616" r="2"/>
				</g>
				<g>
					<line class="st4" x1="246.7" y1="664.1" x2="222.4" y2="650"/>
					<circle class="st5" cx="217.4" cy="647" r="2"/>
				</g>
				<g>
					<line class="st4" x1="208.7" y1="642.1" x2="184.4" y2="628"/>
					<circle class="st5" cx="179.4" cy="625" r="2"/>
				</g>
				<g>
					<line class="st4" x1="208.7" y1="624.1" x2="184.4" y2="610"/>
					<circle class="st5" cx="179.4" cy="607" r="2"/>
				</g>
				<g>
					<line class="st4" x1="208.7" y1="614.1" x2="184.4" y2="600"/>
					<circle class="st5" cx="179.4" cy="597" r="2"/>
				</g>
			</g>
			<circle class="st6" cx="182" cy="586.8" r="3.5"/>
			<circle class="st7" cx="191.4" cy="592.3" r="3.5"/>
			<line class="st8" x1="318.7" y1="673.7" x2="336" y2="663.7"/>
			<line class="st8" x1="318.7" y1="669.7" x2="336" y2="659.7"/>
			<line class="st8" x1="318.7" y1="665.7" x2="336" y2="655.7"/>
			<line class="st8" x1="318.7" y1="661.7" x2="336" y2="651.7"/>
			<line class="st8" x1="318.7" y1="657.7" x2="336" y2="647.7"/>
		</g>
		<g>
			<polygon class="st13" points="378.5,565.9 465.1,615.9 551.7,565.9 465.1,515.9 			"/>
			<polygon class="st14" points="465.1,715.9 465.1,615.9 551.7,565.9 551.7,665.9 			"/>
			<polygon class="st13" points="465.1,715.9 465.1,615.9 378.5,565.9 378.5,665.9 			"/>
			<polyline class="st2" points="378.5,565.9 465.1,615.9 465.1,715.9 465.1,615.9 551.7,565.9 			"/>
			<polygon class="st2" points="378.5,565.9 378.5,665.9 465.1,715.9 551.7,665.9 551.7,565.9 465.1,515.9 			"/>
			<g>
				<path class="st3" d="M453.5,674.4c-0.5,1-1.8,1.3-2.7,0.7l-60.6-35c-1-0.5-1.3-1.8-0.7-2.7c0.6-1,1.8-1.3,2.7-0.7l60.6,35
					C453.7,672.2,454,673.5,453.5,674.4z"/>
			</g>
			<g>
				<path class="st3" d="M453.5,686.4c-0.5,1-1.8,1.3-2.7,0.7l-60.6-35c-1-0.5-1.3-1.8-0.7-2.7c0.6-1,1.8-1.3,2.7-0.7l60.6,35
					C453.7,684.2,454,685.5,453.5,686.4z"/>
			</g>
			<g>
				<path class="st3" d="M453.5,698.4c-0.5,1-1.8,1.3-2.7,0.7l-60.6-35c-1-0.5-1.3-1.8-0.7-2.7c0.6-1,1.8-1.3,2.7-0.7l60.6,35
					C453.7,696.2,454,697.5,453.5,698.4z"/>
			</g>
			<g>
				<g>
					<line class="st4" x1="454.7" y1="653.8" x2="430.4" y2="639.8"/>
					<circle class="st5" cx="425.4" cy="636.8" r="2"/>
				</g>
				<g>
					<line class="st4" x1="454.7" y1="644.8" x2="430.4" y2="630.8"/>
					<circle class="st5" cx="425.4" cy="627.8" r="2"/>
				</g>
				<g>
					<line class="st4" x1="454.7" y1="634.8" x2="430.4" y2="620.8"/>
					<circle class="st5" cx="425.4" cy="617.8" r="2"/>
				</g>
				<g>
					<line class="st4" x1="416.7" y1="631.8" x2="392.4" y2="617.8"/>
					<circle class="st5" cx="387.4" cy="614.8" r="2"/>
				</g>
				<g>
					<line class="st4" x1="454.7" y1="662.8" x2="430.4" y2="648.8"/>
					<circle class="st5" cx="425.4" cy="645.8" r="2"/>
				</g>
				<g>
					<line class="st4" x1="416.7" y1="640.8" x2="392.4" y2="626.8"/>
					<circle class="st5" cx="387.4" cy="623.8" r="2"/>
				</g>
				<g>
					<line class="st4" x1="416.7" y1="622.8" x2="392.4" y2="608.8"/>
					<circle class="st5" cx="387.4" cy="605.8" r="2"/>
				</g>
				<g>
					<line class="st4" x1="416.7" y1="612.8" x2="392.4" y2="598.8"/>
					<circle class="st5" cx="387.4" cy="595.8" r="2"/>
				</g>
			</g>
			<circle class="st6" cx="390" cy="585.5" r="3.5"/>
			<circle class="st7" cx="399.4" cy="591.1" r="3.5"/>
			<line class="st8" x1="526.7" y1="672.5" x2="544" y2="662.5"/>
			<line class="st8" x1="526.7" y1="668.5" x2="544" y2="658.5"/>
			<line class="st8" x1="526.7" y1="664.5" x2="544" y2="654.5"/>
			<line class="st8" x1="526.7" y1="660.5" x2="544" y2="650.5"/>
			<line class="st8" x1="526.7" y1="656.5" x2="544" y2="646.5"/>
		</g>
		<g>
			<polygon class="st13" points="274.5,627.4 361.1,677.4 447.7,627.4 361.1,577.4 			"/>
			<polygon class="st14" points="361.1,777.4 361.1,677.4 447.7,627.4 447.7,727.4 			"/>
			<polygon class="st13" points="361.1,777.4 361.1,677.4 274.5,627.4 274.5,727.4 			"/>
			<polyline class="st2" points="274.5,627.4 361.1,677.4 361.1,777.4 361.1,677.4 447.7,627.4 			"/>
			<polygon class="st2" points="274.5,627.4 274.5,727.4 361.1,777.4 447.7,727.4 447.7,627.4 361.1,577.4 			"/>
			<g>
				<path class="st3" d="M349.5,735.9c-0.6,1-1.8,1.3-2.7,0.7l-60.6-35c-1-0.5-1.3-1.8-0.7-2.7c0.5-1,1.8-1.3,2.7-0.7l60.6,35
					C349.7,733.7,350,735,349.5,735.9z"/>
			</g>
			<g>
				<path class="st3" d="M349.5,747.9c-0.6,1-1.8,1.3-2.7,0.7l-60.6-35c-1-0.5-1.3-1.8-0.7-2.7c0.5-1,1.8-1.3,2.7-0.7l60.6,35
					C349.7,745.7,350,747,349.5,747.9z"/>
			</g>
			<g>
				<path class="st3" d="M349.5,759.9c-0.6,1-1.8,1.3-2.7,0.7l-60.6-35c-1-0.5-1.3-1.8-0.7-2.7c0.5-1,1.8-1.3,2.7-0.7l60.6,35
					C349.7,757.7,350,759,349.5,759.9z"/>
			</g>
			<g>
				<g>
					<line class="st4" x1="350.7" y1="715.4" x2="326.4" y2="701.3"/>
					<circle class="st5" cx="321.4" cy="698.3" r="2"/>
				</g>
				<g>
					<line class="st4" x1="350.7" y1="706.4" x2="326.4" y2="692.3"/>
					<circle class="st5" cx="321.4" cy="689.3" r="2"/>
				</g>
				<g>
					<line class="st4" x1="350.7" y1="696.4" x2="326.4" y2="682.3"/>
					<circle class="st5" cx="321.4" cy="679.3" r="2"/>
				</g>
				<g>
					<line class="st4" x1="312.7" y1="693.4" x2="288.4" y2="679.3"/>
					<circle class="st5" cx="283.4" cy="676.3" r="2"/>
				</g>
				<g>
					<line class="st4" x1="350.7" y1="724.4" x2="326.4" y2="710.3"/>
					<circle class="st5" cx="321.4" cy="707.3" r="2"/>
				</g>
				<g>
					<line class="st4" x1="312.7" y1="702.4" x2="288.4" y2="688.3"/>
					<circle class="st5" cx="283.4" cy="685.3" r="2"/>
				</g>
				<g>
					<line class="st4" x1="312.7" y1="684.4" x2="288.4" y2="670.3"/>
					<circle class="st5" cx="283.4" cy="667.3" r="2"/>
				</g>
				<g>
					<line class="st4" x1="312.7" y1="674.4" x2="288.4" y2="660.3"/>
					<circle class="st5" cx="283.4" cy="657.3" r="2"/>
				</g>
			</g>
			<circle class="st6" cx="286" cy="647.1" r="3.5"/>
			<circle class="st7" cx="295.4" cy="652.6" r="3.5"/>
			<line class="st8" x1="422.7" y1="734" x2="440" y2="724"/>
			<line class="st8" x1="422.7" y1="730" x2="440" y2="720"/>
			<line class="st8" x1="422.7" y1="726" x2="440" y2="716"/>
			<line class="st8" x1="422.7" y1="722" x2="440" y2="712"/>
			<line class="st8" x1="422.7" y1="718" x2="440" y2="708"/>
		</g>
	</g>
</g>
</svg>
