<?xml version="1.0" encoding="utf-8"?>
<!-- Generator: Adobe Illustrator 18.1.0, SVG Export Plug-In . SVG Version: 6.00 Build 0)  -->
<svg version="1.1" xmlns="http://www.w3.org/2000/svg" xmlns:xlink="http://www.w3.org/1999/xlink" x="0px" y="0px"
	 width="1998.6px" height="1429.4px" viewBox="0 0 1998.6 1429.4" style="enable-background:new 0 0 1998.6 1429.4;"
	 xml:space="preserve">
<style type="text/css">
	.st0{display:none;}
	.st1{display:inline;fill:#4B28A2;}
	.st2{opacity:0.2;fill:#6089EF;}
</style>
<g id="Layer_2" class="st0">
	<rect y="0" class="st1" width="1998.6" height="1429.4"/>
</g>
<g id="main">
	<rect x="1480.3" y="956" class="st2" width="310.6" height="310.6"/>
	<rect x="1606.9" y="44.2" class="st2" width="140.6" height="140.6"/>
	<rect x="547.5" y="655.8" class="st2" width="193.4" height="193.4"/>
	<rect x="1276.5" y="559.8" class="st2" width="245.4" height="245.4"/>
	<rect x="1117.2" y="173.8" class="st2" width="194.5" height="194.5"/>
	<rect x="907.7" y="496.3" class="st2" width="212.2" height="212.2"/>
	<rect x="152.5" y="114.5" class="st2" width="116" height="116"/>
	<rect x="680.5" y="142.5" class="st2" width="142" height="142"/>
	<rect x="975.8" y="923" class="st2" width="238.6" height="238.6"/>
	<rect x="496.8" y="997" class="st2" width="193.4" height="193.4"/>
	<rect x="1635.6" y="309.7" class="st2" width="194.5" height="194.5"/>
	<rect x="229.4" y="645.6" class="st2" width="138.1" height="138.1"/>
	<rect x="487.9" y="368.3" class="st2" width="159.6" height="159.6"/>
	<rect x="152.5" y="973.2" class="st2" width="138.1" height="138.1"/>
	<rect x="244.3" y="324.7" class="st2" width="135.2" height="135.2"/>
	<rect x="-58" y="44.2" class="st2" width="116" height="116"/>
	<rect x="-26.5" y="390.1" class="st2" width="116" height="116"/>
	<rect x="-58" y="791.2" class="st2" width="116" height="116"/>
	<rect x="-26.5" y="1174.5" class="st2" width="116" height="116"/>
	<rect x="415.7" y="-37.5" class="st2" width="116" height="116"/>
	<rect x="897.8" y="-71.8" class="st2" width="116" height="116"/>
	<rect x="1322.5" y="-13.8" class="st2" width="116" height="116"/>
	<rect x="1856.6" y="638.9" class="st2" width="194.5" height="194.5"/>
	<rect x="1942.3" y="1161.6" class="st2" width="310.6" height="310.6"/>
	<rect x="1131.1" y="1370.9" class="st2" width="238.6" height="238.6"/>
	<rect x="664.8" y="1332.7" class="st2" width="193.4" height="193.4"/>
	<rect x="221.6" y="1316.9" class="st2" width="138.1" height="138.1"/>
</g>
</svg>
