<?xml version="1.0" encoding="utf-8"?>
<!-- Generator: Adobe Illustrator 18.1.0, SVG Export Plug-In . SVG Version: 6.00 Build 0)  -->
<svg version="1.1" id="main" xmlns="http://www.w3.org/2000/svg" xmlns:xlink="http://www.w3.org/1999/xlink" x="0px" y="0px"
	 width="1998.6px" height="1429.4px" viewBox="0 0 1998.6 1429.4" style="enable-background:new 0 0 1998.6 1429.4;"
	 xml:space="preserve">
<style type="text/css">
	.st0{opacity:0.2;}
	.st1{fill:#BCCCD8;}
	.st2{fill:#C0DBFC;}
	.st3{fill:#BAD0E0;}
	.st4{fill:#C0DEF2;}
	.st5{fill:#D9F0FF;}
	.st6{fill:#D1DBE8;}
</style>
<g class="st0">
	<polygon class="st1" points="436,140 323,305 210,140 323,-25 	"/>
	<polygon class="st1" points="323,965 210,1130 97,965 210,800 	"/>
	<polygon class="st1" points="888,470 775,635 662,470 775,305 	"/>
	<polygon class="st1" points="549,635 436,800 323,635 436,470 	"/>
	<polygon class="st1" points="1227,-25 1114,140 1001,-25 1114,-190 	"/>
	<polygon class="st1" points="1453,305 1340,470 1227,305 1340,140 	"/>
	<polygon class="st1" points="1114,800 1001,965 888,800 1001,635 	"/>
	<polygon class="st1" points="1792,140 1679,305 1566,140 1679,-25 	"/>
	<polygon class="st1" points="2018,800 1905,965 1792,800 1905,635 	"/>
	<polygon class="st1" points="2131,305 2018,470 1905,305 2018,140 	"/>
	<polygon class="st1" points="1001,1295 888,1460 775,1295 888,1130 	"/>
	<polygon class="st1" points="1227,1295 1114,1460 1001,1295 1114,1130 	"/>
	<polygon class="st1" points="549,1295 436,1460 323,1295 436,1130 	"/>
	<polygon class="st1" points="1792,1130 1679,1295 1566,1130 1679,965 	"/>
</g>
<g class="st0">
	<polygon class="st2" points="97,305 -16,470 -129,305 -16,140 	"/>
	<polygon class="st2" points="97,965 -16,1130 -129,965 -16,800 	"/>
	<polygon class="st2" points="436,800 323,965 210,800 323,635 	"/>
	<polygon class="st2" points="888,1130 775,1295 662,1130 775,965 	"/>
	<polygon class="st2" points="1679,-25 1566,140 1453,-25 1566,-190 	"/>
	<polygon class="st2" points="1340,140 1227,305 1114,140 1227,-25 	"/>
	<polygon class="st2" points="1001,635 888,800 775,635 888,470 	"/>
	<polygon class="st2" points="1340,1130 1227,1295 1114,1130 1227,965 	"/>
	<polygon class="st2" points="1566,800 1453,965 1340,800 1453,635 	"/>
	<polygon class="st2" points="2131,635 2018,800 1905,635 2018,470 	"/>
	<polygon class="st2" points="662,1460 549,1625 436,1460 549,1295 	"/>
	<polygon class="st2" points="1566,1460 1453,1625 1340,1460 1453,1295 	"/>
</g>
<g class="st0">
	<polygon class="st3" points="97,635 -16,800 -129,635 -16,470 	"/>
	<polygon class="st3" points="323,1295 210,1460 97,1295 210,1130 	"/>
	<polygon class="st3" points="97,1295 -16,1460 -129,1295 -16,1130 	"/>
	<polygon class="st3" points="775,-25 662,140 549,-25 662,-190 	"/>
	<polygon class="st3" points="1114,140 1001,305 888,140 1001,-25 	"/>
	<polygon class="st3" points="775,305 662,470 549,305 662,140 	"/>
	<polygon class="st3" points="662,1130 549,1295 436,1130 549,965 	"/>
	<polygon class="st3" points="1114,470 1001,635 888,470 1001,305 	"/>
	<polygon class="st3" points="1340,800 1227,965 1114,800 1227,635 	"/>
	<polygon class="st3" points="2131,-25 2018,140 1905,-25 2018,-190 	"/>
	<polygon class="st3" points="1905,-25 1792,140 1679,-25 1792,-190 	"/>
	<polygon class="st3" points="1792,470 1679,635 1566,470 1679,305 	"/>
	<polygon class="st3" points="1566,470 1453,635 1340,470 1453,305 	"/>
	<polygon class="st3" points="1792,800 1679,965 1566,800 1679,635 	"/>
	<polygon class="st3" points="1114,1130 1001,1295 888,1130 1001,965 	"/>
	<polygon class="st3" points="1340,1460 1227,1625 1114,1460 1227,1295 	"/>
	<polygon class="st3" points="2131,1295 2018,1460 1905,1295 2018,1130 	"/>
</g>
<g class="st0">
	<polygon class="st4" points="97,-25 -16,140 -129,-25 -16,-190 	"/>
	<polygon class="st4" points="323,305 210,470 97,305 210,140 	"/>
	<polygon class="st4" points="210,800 97,965 -16,800 97,635 	"/>
	<polygon class="st4" points="210,1460 97,1625 -16,1460 97,1295 	"/>
	<polygon class="st4" points="436,1130 323,1295 210,1130 323,965 	"/>
	<polygon class="st4" points="662,140 549,305 436,140 549,-25 	"/>
	<polygon class="st4" points="1001,305 888,470 775,305 888,140 	"/>
	<polygon class="st4" points="662,800 549,965 436,800 549,635 	"/>
	<polygon class="st4" points="662,470 549,635 436,470 549,305 	"/>
	<polygon class="st4" points="775,1295 662,1460 549,1295 662,1130 	"/>
	<polygon class="st4" points="1001,965 888,1130 775,965 888,800 	"/>
	<polygon class="st4" points="1340,470 1227,635 1114,470 1227,305 	"/>
	<polygon class="st4" points="1227,965 1114,1130 1001,965 1114,800 	"/>
	<polygon class="st4" points="2018,140 1905,305 1792,140 1905,-25 	"/>
	<polygon class="st4" points="1679,305 1566,470 1453,305 1566,140 	"/>
	<polygon class="st4" points="1905,635 1792,800 1679,635 1792,470 	"/>
	<polygon class="st4" points="1679,965 1566,1130 1453,965 1566,800 	"/>
	<polygon class="st4" points="1453,1295 1340,1460 1227,1295 1340,1130 	"/>
	<polygon class="st4" points="2018,1130 1905,1295 1792,1130 1905,965 	"/>
	<polygon class="st4" points="1792,1460 1679,1625 1566,1460 1679,1295 	"/>
</g>
<g class="st0">
	<polygon class="st5" points="210,140 97,305 -16,140 97,-25 	"/>
	<polygon class="st5" points="323,635 210,800 97,635 210,470 	"/>
	<polygon class="st5" points="549,305 436,470 323,305 436,140 	"/>
	<polygon class="st5" points="549,-25 436,140 323,-25 436,-190 	"/>
	<polygon class="st5" points="1001,-25 888,140 775,-25 888,-190 	"/>
	<polygon class="st5" points="549,965 436,1130 323,965 436,800 	"/>
	<polygon class="st5" points="888,800 775,965 662,800 775,635 	"/>
	<polygon class="st5" points="1566,140 1453,305 1340,140 1453,-25 	"/>
	<polygon class="st5" points="1227,305 1114,470 1001,305 1114,140 	"/>
	<polygon class="st5" points="1453,635 1340,800 1227,635 1340,470 	"/>
	<polygon class="st5" points="1679,635 1566,800 1453,635 1566,470 	"/>
	<polygon class="st5" points="2018,470 1905,635 1792,470 1905,305 	"/>
	<polygon class="st5" points="1114,1460 1001,1625 888,1460 1001,1295 	"/>
	<polygon class="st5" points="436,1460 323,1625 210,1460 323,1295 	"/>
	<polygon class="st5" points="1566,1130 1453,1295 1340,1130 1453,965 	"/>
	<polygon class="st5" points="2131,965 2018,1130 1905,965 2018,800 	"/>
	<polygon class="st5" points="1905,1295 1792,1460 1679,1295 1792,1130 	"/>
</g>
<g class="st0">
	<polygon class="st6" points="323,-25 210,140 97,-25 210,-190 	"/>
	<polygon class="st6" points="436,470 323,635 210,470 323,305 	"/>
	<polygon class="st6" points="210,470 97,635 -16,470 97,305 	"/>
	<polygon class="st6" points="210,1130 97,1295 -16,1130 97,965 	"/>
	<polygon class="st6" points="888,140 775,305 662,140 775,-25 	"/>
	<polygon class="st6" points="775,635 662,800 549,635 662,470 	"/>
	<polygon class="st6" points="775,965 662,1130 549,965 662,800 	"/>
	<polygon class="st6" points="1453,-25 1340,140 1227,-25 1340,-190 	"/>
	<polygon class="st6" points="1227,635 1114,800 1001,635 1114,470 	"/>
	<polygon class="st6" points="1453,965 1340,1130 1227,965 1340,800 	"/>
	<polygon class="st6" points="1905,305 1792,470 1679,305 1792,140 	"/>
	<polygon class="st6" points="1905,965 1792,1130 1679,965 1792,800 	"/>
	<polygon class="st6" points="1679,1295 1566,1460 1453,1295 1566,1130 	"/>
	<polygon class="st6" points="2018,1460 1905,1625 1792,1460 1905,1295 	"/>
	<polygon class="st6" points="888,1460 775,1625 662,1460 775,1295 	"/>
</g>
</svg>
