<?xml version="1.0" encoding="UTF-8" standalone="no"?>
<!-- Created with Inkscape (http://www.inkscape.org/) -->

<svg
   xmlns:dc="http://purl.org/dc/elements/1.1/"
   xmlns:cc="http://creativecommons.org/ns#"
   xmlns:rdf="http://www.w3.org/1999/02/22-rdf-syntax-ns#"
   xmlns:svg="http://www.w3.org/2000/svg"
   xmlns="http://www.w3.org/2000/svg"
   xmlns:sodipodi="http://sodipodi.sourceforge.net/DTD/sodipodi-0.dtd"
   xmlns:inkscape="http://www.inkscape.org/namespaces/inkscape"
   width="462.18289"
   height="147.88774"
   id="svg5877"
   version="1.1"
   inkscape:version="0.48.4 r9939"
   sodipodi:docname="use_lan.svg">
  <defs
     id="defs5879" />
  <sodipodi:namedview
     id="base"
     pagecolor="#000000"
     bordercolor="#666666"
     borderopacity="1.0"
     inkscape:pageopacity="0.88235294"
     inkscape:pageshadow="2"
     inkscape:zoom="2.8"
     inkscape:cx="246.4319"
     inkscape:cy="36.186678"
     inkscape:document-units="px"
     inkscape:current-layer="layer1"
     showgrid="false"
     inkscape:snap-center="true"
     inkscape:window-width="1914"
     inkscape:window-height="998"
     inkscape:window-x="0"
     inkscape:window-y="27"
     inkscape:window-maximized="1"
     fit-margin-top="0"
     fit-margin-left="0"
     fit-margin-right="0"
     fit-margin-bottom="0"
     showguides="true"
     inkscape:guide-bbox="true">
    <sodipodi:guide
       orientation="0,1"
       position="50.568569,79.08635"
       id="guide6700" />
    <sodipodi:guide
       orientation="0,1"
       position="278.35796,114.44169"
       id="guide6702" />
    <sodipodi:guide
       orientation="0,1"
       position="268.76151,42.720855"
       id="guide6704" />
  </sodipodi:namedview>
  <metadata
     id="metadata5882">
    <rdf:RDF>
      <cc:Work
         rdf:about="">
        <dc:format>image/svg+xml</dc:format>
        <dc:type
           rdf:resource="http://purl.org/dc/dcmitype/StillImage" />
        <dc:title />
      </cc:Work>
    </rdf:RDF>
  </metadata>
  <g
     inkscape:label="Layer 1"
     inkscape:groupmode="layer"
     id="layer1"
     transform="translate(5740.2211,-2909.6953)">
    <g
       id="g4540"
       transform="matrix(0.03926931,0,0,-0.03964222,-5447.9158,3003.9615)"
       style="fill:#ffffff;fill-opacity:1">
      <path
         id="path4542"
         d="m 384,224 v -64 q 0,-13 -9.5,-22.5 Q 365,128 352,128 h -64 q -13,0 -22.5,9.5 Q 256,147 256,160 v 64 q 0,13 9.5,22.5 9.5,9.5 22.5,9.5 h 64 q 13,0 22.5,-9.5 Q 384,237 384,224 z m 0,256 v -64 q 0,-13 -9.5,-22.5 Q 365,384 352,384 h -64 q -13,0 -22.5,9.5 Q 256,403 256,416 v 64 q 0,13 9.5,22.5 9.5,9.5 22.5,9.5 h 64 q 13,0 22.5,-9.5 Q 384,493 384,480 z m 256,0 v -64 q 0,-13 -9.5,-22.5 Q 621,384 608,384 h -64 q -13,0 -22.5,9.5 Q 512,403 512,416 v 64 q 0,13 9.5,22.5 9.5,9.5 22.5,9.5 h 64 q 13,0 22.5,-9.5 Q 640,493 640,480 z M 384,736 v -64 q 0,-13 -9.5,-22.5 Q 365,640 352,640 h -64 q -13,0 -22.5,9.5 Q 256,659 256,672 v 64 q 0,13 9.5,22.5 9.5,9.5 22.5,9.5 h 64 q 13,0 22.5,-9.5 Q 384,749 384,736 z m 768,-512 v -64 q 0,-13 -9.5,-22.5 Q 1133,128 1120,128 h -64 q -13,0 -22.5,9.5 -9.5,9.5 -9.5,22.5 v 64 q 0,13 9.5,22.5 9.5,9.5 22.5,9.5 h 64 q 13,0 22.5,-9.5 9.5,-9.5 9.5,-22.5 z M 896,480 v -64 q 0,-13 -9.5,-22.5 Q 877,384 864,384 h -64 q -13,0 -22.5,9.5 Q 768,403 768,416 v 64 q 0,13 9.5,22.5 9.5,9.5 22.5,9.5 h 64 q 13,0 22.5,-9.5 Q 896,493 896,480 z M 640,736 v -64 q 0,-13 -9.5,-22.5 Q 621,640 608,640 h -64 q -13,0 -22.5,9.5 Q 512,659 512,672 v 64 q 0,13 9.5,22.5 9.5,9.5 22.5,9.5 h 64 q 13,0 22.5,-9.5 Q 640,749 640,736 z M 384,992 v -64 q 0,-13 -9.5,-22.5 Q 365,896 352,896 h -64 q -13,0 -22.5,9.5 Q 256,915 256,928 v 64 q 0,13 9.5,22.5 9.5,9.5 22.5,9.5 h 64 q 13,0 22.5,-9.5 9.5,-9.5 9.5,-22.5 z m 768,-512 v -64 q 0,-13 -9.5,-22.5 Q 1133,384 1120,384 h -64 q -13,0 -22.5,9.5 -9.5,9.5 -9.5,22.5 v 64 q 0,13 9.5,22.5 9.5,9.5 22.5,9.5 h 64 q 13,0 22.5,-9.5 9.5,-9.5 9.5,-22.5 z M 896,736 v -64 q 0,-13 -9.5,-22.5 Q 877,640 864,640 h -64 q -13,0 -22.5,9.5 Q 768,659 768,672 v 64 q 0,13 9.5,22.5 9.5,9.5 22.5,9.5 h 64 q 13,0 22.5,-9.5 Q 896,749 896,736 z M 640,992 v -64 q 0,-13 -9.5,-22.5 Q 621,896 608,896 h -64 q -13,0 -22.5,9.5 Q 512,915 512,928 v 64 q 0,13 9.5,22.5 9.5,9.5 22.5,9.5 h 64 q 13,0 22.5,-9.5 9.5,-9.5 9.5,-22.5 z m -256,256 v -64 q 0,-13 -9.5,-22.5 Q 365,1152 352,1152 h -64 q -13,0 -22.5,9.5 -9.5,9.5 -9.5,22.5 v 64 q 0,13 9.5,22.5 9.5,9.5 22.5,9.5 h 64 q 13,0 22.5,-9.5 9.5,-9.5 9.5,-22.5 z m 768,-512 v -64 q 0,-13 -9.5,-22.5 Q 1133,640 1120,640 h -64 q -13,0 -22.5,9.5 -9.5,9.5 -9.5,22.5 v 64 q 0,13 9.5,22.5 9.5,9.5 22.5,9.5 h 64 q 13,0 22.5,-9.5 9.5,-9.5 9.5,-22.5 z M 896,992 v -64 q 0,-13 -9.5,-22.5 Q 877,896 864,896 h -64 q -13,0 -22.5,9.5 Q 768,915 768,928 v 64 q 0,13 9.5,22.5 9.5,9.5 22.5,9.5 h 64 q 13,0 22.5,-9.5 9.5,-9.5 9.5,-22.5 z m -256,256 v -64 q 0,-13 -9.5,-22.5 Q 621,1152 608,1152 h -64 q -13,0 -22.5,9.5 -9.5,9.5 -9.5,22.5 v 64 q 0,13 9.5,22.5 9.5,9.5 22.5,9.5 h 64 q 13,0 22.5,-9.5 9.5,-9.5 9.5,-22.5 z m 512,-256 v -64 q 0,-13 -9.5,-22.5 Q 1133,896 1120,896 h -64 q -13,0 -22.5,9.5 -9.5,9.5 -9.5,22.5 v 64 q 0,13 9.5,22.5 9.5,9.5 22.5,9.5 h 64 q 13,0 22.5,-9.5 9.5,-9.5 9.5,-22.5 z m -256,256 v -64 q 0,-13 -9.5,-22.5 Q 877,1152 864,1152 h -64 q -13,0 -22.5,9.5 -9.5,9.5 -9.5,22.5 v 64 q 0,13 9.5,22.5 9.5,9.5 22.5,9.5 h 64 q 13,0 22.5,-9.5 9.5,-9.5 9.5,-22.5 z m 256,0 v -64 q 0,-13 -9.5,-22.5 -9.5,-9.5 -22.5,-9.5 h -64 q -13,0 -22.5,9.5 -9.5,9.5 -9.5,22.5 v 64 q 0,13 9.5,22.5 9.5,9.5 22.5,9.5 h 64 q 13,0 22.5,-9.5 9.5,-9.5 9.5,-22.5 z M 896,-128 h 384 V 1408 H 128 V -128 H 512 V 96 q 0,13 9.5,22.5 9.5,9.5 22.5,9.5 h 320 q 13,0 22.5,-9.5 Q 896,109 896,96 v -224 z m 512,1600 V -192 q 0,-26 -19,-45 -19,-19 -45,-19 H 64 q -26,0 -45,19 -19,19 -19,45 v 1664 q 0,26 19,45 19,19 45,19 h 1280 q 26,0 45,-19 19,-19 19,-45 z"
         inkscape:connector-curvature="0"
         style="fill:#ffffff;fill-opacity:1" />
    </g>
    <path
       style="fill:none;stroke:#ffffff;stroke-width:5.05028152000000041;stroke-linecap:butt;stroke-linejoin:miter;stroke-miterlimit:4;stroke-opacity:1;stroke-dasharray:10.10056306000000070, 5.05028153000000035;stroke-dashoffset:0"
       d="m -5591.1452,2978.3921 45.0135,0"
       id="path5757"
       inkscape:connector-curvature="0" />
    <path
       style="fill:none;stroke:#ffffff;stroke-width:5.05028152000000041;stroke-linecap:butt;stroke-linejoin:miter;stroke-miterlimit:4;stroke-opacity:1;stroke-dasharray:10.10056306000000070, 5.05028153000000035;stroke-dashoffset:0"
       d="m -5445.7622,2978.3921 -44.8792,0"
       id="path5753"
       inkscape:connector-curvature="0" />
    <g
       id="g4633"
       transform="matrix(0.03926931,0,0,-0.03964222,-5553.9392,3003.345)">
      <path
         id="path4635"
         d="M 1920,384 Q 1920,225 1807.5,112.5 1695,0 1536,0 H 448 Q 263,0 131.5,131.5 0,263 0,448 0,580 71,689.5 142,799 258,853 q -2,28 -2,43 0,212 150,362 150,150 362,150 158,0 286.5,-88 128.5,-88 187.5,-230 70,62 166,62 106,0 181,-75 75,-75 75,-181 0,-75 -41,-138 129,-30 213,-134.5 84,-104.5 84,-239.5 z"
         inkscape:connector-curvature="0"
         style="fill:#ffffff" />
    </g>
    <path
       style="fill:none;stroke:#ffffff;stroke-width:5.05028152000000041;stroke-linecap:butt;stroke-linejoin:miter;stroke-miterlimit:4;stroke-opacity:1;stroke-dasharray:10.10056306000000070, 5.05028153000000035;stroke-dashoffset:0"
       d="m -5668.9957,2978.3921 58.7918,0"
       id="path5755"
       inkscape:connector-curvature="0" />
    <g
       id="g4826"
       transform="matrix(0.03926931,0,0,-0.03964222,-5739.7241,3009.0032)"
       style="fill:#ffffff;fill-opacity:1">
      <path
         id="path4828"
         d="m 1792,544 v 832 q 0,13 -9.5,22.5 -9.5,9.5 -22.5,9.5 H 160 q -13,0 -22.5,-9.5 Q 128,1389 128,1376 V 544 q 0,-13 9.5,-22.5 Q 147,512 160,512 h 1600 q 13,0 22.5,9.5 9.5,9.5 9.5,22.5 z m 128,832 V 288 q 0,-66 -47,-113 -47,-47 -113,-47 h -544 q 0,-37 16,-77.5 16,-40.5 32,-71 16,-30.5 16,-43.5 0,-26 -19,-45 -19,-19 -45,-19 H 704 q -26,0 -45,19 -19,19 -19,45 0,14 16,44 16,30 32,70 16,40 16,78 H 160 Q 94,128 47,175 0,222 0,288 v 1088 q 0,66 47,113 47,47 113,47 h 1600 q 66,0 113,-47 47,-47 47,-113 z"
         inkscape:connector-curvature="0"
         style="fill:#ffffff;fill-opacity:1" />
    </g>
    <g
       id="g4826-2-3"
       transform="matrix(0.03926931,0,0,-0.03964222,-5353.4353,2970.5857)"
       style="fill:#ffffff;fill-opacity:1">
      <path
         id="path4828-3-1"
         d="m 1792,544 v 832 q 0,13 -9.5,22.5 -9.5,9.5 -22.5,9.5 H 160 q -13,0 -22.5,-9.5 Q 128,1389 128,1376 V 544 q 0,-13 9.5,-22.5 Q 147,512 160,512 h 1600 q 13,0 22.5,9.5 9.5,9.5 9.5,22.5 z m 128,832 V 288 q 0,-66 -47,-113 -47,-47 -113,-47 h -544 q 0,-37 16,-77.5 16,-40.5 32,-71 16,-30.5 16,-43.5 0,-26 -19,-45 -19,-19 -45,-19 H 704 q -26,0 -45,19 -19,19 -19,45 0,14 16,44 16,30 32,70 16,40 16,78 H 160 Q 94,128 47,175 0,222 0,288 v 1088 q 0,66 47,113 47,47 113,47 h 1600 q 66,0 113,-47 47,-47 47,-113 z"
         inkscape:connector-curvature="0"
         style="fill:#ffffff;fill-opacity:1" />
    </g>
    <g
       id="g4826-2-3-7"
       transform="matrix(0.03926931,0,0,-0.03964222,-5353.4547,3043.0442)"
       style="fill:#ffffff;fill-opacity:1">
      <path
         id="path4828-3-1-1"
         d="m 1792,544 v 832 q 0,13 -9.5,22.5 -9.5,9.5 -22.5,9.5 H 160 q -13,0 -22.5,-9.5 Q 128,1389 128,1376 V 544 q 0,-13 9.5,-22.5 Q 147,512 160,512 h 1600 q 13,0 22.5,9.5 9.5,9.5 9.5,22.5 z m 128,832 V 288 q 0,-66 -47,-113 -47,-47 -113,-47 h -544 q 0,-37 16,-77.5 16,-40.5 32,-71 16,-30.5 16,-43.5 0,-26 -19,-45 -19,-19 -45,-19 H 704 q -26,0 -45,19 -19,19 -19,45 0,14 16,44 16,30 32,70 16,40 16,78 H 160 Q 94,128 47,175 0,222 0,288 v 1088 q 0,66 47,113 47,47 113,47 h 1600 q 66,0 113,-47 47,-47 47,-113 z"
         inkscape:connector-curvature="0"
         style="fill:#ffffff;fill-opacity:1" />
    </g>
    <g
       style="font-size:40px;font-style:normal;font-weight:normal;line-height:89.99999762%;letter-spacing:0px;word-spacing:0px;fill:#ffffff;fill-opacity:1;stroke:none;font-family:Sans"
       id="text6492">
      <path
         d="m -5438.8863,3029.479 c 0,0.992 -0.144,1.888 -0.432,2.688 -0.288,0.8 -0.696,1.488 -1.224,2.064 -0.512,0.576 -1.128,1.024 -1.848,1.344 -0.72,0.304 -1.504,0.456 -2.352,0.456 -0.848,0 -1.632,-0.152 -2.352,-0.456 -0.72,-0.32 -1.344,-0.768 -1.872,-1.344 -0.512,-0.576 -0.912,-1.264 -1.2,-2.064 -0.288,-0.8 -0.432,-1.696 -0.432,-2.688 0,-0.976 0.144,-1.864 0.432,-2.664 0.288,-0.816 0.688,-1.512 1.2,-2.088 0.528,-0.576 1.152,-1.016 1.872,-1.32 0.72,-0.32 1.504,-0.48 2.352,-0.48 0.848,0 1.632,0.16 2.352,0.48 0.72,0.304 1.336,0.744 1.848,1.32 0.528,0.576 0.936,1.272 1.224,2.088 0.288,0.8 0.432,1.688 0.432,2.664 m -2.328,0 c 0,-1.408 -0.32,-2.52 -0.96,-3.336 -0.624,-0.832 -1.48,-1.248 -2.568,-1.248 -1.088,0 -1.952,0.416 -2.592,1.248 -0.624,0.816 -0.936,1.928 -0.936,3.336 0,1.408 0.312,2.528 0.936,3.36 0.64,0.816 1.504,1.224 2.592,1.224 1.088,0 1.944,-0.408 2.568,-1.224 0.64,-0.832 0.96,-1.952 0.96,-3.36"
         style="font-size:24px;text-align:center;line-height:89.99999762%;text-anchor:middle;fill:#ffffff;font-family:Ubuntu;-inkscape-font-specification:Ubuntu"
         id="path3038"
         inkscape:connector-curvature="0" />
      <path
         d="m -5430.874,3017.095 c 0.656,0 1.216,0.048 1.68,0.144 0.48,0.096 0.816,0.184 1.008,0.264 l -0.408,1.92 c -0.192,-0.096 -0.464,-0.184 -0.816,-0.264 -0.352,-0.096 -0.784,-0.144 -1.296,-0.144 -1.04,0 -1.768,0.288 -2.184,0.864 -0.416,0.56 -0.624,1.32 -0.624,2.28 l 0,1.08 4.8,0 0,1.872 -4.8,0 0,10.608 -2.232,0 0,-13.608 c 0,-1.6 0.392,-2.832 1.176,-3.696 0.784,-0.88 2.016,-1.32 3.696,-1.32 m 9.36,0 c 0.56,0 1.04,0.04 1.44,0.12 0.4,0.064 0.688,0.128 0.864,0.192 l -0.312,1.92 c -0.176,-0.064 -0.416,-0.128 -0.72,-0.192 -0.304,-0.08 -0.672,-0.12 -1.104,-0.12 -1.04,0 -1.768,0.288 -2.184,0.864 -0.416,0.56 -0.624,1.32 -0.624,2.28 l 0,1.08 4.8,0 0,1.872 -4.8,0 0,10.608 -2.232,0 0,-13.608 c 0,-1.6 0.392,-2.832 1.176,-3.696 0.784,-0.88 2.016,-1.32 3.696,-1.32 m 6.72,18.624 -2.232,0 0,-12.48 2.232,0 0,12.48 m -1.128,-14.736 c -0.4,0 -0.744,-0.128 -1.032,-0.384 -0.272,-0.272 -0.408,-0.632 -0.408,-1.08 0,-0.448 0.136,-0.8 0.408,-1.056 0.288,-0.272 0.632,-0.408 1.032,-0.408 0.4,0 0.736,0.136 1.008,0.408 0.288,0.256 0.432,0.608 0.432,1.056 0,0.448 -0.144,0.808 -0.432,1.08 -0.272,0.256 -0.608,0.384 -1.008,0.384"
         style="font-size:24px;text-align:center;line-height:89.99999762%;text-anchor:middle;fill:#ffffff;font-family:Ubuntu;-inkscape-font-specification:Ubuntu"
         id="path3040"
         inkscape:connector-curvature="0" />
      <path
         d="m -5405.5251,3036.007 c -1.008,0 -1.896,-0.16 -2.664,-0.48 -0.752,-0.32 -1.392,-0.768 -1.92,-1.344 -0.512,-0.576 -0.896,-1.256 -1.152,-2.04 -0.256,-0.8 -0.384,-1.68 -0.384,-2.64 0,-0.96 0.136,-1.84 0.408,-2.64 0.288,-0.8 0.688,-1.488 1.2,-2.064 0.512,-0.592 1.136,-1.048 1.872,-1.368 0.752,-0.336 1.584,-0.504 2.496,-0.504 0.56,0 1.12,0.048 1.68,0.144 0.5599,0.096 1.0959,0.248 1.608,0.456 l -0.504,1.896 c -0.3361,-0.16 -0.728,-0.288 -1.176,-0.384 -0.432,-0.096 -0.896,-0.144 -1.392,-0.144 -1.248,0 -2.208,0.392 -2.88,1.176 -0.656,0.784 -0.984,1.928 -0.984,3.432 0,0.672 0.072,1.288 0.216,1.848 0.16,0.56 0.4,1.04 0.72,1.44 0.336,0.4 0.76,0.712 1.272,0.936 0.512,0.208 1.136,0.312 1.872,0.312 0.592,0 1.128,-0.056 1.608,-0.168 0.4799,-0.112 0.8559,-0.232 1.128,-0.36 l 0.312,1.872 c -0.1281,0.08 -0.3121,0.16 -0.552,0.24 -0.2401,0.064 -0.5121,0.12 -0.816,0.168 -0.304,0.064 -0.632,0.112 -0.984,0.144 -0.336,0.048 -0.664,0.072 -0.984,0.072"
         style="font-size:24px;text-align:center;line-height:89.99999762%;text-anchor:middle;fill:#ffffff;font-family:Ubuntu;-inkscape-font-specification:Ubuntu"
         id="path3042"
         inkscape:connector-curvature="0" />
      <path
         d="m -5400.4889,3029.503 c 0,-1.104 0.16,-2.064 0.48,-2.88 0.32,-0.832 0.744,-1.52 1.272,-2.064 0.528,-0.544 1.136,-0.952 1.824,-1.224 0.688,-0.272 1.392,-0.408 2.112,-0.408 1.68,0 2.968,0.528 3.864,1.584 0.896,1.04 1.344,2.632 1.344,4.776 0,0.096 0,0.224 0,0.384 0,0.144 -0.01,0.28 -0.024,0.408 l -8.544,0 c 0.096,1.296 0.472,2.28 1.128,2.952 0.656,0.672 1.68,1.008 3.072,1.008 0.784,0 1.44,-0.064 1.968,-0.192 0.544,-0.144 0.952,-0.28 1.224,-0.408 l 0.312,1.872 c -0.272,0.144 -0.752,0.296 -1.44,0.456 -0.672,0.16 -1.44,0.24 -2.304,0.24 -1.088,0 -2.032,-0.16 -2.832,-0.48 -0.784,-0.336 -1.432,-0.792 -1.944,-1.368 -0.512,-0.576 -0.896,-1.256 -1.152,-2.04 -0.24,-0.8 -0.36,-1.672 -0.36,-2.616 m 8.568,-1.224 c 0.016,-1.008 -0.24,-1.832 -0.768,-2.472 -0.512,-0.656 -1.224,-0.984 -2.136,-0.984 -0.512,0 -0.968,0.104 -1.368,0.312 -0.384,0.192 -0.712,0.448 -0.984,0.768 -0.272,0.32 -0.488,0.688 -0.648,1.104 -0.144,0.416 -0.24,0.84 -0.288,1.272 l 6.192,0"
         style="font-size:24px;text-align:center;line-height:89.99999762%;text-anchor:middle;fill:#ffffff;font-family:Ubuntu;-inkscape-font-specification:Ubuntu"
         id="path3044"
         inkscape:connector-curvature="0" />
      <path
         d="m -5430.8301,3057.559 c -1.376,-0.032 -2.352,-0.328 -2.928,-0.888 -0.576,-0.56 -0.864,-1.432 -0.864,-2.616 l 0,-14.976 2.232,-0.384 0,15 c 0,0.368 0.032,0.672 0.096,0.912 0.064,0.24 0.168,0.432 0.312,0.576 0.144,0.144 0.336,0.256 0.576,0.336 0.24,0.064 0.536,0.12 0.888,0.168 l -0.312,1.872"
         style="font-size:24px;text-align:center;line-height:89.99999762%;text-anchor:middle;fill:#ffffff;font-family:Ubuntu;-inkscape-font-specification:Ubuntu"
         id="path3046"
         inkscape:connector-curvature="0" />
      <path
         d="m -5423.7876,3055.711 c 0.528,0 0.992,-0.01 1.392,-0.024 0.416,-0.032 0.76,-0.08 1.032,-0.144 l 0,-3.72 c -0.16,-0.08 -0.424,-0.144 -0.792,-0.192 -0.352,-0.064 -0.784,-0.096 -1.296,-0.096 -0.336,0 -0.696,0.024 -1.08,0.072 -0.368,0.048 -0.712,0.152 -1.032,0.312 -0.304,0.144 -0.56,0.352 -0.768,0.624 -0.208,0.256 -0.312,0.6 -0.312,1.032 0,0.8 0.256,1.36 0.768,1.68 0.512,0.304 1.208,0.456 2.088,0.456 m -0.192,-11.184 c 0.896,0 1.648,0.12 2.256,0.36 0.624,0.224 1.12,0.552 1.488,0.984 0.3839,0.416 0.6559,0.92 0.816,1.512 0.1599,0.576 0.2399,1.216 0.24,1.92 l 0,7.8 c -0.1921,0.032 -0.4641,0.08 -0.816,0.144 -0.3361,0.048 -0.72,0.096 -1.152,0.144 -0.432,0.048 -0.904,0.088 -1.416,0.12 -0.496,0.048 -0.992,0.072 -1.488,0.072 -0.704,0 -1.352,-0.072 -1.944,-0.216 -0.592,-0.144 -1.104,-0.368 -1.536,-0.672 -0.432,-0.32 -0.768,-0.736 -1.008,-1.248 -0.24,-0.512 -0.36,-1.128 -0.36,-1.848 0,-0.688 0.136,-1.28 0.408,-1.776 0.288,-0.496 0.672,-0.896 1.152,-1.2 0.48,-0.304 1.04,-0.528 1.68,-0.672 0.64,-0.144 1.312,-0.216 2.016,-0.216 0.224,0 0.456,0.016 0.696,0.048 0.24,0.016 0.464,0.048 0.672,0.096 0.224,0.032 0.416,0.064 0.576,0.096 0.16,0.032 0.272,0.056 0.336,0.072 l 0,-0.624 c 0,-0.368 -0.04,-0.728 -0.12,-1.08 -0.08,-0.368 -0.224,-0.688 -0.432,-0.96 -0.208,-0.288 -0.496,-0.512 -0.864,-0.672 -0.352,-0.176 -0.816,-0.264 -1.392,-0.264 -0.736,0 -1.384,0.056 -1.944,0.168 -0.544,0.096 -0.952,0.2 -1.224,0.312 l -0.264,-1.848 c 0.288,-0.128 0.768,-0.248 1.44,-0.36 0.672,-0.128 1.4,-0.192 2.184,-0.192"
         style="font-size:24px;text-align:center;line-height:89.99999762%;text-anchor:middle;fill:#ffffff;font-family:Ubuntu;-inkscape-font-specification:Ubuntu"
         id="path3048"
         inkscape:connector-curvature="0" />
      <path
         d="m -5415.496,3045.199 c 0.512,-0.128 1.192,-0.264 2.04,-0.408 0.848,-0.144 1.824,-0.216 2.928,-0.216 0.992,0 1.816,0.144 2.472,0.432 0.656,0.272 1.176,0.664 1.56,1.176 0.4,0.496 0.68,1.096 0.84,1.8 0.16,0.704 0.24,1.48 0.24,2.328 l 0,7.008 -2.232,0 0,-6.528 c 0,-0.768 -0.056,-1.424 -0.168,-1.968 -0.096,-0.544 -0.264,-0.984 -0.504,-1.32 -0.24,-0.336 -0.56,-0.576 -0.96,-0.72 -0.4,-0.16 -0.896,-0.24 -1.488,-0.24 -0.24,0 -0.488,0.01 -0.744,0.024 -0.256,0.016 -0.504,0.04 -0.744,0.072 -0.224,0.016 -0.432,0.04 -0.624,0.072 -0.176,0.032 -0.304,0.056 -0.384,0.072 l 0,10.536 -2.232,0 0,-12.12"
         style="font-size:24px;text-align:center;line-height:89.99999762%;text-anchor:middle;fill:#ffffff;font-family:Ubuntu;-inkscape-font-specification:Ubuntu"
         id="path3050"
         inkscape:connector-curvature="0" />
    </g>
    <g
       transform="translate(-5722.3136,2813.7274)"
       style="font-size:20px;font-style:normal;font-weight:normal;line-height:125%;letter-spacing:0px;word-spacing:0px;fill:#2e4153;fill-opacity:1;stroke:none;font-family:Sans"
       id="flowRoot6520">
      <path
         d="m 176.43875,179.77932 0,-10.512 c 0,-0.27599 0.006,-0.47999 0.018,-0.612 0.024,-0.13199 0.078,-0.28199 0.162,-0.45 0.168,-0.32399 0.57,-0.48599 1.206,-0.486 0.636,1e-5 1.062,0.084 1.278,0.252 0.228,0.15601 0.36,0.39001 0.396,0.702 0.456,-0.62399 1.17,-0.93599 2.142,-0.936 0.98399,10e-6 1.91399,0.46201 2.79,1.386 0.87599,0.92401 1.31399,1.99801 1.314,3.222 -1e-5,1.224 -0.43801,2.298 -1.314,3.222 -0.86401,0.924 -1.78801,1.386 -2.772,1.386 -0.984,0 -1.698,-0.276 -2.142,-0.828 l 0,3.636 c 0,0.276 -0.012,0.48 -0.036,0.612 -0.012,0.132 -0.066,0.282 -0.162,0.45 -0.084,0.18 -0.234,0.306 -0.45,0.378 -0.216,0.072 -0.51,0.108 -0.882,0.108 -0.372,0 -0.672,-0.036 -0.9,-0.108 -0.216,-0.072 -0.372,-0.192 -0.468,-0.36 -0.084,-0.168 -0.138,-0.318 -0.162,-0.45 -0.012,-0.132 -0.018,-0.336 -0.018,-0.612 m 3.564,-8.478 c -0.276,0.32401 -0.414,0.67801 -0.414,1.062 0,0.384 0.138,0.738 0.414,1.062 0.288,0.312 0.648,0.468 1.08,0.468 0.44399,0 0.81599,-0.156 1.116,-0.468 0.31199,-0.312 0.46799,-0.666 0.468,-1.062 -1e-5,-0.39599 -0.14401,-0.74999 -0.432,-1.062 -0.28801,-0.32399 -0.66601,-0.48599 -1.134,-0.486 -0.456,10e-6 -0.822,0.16201 -1.098,0.486"
         style="font-size:18px;font-variant:normal;font-stretch:normal;fill:#2e4153;font-family:Fredoka One;-inkscape-font-specification:Fredoka One;fill-opacity:1"
         id="path6529"
         inkscape:connector-curvature="0" />
      <path
         d="m 193.35931,167.82732 c 0.228,0.072 0.41399,0.19801 0.558,0.378 0.15599,0.16801 0.23399,0.44401 0.234,0.828 -1e-5,0.38401 -0.11401,0.80401 -0.342,1.26 -0.228,0.45601 -0.558,0.68401 -0.99,0.684 -0.216,1e-5 -0.426,-0.048 -0.63,-0.144 -0.192,-0.096 -0.45,-0.14399 -0.774,-0.144 -0.324,1e-5 -0.63,0.11401 -0.918,0.342 -0.276,0.22801 -0.414,0.50401 -0.414,0.828 l 0,3.78 c 0,0.276 -0.012,0.486 -0.036,0.63 -0.012,0.132 -0.066,0.288 -0.162,0.468 -0.18,0.312 -0.648,0.468 -1.404,0.468 -0.576,0 -0.99,-0.102 -1.242,-0.306 -0.192,-0.168 -0.3,-0.426 -0.324,-0.774 0,-0.12 0,-0.294 0,-0.522 l 0,-6.318 c 0,-0.27599 0.006,-0.47999 0.018,-0.612 0.024,-0.14399 0.078,-0.29999 0.162,-0.468 0.168,-0.32399 0.636,-0.48599 1.404,-0.486 0.72,1e-5 1.17,0.13801 1.35,0.414 0.132,0.19201 0.198,0.39001 0.198,0.594 0.06,-0.084 0.144,-0.18599 0.252,-0.306 0.12,-0.11999 0.366,-0.28199 0.738,-0.486 0.372,-0.20399 0.696,-0.30599 0.972,-0.306 0.288,1e-5 0.528,0.018 0.72,0.054 0.192,0.024 0.402,0.072 0.63,0.144"
         style="font-size:18px;font-variant:normal;font-stretch:normal;fill:#2e4153;font-family:Fredoka One;-inkscape-font-specification:Fredoka One;fill-opacity:1"
         id="path6531"
         inkscape:connector-curvature="0" />
      <path
         d="m 195.14187,169.30332 c 0,-0.27599 0.006,-0.47999 0.018,-0.612 0.024,-0.14399 0.078,-0.30599 0.162,-0.486 0.168,-0.31199 0.636,-0.46799 1.404,-0.468 0.576,10e-6 0.984,0.10201 1.224,0.306 0.204,0.16801 0.312,0.42601 0.324,0.774 0.012,0.12001 0.018,0.29401 0.018,0.522 l 0,6.3 c 0,0.276 -0.012,0.486 -0.036,0.63 -0.012,0.132 -0.066,0.288 -0.162,0.468 -0.156,0.312 -0.618,0.468 -1.386,0.468 -0.756,0 -1.218,-0.162 -1.386,-0.486 -0.084,-0.18 -0.138,-0.336 -0.162,-0.468 -0.012,-0.132 -0.018,-0.342 -0.018,-0.63 l 0,-6.318 m 2.952,-3.33 c -0.084,0.16801 -0.24,0.28801 -0.468,0.36 -0.228,0.072 -0.534,0.10801 -0.918,0.108 -0.372,1e-5 -0.672,-0.036 -0.9,-0.108 -0.228,-0.072 -0.39,-0.19799 -0.486,-0.378 -0.084,-0.17999 -0.138,-0.33599 -0.162,-0.468 -0.012,-0.14399 -0.018,-0.35399 -0.018,-0.63 0,-0.27599 0.006,-0.47999 0.018,-0.612 0.024,-0.14399 0.078,-0.29999 0.162,-0.468 0.168,-0.32399 0.636,-0.48599 1.404,-0.486 0.756,10e-6 1.212,0.16201 1.368,0.486 0.096,0.18001 0.15,0.34201 0.162,0.486 0.024,0.13201 0.036,0.33601 0.036,0.612 0,0.27601 -0.012,0.48601 -0.036,0.63 -0.012,0.13201 -0.066,0.28801 -0.162,0.468"
         style="font-size:18px;font-variant:normal;font-stretch:normal;fill:#2e4153;font-family:Fredoka One;-inkscape-font-specification:Fredoka One;fill-opacity:1"
         id="path6533"
         inkscape:connector-curvature="0" />
      <path
         d="m 205.25534,170.90532 -1.17,-0.072 0,2.484 c 0,0.324 0.048,0.558 0.144,0.702 0.108,0.144 0.3,0.216 0.576,0.216 0.288,0 0.504,0.012 0.648,0.036 0.156,0.012 0.318,0.066 0.486,0.162 0.276,0.156 0.414,0.558 0.414,1.206 0,0.756 -0.168,1.218 -0.504,1.386 -0.18,0.084 -0.342,0.138 -0.486,0.162 -0.132,0.012 -0.33,0.018 -0.594,0.018 -1.248,0 -2.196,-0.282 -2.844,-0.846 -0.648,-0.564 -0.972,-1.518 -0.972,-2.862 l 0,-2.664 c -0.228,0.036 -0.474,0.054 -0.738,0.054 -0.264,1e-5 -0.486,-0.10199 -0.666,-0.306 -0.168,-0.20399 -0.252,-0.55199 -0.252,-1.044 0,-0.49199 0.03,-0.84599 0.09,-1.062 0.06,-0.22799 0.144,-0.38999 0.252,-0.486 0.192,-0.15599 0.432,-0.23399 0.72,-0.234 l 0.594,0.072 0,-1.854 c 0,-0.27599 0.006,-0.47999 0.018,-0.612 0.024,-0.13199 0.084,-0.27599 0.18,-0.432 0.156,-0.29999 0.618,-0.44999 1.386,-0.45 0.816,1e-5 1.302,0.22201 1.458,0.666 0.06,0.19201 0.09,0.49801 0.09,0.918 l 0,1.764 c 0.528,-0.048 0.924,-0.072 1.188,-0.072 0.276,10e-6 0.48,0.012 0.612,0.036 0.144,0.012 0.306,0.066 0.486,0.162 0.312,0.15601 0.468,0.61801 0.468,1.386 0,0.75601 -0.162,1.21801 -0.486,1.386 -0.18,0.084 -0.342,0.13801 -0.486,0.162 -0.132,0.012 -0.336,0.018 -0.612,0.018"
         style="font-size:18px;font-variant:normal;font-stretch:normal;fill:#2e4153;font-family:Fredoka One;-inkscape-font-specification:Fredoka One;fill-opacity:1"
         id="path6535"
         inkscape:connector-curvature="0" />
      <path
         d="m 212.04528,177.16932 c -1.212,0 -2.22,-0.456 -3.024,-1.368 -0.792,-0.924 -1.188,-2.046 -1.188,-3.366 l 0,-3.15 c 0,-0.28799 0.006,-0.49799 0.018,-0.63 0.024,-0.13199 0.078,-0.28799 0.162,-0.468 0.168,-0.32399 0.636,-0.48599 1.404,-0.486 0.84,1e-5 1.332,0.22801 1.476,0.684 0.072,0.19201 0.108,0.49801 0.108,0.918 l 0,3.15 c 0,0.492 0.138,0.876 0.414,1.152 0.288,0.276 0.666,0.414 1.134,0.414 0.48,0 0.86399,-0.144 1.152,-0.432 0.29999,-0.288 0.44999,-0.666 0.45,-1.134 l 0,-3.186 c -1e-5,-0.27599 0.006,-0.47999 0.018,-0.612 0.024,-0.14399 0.084,-0.30599 0.18,-0.486 0.15599,-0.31199 0.61799,-0.46799 1.386,-0.468 0.75599,1e-5 1.21799,0.16201 1.386,0.486 0.084,0.18001 0.13199,0.34201 0.144,0.486 0.024,0.13201 0.036,0.33601 0.036,0.612 l 0,6.372 c -1e-5,0.264 -0.012,0.468 -0.036,0.612 -0.012,0.132 -0.066,0.282 -0.162,0.45 -0.18001,0.312 -0.64201,0.468 -1.386,0.468 -0.73201,0 -1.18201,-0.144 -1.35,-0.432 -0.12001,-0.204 -0.18001,-0.45 -0.18,-0.738 -0.048,0.084 -0.15601,0.204 -0.324,0.36 -0.16801,0.156 -0.33001,0.288 -0.486,0.396 -0.408,0.264 -0.852,0.396 -1.332,0.396"
         style="font-size:18px;font-variant:normal;font-stretch:normal;fill:#2e4153;font-family:Fredoka One;-inkscape-font-specification:Fredoka One;fill-opacity:1"
         id="path6537"
         inkscape:connector-curvature="0" />
      <path
         d="m 224.00572,167.71932 c 1.19999,1e-5 2.19599,0.46201 2.988,1.386 0.80399,0.91201 1.20599,2.02801 1.206,3.348 l 0,3.168 c -1e-5,0.276 -0.012,0.486 -0.036,0.63 -0.012,0.132 -0.06,0.282 -0.144,0.45 -0.16801,0.324 -0.63601,0.486 -1.404,0.486 -0.85201,0 -1.34401,-0.222 -1.476,-0.666 -0.072,-0.204 -0.10801,-0.51 -0.108,-0.918 l 0,-3.168 c -1e-5,-0.49199 -0.14401,-0.87599 -0.432,-1.152 -0.27601,-0.27599 -0.65401,-0.41399 -1.134,-0.414 -0.46801,1e-5 -0.85201,0.14401 -1.152,0.432 -0.28801,0.28801 -0.43201,0.66601 -0.432,1.134 l 0,3.186 c -1e-5,0.276 -0.012,0.486 -0.036,0.63 -0.012,0.132 -0.066,0.282 -0.162,0.45 -0.156,0.324 -0.618,0.486 -1.386,0.486 -0.756,0 -1.218,-0.162 -1.386,-0.486 -0.084,-0.18 -0.138,-0.336 -0.162,-0.468 -0.012,-0.144 -0.018,-0.354 -0.018,-0.63 l 0,-6.372 c 0,-0.26399 0.006,-0.46199 0.018,-0.594 0.024,-0.14399 0.084,-0.29999 0.18,-0.468 0.168,-0.29999 0.63,-0.44999 1.386,-0.45 0.732,1e-5 1.182,0.13801 1.35,0.414 0.11999,0.20401 0.17999,0.45001 0.18,0.738 0.048,-0.084 0.15599,-0.20399 0.324,-0.36 0.16799,-0.15599 0.32999,-0.28199 0.486,-0.378 0.40799,-0.27599 0.85799,-0.41399 1.35,-0.414"
         style="font-size:18px;font-variant:normal;font-stretch:normal;fill:#2e4153;font-family:Fredoka One;-inkscape-font-specification:Fredoka One;fill-opacity:1"
         id="path6539"
         inkscape:connector-curvature="0" />
      <path
         d="m 229.63016,164.83932 c 0,-0.27599 0.006,-0.47999 0.018,-0.612 0.024,-0.14399 0.078,-0.30599 0.162,-0.486 0.168,-0.32399 0.63599,-0.48599 1.404,-0.486 0.73199,10e-6 1.18799,0.16201 1.368,0.486 0.096,0.18001 0.14999,0.34201 0.162,0.486 0.024,0.14401 0.036,0.35401 0.036,0.63 l 0,8.334 c -1e-5,0.432 0.036,0.708 0.108,0.828 0.072,0.108 0.22799,0.162 0.468,0.162 0.25199,0 0.41999,0.012 0.504,0.036 0.084,0.012 0.18599,0.06 0.306,0.144 0.23999,0.156 0.35999,0.582 0.36,1.278 -1e-5,0.756 -0.12001,1.218 -0.36,1.386 -0.31201,0.216 -1.05601,0.252 -2.232,0.108 -0.92401,-0.12 -1.52401,-0.426 -1.8,-0.918 -0.336,-0.588 -0.504,-1.524 -0.504,-2.808 l 0,-8.568"
         style="font-size:18px;font-variant:normal;font-stretch:normal;fill:#2e4153;font-family:Fredoka One;-inkscape-font-specification:Fredoka One;fill-opacity:1"
         id="path6541"
         inkscape:connector-curvature="0" />
    </g>
    <g
       style="font-size:40px;font-style:normal;font-weight:normal;line-height:89.99999762%;letter-spacing:0px;word-spacing:0px;fill:#ffffff;fill-opacity:1;stroke:none;font-family:Sans"
       id="text6543">
      <path
         d="m -5735.6131,3022.8673 c 0.192,0 0.408,0.016 0.648,0.048 0.256,0.016 0.504,0.048 0.744,0.096 0.24,0.032 0.456,0.072 0.648,0.12 0.208,0.032 0.36,0.064 0.456,0.096 l -0.384,1.944 c -0.176,-0.064 -0.472,-0.136 -0.888,-0.216 -0.4,-0.096 -0.92,-0.144 -1.56,-0.144 -0.416,0 -0.832,0.048 -1.248,0.144 -0.4,0.08 -0.664,0.136 -0.792,0.168 l 0,10.488 -2.232,0 0,-11.952 c 0.528,-0.192 1.184,-0.368 1.968,-0.528 0.784,-0.176 1.664,-0.264 2.64,-0.264"
         style="font-size:24px;font-variant:normal;font-stretch:normal;text-align:center;line-height:89.99999762%;text-anchor:middle;fill:#ffffff;font-family:Ubuntu;-inkscape-font-specification:Ubuntu"
         id="path3017" />
      <path
         d="m -5731.6359,3029.3953 c 0,-1.104 0.16,-2.064 0.48,-2.88 0.32,-0.832 0.744,-1.52 1.272,-2.064 0.528,-0.544 1.136,-0.952 1.824,-1.224 0.688,-0.272 1.392,-0.408 2.112,-0.408 1.68,0 2.968,0.528 3.864,1.584 0.896,1.04 1.344,2.632 1.344,4.776 0,0.096 0,0.224 0,0.384 0,0.144 -0.01,0.28 -0.024,0.408 l -8.544,0 c 0.096,1.296 0.472,2.28 1.128,2.952 0.656,0.672 1.68,1.008 3.072,1.008 0.784,0 1.44,-0.064 1.968,-0.192 0.544,-0.144 0.952,-0.28 1.224,-0.408 l 0.312,1.872 c -0.272,0.144 -0.752,0.296 -1.44,0.456 -0.672,0.16 -1.44,0.24 -2.304,0.24 -1.088,0 -2.032,-0.16 -2.832,-0.48 -0.784,-0.336 -1.432,-0.792 -1.944,-1.368 -0.512,-0.576 -0.896,-1.256 -1.152,-2.04 -0.24,-0.8 -0.36,-1.672 -0.36,-2.616 m 8.568,-1.224 c 0.016,-1.008 -0.24,-1.832 -0.768,-2.472 -0.512,-0.656 -1.224,-0.984 -2.136,-0.984 -0.512,0 -0.968,0.104 -1.368,0.312 -0.384,0.192 -0.712,0.448 -0.984,0.768 -0.272,0.32 -0.488,0.688 -0.648,1.104 -0.144,0.416 -0.24,0.84 -0.288,1.272 l 6.192,0"
         style="font-size:24px;font-variant:normal;font-stretch:normal;text-align:center;line-height:89.99999762%;text-anchor:middle;fill:#ffffff;font-family:Ubuntu;-inkscape-font-specification:Ubuntu"
         id="path3019" />
      <path
         d="m -5717.5336,3023.4913 c 0.512,-0.128 1.184,-0.264 2.016,-0.408 0.848,-0.144 1.824,-0.216 2.928,-0.216 0.8,0 1.472,0.112 2.016,0.336 0.544,0.208 1,0.52 1.368,0.936 0.112,-0.08 0.288,-0.192 0.528,-0.336 0.24,-0.144 0.536,-0.28 0.888,-0.408 0.352,-0.144 0.744,-0.264 1.176,-0.36 0.432,-0.112 0.896,-0.168 1.392,-0.168 0.96,0 1.744,0.144 2.352,0.432 0.608,0.272 1.08,0.664 1.416,1.176 0.352,0.512 0.584,1.12 0.696,1.824 0.128,0.704 0.192,1.472 0.192,2.304 l 0,7.008 -2.232,0 0,-6.528 c 0,-0.736 -0.04,-1.368 -0.12,-1.896 -0.064,-0.528 -0.2,-0.968 -0.408,-1.32 -0.192,-0.352 -0.464,-0.608 -0.816,-0.768 -0.336,-0.176 -0.776,-0.264 -1.32,-0.264 -0.752,0 -1.376,0.104 -1.872,0.312 -0.48,0.192 -0.808,0.368 -0.984,0.528 0.128,0.416 0.224,0.872 0.288,1.368 0.064,0.496 0.096,1.016 0.096,1.56 l 0,7.008 -2.232,0 0,-6.528 c 0,-0.736 -0.04,-1.368 -0.12,-1.896 -0.08,-0.528 -0.224,-0.968 -0.432,-1.32 -0.192,-0.352 -0.464,-0.608 -0.816,-0.768 -0.336,-0.176 -0.768,-0.264 -1.296,-0.264 -0.224,0 -0.464,0.01 -0.72,0.024 -0.256,0.016 -0.504,0.04 -0.744,0.072 -0.224,0.016 -0.432,0.04 -0.624,0.072 -0.192,0.032 -0.32,0.056 -0.384,0.072 l 0,10.536 -2.232,0 0,-12.12"
         style="font-size:24px;font-variant:normal;font-stretch:normal;text-align:center;line-height:89.99999762%;text-anchor:middle;fill:#ffffff;font-family:Ubuntu;-inkscape-font-specification:Ubuntu"
         id="path3021" />
      <path
         d="m -5685.8457,3029.3713 c -1e-4,0.992 -0.1441,1.888 -0.432,2.688 -0.2881,0.8 -0.6961,1.488 -1.224,2.064 -0.512,0.576 -1.128,1.024 -1.848,1.344 -0.72,0.304 -1.504,0.456 -2.352,0.456 -0.848,0 -1.632,-0.152 -2.352,-0.456 -0.72,-0.32 -1.344,-0.768 -1.872,-1.344 -0.512,-0.576 -0.912,-1.264 -1.2,-2.064 -0.288,-0.8 -0.432,-1.696 -0.432,-2.688 0,-0.976 0.144,-1.864 0.432,-2.664 0.288,-0.816 0.688,-1.512 1.2,-2.088 0.528,-0.576 1.152,-1.016 1.872,-1.32 0.72,-0.32 1.504,-0.48 2.352,-0.48 0.848,0 1.632,0.16 2.352,0.48 0.72,0.304 1.336,0.744 1.848,1.32 0.5279,0.576 0.9359,1.272 1.224,2.088 0.2879,0.8 0.4319,1.688 0.432,2.664 m -2.328,0 c 0,-1.408 -0.32,-2.52 -0.96,-3.336 -0.624,-0.832 -1.48,-1.248 -2.568,-1.248 -1.088,0 -1.952,0.416 -2.592,1.248 -0.624,0.816 -0.936,1.928 -0.936,3.336 0,1.408 0.312,2.528 0.936,3.36 0.64,0.816 1.504,1.224 2.592,1.224 1.088,0 1.944,-0.408 2.568,-1.224 0.64,-0.832 0.96,-1.952 0.96,-3.36"
         style="font-size:24px;font-variant:normal;font-stretch:normal;text-align:center;line-height:89.99999762%;text-anchor:middle;fill:#ffffff;font-family:Ubuntu;-inkscape-font-specification:Ubuntu"
         id="path3023" />
      <path
         d="m -5680.6175,3023.1313 4.728,0 0,1.872 -4.728,0 0,5.76 c 0,0.624 0.048,1.144 0.144,1.56 0.096,0.4 0.24,0.72 0.432,0.96 0.192,0.224 0.432,0.384 0.72,0.48 0.288,0.096 0.624,0.144 1.008,0.144 0.672,0 1.208,-0.072 1.608,-0.216 0.416,-0.16 0.704,-0.272 0.864,-0.336 l 0.432,1.848 c -0.224,0.112 -0.616,0.248 -1.176,0.408 -0.56,0.176 -1.2,0.264 -1.92,0.264 -0.848,0 -1.552,-0.104 -2.112,-0.312 -0.544,-0.224 -0.984,-0.552 -1.32,-0.984 -0.336,-0.432 -0.576,-0.96 -0.72,-1.584 -0.128,-0.64 -0.192,-1.376 -0.192,-2.208 l 0,-11.136 2.232,-0.384 0,3.864"
         style="font-size:24px;font-variant:normal;font-stretch:normal;text-align:center;line-height:89.99999762%;text-anchor:middle;fill:#ffffff;font-family:Ubuntu;-inkscape-font-specification:Ubuntu"
         id="path3025" />
      <path
         d="m -5673.9796,3029.3953 c 0,-1.104 0.16,-2.064 0.48,-2.88 0.32,-0.832 0.744,-1.52 1.272,-2.064 0.528,-0.544 1.136,-0.952 1.824,-1.224 0.688,-0.272 1.392,-0.408 2.112,-0.408 1.68,0 2.968,0.528 3.864,1.584 0.896,1.04 1.344,2.632 1.344,4.776 0,0.096 0,0.224 0,0.384 0,0.144 -0.01,0.28 -0.024,0.408 l -8.544,0 c 0.096,1.296 0.472,2.28 1.128,2.952 0.656,0.672 1.68,1.008 3.072,1.008 0.784,0 1.44,-0.064 1.968,-0.192 0.544,-0.144 0.952,-0.28 1.224,-0.408 l 0.312,1.872 c -0.272,0.144 -0.752,0.296 -1.44,0.456 -0.672,0.16 -1.44,0.24 -2.304,0.24 -1.088,0 -2.032,-0.16 -2.832,-0.48 -0.784,-0.336 -1.432,-0.792 -1.944,-1.368 -0.512,-0.576 -0.896,-1.256 -1.152,-2.04 -0.24,-0.8 -0.36,-1.672 -0.36,-2.616 m 8.568,-1.224 c 0.016,-1.008 -0.24,-1.832 -0.768,-2.472 -0.512,-0.656 -1.224,-0.984 -2.136,-0.984 -0.512,0 -0.968,0.104 -1.368,0.312 -0.384,0.192 -0.712,0.448 -0.984,0.768 -0.272,0.32 -0.488,0.688 -0.648,1.104 -0.144,0.416 -0.24,0.84 -0.288,1.272 l 6.192,0"
         style="font-size:24px;font-variant:normal;font-stretch:normal;text-align:center;line-height:89.99999762%;text-anchor:middle;fill:#ffffff;font-family:Ubuntu;-inkscape-font-specification:Ubuntu"
         id="path3027" />
      <path
         d="m -5713.6914,3056.8513 c -0.512,0.128 -1.192,0.264 -2.04,0.408 -0.832,0.144 -1.8,0.216 -2.904,0.216 -0.96,0 -1.768,-0.136 -2.424,-0.408 -0.656,-0.288 -1.184,-0.688 -1.584,-1.2 -0.4,-0.512 -0.688,-1.112 -0.864,-1.8 -0.176,-0.704 -0.264,-1.48 -0.264,-2.328 l 0,-7.008 2.232,0 0,6.528 c 0,1.52 0.24,2.608 0.72,3.264 0.48,0.656 1.288,0.984 2.424,0.984 0.24,0 0.488,-0.01 0.744,-0.024 0.256,-0.016 0.496,-0.032 0.72,-0.048 0.224,-0.032 0.424,-0.056 0.6,-0.072 0.192,-0.032 0.328,-0.064 0.408,-0.096 l 0,-10.536 2.232,0 0,12.12"
         style="font-size:24px;font-variant:normal;font-stretch:normal;text-align:center;line-height:89.99999762%;text-anchor:middle;fill:#ffffff;font-family:Ubuntu;-inkscape-font-specification:Ubuntu"
         id="path3029" />
      <path
         d="m -5706.9421,3055.6033 c 0.912,0 1.584,-0.12 2.016,-0.36 0.448,-0.24 0.672,-0.624 0.672,-1.152 0,-0.544 -0.216,-0.976 -0.648,-1.296 -0.432,-0.32 -1.144,-0.68 -2.136,-1.08 -0.48,-0.192 -0.944,-0.384 -1.392,-0.576 -0.432,-0.208 -0.808,-0.448 -1.128,-0.72 -0.32,-0.272 -0.576,-0.6 -0.768,-0.984 -0.192,-0.384 -0.288,-0.856 -0.288,-1.416 0,-1.104 0.408,-1.976 1.224,-2.616 0.816,-0.656 1.928,-0.984 3.336,-0.984 0.352,0 0.704,0.024 1.056,0.072 0.352,0.032 0.68,0.08 0.984,0.144 0.304,0.048 0.568,0.104 0.792,0.168 0.24,0.064 0.424,0.12 0.552,0.168 l -0.408,1.92 c -0.24,-0.128 -0.616,-0.256 -1.128,-0.384 -0.512,-0.144 -1.128,-0.216 -1.848,-0.216 -0.624,0 -1.168,0.128 -1.632,0.384 -0.464,0.24 -0.696,0.624 -0.696,1.152 0,0.272 0.048,0.512 0.144,0.72 0.112,0.208 0.272,0.4 0.48,0.576 0.224,0.16 0.496,0.312 0.816,0.456 0.32,0.144 0.704,0.296 1.152,0.456 0.592,0.224 1.12,0.448 1.584,0.672 0.464,0.208 0.856,0.456 1.176,0.744 0.336,0.288 0.592,0.64 0.768,1.056 0.176,0.4 0.264,0.896 0.264,1.488 0,1.152 -0.432,2.024 -1.296,2.616 -0.848,0.592 -2.064,0.888 -3.648,0.888 -1.104,0 -1.968,-0.096 -2.592,-0.288 -0.624,-0.176 -1.048,-0.312 -1.272,-0.408 l 0.408,-1.92 c 0.256,0.096 0.664,0.24 1.224,0.432 0.56,0.192 1.304,0.288 2.232,0.288"
         style="font-size:24px;font-variant:normal;font-stretch:normal;text-align:center;line-height:89.99999762%;text-anchor:middle;fill:#ffffff;font-family:Ubuntu;-inkscape-font-specification:Ubuntu"
         id="path3031" />
      <path
         d="m -5699.8546,3050.9953 c 0,-1.104 0.16,-2.064 0.48,-2.88 0.32,-0.832 0.744,-1.52 1.272,-2.064 0.528,-0.544 1.136,-0.952 1.824,-1.224 0.688,-0.272 1.392,-0.408 2.112,-0.408 1.68,0 2.968,0.528 3.864,1.584 0.896,1.04 1.344,2.632 1.344,4.776 0,0.096 0,0.224 0,0.384 0,0.144 -0.01,0.28 -0.024,0.408 l -8.544,0 c 0.096,1.296 0.472,2.28 1.128,2.952 0.656,0.672 1.68,1.008 3.072,1.008 0.784,0 1.44,-0.064 1.968,-0.192 0.544,-0.144 0.952,-0.28 1.224,-0.408 l 0.312,1.872 c -0.272,0.144 -0.752,0.296 -1.44,0.456 -0.672,0.16 -1.44,0.24 -2.304,0.24 -1.088,0 -2.032,-0.16 -2.832,-0.48 -0.784,-0.336 -1.432,-0.792 -1.944,-1.368 -0.512,-0.576 -0.896,-1.256 -1.152,-2.04 -0.24,-0.8 -0.36,-1.672 -0.36,-2.616 m 8.568,-1.224 c 0.016,-1.008 -0.24,-1.832 -0.768,-2.472 -0.512,-0.656 -1.224,-0.984 -2.136,-0.984 -0.512,0 -0.968,0.104 -1.368,0.312 -0.384,0.192 -0.712,0.448 -0.984,0.768 -0.272,0.32 -0.488,0.688 -0.648,1.104 -0.144,0.416 -0.24,0.84 -0.288,1.272 l 6.192,0"
         style="font-size:24px;font-variant:normal;font-stretch:normal;text-align:center;line-height:89.99999762%;text-anchor:middle;fill:#ffffff;font-family:Ubuntu;-inkscape-font-specification:Ubuntu"
         id="path3033" />
      <path
         d="m -5681.1444,3044.4673 c 0.192,0 0.408,0.016 0.648,0.048 0.256,0.016 0.504,0.048 0.744,0.096 0.24,0.032 0.456,0.072 0.648,0.12 0.208,0.032 0.36,0.064 0.456,0.096 l -0.384,1.944 c -0.176,-0.064 -0.472,-0.136 -0.888,-0.216 -0.4,-0.096 -0.92,-0.144 -1.56,-0.144 -0.416,0 -0.832,0.048 -1.248,0.144 -0.4,0.08 -0.664,0.136 -0.792,0.168 l 0,10.488 -2.232,0 0,-11.952 c 0.528,-0.192 1.184,-0.368 1.968,-0.528 0.784,-0.176 1.664,-0.264 2.64,-0.264"
         style="font-size:24px;font-variant:normal;font-stretch:normal;text-align:center;line-height:89.99999762%;text-anchor:middle;fill:#ffffff;font-family:Ubuntu;-inkscape-font-specification:Ubuntu"
         id="path3035" />
    </g>
    <g
       id="g6653"
       transform="matrix(0.02447857,0,0,-0.02447857,-5618.34,2989.2112)"
       style="fill:#ffffff;fill-opacity:1">
      <path
         id="path6655"
         d="m 320,768 h 512 v 192 q 0,106 -75,181 -75,75 -181,75 -106,0 -181,-75 -75,-75 -75,-181 V 768 z m 832,-96 V 96 Q 1152,56 1124,28 1096,0 1056,0 H 96 Q 56,0 28,28 0,56 0,96 v 576 q 0,40 28,68 28,28 68,28 h 32 v 192 q 0,184 132,316 132,132 316,132 184,0 316,-132 132,-132 132,-316 V 768 h 32 q 40,0 68,-28 28,-28 28,-68 z"
         inkscape:connector-curvature="0"
         style="fill:#ffffff;fill-opacity:1" />
    </g>
    <path
       style="fill:none;stroke:#ffffff;stroke-width:5.09999990000000025;stroke-linecap:butt;stroke-linejoin:miter;stroke-miterlimit:4;stroke-opacity:1;stroke-dasharray:10.19999999999999929, 5.09999999999999964;stroke-dashoffset:0"
       d="m -5394.5501,2978.4966 35.6258,-29.9123 9.7197,-8.1609"
       id="path6710"
       inkscape:connector-curvature="0"
       sodipodi:nodetypes="ccc" />
    <path
       style="fill:none;stroke:#ffffff;stroke-width:5.09999990000000025;stroke-linecap:butt;stroke-linejoin:miter;stroke-miterlimit:4;stroke-opacity:1;stroke-dasharray:10.19999999999999929, 5.09999999999999964;stroke-dashoffset:0"
       d="m -5395.2528,2978.5001 44.2916,36.106"
       id="path6712"
       inkscape:connector-curvature="0" />
  </g>
</svg>
